<?xml version="1.0" encoding="UTF-8" standalone="no"?>
<!-- Created with Inkscape (http://www.inkscape.org/) -->

<svg
   version="1.1"
   id="svg2"
   width="895.61334"
   height="222.60001"
   viewBox="0 0 895.61334 222.60001"
   sodipodi:docname="logosbeneficaireserasmusleft_sv_0.eps"
   xmlns:inkscape="http://www.inkscape.org/namespaces/inkscape"
   xmlns:sodipodi="http://sodipodi.sourceforge.net/DTD/sodipodi-0.dtd"
   xmlns="http://www.w3.org/2000/svg"
   xmlns:svg="http://www.w3.org/2000/svg">
  <defs
     id="defs6" />
  <sodipodi:namedview
     id="namedview4"
     pagecolor="#ffffff"
     bordercolor="#000000"
     borderopacity="0.25"
     inkscape:showpageshadow="2"
     inkscape:pageopacity="0.0"
     inkscape:pagecheckerboard="0"
     inkscape:deskcolor="#d1d1d1" />
  <g
     id="g8"
     inkscape:groupmode="layer"
     inkscape:label="ink_ext_XXXXXX"
     transform="matrix(1.3333333,0,0,-1.3333333,0,222.6)">
    <g
       id="g10"
       transform="scale(0.1)">
      <path
         d="M 6717.13,0 V 1669.52 H 4238.92 V 0 h 2478.21"
         style="fill:#2d49a3;fill-opacity:1;fill-rule:nonzero;stroke:none"
         id="path12" />
      <path
         d="m 6099.39,861.59 -25.85,0.527 -38.25,0.723 -12.52,34.094 -8.1,21.785 -7.97,-21.785 -12.42,-34.094 -38.24,-0.723 -25.84,-0.527 21.09,-15.195 30.14,-21.629 -10.96,-34.133 -7.52,-23.242 20.39,13.457 31.33,20.742 31.7,-20.742 20.13,-13.457 -7.38,23.242 -10.86,34.133 30.04,21.629 21.09,15.195"
         style="fill:#f3f020;fill-opacity:1;fill-rule:nonzero;stroke:none"
         id="path14" />
      <path
         d="m 6099.39,861.59 -25.85,0.527 -38.25,0.723 -12.52,34.094 -8.1,21.785 -7.97,-21.785 -12.42,-34.094 -38.24,-0.723 -25.84,-0.527 21.09,-15.195 30.14,-21.629 -10.96,-34.133 -7.52,-23.242 20.39,13.457 31.33,20.742 31.7,-20.742 20.13,-13.457 -7.38,23.242 -10.86,34.133 30.04,21.629 z"
         style="fill:none;stroke:#f3f020;stroke-width:11.064;stroke-linecap:butt;stroke-linejoin:miter;stroke-miterlimit:4;stroke-dasharray:none;stroke-opacity:1"
         id="path16" />
      <path
         d="m 5909.57,1093.95 -10.84,-34.18 -7.38,-23.18 20.25,13.28 31.47,21.04 31.7,-21.04 20,-13.28 -7.27,23.18 -10.96,34.18 30.04,21.64 21.19,15.2 -25.84,0.47 -38.38,0.6 -12.38,34.18 -8.1,22 -8.01,-22 -12.36,-34.18 -38.27,-0.6 -25.86,-0.47 20.98,-15.2 30.02,-21.64"
         style="fill:#f3f020;fill-opacity:1;fill-rule:nonzero;stroke:none"
         id="path18" />
      <path
         d="m 5909.57,1093.95 -10.84,-34.18 -7.38,-23.18 20.25,13.28 31.47,21.04 31.7,-21.04 20,-13.28 -7.27,23.18 -10.96,34.18 30.04,21.64 21.19,15.2 -25.84,0.47 -38.38,0.6 -12.38,34.18 -8.1,22 -8.01,-22 -12.36,-34.18 -38.27,-0.6 -25.86,-0.47 20.98,-15.2 z"
         style="fill:none;stroke:#f3f020;stroke-width:11.064;stroke-linecap:butt;stroke-linejoin:miter;stroke-miterlimit:4;stroke-dasharray:none;stroke-opacity:1"
         id="path20" />
      <path
         d="m 5768.85,1327.64 -12.52,34.13 -8.11,21.93 -7.97,-21.93 -12.4,-34.13 -38.24,-0.66 -26,-0.59 21.21,-15.13 30.16,-21.69 -10.96,-34.14 -7.52,-23.19 20.38,13.24 31.34,20.91 31.58,-20.91 20.28,-13.24 -7.52,23.19 -10.74,34.14 30.04,21.69 21.07,15.13 -25.72,0.59 -38.36,0.66"
         style="fill:#f3f020;fill-opacity:1;fill-rule:nonzero;stroke:none"
         id="path22" />
      <path
         d="m 5768.85,1327.64 -12.52,34.13 -8.11,21.93 -7.97,-21.93 -12.4,-34.13 -38.24,-0.66 -26,-0.59 21.21,-15.13 30.16,-21.69 -10.96,-34.14 -7.52,-23.19 20.38,13.24 31.34,20.91 31.58,-20.91 20.28,-13.24 -7.52,23.19 -10.74,34.14 30.04,21.69 21.07,15.13 -25.72,0.59 z"
         style="fill:none;stroke:#f3f020;stroke-width:11.064;stroke-linecap:butt;stroke-linejoin:miter;stroke-miterlimit:4;stroke-dasharray:none;stroke-opacity:1"
         id="path24" />
      <path
         d="m 5496.45,1399.85 -12.52,34.03 -8.13,21.92 -7.85,-21.92 -12.52,-34.03 -38.24,-0.84 -25.98,-0.41 21.21,-15.19 30.04,-21.75 -10.86,-34.2 -7.5,-23.12 20.26,13.23 31.44,20.97 31.7,-20.97 20.14,-13.23 -7.37,23.12 -10.86,34.2 30.04,21.75 20.96,15.19 -25.72,0.41 -38.24,0.84"
         style="fill:#f3f020;fill-opacity:1;fill-rule:nonzero;stroke:none"
         id="path26" />
      <path
         d="m 5496.45,1399.85 -12.52,34.03 -8.13,21.92 -7.85,-21.92 -12.52,-34.03 -38.24,-0.84 -25.98,-0.41 21.21,-15.19 30.04,-21.75 -10.86,-34.2 -7.5,-23.12 20.26,13.23 31.44,20.97 31.7,-20.97 20.14,-13.23 -7.37,23.12 -10.86,34.2 30.04,21.75 20.96,15.19 -25.72,0.41 z"
         style="fill:none;stroke:#f3f020;stroke-width:11.064;stroke-linecap:butt;stroke-linejoin:miter;stroke-miterlimit:4;stroke-dasharray:none;stroke-opacity:1"
         id="path28" />
      <path
         d="m 5226.41,1327.64 -12.52,34.13 -7.85,21.93 -7.99,-21.93 -12.5,-34.13 -38.26,-0.66 -25.98,-0.41 21.09,-15.25 30.16,-21.63 -10.86,-34.14 -7.48,-23.31 20.23,13.47 31.59,20.8 31.34,-20.8 20.26,-13.47 -7.39,23.31 -10.86,34.14 30.04,21.63 21.21,15.25 -25.97,0.41 -38.26,0.66"
         style="fill:#f3f020;fill-opacity:1;fill-rule:nonzero;stroke:none"
         id="path30" />
      <path
         d="m 5226.41,1327.64 -12.52,34.13 -7.85,21.93 -7.99,-21.93 -12.5,-34.13 -38.26,-0.66 -25.98,-0.41 21.09,-15.25 30.16,-21.63 -10.86,-34.14 -7.48,-23.31 20.23,13.47 31.59,20.8 31.34,-20.8 20.26,-13.47 -7.39,23.31 -10.86,34.14 30.04,21.63 21.21,15.25 -25.97,0.41 z"
         style="fill:none;stroke:#f3f020;stroke-width:11.064;stroke-linecap:butt;stroke-linejoin:miter;stroke-miterlimit:4;stroke-dasharray:none;stroke-opacity:1"
         id="path32" />
      <path
         d="m 5029.8,1133.93 -12.3,34.04 -7.97,21.85 -8.08,-21.85 -12.41,-34.04 -38.26,-0.7 -25.86,-0.49 21.1,-15.25 30.03,-21.68 -10.95,-34.08 -7.29,-23.25 20.02,13.34 31.58,20.86 31.59,-20.86 20.13,-13.34 -7.4,23.25 -10.84,34.08 30.16,21.68 20.97,15.25 -25.88,0.49 -38.34,0.7"
         style="fill:#f3f020;fill-opacity:1;fill-rule:nonzero;stroke:none"
         id="path34" />
      <path
         d="m 5029.8,1133.93 -12.3,34.04 -7.97,21.85 -8.08,-21.85 -12.41,-34.04 -38.26,-0.7 -25.86,-0.49 21.1,-15.25 30.03,-21.68 -10.95,-34.08 -7.29,-23.25 20.02,13.34 31.58,20.86 31.59,-20.86 20.13,-13.34 -7.4,23.25 -10.84,34.08 30.16,21.68 20.97,15.25 -25.88,0.49 z"
         style="fill:none;stroke:#f3f020;stroke-width:11.064;stroke-linecap:butt;stroke-linejoin:miter;stroke-miterlimit:4;stroke-dasharray:none;stroke-opacity:1"
         id="path36" />
      <path
         d="m 4967.46,781.336 20.25,-13.457 -7.36,23.351 -10.86,34.083 30.02,21.675 21.1,15.129 -25.84,0.547 -38.27,0.652 -12.5,34.036 -7.98,21.855 -8.01,-21.855 -12.5,-34.036 -38.24,-0.652 -25.86,-0.547 20.95,-15.129 30.16,-21.675 -10.84,-34.083 -7.38,-23.351 20.11,13.457 31.61,20.852 31.44,-20.852"
         style="fill:#f3f020;fill-opacity:1;fill-rule:nonzero;stroke:none"
         id="path38" />
      <path
         d="m 4967.46,781.336 20.25,-13.457 -7.36,23.351 -10.86,34.083 30.02,21.675 21.1,15.129 -25.84,0.547 -38.27,0.652 -12.5,34.036 -7.98,21.855 -8.01,-21.855 -12.5,-34.036 -38.24,-0.652 -25.86,-0.547 20.95,-15.129 30.16,-21.675 -10.84,-34.083 -7.38,-23.351 20.11,13.457 31.61,20.852 z"
         style="fill:none;stroke:#f3f020;stroke-width:11.064;stroke-linecap:butt;stroke-linejoin:miter;stroke-miterlimit:4;stroke-dasharray:none;stroke-opacity:1"
         id="path40" />
      <path
         d="m 5028.95,596.27 -12.5,33.96 -7.88,21.879 -8.1,-21.879 -12.5,-33.96 -38.24,-0.829 -25.86,-0.582 21.07,-15.019 30.04,-21.809 -10.86,-34.09 -7.5,-23.043 20.26,13.161 31.46,20.839 31.58,-20.839 20.14,-13.278 -7.38,23.16 -10.73,34.09 30.02,21.809 20.98,15.019 -25.86,0.582 -38.14,0.829"
         style="fill:#f3f020;fill-opacity:1;fill-rule:nonzero;stroke:none"
         id="path42" />
      <path
         d="m 5028.95,596.27 -12.5,33.96 -7.88,21.879 -8.1,-21.879 -12.5,-33.96 -38.24,-0.829 -25.86,-0.582 21.07,-15.019 30.04,-21.809 -10.86,-34.09 -7.5,-23.043 20.26,13.161 31.46,20.839 31.58,-20.839 20.14,-13.278 -7.38,23.16 -10.73,34.09 30.02,21.809 20.98,15.019 -25.86,0.582 z"
         style="fill:none;stroke:#f3f020;stroke-width:11.064;stroke-linecap:butt;stroke-linejoin:miter;stroke-miterlimit:4;stroke-dasharray:none;stroke-opacity:1"
         id="path44" />
      <path
         d="m 5224.02,400.73 -12.38,34.2 -7.99,21.859 -8.1,-21.859 -12.39,-34.2 -38.37,-0.601 -25.86,-0.59 21.21,-15.141 29.9,-21.687 -10.72,-34.063 -7.5,-23.25 20.11,13.231 31.72,20.922 31.33,-20.922 20.39,-13.231 -7.52,23.25 -10.82,34.063 30.02,21.687 21.21,15.141 -25.97,0.59 -38.27,0.601"
         style="fill:#f3f020;fill-opacity:1;fill-rule:nonzero;stroke:none"
         id="path46" />
      <path
         d="m 5224.02,400.73 -12.38,34.2 -7.99,21.859 -8.1,-21.859 -12.39,-34.2 -38.37,-0.601 -25.86,-0.59 21.21,-15.141 29.9,-21.687 -10.72,-34.063 -7.5,-23.25 20.11,13.231 31.72,20.922 31.33,-20.922 20.39,-13.231 -7.52,23.25 -10.82,34.063 30.02,21.687 21.21,15.141 -25.97,0.59 z"
         style="fill:none;stroke:#f3f020;stroke-width:11.064;stroke-linecap:butt;stroke-linejoin:miter;stroke-miterlimit:4;stroke-dasharray:none;stroke-opacity:1"
         id="path48" />
      <path
         d="m 5496.19,328.582 -12.38,33.898 -8.13,21.989 -7.85,-21.989 -12.52,-33.898 -38.24,-0.781 -26,-0.602 21.1,-15.25 30.17,-21.551 -10.97,-34.089 -7.27,-23.297 20.14,13.386 31.44,20.922 31.61,-20.922 20.13,-13.386 -7.26,23.297 -10.98,34.089 30.04,21.551 21.07,15.25 -25.72,0.602 -38.38,0.781"
         style="fill:#f3f020;fill-opacity:1;fill-rule:nonzero;stroke:none"
         id="path50" />
      <path
         d="m 5496.19,328.582 -12.38,33.898 -8.13,21.989 -7.85,-21.989 -12.52,-33.898 -38.24,-0.781 -26,-0.602 21.1,-15.25 30.17,-21.551 -10.97,-34.089 -7.27,-23.297 20.14,13.386 31.44,20.922 31.61,-20.922 20.13,-13.386 -7.26,23.297 -10.98,34.089 30.04,21.551 21.07,15.25 -25.72,0.602 z"
         style="fill:none;stroke:#f3f020;stroke-width:11.064;stroke-linecap:butt;stroke-linejoin:miter;stroke-miterlimit:4;stroke-dasharray:none;stroke-opacity:1"
         id="path52" />
      <path
         d="m 5766.35,399.422 -12.52,34.078 -7.99,21.871 -7.99,-21.871 -12.4,-34.078 -38.24,-0.844 -25.98,-0.476 21.23,-15.122 30.02,-21.679 -10.86,-34.102 -7.38,-23.23 20.14,13.242 31.46,20.898 31.58,-20.898 20.02,-13.242 -7.15,23.23 -10.86,34.102 29.91,21.679 21.11,15.122 -25.86,0.476 -38.24,0.844"
         style="fill:#f3f020;fill-opacity:1;fill-rule:nonzero;stroke:none"
         id="path54" />
      <path
         d="m 5766.35,399.422 -12.52,34.078 -7.99,21.871 -7.99,-21.871 -12.4,-34.078 -38.24,-0.844 -25.98,-0.476 21.23,-15.122 30.02,-21.679 -10.86,-34.102 -7.38,-23.23 20.14,13.242 31.46,20.898 31.58,-20.898 20.02,-13.242 -7.15,23.23 -10.86,34.102 29.91,21.679 21.11,15.122 -25.86,0.476 z"
         style="fill:none;stroke:#f3f020;stroke-width:11.064;stroke-linecap:butt;stroke-linejoin:miter;stroke-miterlimit:4;stroke-dasharray:none;stroke-opacity:1"
         id="path56" />
      <path
         d="m 5962.6,593.879 -12.52,34.109 -7.97,21.782 -7.99,-21.782 -12.52,-34.109 -38.26,-0.699 -25.84,-0.489 21.19,-15.25 29.94,-21.621 -10.84,-34.199 -7.28,-23.172 20.04,13.34 31.56,20.852 31.56,-20.852 20.04,-13.34 -7.4,23.172 -10.72,34.199 30.04,21.621 21.09,15.25 -25.88,0.489 -38.24,0.699"
         style="fill:#f3f020;fill-opacity:1;fill-rule:nonzero;stroke:none"
         id="path58" />
      <path
         d="m 5962.6,593.879 -12.52,34.109 -7.97,21.782 -7.99,-21.782 -12.52,-34.109 -38.26,-0.699 -25.84,-0.489 21.19,-15.25 29.94,-21.621 -10.84,-34.199 -7.28,-23.172 20.04,13.34 31.56,20.852 31.56,-20.852 20.04,-13.34 -7.4,23.172 -10.72,34.199 30.04,21.621 21.09,15.25 -25.88,0.489 z"
         style="fill:none;stroke:#f3f020;stroke-width:11.064;stroke-linecap:butt;stroke-linejoin:miter;stroke-miterlimit:4;stroke-dasharray:none;stroke-opacity:1"
         id="path60" />
      <path
         d="m 0,1261.18 v 357.91 h 71.2891 l 84.7189,-253.42 c 7.808,-23.61 13.504,-41.27 17.09,-52.99 4.058,13.03 10.41,32.15 19.043,57.39 l 85.691,249.02 h 63.723 v -357.91 h -45.657 v 299.55 L 191.895,1261.18 H 149.172 L 45.6563,1565.87 V 1261.18 H 0"
         style="fill:#2d49a3;fill-opacity:1;fill-rule:nonzero;stroke:none"
         id="path62" />
      <path
         d="m 445.559,1415.71 h 144.773 c -1.953,21.82 -7.488,38.17 -16.602,49.08 -14.003,16.92 -32.148,25.39 -54.445,25.39 -20.183,0 -37.144,-6.75 -50.906,-20.27 -13.75,-13.51 -21.359,-31.57 -22.82,-54.2 z m 144.285,-71.03 45.41,-5.63 c -7.168,-26.52 -20.43,-47.11 -39.793,-61.76 -19.375,-14.65 -44.113,-21.97 -74.223,-21.97 -37.925,0 -67.996,11.67 -90.203,35.03 -22.226,23.35 -33.332,56.1 -33.332,98.27 0,43.61 11.235,77.46 33.692,101.56 22.46,24.09 51.593,36.14 87.406,36.14 34.668,0 62.984,-11.81 84.961,-35.41 21.968,-23.6 32.957,-56.8 32.957,-99.61 0,-2.6 -0.086,-6.51 -0.242,-11.72 H 443.113 c 1.621,-28.48 9.68,-50.29 24.172,-65.43 14.485,-15.14 32.551,-22.7 54.199,-22.7 16.114,0 29.864,4.22 41.258,12.7 11.391,8.46 20.422,21.97 27.102,40.53"
         style="fill:#2d49a3;fill-opacity:1;fill-rule:nonzero;stroke:none"
         id="path64" />
      <path
         d="m 719.727,1390.57 c 0,-33.2 6.992,-58.02 20.996,-74.47 13.996,-16.43 30.515,-24.65 49.558,-24.65 19.199,0 35.532,7.85 48.949,23.56 13.438,15.7 20.145,39.67 20.145,71.89 0,35.49 -6.836,61.53 -20.508,78.13 -13.672,16.6 -30.515,24.9 -50.539,24.9 -19.527,0 -35.848,-7.97 -48.941,-23.93 -13.11,-15.94 -19.66,-41.09 -19.66,-75.43 z m 138.918,-129.39 v 32.71 c -16.45,-25.72 -40.618,-38.57 -72.512,-38.57 -20.672,0 -39.68,5.7 -57,17.09 -17.348,11.39 -30.766,27.3 -40.293,47.73 -9.516,20.41 -14.277,43.89 -14.277,70.43 0,25.88 4.304,49.36 12.937,70.43 8.621,21.08 21.563,37.23 38.816,48.46 17.247,11.23 36.536,16.86 57.864,16.86 15.625,0 29.543,-3.3 41.75,-9.89 12.207,-6.6 22.129,-15.19 29.785,-25.76 v 128.42 h 43.699 v -357.91 h -40.769"
         style="fill:#2d49a3;fill-opacity:1;fill-rule:nonzero;stroke:none"
         id="path66" />
      <path
         d="m 979.004,1261.18 v 225.1 h -38.816 v 34.18 h 38.816 v 27.58 c 0,17.42 1.543,30.35 4.641,38.82 4.226,11.39 11.675,20.63 22.335,27.71 10.66,7.08 25.59,10.61 44.8,10.61 12.36,0 26.04,-1.46 41.02,-4.39 l -6.59,-38.32 c -9.13,1.62 -17.75,2.44 -25.88,2.44 -13.35,0 -22.8,-2.85 -28.32,-8.55 -5.54,-5.7 -8.3,-16.35 -8.3,-31.98 v -23.92 h 50.53 v -34.18 h -50.53 v -225.1 h -43.706"
         style="fill:#2d49a3;fill-opacity:1;fill-rule:nonzero;stroke:none"
         id="path68" />
      <path
         d="m 1107.67,1261.18 v 259.28 h 43.94 v -259.28 z m 0,307.36 v 50.55 h 43.94 v -50.55 h -43.94"
         style="fill:#2d49a3;fill-opacity:1;fill-rule:nonzero;stroke:none"
         id="path70" />
      <path
         d="m 1218.51,1261.18 v 259.28 h 39.55 v -36.88 c 19.04,28.49 46.54,42.74 82.52,42.74 15.62,0 29.99,-2.82 43.09,-8.43 13.1,-5.62 22.9,-12.98 29.42,-22.1 6.5,-9.11 11.06,-19.94 13.67,-32.46 1.62,-8.15 2.44,-22.38 2.44,-42.74 v -159.41 h -43.95 v 157.71 c 0,17.9 -1.71,31.29 -5.12,40.16 -3.42,8.87 -9.49,15.95 -18.2,21.24 -8.7,5.28 -18.91,7.94 -30.63,7.94 -18.72,0 -34.87,-5.95 -48.47,-17.83 -13.58,-11.88 -20.38,-34.42 -20.38,-67.62 v -141.6 h -43.94"
         style="fill:#2d49a3;fill-opacity:1;fill-rule:nonzero;stroke:none"
         id="path72" />
      <path
         d="m 1662.11,1391.3 c -15.96,-6.51 -39.88,-12.04 -71.78,-16.6 -18.06,-2.6 -30.85,-5.53 -38.33,-8.79 -7.49,-3.26 -13.27,-8.01 -17.33,-14.28 -4.07,-6.27 -6.11,-13.22 -6.11,-20.88 0,-11.72 4.44,-21.48 13.31,-29.3 8.87,-7.81 21.85,-11.72 38.94,-11.72 16.92,0 31.98,3.72 45.17,11.12 13.18,7.4 22.86,17.54 29.05,30.39 4.72,9.93 7.08,24.58 7.08,43.94 z m 3.66,-98.15 c -16.28,-13.83 -31.94,-23.59 -46.99,-29.29 -15.06,-5.69 -31.22,-8.54 -48.47,-8.54 -28.48,0 -50.38,6.95 -65.67,20.87 -15.3,13.92 -22.95,31.69 -22.95,53.35 0,12.69 2.89,24.28 8.67,34.78 5.77,10.5 13.34,18.93 22.7,25.28 9.36,6.35 19.9,11.14 31.62,14.39 8.62,2.29 21.64,4.47 39.06,6.6 35.48,4.22 61.6,9.28 78.37,15.14 0.16,6.02 0.24,9.84 0.24,11.47 0,17.91 -4.15,30.52 -12.45,37.85 -11.23,9.92 -27.92,14.88 -50.05,14.88 -20.67,0 -35.92,-3.61 -45.78,-10.86 -9.84,-7.25 -17.13,-20.06 -21.84,-38.46 l -42.97,5.86 c 3.9,18.4 10.33,33.24 19.28,44.56 8.95,11.31 21.89,20.02 38.82,26.13 16.93,6.1 36.54,9.16 58.84,9.16 22.13,0 40.12,-2.62 53.96,-7.82 13.82,-5.21 24,-11.77 30.51,-19.65 6.51,-7.9 11.07,-17.87 13.68,-29.92 1.46,-7.48 2.19,-20.99 2.19,-40.52 v -58.6 c 0,-40.85 0.94,-66.68 2.81,-77.51 1.87,-10.83 5.57,-21.2 11.11,-31.12 h -45.9 c -4.56,9.1 -7.49,19.77 -8.79,31.97"
         style="fill:#2d49a3;fill-opacity:1;fill-rule:nonzero;stroke:none"
         id="path74" />
      <path
         d="m 1774.66,1261.18 v 259.28 h 39.55 v -36.88 c 19.04,28.49 46.54,42.74 82.52,42.74 15.62,0 29.99,-2.82 43.09,-8.43 13.1,-5.62 22.9,-12.98 29.42,-22.1 6.5,-9.11 11.06,-19.94 13.67,-32.46 1.62,-8.15 2.44,-22.38 2.44,-42.74 v -159.41 h -43.94 v 157.71 c 0,17.9 -1.71,31.29 -5.13,40.16 -3.42,8.87 -9.48,15.95 -18.19,21.24 -8.71,5.28 -18.92,7.94 -30.64,7.94 -18.72,0 -34.87,-5.95 -48.47,-17.83 -13.58,-11.88 -20.38,-34.42 -20.38,-67.62 v -141.6 h -43.94"
         style="fill:#2d49a3;fill-opacity:1;fill-rule:nonzero;stroke:none"
         id="path76" />
      <path
         d="m 2035.16,1338.56 43.45,6.84 c 2.44,-17.42 9.24,-30.76 20.38,-40.04 11.16,-9.28 26.74,-13.91 46.76,-13.91 20.18,0 35.16,4.1 44.92,12.33 9.77,8.22 14.65,17.86 14.65,28.92 0,9.94 -4.31,17.75 -12.94,23.44 -6.02,3.91 -20.99,8.87 -44.92,14.9 -32.23,8.13 -54.56,15.18 -67.02,21.12 -12.44,5.93 -21.89,14.16 -28.32,24.65 -6.43,10.5 -9.64,22.1 -9.64,34.8 0,11.54 2.65,22.25 7.94,32.1 5.28,9.84 12.48,18.02 21.6,24.54 6.84,5.04 16.15,9.32 27.95,12.81 11.81,3.5 24.45,5.26 37.97,5.26 20.34,0 38.2,-2.93 53.59,-8.79 15.37,-5.86 26.73,-13.8 34.06,-23.81 7.32,-10.01 12.36,-23.4 15.13,-40.16 l -42.97,-5.86 c -1.95,13.34 -7.6,23.75 -16.96,31.25 -9.36,7.48 -22.59,11.23 -39.68,11.23 -20.18,0 -34.59,-3.34 -43.21,-10.02 -8.63,-6.67 -12.94,-14.48 -12.94,-23.43 0,-5.7 1.79,-10.82 5.37,-15.37 3.58,-4.73 9.19,-8.64 16.85,-11.72 4.39,-1.64 17.33,-5.37 38.82,-11.23 31.08,-8.3 52.77,-15.1 65.06,-20.39 12.29,-5.3 21.93,-12.99 28.93,-23.07 6.99,-10.1 10.5,-22.64 10.5,-37.6 0,-14.65 -4.27,-28.45 -12.82,-41.39 -8.54,-12.94 -20.87,-22.94 -36.99,-30.02 -16.11,-7.08 -34.34,-10.62 -54.68,-10.62 -33.7,0 -59.37,6.99 -77.03,21 -17.66,13.98 -28.93,34.74 -33.81,62.24"
         style="fill:#2d49a3;fill-opacity:1;fill-rule:nonzero;stroke:none"
         id="path78" />
      <path
         d="m 2302.98,1261.18 v 259.28 h 43.94 v -259.28 z m 0,307.36 v 50.55 h 43.94 v -50.55 h -43.94"
         style="fill:#2d49a3;fill-opacity:1;fill-rule:nonzero;stroke:none"
         id="path80" />
      <path
         d="m 2447.02,1415.71 h 144.78 c -1.96,21.82 -7.49,38.17 -16.6,49.08 -14.01,16.92 -32.15,25.39 -54.45,25.39 -20.18,0 -37.15,-6.75 -50.91,-20.27 -13.75,-13.51 -21.35,-31.57 -22.82,-54.2 z m 144.29,-71.03 45.41,-5.63 c -7.17,-26.52 -20.43,-47.11 -39.8,-61.76 -19.37,-14.65 -44.11,-21.97 -74.21,-21.97 -37.93,0 -68,11.67 -90.21,35.03 -22.23,23.35 -33.33,56.1 -33.33,98.27 0,43.61 11.23,77.46 33.69,101.56 22.46,24.09 51.59,36.14 87.4,36.14 34.67,0 62.99,-11.81 84.96,-35.41 21.98,-23.6 32.96,-56.8 32.96,-99.61 0,-2.6 -0.08,-6.51 -0.24,-11.72 h -193.36 c 1.62,-28.48 9.68,-50.29 24.17,-65.43 14.48,-15.14 32.55,-22.7 54.2,-22.7 16.11,0 29.86,4.22 41.26,12.7 11.39,8.46 20.42,21.97 27.1,40.53"
         style="fill:#2d49a3;fill-opacity:1;fill-rule:nonzero;stroke:none"
         id="path82" />
      <path
         d="m 2691.41,1261.18 v 259.28 h 39.55 v -39.32 c 10.08,18.4 19.4,30.53 27.96,36.39 8.53,5.86 17.94,8.79 28.19,8.79 14.8,0 29.86,-4.73 45.17,-14.16 l -15.14,-40.78 c -10.74,6.34 -21.49,9.53 -32.23,9.53 -9.61,0 -18.23,-2.89 -25.88,-8.68 -7.65,-5.78 -13.1,-13.78 -16.35,-24.04 -4.89,-15.62 -7.33,-32.71 -7.33,-51.27 v -135.74 h -43.94"
         style="fill:#2d49a3;fill-opacity:1;fill-rule:nonzero;stroke:none"
         id="path84" />
      <path
         d="m 3023.93,1391.3 c -15.96,-6.51 -39.89,-12.04 -71.78,-16.6 -18.07,-2.6 -30.85,-5.53 -38.33,-8.79 -7.49,-3.26 -13.27,-8.01 -17.34,-14.28 -4.07,-6.27 -6.1,-13.22 -6.1,-20.88 0,-11.72 4.43,-21.48 13.3,-29.3 8.88,-7.81 21.86,-11.72 38.95,-11.72 16.92,0 31.98,3.72 45.16,11.12 13.19,7.4 22.86,17.54 29.06,30.39 4.71,9.93 7.08,24.58 7.08,43.94 z m 3.66,-98.15 c -16.28,-13.83 -31.95,-23.59 -46.99,-29.29 -15.06,-5.69 -31.22,-8.54 -48.47,-8.54 -28.49,0 -50.38,6.95 -65.67,20.87 -15.31,13.92 -22.95,31.69 -22.95,53.35 0,12.69 2.89,24.28 8.67,34.78 5.77,10.5 13.34,18.93 22.69,25.28 9.37,6.35 19.91,11.14 31.62,14.39 8.63,2.29 21.64,4.47 39.07,6.6 35.48,4.22 61.6,9.28 78.37,15.14 0.15,6.02 0.24,9.84 0.24,11.47 0,17.91 -4.15,30.52 -12.45,37.85 -11.23,9.92 -27.92,14.88 -50.05,14.88 -20.67,0 -35.93,-3.61 -45.78,-10.86 -9.85,-7.25 -17.13,-20.06 -21.85,-38.46 l -42.97,5.86 c 3.91,18.4 10.34,33.24 19.29,44.56 8.95,11.31 21.89,20.02 38.82,26.13 16.92,6.1 36.53,9.16 58.84,9.16 22.13,0 40.11,-2.62 53.95,-7.82 13.83,-5.21 24.01,-11.77 30.52,-19.65 6.5,-7.9 11.06,-17.87 13.67,-29.92 1.47,-7.48 2.2,-20.99 2.2,-40.52 v -58.6 c 0,-40.85 0.94,-66.68 2.8,-77.51 1.88,-10.83 5.58,-21.2 11.12,-31.12 h -45.9 c -4.56,9.1 -7.49,19.77 -8.79,31.97"
         style="fill:#2d49a3;fill-opacity:1;fill-rule:nonzero;stroke:none"
         id="path86" />
      <path
         d="m 3232.42,1300.48 6.35,-38.81 c -12.37,-2.61 -23.44,-3.91 -33.2,-3.91 -15.96,0 -28.32,2.52 -37.11,7.56 -8.79,5.05 -14.98,11.68 -18.56,19.9 -3.58,8.23 -5.37,25.51 -5.37,51.88 v 149.18 h -32.23 v 34.18 h 32.23 v 64.2 l 43.7,26.36 v -90.56 h 44.19 v -34.18 h -44.19 v -151.62 c 0,-12.53 0.77,-20.59 2.32,-24.16 1.55,-3.6 4.07,-6.44 7.58,-8.56 3.49,-2.11 8.49,-3.16 15,-3.16 4.89,0 11.31,0.56 19.29,1.7"
         style="fill:#2d49a3;fill-opacity:1;fill-rule:nonzero;stroke:none"
         id="path88" />
      <path
         d="m 3579.83,1391.3 c -15.95,-6.51 -39.88,-12.04 -71.77,-16.6 -18.07,-2.6 -30.85,-5.53 -38.33,-8.79 -7.49,-3.26 -13.27,-8.01 -17.34,-14.28 -4.07,-6.27 -6.1,-13.22 -6.1,-20.88 0,-11.72 4.43,-21.48 13.3,-29.3 8.88,-7.81 21.86,-11.72 38.95,-11.72 16.92,0 31.98,3.72 45.16,11.12 13.18,7.4 22.86,17.54 29.05,30.39 4.72,9.93 7.08,24.58 7.08,43.94 z m 3.67,-98.15 c -16.28,-13.83 -31.95,-23.59 -47,-29.29 -15.05,-5.69 -31.22,-8.54 -48.46,-8.54 -28.49,0 -50.38,6.95 -65.68,20.87 -15.3,13.92 -22.95,31.69 -22.95,53.35 0,12.69 2.89,24.28 8.68,34.78 5.77,10.5 13.34,18.93 22.69,25.28 9.37,6.35 19.9,11.14 31.62,14.39 8.63,2.29 21.64,4.47 39.06,6.6 35.48,4.22 61.61,9.28 78.37,15.14 0.16,6.02 0.25,9.84 0.25,11.47 0,17.91 -4.15,30.52 -12.45,37.85 -11.23,9.92 -27.92,14.88 -50.05,14.88 -20.68,0 -35.93,-3.61 -45.78,-10.86 -9.85,-7.25 -17.13,-20.06 -21.85,-38.46 l -42.97,5.86 c 3.91,18.4 10.33,33.24 19.29,44.56 8.94,11.31 21.88,20.02 38.82,26.13 16.92,6.1 36.53,9.16 58.84,9.16 22.12,0 40.11,-2.62 53.95,-7.82 13.83,-5.21 24,-11.77 30.52,-19.65 6.5,-7.9 11.06,-17.87 13.67,-29.92 1.47,-7.48 2.2,-20.99 2.2,-40.52 v -58.6 c 0,-40.85 0.94,-66.68 2.8,-77.51 1.88,-10.83 5.58,-21.2 11.11,-31.12 h -45.89 c -4.57,9.1 -7.5,19.77 -8.79,31.97"
         style="fill:#2d49a3;fill-opacity:1;fill-rule:nonzero;stroke:none"
         id="path90" />
      <path
         d="m 3764.4,1261.18 -98.63,259.28 h 46.39 l 55.66,-155.28 c 6.02,-16.77 11.56,-34.18 16.6,-52.24 3.91,13.67 9.36,30.1 16.36,49.31 l 57.62,158.21 h 45.16 l -98.14,-259.28 h -41.02"
         style="fill:#2d49a3;fill-opacity:1;fill-rule:nonzero;stroke:none"
         id="path92" />
      <path
         d="m 392.578,701.172 v 357.908 h 258.789 v -42.24 H 439.941 V 907.227 H 637.938 V 865.234 H 439.941 V 743.406 h 219.727 v -42.234 h -267.09"
         style="fill:#2d49a3;fill-opacity:1;fill-rule:nonzero;stroke:none"
         id="path94" />
      <path
         d="m 959.961,1059.08 h 47.359 V 852.293 c 0,-35.977 -4.07,-64.539 -12.203,-85.691 -8.144,-21.164 -22.832,-38.372 -44.062,-51.641 -21.25,-13.266 -49.121,-19.895 -83.621,-19.895 -33.539,0 -60.957,5.782 -82.278,17.332 -21.328,11.555 -36.543,28.286 -45.652,50.176 -9.121,21.887 -13.676,51.789 -13.676,89.719 v 206.787 h 47.363 V 852.535 c 0,-31.082 2.895,-53.992 8.664,-68.726 5.782,-14.731 15.711,-26.086 29.786,-34.055 14.082,-7.981 31.289,-11.961 51.64,-11.961 34.824,0 59.649,7.891 74.461,23.68 14.809,15.781 22.219,46.14 22.219,91.062 v 206.545"
         style="fill:#2d49a3;fill-opacity:1;fill-rule:nonzero;stroke:none"
         id="path96" />
      <path
         d="m 1063.48,808.594 v 44.187 h 135.01 v -44.187 h -135.01"
         style="fill:#2d49a3;fill-opacity:1;fill-rule:nonzero;stroke:none"
         id="path98" />
      <path
         d="m 1286.87,829.344 c 0,-33.367 6.74,-58.028 20.26,-73.977 13.5,-15.957 29.86,-23.926 49.07,-23.926 19.53,0 36.25,8.262 50.18,24.789 13.9,16.512 20.87,42.11 20.87,76.778 0,33.035 -6.8,57.781 -20.38,74.219 -13.6,16.433 -29.84,24.656 -48.72,24.656 -18.72,0 -35.27,-8.75 -49.68,-26.25 -14.4,-17.5 -21.6,-42.93 -21.6,-76.289 z m -39.8,-227.543 v 358.644 h 40.04 v -33.687 c 9.43,13.183 20.1,23.074 31.98,29.656 11.88,6.602 26.28,9.895 43.21,9.895 22.13,0 41.66,-5.696 58.6,-17.09 16.92,-11.399 29.7,-27.473 38.33,-48.215 8.62,-20.762 12.94,-43.508 12.94,-68.242 0,-26.532 -4.76,-50.418 -14.29,-71.653 -9.51,-21.25 -23.35,-37.515 -41.5,-48.828 -18.15,-11.316 -37.23,-16.968 -57.25,-16.968 -14.65,0 -27.79,3.093 -39.43,9.277 -11.63,6.18 -21.2,13.992 -28.68,23.433 V 601.801 h -43.95"
         style="fill:#2d49a3;fill-opacity:1;fill-rule:nonzero;stroke:none"
         id="path100" />
      <path
         d="m 1524.66,701.172 v 259.273 h 39.55 v -39.304 c 10.09,18.386 19.4,30.515 27.96,36.379 8.53,5.859 17.94,8.789 28.19,8.789 14.81,0 29.86,-4.719 45.17,-14.161 l -15.14,-40.773 c -10.74,6.348 -21.48,9.523 -32.23,9.523 -9.61,0 -18.23,-2.89 -25.87,-8.664 -7.66,-5.781 -13.11,-13.796 -16.36,-24.05 -4.89,-15.625 -7.33,-32.715 -7.33,-51.274 V 701.172 h -43.94"
         style="fill:#2d49a3;fill-opacity:1;fill-rule:nonzero;stroke:none"
         id="path102" />
      <path
         d="m 1720.46,830.809 c 0,-33.204 7.24,-58.067 21.73,-74.579 14.48,-16.527 32.71,-24.789 54.69,-24.789 21.8,0 39.95,8.301 54.44,24.907 14.48,16.597 21.73,41.902 21.73,75.925 0,32.063 -7.29,56.348 -21.86,72.872 -14.56,16.523 -32.67,24.785 -54.31,24.785 -21.98,0 -40.21,-8.223 -54.69,-24.657 -14.49,-16.437 -21.73,-41.261 -21.73,-74.464 z m -45.17,0 c 0,48.007 13.34,83.574 40.04,106.687 22.3,19.211 49.47,28.813 81.55,28.813 35.64,0 64.77,-11.68 87.4,-35.032 22.61,-23.359 33.93,-55.625 33.93,-96.804 0,-33.371 -5.01,-59.614 -15.01,-78.735 -10.02,-19.129 -24.58,-33.98 -43.71,-44.558 -19.12,-10.575 -40,-15.867 -62.61,-15.867 -36.3,0 -65.64,11.628 -88.01,34.91 -22.39,23.269 -33.58,56.797 -33.58,100.586"
         style="fill:#2d49a3;fill-opacity:1;fill-rule:nonzero;stroke:none"
         id="path104" />
      <path
         d="m 1998.05,835.445 c 0,-34.019 6.74,-58.836 20.26,-74.461 13.51,-15.625 30.43,-23.437 50.78,-23.437 20.18,0 37.11,7.773 50.78,23.312 13.67,15.543 20.51,39.918 20.51,73.125 0,31.739 -7.04,55.664 -21.11,71.778 -14.08,16.109 -31.06,24.168 -50.91,24.168 -19.53,0 -36.13,-7.93 -49.81,-23.809 -13.67,-15.859 -20.5,-39.426 -20.5,-70.676 z m -36.38,-155.757 42.72,-6.348 c 1.79,-13.192 6.75,-22.789 14.9,-28.809 10.9,-8.14 25.79,-12.211 44.67,-12.211 20.35,0 36.05,4.071 47.12,12.211 11.07,8.141 18.56,19.528 22.46,34.18 2.28,8.953 3.34,27.742 3.18,56.394 -19.21,-22.625 -43.14,-33.933 -71.78,-33.933 -35.64,0 -63.23,12.851 -82.76,38.57 -19.53,25.715 -29.3,56.555 -29.3,92.531 0,24.739 4.47,47.559 13.43,68.477 8.94,20.918 21.93,37.07 38.93,48.469 17.02,11.394 37,17.09 59.95,17.09 30.59,0 55.82,-12.375 75.68,-37.114 v 31.25 h 40.53 V 736.324 c 0,-40.359 -4.11,-68.965 -12.33,-85.812 -8.22,-16.84 -21.25,-30.153 -39.06,-39.922 -17.83,-9.762 -39.77,-14.641 -65.8,-14.641 -30.93,0 -55.91,6.961 -74.95,20.86 -19.05,13.929 -28.24,34.89 -27.59,62.879"
         style="fill:#2d49a3;fill-opacity:1;fill-rule:nonzero;stroke:none"
         id="path106" />
      <path
         d="m 2247.31,701.172 v 259.273 h 39.56 v -39.304 c 10.08,18.386 19.4,30.515 27.95,36.379 8.54,5.859 17.94,8.789 28.2,8.789 14.8,0 29.86,-4.719 45.16,-14.161 l -15.13,-40.773 c -10.75,6.348 -21.49,9.523 -32.23,9.523 -9.61,0 -18.23,-2.89 -25.88,-8.664 -7.65,-5.781 -13.1,-13.796 -16.36,-24.05 -4.88,-15.625 -7.32,-32.715 -7.32,-51.274 V 701.172 h -43.95"
         style="fill:#2d49a3;fill-opacity:1;fill-rule:nonzero;stroke:none"
         id="path108" />
      <path
         d="m 2579.83,831.297 c -15.95,-6.516 -39.88,-12.051 -71.77,-16.602 -18.07,-2.605 -30.85,-5.539 -38.33,-8.789 -7.49,-3.261 -13.27,-8.015 -17.34,-14.289 -4.07,-6.258 -6.1,-13.219 -6.1,-20.867 0,-11.719 4.43,-21.484 13.3,-29.297 8.88,-7.812 21.86,-11.719 38.95,-11.719 16.92,0 31.98,3.704 45.16,11.106 13.18,7.41 22.86,17.539 29.05,30.398 4.72,9.922 7.08,24.571 7.08,43.946 z m 3.67,-98.145 c -16.28,-13.836 -31.95,-23.601 -47,-29.297 -15.05,-5.695 -31.22,-8.542 -48.46,-8.542 -28.49,0 -50.38,6.953 -65.68,20.878 -15.3,13.907 -22.95,31.688 -22.95,53.336 0,12.7 2.89,24.297 8.68,34.789 5.77,10.504 13.34,18.922 22.69,25.274 9.37,6.348 19.9,11.14 31.62,14.402 8.63,2.278 21.64,4.473 39.06,6.594 35.48,4.227 61.61,9.273 78.37,15.137 0.16,6.023 0.25,9.843 0.25,11.472 0,17.903 -4.15,30.52 -12.45,37.84 -11.23,9.934 -27.92,14.895 -50.05,14.895 -20.68,0 -35.93,-3.621 -45.78,-10.86 -9.85,-7.246 -17.13,-20.066 -21.85,-38.457 l -42.97,5.86 c 3.91,18.386 10.33,33.242 19.29,44.55 8.94,11.309 21.88,20.02 38.82,26.133 16.92,6.094 36.53,9.153 58.84,9.153 22.12,0 40.11,-2.61 53.95,-7.817 13.83,-5.203 24,-11.765 30.52,-19.656 6.5,-7.891 11.06,-17.859 13.67,-29.902 1.47,-7.493 2.2,-20.996 2.2,-40.528 v -58.593 c 0,-40.86 0.94,-66.692 2.8,-77.508 1.88,-10.832 5.58,-21.211 11.11,-31.133 h -45.89 c -4.57,9.109 -7.5,19.773 -8.79,31.98"
         style="fill:#2d49a3;fill-opacity:1;fill-rule:nonzero;stroke:none"
         id="path110" />
      <path
         d="m 2692.38,701.172 v 259.273 h 39.31 V 924.07 c 8.13,12.696 18.95,22.91 32.47,30.645 13.51,7.726 28.89,11.594 46.14,11.594 19.2,0 34.95,-3.996 47.25,-11.965 12.28,-7.981 20.95,-19.121 25.99,-33.446 20.51,30.274 47.2,45.411 80.08,45.411 25.72,0 45.49,-7.121 59.33,-21.36 13.83,-14.25 20.75,-36.179 20.75,-65.801 V 701.172 H 3000 V 864.5 c 0,17.578 -1.43,30.234 -4.27,37.969 -2.85,7.722 -8.02,13.945 -15.51,18.672 -7.49,4.718 -16.27,7.082 -26.36,7.082 -18.23,0 -33.37,-6.067 -45.41,-18.196 -12.05,-12.129 -18.07,-31.535 -18.07,-58.222 V 701.172 h -43.94 v 168.457 c 0,19.527 -3.59,34.18 -10.75,43.941 -7.16,9.77 -18.88,14.653 -35.15,14.653 -12.38,0 -23.81,-3.254 -34.3,-9.77 -10.51,-6.512 -18.11,-16.031 -22.83,-28.562 -4.73,-12.539 -7.08,-30.606 -7.08,-54.2 V 701.172 h -43.95"
         style="fill:#2d49a3;fill-opacity:1;fill-rule:nonzero;stroke:none"
         id="path112" />
      <path
         d="m 3108.89,701.172 v 259.273 h 39.3 V 924.07 c 8.14,12.696 18.96,22.91 32.47,30.645 13.51,7.726 28.89,11.594 46.15,11.594 19.2,0 34.95,-3.996 47.24,-11.965 12.29,-7.981 20.95,-19.121 26,-33.446 20.51,30.274 47.2,45.411 80.08,45.411 25.71,0 45.49,-7.121 59.32,-21.36 13.83,-14.25 20.76,-36.179 20.76,-65.801 V 701.172 H 3416.5 V 864.5 c 0,17.578 -1.42,30.234 -4.26,37.969 -2.86,7.722 -8.03,13.945 -15.51,18.672 -7.49,4.718 -16.28,7.082 -26.37,7.082 -18.23,0 -33.37,-6.067 -45.41,-18.196 -12.05,-12.129 -18.07,-31.535 -18.07,-58.222 V 701.172 h -43.94 v 168.457 c 0,19.527 -3.58,34.18 -10.74,43.941 -7.17,9.77 -18.89,14.653 -35.16,14.653 -12.37,0 -23.81,-3.254 -34.3,-9.77 -10.5,-6.512 -18.11,-16.031 -22.83,-28.562 -4.72,-12.539 -7.08,-30.606 -7.08,-54.2 V 701.172 h -43.94"
         style="fill:#2d49a3;fill-opacity:1;fill-rule:nonzero;stroke:none"
         id="path114" />
      <path
         d="m 3558.59,855.711 h 144.78 c -1.95,21.809 -7.49,38.164 -16.6,49.07 -14.01,16.926 -32.15,25.395 -54.45,25.395 -20.18,0 -37.14,-6.758 -50.9,-20.266 -13.75,-13.515 -21.36,-31.582 -22.83,-54.199 z m 144.29,-71.043 45.41,-5.617 c -7.17,-26.531 -20.43,-47.117 -39.79,-61.77 -19.38,-14.644 -44.12,-21.968 -74.22,-21.968 -37.93,0 -68,11.675 -90.21,35.039 -22.22,23.347 -33.33,56.101 -33.33,98.257 0,43.625 11.23,77.473 33.69,101.567 22.46,24.09 51.6,36.133 87.41,36.133 34.66,0 62.98,-11.809 84.96,-35.403 21.97,-23.601 32.96,-56.804 32.96,-99.609 0,-2.606 -0.09,-6.516 -0.25,-11.719 h -193.36 c 1.62,-28.484 9.68,-50.293 24.17,-65.43 14.48,-15.136 32.55,-22.707 54.2,-22.707 16.11,0 29.86,4.231 41.26,12.7 11.39,8.457 20.42,21.968 27.1,40.527"
         style="fill:#2d49a3;fill-opacity:1;fill-rule:nonzero;stroke:none"
         id="path116" />
      <path
         d="m 3899.41,740.477 6.35,-38.821 c -12.37,-2.593 -23.44,-3.902 -33.2,-3.902 -15.96,0 -28.32,2.527 -37.11,7.566 -8.79,5.039 -14.98,11.68 -18.56,19.895 -3.58,8.223 -5.37,25.515 -5.37,51.883 V 926.27 h -32.22 v 34.175 h 32.22 v 64.215 l 43.7,26.36 v -90.575 h 44.19 V 926.27 h -44.19 V 774.656 c 0,-12.539 0.78,-20.593 2.32,-24.172 1.55,-3.582 4.07,-6.433 7.58,-8.543 3.49,-2.121 8.49,-3.171 15.01,-3.171 4.88,0 11.31,0.566 19.28,1.707"
         style="fill:#2d49a3;fill-opacity:1;fill-rule:nonzero;stroke:none"
         id="path118" />
      <path
         d="m 1684.33,141.172 v 357.91 h 258.79 V 456.84 H 1731.69 V 347.219 h 198 V 305.23 h -198 V 183.41 h 219.73 v -42.238 h -267.09"
         style="fill:#2d49a3;fill-opacity:1;fill-rule:nonzero;stroke:none"
         id="path120" />
      <path
         d="m 2010.74,141.172 v 259.277 h 39.55 v -39.308 c 10.09,18.39 19.41,30.519 27.96,36.379 8.54,5.859 17.94,8.789 28.2,8.789 14.8,0 29.86,-4.727 45.16,-14.161 l -15.14,-40.769 c -10.74,6.34 -21.48,9.519 -32.22,9.519 -9.61,0 -18.23,-2.886 -25.88,-8.679 -7.66,-5.77 -13.11,-13.778 -16.36,-24.039 -4.88,-15.621 -7.32,-32.711 -7.32,-51.27 V 141.172 h -43.95"
         style="fill:#2d49a3;fill-opacity:1;fill-rule:nonzero;stroke:none"
         id="path122" />
      <path
         d="m 2343.26,271.301 c -15.96,-6.52 -39.88,-12.051 -71.78,-16.602 -18.06,-2.609 -30.85,-5.539 -38.33,-8.789 -7.49,-3.269 -13.27,-8.019 -17.33,-14.289 -4.07,-6.262 -6.1,-13.223 -6.1,-20.871 0,-11.719 4.43,-21.48 13.3,-29.301 8.87,-7.808 21.85,-11.719 38.94,-11.719 16.93,0 31.99,3.711 45.17,11.11 13.18,7.41 22.86,17.539 29.05,30.398 4.72,9.922 7.08,24.571 7.08,43.942 z m 3.66,-98.153 c -16.28,-13.839 -31.94,-23.597 -46.99,-29.289 -15.06,-5.699 -31.22,-8.55 -48.47,-8.55 -28.48,0 -50.38,6.953 -65.67,20.882 -15.3,13.911 -22.95,31.688 -22.95,53.34 0,12.688 2.89,24.301 8.67,34.778 5.78,10.511 13.34,18.929 22.7,25.281 9.36,6.351 19.9,11.14 31.62,14.398 8.62,2.282 21.64,4.481 39.06,6.594 35.48,4.227 61.6,9.277 78.37,15.137 0.16,6.019 0.25,9.84 0.25,11.48 0,17.903 -4.15,30.512 -12.46,37.84 -11.23,9.922 -27.92,14.891 -50.04,14.891 -20.68,0 -35.93,-3.621 -45.79,-10.871 -9.84,-7.239 -17.12,-20.059 -21.84,-38.45 l -42.97,5.86 c 3.91,18.39 10.33,33.25 19.29,44.562 8.94,11.309 21.88,20.02 38.82,26.117 16.92,6.114 36.53,9.161 58.83,9.161 22.13,0 40.12,-2.61 53.96,-7.821 13.83,-5.207 24,-11.75 30.52,-19.636 6.5,-7.903 11.06,-17.883 13.67,-29.922 1.46,-7.489 2.2,-20.989 2.2,-40.52 v -58.601 c 0,-40.86 0.93,-66.688 2.8,-77.508 1.87,-10.832 5.57,-21.211 11.11,-31.129 h -45.9 c -4.56,9.109 -7.49,19.777 -8.79,31.976"
         style="fill:#2d49a3;fill-opacity:1;fill-rule:nonzero;stroke:none"
         id="path124" />
      <path
         d="m 2438.23,218.559 43.46,6.839 c 2.44,-17.418 9.24,-30.757 20.38,-40.039 11.15,-9.277 26.74,-13.918 46.76,-13.918 20.17,0 35.15,4.11 44.92,12.329 9.77,8.218 14.65,17.859 14.65,28.929 0,9.93 -4.32,17.742 -12.94,23.442 -6.03,3.91 -21,8.871 -44.92,14.89 -32.23,8.141 -54.56,15.18 -67.02,21.117 -12.45,5.942 -21.89,14.161 -28.32,24.661 -6.43,10.492 -9.64,22.089 -9.64,34.793 0,11.546 2.64,22.257 7.94,32.109 5.28,9.84 12.48,18.019 21.6,24.527 6.83,5.043 16.15,9.321 27.95,12.813 11.8,3.508 24.45,5.258 37.97,5.258 20.34,0 38.2,-2.93 53.59,-8.789 15.37,-5.86 26.73,-13.79 34.05,-23.809 7.33,-10 12.37,-23.402 15.14,-40.16 l -42.97,-5.86 c -1.95,13.34 -7.61,23.758 -16.96,31.25 -9.37,7.481 -22.59,11.231 -39.68,11.231 -20.19,0 -34.59,-3.34 -43.21,-10.012 -8.64,-6.68 -12.94,-14.488 -12.94,-23.43 0,-5.71 1.78,-10.832 5.37,-15.378 3.57,-4.731 9.19,-8.641 16.84,-11.723 4.4,-1.629 17.34,-5.367 38.82,-11.231 31.09,-8.296 52.78,-15.097 65.07,-20.386 12.29,-5.293 21.92,-12.981 28.93,-23.071 6.99,-10.101 10.49,-22.632 10.49,-37.601 0,-14.649 -4.26,-28.442 -12.82,-41.379 -8.53,-12.93 -20.87,-22.949 -36.98,-30.02 -16.11,-7.089 -34.35,-10.632 -54.69,-10.632 -33.69,0 -59.36,6.992 -77.02,21 -17.67,13.992 -28.93,34.742 -33.82,62.25"
         style="fill:#2d49a3;fill-opacity:1;fill-rule:nonzero;stroke:none"
         id="path126" />
      <path
         d="m 2705.81,141.172 v 259.277 h 39.31 V 364.07 c 8.13,12.7 18.95,22.91 32.47,30.641 13.5,7.73 28.88,11.598 46.14,11.598 19.2,0 34.95,-4 47.25,-11.969 12.28,-7.969 20.94,-19.129 25.99,-33.442 20.51,30.274 47.2,45.411 80.08,45.411 25.71,0 45.49,-7.118 59.33,-21.368 13.83,-14.242 20.75,-36.171 20.75,-65.793 V 141.172 h -43.7 V 304.5 c 0,17.578 -1.43,30.23 -4.27,37.961 -2.85,7.73 -8.03,13.949 -15.51,18.68 -7.49,4.718 -16.28,7.078 -26.36,7.078 -18.24,0 -33.37,-6.059 -45.41,-18.18 -12.06,-12.129 -18.07,-31.551 -18.07,-58.238 V 141.172 h -43.95 v 168.457 c 0,19.531 -3.58,34.18 -10.74,43.941 -7.17,9.77 -18.89,14.649 -35.16,14.649 -12.37,0 -23.8,-3.258 -34.29,-9.758 -10.51,-6.52 -18.12,-16.039 -22.83,-28.57 -4.73,-12.539 -7.08,-30.602 -7.08,-54.2 V 141.172 h -43.95"
         style="fill:#2d49a3;fill-opacity:1;fill-rule:nonzero;stroke:none"
         id="path128" />
      <path
         d="m 3292.24,141.172 v 38.09 c -20.19,-29.301 -47.61,-43.953 -82.28,-43.953 -15.3,0 -29.58,2.929 -42.85,8.793 -13.26,5.859 -23.11,13.218 -29.53,22.089 -6.44,8.879 -10.96,19.739 -13.56,32.598 -1.79,8.621 -2.68,22.293 -2.68,41.012 v 160.648 h 43.94 V 256.648 c 0,-22.949 0.89,-38.418 2.69,-46.386 2.76,-11.563 8.62,-20.633 17.58,-27.211 8.94,-6.61 20.02,-9.903 33.2,-9.903 13.18,0 25.55,3.383 37.11,10.133 11.55,6.758 19.74,15.957 24.53,27.598 4.81,11.633 7.21,28.512 7.21,50.652 v 138.918 h 43.94 V 141.172 h -39.3"
         style="fill:#2d49a3;fill-opacity:1;fill-rule:nonzero;stroke:none"
         id="path130" />
      <path
         d="m 3382.81,218.559 43.46,6.839 c 2.44,-17.418 9.24,-30.757 20.38,-40.039 11.15,-9.277 26.74,-13.918 46.76,-13.918 20.17,0 35.15,4.11 44.92,12.329 9.77,8.218 14.65,17.859 14.65,28.929 0,9.93 -4.32,17.742 -12.94,23.442 -6.03,3.91 -21,8.871 -44.92,14.89 -32.23,8.141 -54.56,15.18 -67.02,21.117 -12.45,5.942 -21.89,14.161 -28.32,24.661 -6.43,10.492 -9.64,22.089 -9.64,34.793 0,11.546 2.64,22.257 7.94,32.109 5.28,9.84 12.48,18.019 21.6,24.527 6.83,5.043 16.15,9.321 27.95,12.813 11.8,3.508 24.45,5.258 37.97,5.258 20.34,0 38.2,-2.93 53.59,-8.789 15.37,-5.86 26.73,-13.79 34.05,-23.809 7.33,-10 12.37,-23.402 15.14,-40.16 l -42.97,-5.86 c -1.95,13.34 -7.61,23.758 -16.96,31.25 -9.37,7.481 -22.59,11.231 -39.68,11.231 -20.19,0 -34.59,-3.34 -43.21,-10.012 -8.64,-6.68 -12.94,-14.488 -12.94,-23.43 0,-5.71 1.78,-10.832 5.37,-15.378 3.57,-4.731 9.19,-8.641 16.84,-11.723 4.4,-1.629 17.34,-5.367 38.82,-11.231 31.09,-8.296 52.78,-15.097 65.07,-20.386 12.29,-5.293 21.92,-12.981 28.93,-23.071 6.99,-10.101 10.49,-22.632 10.49,-37.601 0,-14.649 -4.26,-28.442 -12.82,-41.379 -8.53,-12.93 -20.87,-22.949 -36.98,-30.02 -16.11,-7.089 -34.35,-10.632 -54.69,-10.632 -33.69,0 -59.36,6.992 -77.02,21 -17.67,13.992 -28.93,34.742 -33.82,62.25"
         style="fill:#2d49a3;fill-opacity:1;fill-rule:nonzero;stroke:none"
         id="path132" />
      <path
         d="m 3742.68,199.031 v 98.149 h -97.42 v 41.011 h 97.42 v 97.411 h 41.5 v -97.411 h 97.41 V 297.18 h -97.41 v -98.149 h -41.5"
         style="fill:#2d49a3;fill-opacity:1;fill-rule:nonzero;stroke:none"
         id="path134" />
    </g>
  </g>
</svg>
