<?xml version="1.0" encoding="UTF-8" standalone="no"?>
<!-- Created with Inkscape (http://www.inkscape.org/) -->

<svg
   version="1.1"
   id="svg2"
   xml:space="preserve"
   width="1039.3066"
   height="222.60001"
   viewBox="0 0 1039.3066 222.60001"
   sodipodi:docname="logosbeneficaireserasmusleft_en_0.eps"
   xmlns:inkscape="http://www.inkscape.org/namespaces/inkscape"
   xmlns:sodipodi="http://sodipodi.sourceforge.net/DTD/sodipodi-0.dtd"
   xmlns="http://www.w3.org/2000/svg"
   xmlns:svg="http://www.w3.org/2000/svg"><defs
     id="defs6" /><sodipodi:namedview
     id="namedview4"
     pagecolor="#ffffff"
     bordercolor="#666666"
     borderopacity="1.0"
     inkscape:pageshadow="2"
     inkscape:pageopacity="0.0"
     inkscape:pagecheckerboard="0" /><g
     id="g8"
     inkscape:groupmode="layer"
     inkscape:label="ink_ext_XXXXXX"
     transform="matrix(1.3333333,0,0,-1.3333333,0,222.6)"><g
       id="g10"
       transform="scale(0.1)"><path
         d="M 7794.77,0 V 1669.52 H 5316.55 V 0 h 2478.22"
         style="fill:#2d49a3;fill-opacity:1;fill-rule:nonzero;stroke:none"
         id="path12" /><path
         d="m 7177.03,861.59 -25.86,0.527 -38.24,0.723 -12.52,34.094 -8.11,21.785 -7.96,-21.785 -12.43,-34.094 -38.24,-0.723 -25.84,-0.527 21.1,-15.195 30.13,-21.629 -10.95,-34.133 -7.52,-23.242 20.39,13.457 31.32,20.742 31.7,-20.742 20.14,-13.457 -7.38,23.242 -10.86,34.133 30.04,21.629 21.09,15.195"
         style="fill:#f3f020;fill-opacity:1;fill-rule:nonzero;stroke:none"
         id="path14" /><path
         d="m 7177.03,861.59 -25.86,0.527 -38.24,0.723 -12.52,34.094 -8.11,21.785 -7.96,-21.785 -12.43,-34.094 -38.24,-0.723 -25.84,-0.527 21.1,-15.195 30.13,-21.629 -10.95,-34.133 -7.52,-23.242 20.39,13.457 31.32,20.742 31.7,-20.742 20.14,-13.457 -7.38,23.242 -10.86,34.133 30.04,21.629 z"
         style="fill:none;stroke:#f3f020;stroke-width:11.064;stroke-linecap:butt;stroke-linejoin:miter;stroke-miterlimit:4;stroke-dasharray:none;stroke-opacity:1"
         id="path16" /><path
         d="m 6987.21,1093.95 -10.84,-34.18 -7.39,-23.18 20.26,13.28 31.46,21.04 31.7,-21.04 20,-13.28 -7.26,23.18 -10.96,34.18 30.04,21.64 21.19,15.2 -25.84,0.47 -38.38,0.6 -12.38,34.18 -8.11,22 -8,-22 -12.37,-34.18 -38.26,-0.6 -25.86,-0.47 20.98,-15.2 30.02,-21.64"
         style="fill:#f3f020;fill-opacity:1;fill-rule:nonzero;stroke:none"
         id="path18" /><path
         d="m 6987.21,1093.95 -10.84,-34.18 -7.39,-23.18 20.26,13.28 31.46,21.04 31.7,-21.04 20,-13.28 -7.26,23.18 -10.96,34.18 30.04,21.64 21.19,15.2 -25.84,0.47 -38.38,0.6 -12.38,34.18 -8.11,22 -8,-22 -12.37,-34.18 -38.26,-0.6 -25.86,-0.47 20.98,-15.2 z"
         style="fill:none;stroke:#f3f020;stroke-width:11.064;stroke-linecap:butt;stroke-linejoin:miter;stroke-miterlimit:4;stroke-dasharray:none;stroke-opacity:1"
         id="path20" /><path
         d="m 6846.48,1327.64 -12.52,34.13 -8.1,21.93 -7.97,-21.93 -12.4,-34.13 -38.24,-0.66 -26,-0.59 21.21,-15.13 30.16,-21.69 -10.96,-34.14 -7.52,-23.19 20.37,13.24 31.35,20.91 31.58,-20.91 20.27,-13.24 -7.51,23.19 -10.75,34.14 30.04,21.69 21.08,15.13 -25.73,0.59 -38.36,0.66"
         style="fill:#f3f020;fill-opacity:1;fill-rule:nonzero;stroke:none"
         id="path22" /><path
         d="m 6846.48,1327.64 -12.52,34.13 -8.1,21.93 -7.97,-21.93 -12.4,-34.13 -38.24,-0.66 -26,-0.59 21.21,-15.13 30.16,-21.69 -10.96,-34.14 -7.52,-23.19 20.37,13.24 31.35,20.91 31.58,-20.91 20.27,-13.24 -7.51,23.19 -10.75,34.14 30.04,21.69 21.08,15.13 -25.73,0.59 z"
         style="fill:none;stroke:#f3f020;stroke-width:11.064;stroke-linecap:butt;stroke-linejoin:miter;stroke-miterlimit:4;stroke-dasharray:none;stroke-opacity:1"
         id="path24" /><path
         d="m 6574.08,1399.85 -12.52,34.03 -8.12,21.92 -7.85,-21.92 -12.52,-34.03 -38.25,-0.84 -25.97,-0.41 21.21,-15.19 30.04,-21.75 -10.86,-34.2 -7.5,-23.12 20.25,13.23 31.45,20.97 31.7,-20.97 20.13,-13.23 -7.36,23.12 -10.86,34.2 30.04,21.75 20.96,15.19 -25.73,0.41 -38.24,0.84"
         style="fill:#f3f020;fill-opacity:1;fill-rule:nonzero;stroke:none"
         id="path26" /><path
         d="m 6574.08,1399.85 -12.52,34.03 -8.12,21.92 -7.85,-21.92 -12.52,-34.03 -38.25,-0.84 -25.97,-0.41 21.21,-15.19 30.04,-21.75 -10.86,-34.2 -7.5,-23.12 20.25,13.23 31.45,20.97 31.7,-20.97 20.13,-13.23 -7.36,23.12 -10.86,34.2 30.04,21.75 20.96,15.19 -25.73,0.41 z"
         style="fill:none;stroke:#f3f020;stroke-width:11.064;stroke-linecap:butt;stroke-linejoin:miter;stroke-miterlimit:4;stroke-dasharray:none;stroke-opacity:1"
         id="path28" /><path
         d="m 6304.04,1327.64 -12.52,34.13 -7.85,21.93 -7.99,-21.93 -12.5,-34.13 -38.26,-0.66 -25.97,-0.41 21.09,-15.25 30.16,-21.63 -10.86,-34.14 -7.48,-23.31 20.23,13.47 31.58,20.8 31.35,-20.8 20.25,-13.47 -7.38,23.31 -10.86,34.14 30.04,21.63 21.21,15.25 -25.98,0.41 -38.26,0.66"
         style="fill:#f3f020;fill-opacity:1;fill-rule:nonzero;stroke:none"
         id="path30" /><path
         d="m 6304.04,1327.64 -12.52,34.13 -7.85,21.93 -7.99,-21.93 -12.5,-34.13 -38.26,-0.66 -25.97,-0.41 21.09,-15.25 30.16,-21.63 -10.86,-34.14 -7.48,-23.31 20.23,13.47 31.58,20.8 31.35,-20.8 20.25,-13.47 -7.38,23.31 -10.86,34.14 30.04,21.63 21.21,15.25 -25.98,0.41 z"
         style="fill:none;stroke:#f3f020;stroke-width:11.064;stroke-linecap:butt;stroke-linejoin:miter;stroke-miterlimit:4;stroke-dasharray:none;stroke-opacity:1"
         id="path32" /><path
         d="m 6107.44,1133.93 -12.3,34.04 -7.97,21.85 -8.09,-21.85 -12.4,-34.04 -38.26,-0.7 -25.86,-0.49 21.09,-15.25 30.04,-21.68 -10.96,-34.08 -7.28,-23.25 20.02,13.34 31.58,20.86 31.58,-20.86 20.14,-13.34 -7.4,23.25 -10.84,34.08 30.15,21.68 20.98,15.25 -25.88,0.49 -38.34,0.7"
         style="fill:#f3f020;fill-opacity:1;fill-rule:nonzero;stroke:none"
         id="path34" /><path
         d="m 6107.44,1133.93 -12.3,34.04 -7.97,21.85 -8.09,-21.85 -12.4,-34.04 -38.26,-0.7 -25.86,-0.49 21.09,-15.25 30.04,-21.68 -10.96,-34.08 -7.28,-23.25 20.02,13.34 31.58,20.86 31.58,-20.86 20.14,-13.34 -7.4,23.25 -10.84,34.08 30.15,21.68 20.98,15.25 -25.88,0.49 z"
         style="fill:none;stroke:#f3f020;stroke-width:11.064;stroke-linecap:butt;stroke-linejoin:miter;stroke-miterlimit:4;stroke-dasharray:none;stroke-opacity:1"
         id="path36" /><path
         d="m 6045.1,781.336 20.25,-13.457 -7.36,23.351 -10.86,34.083 30.02,21.675 21.09,15.129 -25.84,0.547 -38.26,0.652 -12.5,34.036 -7.99,21.855 -8.01,-21.855 -12.5,-34.036 -38.24,-0.652 -25.86,-0.547 20.96,-15.129 30.16,-21.675 -10.84,-34.083 -7.39,-23.351 20.12,13.457 31.6,20.852 31.45,-20.852"
         style="fill:#f3f020;fill-opacity:1;fill-rule:nonzero;stroke:none"
         id="path38" /><path
         d="m 6045.1,781.336 20.25,-13.457 -7.36,23.351 -10.86,34.083 30.02,21.675 21.09,15.129 -25.84,0.547 -38.26,0.652 -12.5,34.036 -7.99,21.855 -8.01,-21.855 -12.5,-34.036 -38.24,-0.652 -25.86,-0.547 20.96,-15.129 30.16,-21.675 -10.84,-34.083 -7.39,-23.351 20.12,13.457 31.6,20.852 z"
         style="fill:none;stroke:#f3f020;stroke-width:11.064;stroke-linecap:butt;stroke-linejoin:miter;stroke-miterlimit:4;stroke-dasharray:none;stroke-opacity:1"
         id="path40" /><path
         d="m 6106.58,596.27 -12.5,33.96 -7.87,21.879 -8.1,-21.879 -12.5,-33.96 -38.25,-0.829 -25.86,-0.582 21.08,-15.019 30.04,-21.809 -10.86,-34.09 -7.5,-23.043 20.25,13.161 31.47,20.839 31.58,-20.839 20.14,-13.278 -7.39,23.16 -10.72,34.09 30.02,21.809 20.98,15.019 -25.86,0.582 -38.15,0.829"
         style="fill:#f3f020;fill-opacity:1;fill-rule:nonzero;stroke:none"
         id="path42" /><path
         d="m 6106.58,596.27 -12.5,33.96 -7.87,21.879 -8.1,-21.879 -12.5,-33.96 -38.25,-0.829 -25.86,-0.582 21.08,-15.019 30.04,-21.809 -10.86,-34.09 -7.5,-23.043 20.25,13.161 31.47,20.839 31.58,-20.839 20.14,-13.278 -7.39,23.16 -10.72,34.09 30.02,21.809 20.98,15.019 -25.86,0.582 z"
         style="fill:none;stroke:#f3f020;stroke-width:11.064;stroke-linecap:butt;stroke-linejoin:miter;stroke-miterlimit:4;stroke-dasharray:none;stroke-opacity:1"
         id="path44" /><path
         d="m 6301.66,400.73 -12.38,34.2 -7.99,21.859 -8.11,-21.859 -12.38,-34.2 -38.38,-0.601 -25.86,-0.59 21.21,-15.141 29.91,-21.687 -10.73,-34.063 -7.5,-23.25 20.12,13.231 31.72,20.922 31.33,-20.922 20.39,-13.231 -7.52,23.25 -10.82,34.063 30.02,21.687 21.21,15.141 -25.98,0.59 -38.26,0.601"
         style="fill:#f3f020;fill-opacity:1;fill-rule:nonzero;stroke:none"
         id="path46" /><path
         d="m 6301.66,400.73 -12.38,34.2 -7.99,21.859 -8.11,-21.859 -12.38,-34.2 -38.38,-0.601 -25.86,-0.59 21.21,-15.141 29.91,-21.687 -10.73,-34.063 -7.5,-23.25 20.12,13.231 31.72,20.922 31.33,-20.922 20.39,-13.231 -7.52,23.25 -10.82,34.063 30.02,21.687 21.21,15.141 -25.98,0.59 z"
         style="fill:none;stroke:#f3f020;stroke-width:11.064;stroke-linecap:butt;stroke-linejoin:miter;stroke-miterlimit:4;stroke-dasharray:none;stroke-opacity:1"
         id="path48" /><path
         d="m 6573.83,328.582 -12.38,33.898 -8.13,21.989 -7.85,-21.989 -12.52,-33.898 -38.24,-0.781 -26,-0.602 21.09,-15.25 30.18,-21.551 -10.98,-34.089 -7.26,-23.297 20.14,13.386 31.44,20.922 31.6,-20.922 20.14,-13.386 -7.27,23.297 -10.97,34.089 30.04,21.551 21.07,15.25 -25.72,0.602 -38.38,0.781"
         style="fill:#f3f020;fill-opacity:1;fill-rule:nonzero;stroke:none"
         id="path50" /><path
         d="m 6573.83,328.582 -12.38,33.898 -8.13,21.989 -7.85,-21.989 -12.52,-33.898 -38.24,-0.781 -26,-0.602 21.09,-15.25 30.18,-21.551 -10.98,-34.089 -7.26,-23.297 20.14,13.386 31.44,20.922 31.6,-20.922 20.14,-13.386 -7.27,23.297 -10.97,34.089 30.04,21.551 21.07,15.25 -25.72,0.602 z"
         style="fill:none;stroke:#f3f020;stroke-width:11.064;stroke-linecap:butt;stroke-linejoin:miter;stroke-miterlimit:4;stroke-dasharray:none;stroke-opacity:1"
         id="path52" /><path
         d="m 6843.98,399.422 -12.52,34.078 -7.98,21.871 -7.99,-21.871 -12.4,-34.078 -38.25,-0.844 -25.97,-0.476 21.23,-15.122 30.02,-21.679 -10.86,-34.102 -7.38,-23.23 20.13,13.242 31.47,20.898 31.58,-20.898 20.02,-13.242 -7.15,23.23 -10.86,34.102 29.9,21.679 21.12,15.122 -25.86,0.476 -38.25,0.844"
         style="fill:#f3f020;fill-opacity:1;fill-rule:nonzero;stroke:none"
         id="path54" /><path
         d="m 6843.98,399.422 -12.52,34.078 -7.98,21.871 -7.99,-21.871 -12.4,-34.078 -38.25,-0.844 -25.97,-0.476 21.23,-15.122 30.02,-21.679 -10.86,-34.102 -7.38,-23.23 20.13,13.242 31.47,20.898 31.58,-20.898 20.02,-13.242 -7.15,23.23 -10.86,34.102 29.9,21.679 21.12,15.122 -25.86,0.476 z"
         style="fill:none;stroke:#f3f020;stroke-width:11.064;stroke-linecap:butt;stroke-linejoin:miter;stroke-miterlimit:4;stroke-dasharray:none;stroke-opacity:1"
         id="path56" /><path
         d="m 7040.23,593.879 -12.52,34.109 -7.96,21.782 -7.99,-21.782 -12.52,-34.109 -38.26,-0.699 -25.84,-0.489 21.19,-15.25 29.94,-21.621 -10.84,-34.199 -7.29,-23.172 20.04,13.34 31.57,20.852 31.56,-20.852 20.04,-13.34 -7.4,23.172 -10.73,34.199 30.04,21.621 21.1,15.25 -25.88,0.489 -38.25,0.699"
         style="fill:#f3f020;fill-opacity:1;fill-rule:nonzero;stroke:none"
         id="path58" /><path
         d="m 7040.23,593.879 -12.52,34.109 -7.96,21.782 -7.99,-21.782 -12.52,-34.109 -38.26,-0.699 -25.84,-0.489 21.19,-15.25 29.94,-21.621 -10.84,-34.199 -7.29,-23.172 20.04,13.34 31.57,20.852 31.56,-20.852 20.04,-13.34 -7.4,23.172 -10.73,34.199 30.04,21.621 21.1,15.25 -25.88,0.489 z"
         style="fill:none;stroke:#f3f020;stroke-width:11.064;stroke-linecap:butt;stroke-linejoin:miter;stroke-miterlimit:4;stroke-dasharray:none;stroke-opacity:1"
         id="path60" /><path
         d="m 1445.07,1386.67 47.36,-11.97 c -9.93,-38.9 -27.79,-68.56 -53.59,-88.99 -25.79,-20.43 -57.34,-30.64 -94.6,-30.64 -38.58,0 -69.95,7.85 -94.11,23.56 -24.18,15.71 -42.57,38.45 -55.18,68.23 -12.62,29.79 -18.92,61.78 -18.92,95.96 0,37.27 7.11,69.78 21.36,97.53 14.24,27.74 34.5,48.83 60.78,63.23 26.29,14.41 55.22,21.6 86.8,21.6 35.8,0 65.92,-9.11 90.33,-27.34 24.42,-18.22 41.42,-43.87 51.03,-76.89 l -46.63,-11 c -8.3,26.04 -20.35,45 -36.14,56.89 -15.79,11.88 -35.64,17.82 -59.57,17.82 -27.51,0 -50.49,-6.59 -68.96,-19.77 -18.48,-13.18 -31.47,-30.89 -38.95,-53.1 -7.49,-22.22 -11.23,-45.13 -11.23,-68.74 0,-30.42 4.44,-57 13.3,-79.7 8.88,-22.71 22.67,-39.67 41.39,-50.9 18.71,-11.23 38.98,-16.86 60.79,-16.86 26.53,0 48.99,7.66 67.38,22.95 18.39,15.31 30.84,38.01 37.36,68.13"
         style="fill:#2d49a3;fill-opacity:1;fill-rule:nonzero;stroke:none"
         id="path62" /><path
         d="m 1573.97,1390.81 c 0,-33.2 7.24,-58.07 21.73,-74.58 14.49,-16.52 32.72,-24.78 54.69,-24.78 21.81,0 39.95,8.3 54.44,24.91 14.49,16.6 21.73,41.9 21.73,75.91 0,32.07 -7.28,56.36 -21.85,72.88 -14.56,16.52 -32.68,24.78 -54.32,24.78 -21.97,0 -40.2,-8.22 -54.69,-24.65 -14.49,-16.44 -21.73,-41.27 -21.73,-74.47 z m -45.16,0 c 0,48.01 13.34,83.57 40.04,106.7 22.29,19.2 49.47,28.81 81.54,28.81 35.65,0 64.78,-11.68 87.4,-35.04 22.62,-23.36 33.94,-55.63 33.94,-96.8 0,-33.38 -5.01,-59.62 -15.01,-78.74 -10.02,-19.13 -24.58,-33.97 -43.71,-44.56 -19.12,-10.57 -40,-15.86 -62.62,-15.86 -36.3,0 -65.63,11.63 -88.01,34.9 -22.38,23.28 -33.57,56.81 -33.57,100.59"
         style="fill:#2d49a3;fill-opacity:1;fill-rule:nonzero;stroke:none"
         id="path64" /><path
         d="m 1806.15,1368.6 v 44.18 h 135.01 v -44.18 h -135.01"
         style="fill:#2d49a3;fill-opacity:1;fill-rule:nonzero;stroke:none"
         id="path66" /><path
         d="m 2000.24,1261.18 v 225.1 h -38.81 v 34.18 h 38.81 v 27.58 c 0,17.42 1.55,30.35 4.64,38.82 4.23,11.39 11.68,20.63 22.34,27.71 10.66,7.08 25.59,10.61 44.8,10.61 12.36,0 26.04,-1.46 41.02,-4.39 l -6.59,-38.32 c -9.13,1.62 -17.75,2.44 -25.88,2.44 -13.35,0 -22.8,-2.85 -28.32,-8.55 -5.54,-5.7 -8.3,-16.35 -8.3,-31.98 v -23.92 h 50.53 v -34.18 h -50.53 v -225.1 h -43.71"
         style="fill:#2d49a3;fill-opacity:1;fill-rule:nonzero;stroke:none"
         id="path68" /><path
         d="m 2298.58,1261.18 v 38.09 c -20.18,-29.3 -47.6,-43.95 -82.27,-43.95 -15.3,0 -29.58,2.93 -42.85,8.79 -13.26,5.86 -23.11,13.22 -29.53,22.09 -6.44,8.87 -10.96,19.73 -13.56,32.6 -1.8,8.61 -2.68,22.28 -2.68,41.01 v 160.65 h 43.94 v -143.81 c 0,-22.95 0.89,-38.41 2.69,-46.39 2.76,-11.55 8.62,-20.62 17.57,-27.21 8.95,-6.6 20.02,-9.9 33.21,-9.9 13.18,0 25.54,3.38 37.11,10.14 11.55,6.76 19.73,15.94 24.53,27.59 4.8,11.63 7.21,28.52 7.21,50.65 v 138.93 h 43.94 v -259.28 h -39.31"
         style="fill:#2d49a3;fill-opacity:1;fill-rule:nonzero;stroke:none"
         id="path70" /><path
         d="m 2406.74,1261.18 v 259.28 h 39.55 v -36.88 c 19.04,28.49 46.54,42.74 82.52,42.74 15.62,0 29.99,-2.82 43.09,-8.43 13.1,-5.62 22.9,-12.98 29.42,-22.1 6.5,-9.11 11.06,-19.94 13.67,-32.46 1.62,-8.15 2.44,-22.38 2.44,-42.74 v -159.41 h -43.94 v 157.71 c 0,17.9 -1.71,31.29 -5.13,40.16 -3.42,8.87 -9.48,15.95 -18.19,21.24 -8.71,5.28 -18.92,7.94 -30.64,7.94 -18.72,0 -34.87,-5.95 -48.47,-17.83 -13.58,-11.88 -20.38,-34.42 -20.38,-67.62 v -141.6 h -43.94"
         style="fill:#2d49a3;fill-opacity:1;fill-rule:nonzero;stroke:none"
         id="path72" /><path
         d="m 2714.11,1390.57 c 0,-33.2 6.99,-58.02 21,-74.47 13.99,-16.43 30.52,-24.65 49.56,-24.65 19.2,0 35.53,7.85 48.94,23.56 13.44,15.7 20.15,39.67 20.15,71.89 0,35.49 -6.84,61.53 -20.51,78.13 -13.67,16.6 -30.52,24.9 -50.54,24.9 -19.53,0 -35.84,-7.97 -48.94,-23.93 -13.11,-15.94 -19.66,-41.09 -19.66,-75.43 z m 138.92,-129.39 v 32.71 c -16.45,-25.72 -40.62,-38.57 -72.51,-38.57 -20.68,0 -39.68,5.7 -57,17.09 -17.35,11.39 -30.77,27.3 -40.3,47.73 -9.51,20.41 -14.27,43.89 -14.27,70.43 0,25.88 4.3,49.36 12.93,70.43 8.63,21.08 21.57,37.23 38.82,48.46 17.25,11.23 36.54,16.86 57.86,16.86 15.63,0 29.55,-3.3 41.75,-9.89 12.21,-6.6 22.13,-15.19 29.79,-25.76 v 128.42 h 43.7 v -357.91 h -40.77"
         style="fill:#2d49a3;fill-opacity:1;fill-rule:nonzero;stroke:none"
         id="path74" /><path
         d="m 2996.09,1415.71 h 144.78 c -1.95,21.82 -7.49,38.17 -16.6,49.08 -14.01,16.92 -32.15,25.39 -54.45,25.39 -20.18,0 -37.14,-6.75 -50.9,-20.27 -13.75,-13.51 -21.36,-31.57 -22.83,-54.2 z m 144.29,-71.03 45.41,-5.63 c -7.17,-26.52 -20.43,-47.11 -39.79,-61.76 -19.38,-14.65 -44.12,-21.97 -74.22,-21.97 -37.93,0 -68,11.67 -90.21,35.03 -22.22,23.35 -33.33,56.1 -33.33,98.27 0,43.61 11.23,77.46 33.69,101.56 22.46,24.09 51.6,36.14 87.41,36.14 34.66,0 62.98,-11.81 84.96,-35.41 21.97,-23.6 32.96,-56.8 32.96,-99.61 0,-2.6 -0.09,-6.51 -0.25,-11.72 h -193.36 c 1.62,-28.48 9.68,-50.29 24.17,-65.43 14.48,-15.14 32.55,-22.7 54.2,-22.7 16.11,0 29.86,4.22 41.26,12.7 11.39,8.46 20.42,21.97 27.1,40.53"
         style="fill:#2d49a3;fill-opacity:1;fill-rule:nonzero;stroke:none"
         id="path76" /><path
         d="m 3270.26,1390.57 c 0,-33.2 7,-58.02 21,-74.47 13.99,-16.43 30.52,-24.65 49.56,-24.65 19.2,0 35.53,7.85 48.95,23.56 13.43,15.7 20.14,39.67 20.14,71.89 0,35.49 -6.83,61.53 -20.51,78.13 -13.67,16.6 -30.51,24.9 -50.53,24.9 -19.53,0 -35.85,-7.97 -48.95,-23.93 -13.1,-15.94 -19.66,-41.09 -19.66,-75.43 z m 138.92,-129.39 v 32.71 c -16.45,-25.72 -40.62,-38.57 -72.51,-38.57 -20.67,0 -39.68,5.7 -57,17.09 -17.35,11.39 -30.76,27.3 -40.29,47.73 -9.52,20.41 -14.28,43.89 -14.28,70.43 0,25.88 4.3,49.36 12.94,70.43 8.62,21.08 21.56,37.23 38.82,48.46 17.24,11.23 36.53,16.86 57.86,16.86 15.62,0 29.54,-3.3 41.74,-9.89 12.21,-6.6 22.13,-15.19 29.79,-25.76 v 128.42 h 43.7 v -357.91 h -40.77"
         style="fill:#2d49a3;fill-opacity:1;fill-rule:nonzero;stroke:none"
         id="path78" /><path
         d="m 3698,1392.76 c 0,-31.08 4.23,-53.54 12.69,-67.38 13.83,-22.62 32.55,-33.93 56.16,-33.93 19.19,0 35.8,8.34 49.8,25.02 13.99,16.68 21,41.55 21,74.59 0,33.85 -6.71,58.83 -20.15,74.94 -13.42,16.12 -29.66,24.18 -48.7,24.18 -19.21,0 -35.81,-8.34 -49.81,-25.03 -14,-16.69 -20.99,-40.81 -20.99,-72.39 z m 0.49,-131.58 h -40.78 v 357.91 h 43.95 v -127.7 c 18.55,23.29 42.24,34.93 71.05,34.93 15.94,0 31.04,-3.23 45.28,-9.65 14.25,-6.43 25.97,-15.47 35.15,-27.1 9.2,-11.64 16.4,-25.68 21.62,-42.12 5.2,-16.43 7.81,-34.01 7.81,-52.74 0,-44.43 -10.99,-78.76 -32.96,-103.02 -21.97,-24.25 -48.34,-36.37 -79.1,-36.37 -30.61,0 -54.61,12.77 -72.02,38.32 v -32.46"
         style="fill:#2d49a3;fill-opacity:1;fill-rule:nonzero;stroke:none"
         id="path80" /><path
         d="m 3934.08,1161.32 -4.88,41.27 c 9.6,-2.61 17.98,-3.91 25.15,-3.91 9.76,0 17.57,1.62 23.43,4.88 5.86,3.26 10.66,7.82 14.41,13.67 2.76,4.4 7.23,15.3 13.43,32.72 0.81,2.44 2.1,6.01 3.9,10.74 l -98.39,259.77 h 47.37 l 53.95,-150.16 c 6.99,-19.04 13.26,-39.06 18.8,-60.06 5.04,20.19 11.06,39.89 18.07,59.08 l 55.42,151.14 h 43.94 l -98.63,-263.67 c -10.59,-28.49 -18.8,-48.11 -24.66,-58.85 -7.81,-14.48 -16.77,-25.1 -26.85,-31.86 -10.1,-6.76 -22.14,-10.13 -36.14,-10.13 -8.46,0 -17.91,1.79 -28.32,5.37"
         style="fill:#2d49a3;fill-opacity:1;fill-rule:nonzero;stroke:none"
         id="path82" /><path
         d="m 4420.9,1300.48 6.35,-38.81 c -12.38,-2.61 -23.44,-3.91 -33.21,-3.91 -15.95,0 -28.32,2.52 -37.11,7.56 -8.79,5.05 -14.98,11.68 -18.55,19.9 -3.59,8.23 -5.37,25.51 -5.37,51.88 v 149.18 h -32.23 v 34.18 h 32.23 v 64.2 l 43.7,26.36 v -90.56 h 44.19 v -34.18 h -44.19 v -151.62 c 0,-12.53 0.77,-20.59 2.31,-24.16 1.56,-3.6 4.08,-6.44 7.58,-8.56 3.5,-2.11 8.5,-3.16 15.01,-3.16 4.88,0 11.31,0.56 19.29,1.7"
         style="fill:#2d49a3;fill-opacity:1;fill-rule:nonzero;stroke:none"
         id="path84" /><path
         d="m 4463.87,1261.18 v 357.91 h 43.94 v -128.42 c 20.51,23.75 46.39,35.65 77.64,35.65 19.2,0 35.89,-3.79 50.05,-11.36 14.16,-7.57 24.29,-18.03 30.39,-31.38 6.11,-13.34 9.16,-32.71 9.16,-58.1 v -164.3 h -43.95 v 164.3 c 0,21.97 -4.76,37.97 -14.27,47.98 -9.54,10 -23,15 -40.41,15 -13.03,0 -25.28,-3.37 -36.74,-10.12 -11.49,-6.76 -19.66,-15.91 -24.54,-27.47 -4.89,-11.56 -7.33,-27.5 -7.33,-47.85 v -141.84 h -43.94"
         style="fill:#2d49a3;fill-opacity:1;fill-rule:nonzero;stroke:none"
         id="path86" /><path
         d="m 4775.15,1415.71 h 144.77 c -1.95,21.82 -7.49,38.17 -16.6,49.08 -14,16.92 -32.15,25.39 -54.44,25.39 -20.19,0 -37.15,-6.75 -50.91,-20.27 -13.75,-13.51 -21.36,-31.57 -22.82,-54.2 z m 144.28,-71.03 45.41,-5.63 c -7.16,-26.52 -20.43,-47.11 -39.79,-61.76 -19.38,-14.65 -44.11,-21.97 -74.22,-21.97 -37.93,0 -68,11.67 -90.2,35.03 -22.23,23.35 -33.34,56.1 -33.34,98.27 0,43.61 11.24,77.46 33.7,101.56 22.46,24.09 51.59,36.14 87.4,36.14 34.67,0 62.99,-11.81 84.96,-35.41 21.97,-23.6 32.96,-56.8 32.96,-99.61 0,-2.6 -0.09,-6.51 -0.25,-11.72 h -193.35 c 1.62,-28.48 9.67,-50.29 24.17,-65.43 14.48,-15.14 32.54,-22.7 54.19,-22.7 16.12,0 29.87,4.22 41.26,12.7 11.39,8.46 20.42,21.97 27.1,40.53"
         style="fill:#2d49a3;fill-opacity:1;fill-rule:nonzero;stroke:none"
         id="path88" /><path
         d="M 11.2305,701.172 V 1059.08 H 270.02 v -42.24 H 58.5938 V 907.227 H 256.594 V 865.234 H 58.5938 V 743.406 H 278.32 V 701.172 H 11.2305"
         style="fill:#2d49a3;fill-opacity:1;fill-rule:nonzero;stroke:none"
         id="path90" /><path
         d="m 337.645,701.172 v 259.273 h 39.55 v -39.304 c 10.09,18.386 19.407,30.515 27.961,36.379 8.535,5.859 17.942,8.789 28.196,8.789 14.8,0 29.863,-4.719 45.164,-14.161 l -15.137,-40.773 c -10.742,6.348 -21.484,9.523 -32.227,9.523 -9.609,0 -18.23,-2.89 -25.879,-8.664 -7.656,-5.781 -13.105,-13.796 -16.355,-24.05 -4.887,-15.625 -7.324,-32.715 -7.324,-51.274 V 701.172 h -43.949"
         style="fill:#2d49a3;fill-opacity:1;fill-rule:nonzero;stroke:none"
         id="path92" /><path
         d="m 670.168,831.297 c -15.957,-6.516 -39.887,-12.051 -71.777,-16.602 -18.071,-2.605 -30.852,-5.539 -38.332,-8.789 -7.493,-3.261 -13.274,-8.015 -17.332,-14.289 -4.075,-6.258 -6.106,-13.219 -6.106,-20.867 0,-11.719 4.434,-21.484 13.301,-29.297 8.879,-7.812 21.855,-11.719 38.945,-11.719 16.926,0 31.985,3.704 45.164,11.106 13.188,7.41 22.864,17.539 29.055,30.398 4.719,9.922 7.082,24.571 7.082,43.946 z m 3.66,-98.145 c -16.277,-13.836 -31.941,-23.601 -46.992,-29.297 -15.059,-5.695 -31.223,-8.542 -48.469,-8.542 -28.484,0 -50.379,6.953 -65.672,20.878 -15.3,13.907 -22.949,31.688 -22.949,53.336 0,12.7 2.891,24.297 8.672,34.789 5.77,10.504 13.34,18.922 22.695,25.274 9.367,6.348 19.903,11.14 31.621,14.402 8.621,2.278 21.641,4.473 39.063,6.594 35.476,4.227 61.601,9.273 78.371,15.137 0.152,6.023 0.242,9.843 0.242,11.472 0,17.903 -4.148,30.52 -12.449,37.84 -11.231,9.934 -27.922,14.895 -50.051,14.895 -20.676,0 -35.93,-3.621 -45.781,-10.86 -9.844,-7.246 -17.129,-20.066 -21.848,-38.457 l -42.968,5.86 c 3.91,18.386 10.332,33.242 19.289,44.55 8.945,11.309 21.882,20.02 38.82,26.133 16.922,6.094 36.531,9.153 58.836,9.153 22.129,0 40.117,-2.61 53.957,-7.817 13.828,-5.203 24.004,-11.765 30.515,-19.656 6.504,-7.891 11.067,-17.859 13.672,-29.902 1.465,-7.493 2.2,-20.996 2.2,-40.528 v -58.593 c 0,-40.86 0.933,-66.692 2.8,-77.508 1.875,-10.832 5.578,-21.211 11.114,-31.133 h -45.899 c -4.558,9.109 -7.488,19.773 -8.789,31.98"
         style="fill:#2d49a3;fill-opacity:1;fill-rule:nonzero;stroke:none"
         id="path94" /><path
         d="m 765.137,778.563 43.457,6.835 c 2.441,-17.421 9.238,-30.761 20.383,-40.039 11.152,-9.277 26.738,-13.918 46.753,-13.918 20.176,0 35.161,4.114 44.922,12.329 9.77,8.218 14.653,17.859 14.653,28.933 0,9.922 -4.321,17.735 -12.942,23.438 -6.023,3.906 -20.996,8.867 -44.922,14.89 -32.226,8.137 -54.558,15.18 -67.019,21.125 -12.442,5.938 -21.887,14.16 -28.32,24.649 -6.426,10.508 -9.641,22.097 -9.641,34.797 0,11.55 2.644,22.253 7.937,32.097 5.286,9.844 12.485,18.028 21.606,24.539 6.836,5.051 16.148,9.321 27.945,12.825 11.809,3.496 24.453,5.246 37.973,5.246 20.34,0 38.199,-2.93 53.594,-8.789 15.371,-5.864 26.726,-13.801 34.05,-23.801 7.325,-10.02 12.364,-23.399 15.137,-40.164 l -42.969,-5.864 c -1.953,13.352 -7.605,23.762 -16.964,31.25 -9.364,7.493 -22.586,11.235 -39.676,11.235 -20.188,0 -34.59,-3.34 -43.211,-10.012 -8.637,-6.68 -12.942,-14.492 -12.942,-23.437 0,-5.704 1.789,-10.821 5.372,-15.379 3.574,-4.719 9.191,-8.625 16.843,-11.719 4.399,-1.633 17.336,-5.371 38.821,-11.231 31.086,-8.3 52.773,-15.097 65.07,-20.382 12.281,-5.293 21.922,-12.989 28.926,-23.075 6.992,-10.097 10.496,-22.628 10.496,-37.597 0,-14.653 -4.27,-28.442 -12.824,-41.391 -8.536,-12.93 -20.868,-22.945 -36.981,-30.015 -16.113,-7.09 -34.348,-10.625 -54.687,-10.625 -33.692,0 -59.368,6.992 -77.024,20.996 -17.664,13.992 -28.933,34.746 -33.816,62.254"
         style="fill:#2d49a3;fill-opacity:1;fill-rule:nonzero;stroke:none"
         id="path96" /><path
         d="m 1032.71,701.172 v 259.273 h 39.31 V 924.07 c 8.14,12.696 18.96,22.91 32.47,30.645 13.51,7.726 28.89,11.594 46.14,11.594 19.2,0 34.96,-3.996 47.25,-11.965 12.29,-7.981 20.95,-19.121 26,-33.446 20.5,30.274 47.19,45.411 80.08,45.411 25.71,0 45.48,-7.121 59.32,-21.36 13.83,-14.25 20.75,-36.179 20.75,-65.801 V 701.172 h -43.7 V 864.5 c 0,17.578 -1.42,30.234 -4.27,37.969 -2.85,7.722 -8.02,13.945 -15.5,18.672 -7.49,4.718 -16.28,7.082 -26.37,7.082 -18.23,0 -33.37,-6.067 -45.41,-18.196 -12.05,-12.129 -18.07,-31.535 -18.07,-58.222 V 701.172 h -43.94 v 168.457 c 0,19.527 -3.59,34.18 -10.74,43.941 -7.17,9.77 -18.89,14.653 -35.16,14.653 -12.37,0 -23.81,-3.254 -34.3,-9.77 -10.51,-6.512 -18.11,-16.031 -22.83,-28.562 -4.73,-12.539 -7.08,-30.606 -7.08,-54.2 V 701.172 h -43.95"
         style="fill:#2d49a3;fill-opacity:1;fill-rule:nonzero;stroke:none"
         id="path98" /><path
         d="m 1619.14,701.172 v 38.086 c -20.18,-29.297 -47.61,-43.945 -82.27,-43.945 -15.31,0 -29.58,2.925 -42.86,8.789 -13.26,5.859 -23.1,13.218 -29.53,22.089 -6.43,8.875 -10.95,19.735 -13.55,32.594 -1.8,8.625 -2.69,22.297 -2.69,41.02 v 160.64 h 43.95 V 816.648 c 0,-22.949 0.89,-38.418 2.68,-46.386 2.77,-11.563 8.63,-20.633 17.58,-27.215 8.95,-6.606 20.02,-9.895 33.2,-9.895 13.19,0 25.55,3.379 37.11,10.125 11.56,6.758 19.74,15.957 24.53,27.602 4.81,11.629 7.21,28.516 7.21,50.652 v 138.914 h 43.95 V 701.172 h -39.31"
         style="fill:#2d49a3;fill-opacity:1;fill-rule:nonzero;stroke:none"
         id="path100" /><path
         d="m 1709.72,778.563 43.45,6.835 c 2.45,-17.421 9.24,-30.761 20.38,-40.039 11.16,-9.277 26.74,-13.918 46.76,-13.918 20.18,0 35.16,4.114 44.92,12.329 9.77,8.218 14.65,17.859 14.65,28.933 0,9.922 -4.31,17.735 -12.94,23.438 -6.02,3.906 -20.99,8.867 -44.92,14.89 -32.23,8.137 -54.56,15.18 -67.02,21.125 -12.44,5.938 -21.88,14.16 -28.32,24.649 -6.43,10.508 -9.64,22.097 -9.64,34.797 0,11.55 2.65,22.253 7.94,32.097 5.28,9.844 12.48,18.028 21.6,24.539 6.84,5.051 16.15,9.321 27.95,12.825 11.81,3.496 24.45,5.246 37.97,5.246 20.34,0 38.2,-2.93 53.59,-8.789 15.37,-5.864 26.73,-13.801 34.06,-23.801 7.32,-10.02 12.36,-23.399 15.13,-40.164 l -42.97,-5.864 c -1.95,13.352 -7.6,23.762 -16.96,31.25 -9.36,7.493 -22.59,11.235 -39.68,11.235 -20.18,0 -34.59,-3.34 -43.21,-10.012 -8.63,-6.68 -12.94,-14.492 -12.94,-23.437 0,-5.704 1.79,-10.821 5.37,-15.379 3.58,-4.719 9.19,-8.625 16.85,-11.719 4.39,-1.633 17.33,-5.371 38.82,-11.231 31.08,-8.3 52.77,-15.097 65.07,-20.382 12.28,-5.293 21.92,-12.989 28.92,-23.075 6.99,-10.097 10.5,-22.628 10.5,-37.597 0,-14.653 -4.27,-28.442 -12.82,-41.391 -8.54,-12.93 -20.87,-22.945 -36.99,-30.015 -16.11,-7.09 -34.34,-10.625 -54.68,-10.625 -33.69,0 -59.37,6.992 -77.02,20.996 -17.67,13.992 -28.94,34.746 -33.82,62.254"
         style="fill:#2d49a3;fill-opacity:1;fill-rule:nonzero;stroke:none"
         id="path102" /><path
         d="m 2069.58,759.031 v 98.145 h -97.41 v 41.015 h 97.41 v 97.414 h 41.5 v -97.414 h 97.42 v -41.015 h -97.42 v -98.145 h -41.5"
         style="fill:#2d49a3;fill-opacity:1;fill-rule:nonzero;stroke:none"
         id="path104" /><path
         d="m 2461.18,888.914 h 92.53 c 30.6,0 52.33,5.695 65.19,17.09 12.85,11.387 19.28,27.422 19.28,48.098 0,14.968 -3.78,27.781 -11.35,38.445 -7.56,10.663 -17.54,17.703 -29.91,21.123 -7.97,2.12 -22.7,3.17 -44.19,3.17 h -91.55 z m -47.36,-187.742 v 357.908 h 135.01 c 23.76,0 41.9,-1.14 54.44,-3.42 17.58,-2.93 32.31,-8.5 44.19,-16.73 11.88,-8.22 21.45,-19.72 28.68,-34.54 7.25,-14.812 10.87,-31.081 10.87,-48.824 0,-30.441 -9.69,-56.203 -29.05,-77.277 -19.38,-21.074 -54.37,-31.609 -104.98,-31.609 h -91.8 V 701.172 h -47.36"
         style="fill:#2d49a3;fill-opacity:1;fill-rule:nonzero;stroke:none"
         id="path106" /><path
         d="m 2741.21,701.172 v 259.273 h 39.55 v -39.304 c 10.09,18.386 19.41,30.515 27.96,36.379 8.54,5.859 17.94,8.789 28.19,8.789 14.81,0 29.87,-4.719 45.17,-14.161 l -15.14,-40.773 c -10.74,6.348 -21.48,9.523 -32.22,9.523 -9.61,0 -18.24,-2.89 -25.88,-8.664 -7.66,-5.781 -13.11,-13.796 -16.36,-24.05 -4.88,-15.625 -7.32,-32.715 -7.32,-51.274 V 701.172 h -43.95"
         style="fill:#2d49a3;fill-opacity:1;fill-rule:nonzero;stroke:none"
         id="path108" /><path
         d="m 2937.01,830.809 c 0,-33.204 7.24,-58.067 21.73,-74.579 14.48,-16.527 32.72,-24.789 54.69,-24.789 21.8,0 39.95,8.301 54.44,24.907 14.48,16.597 21.73,41.902 21.73,75.925 0,32.063 -7.29,56.348 -21.86,72.872 -14.56,16.523 -32.67,24.785 -54.31,24.785 -21.97,0 -40.21,-8.223 -54.69,-24.657 -14.49,-16.437 -21.73,-41.261 -21.73,-74.464 z m -45.16,0 c 0,48.007 13.34,83.574 40.03,106.687 22.3,19.211 49.48,28.813 81.55,28.813 35.64,0 64.77,-11.68 87.4,-35.032 22.62,-23.359 33.94,-55.625 33.94,-96.804 0,-33.371 -5.01,-59.614 -15.01,-78.735 -10.02,-19.129 -24.58,-33.98 -43.72,-44.558 -19.12,-10.575 -40,-15.867 -62.61,-15.867 -36.3,0 -65.64,11.628 -88.01,34.91 -22.38,23.269 -33.57,56.797 -33.57,100.586"
         style="fill:#2d49a3;fill-opacity:1;fill-rule:nonzero;stroke:none"
         id="path110" /><path
         d="m 3214.6,835.445 c 0,-34.019 6.75,-58.836 20.26,-74.461 13.51,-15.625 30.43,-23.437 50.78,-23.437 20.18,0 37.11,7.773 50.79,23.312 13.67,15.543 20.5,39.918 20.5,73.125 0,31.739 -7.04,55.664 -21.11,71.778 -14.08,16.109 -31.05,24.168 -50.91,24.168 -19.53,0 -36.13,-7.93 -49.8,-23.809 -13.67,-15.859 -20.51,-39.426 -20.51,-70.676 z m -36.38,-155.757 42.73,-6.348 c 1.78,-13.192 6.75,-22.789 14.89,-28.809 10.9,-8.14 25.79,-12.211 44.68,-12.211 20.34,0 36.04,4.071 47.12,12.211 11.06,8.141 18.55,19.528 22.46,34.18 2.27,8.953 3.33,27.742 3.17,56.394 -19.21,-22.625 -43.13,-33.933 -71.78,-33.933 -35.64,0 -63.23,12.851 -82.76,38.57 -19.53,25.715 -29.3,56.555 -29.3,92.531 0,24.739 4.48,47.559 13.43,68.477 8.95,20.918 21.93,37.07 38.94,48.469 17.01,11.394 36.99,17.09 59.94,17.09 30.59,0 55.82,-12.375 75.68,-37.114 v 31.25 h 40.53 V 736.324 c 0,-40.359 -4.11,-68.965 -12.32,-85.812 -8.23,-16.84 -21.25,-30.153 -39.07,-39.922 -17.83,-9.762 -39.76,-14.641 -65.8,-14.641 -30.93,0 -55.91,6.961 -74.95,20.86 -19.04,13.929 -28.24,34.89 -27.59,62.879"
         style="fill:#2d49a3;fill-opacity:1;fill-rule:nonzero;stroke:none"
         id="path112" /><path
         d="m 3463.87,701.172 v 259.273 h 39.55 v -39.304 c 10.09,18.386 19.4,30.515 27.96,36.379 8.53,5.859 17.94,8.789 28.19,8.789 14.81,0 29.86,-4.719 45.17,-14.161 l -15.14,-40.773 c -10.74,6.348 -21.48,9.523 -32.23,9.523 -9.61,0 -18.23,-2.89 -25.88,-8.664 -7.65,-5.781 -13.1,-13.796 -16.35,-24.05 -4.89,-15.625 -7.33,-32.715 -7.33,-51.274 V 701.172 h -43.94"
         style="fill:#2d49a3;fill-opacity:1;fill-rule:nonzero;stroke:none"
         id="path114" /><path
         d="m 3796.39,831.297 c -15.96,-6.516 -39.89,-12.051 -71.78,-16.602 -18.07,-2.605 -30.85,-5.539 -38.33,-8.789 -7.49,-3.261 -13.27,-8.015 -17.33,-14.289 -4.08,-6.258 -6.11,-13.219 -6.11,-20.867 0,-11.719 4.44,-21.484 13.3,-29.297 8.88,-7.812 21.86,-11.719 38.95,-11.719 16.92,0 31.98,3.704 45.16,11.106 13.19,7.41 22.87,17.539 29.06,30.398 4.71,9.922 7.08,24.571 7.08,43.946 z m 3.66,-98.145 c -16.28,-13.836 -31.94,-23.601 -46.99,-29.297 -15.06,-5.695 -31.22,-8.542 -48.47,-8.542 -28.49,0 -50.38,6.953 -65.67,20.878 -15.31,13.907 -22.95,31.688 -22.95,53.336 0,12.7 2.89,24.297 8.67,34.789 5.77,10.504 13.34,18.922 22.69,25.274 9.37,6.348 19.91,11.14 31.63,14.402 8.62,2.278 21.64,4.473 39.06,6.594 35.48,4.227 61.6,9.273 78.37,15.137 0.15,6.023 0.24,9.843 0.24,11.472 0,17.903 -4.15,30.52 -12.45,37.84 -11.23,9.934 -27.92,14.895 -50.05,14.895 -20.67,0 -35.93,-3.621 -45.78,-10.86 -9.84,-7.246 -17.13,-20.066 -21.85,-38.457 l -42.96,5.86 c 3.9,18.386 10.33,33.242 19.28,44.55 8.95,11.309 21.89,20.02 38.82,26.133 16.92,6.094 36.53,9.153 58.84,9.153 22.13,0 40.12,-2.61 53.95,-7.817 13.83,-5.203 24.01,-11.765 30.52,-19.656 6.51,-7.891 11.07,-17.859 13.67,-29.902 1.47,-7.493 2.2,-20.996 2.2,-40.528 v -58.593 c 0,-40.86 0.94,-66.692 2.8,-77.508 1.88,-10.832 5.58,-21.211 11.12,-31.133 h -45.9 c -4.56,9.109 -7.49,19.773 -8.79,31.98"
         style="fill:#2d49a3;fill-opacity:1;fill-rule:nonzero;stroke:none"
         id="path116" /><path
         d="m 3908.94,701.172 v 259.273 h 39.3 V 924.07 c 8.14,12.696 18.96,22.91 32.47,30.645 13.51,7.726 28.89,11.594 46.15,11.594 19.19,0 34.95,-3.996 47.24,-11.965 12.29,-7.981 20.95,-19.121 26,-33.446 20.51,30.274 47.19,45.411 80.08,45.411 25.71,0 45.48,-7.121 59.32,-21.36 13.83,-14.25 20.75,-36.179 20.75,-65.801 V 701.172 h -43.7 V 864.5 c 0,17.578 -1.42,30.234 -4.26,37.969 -2.86,7.722 -8.03,13.945 -15.51,18.672 -7.49,4.718 -16.28,7.082 -26.37,7.082 -18.23,0 -33.37,-6.067 -45.41,-18.196 -12.05,-12.129 -18.07,-31.535 -18.07,-58.222 V 701.172 h -43.94 v 168.457 c 0,19.527 -3.59,34.18 -10.74,43.941 -7.17,9.77 -18.89,14.653 -35.16,14.653 -12.37,0 -23.81,-3.254 -34.3,-9.77 -10.5,-6.512 -18.11,-16.031 -22.83,-28.562 -4.73,-12.539 -7.08,-30.606 -7.08,-54.2 V 701.172 h -43.94"
         style="fill:#2d49a3;fill-opacity:1;fill-rule:nonzero;stroke:none"
         id="path118" /><path
         d="m 4325.44,701.172 v 259.273 h 39.31 V 924.07 c 8.13,12.696 18.95,22.91 32.47,30.645 13.5,7.726 28.88,11.594 46.14,11.594 19.2,0 34.95,-3.996 47.25,-11.965 12.28,-7.981 20.94,-19.121 25.99,-33.446 20.51,30.274 47.2,45.411 80.08,45.411 25.71,0 45.49,-7.121 59.33,-21.36 13.82,-14.25 20.75,-36.179 20.75,-65.801 V 701.172 h -43.7 V 864.5 c 0,17.578 -1.43,30.234 -4.27,37.969 -2.85,7.722 -8.03,13.945 -15.51,18.672 -7.49,4.718 -16.28,7.082 -26.37,7.082 -18.23,0 -33.37,-6.067 -45.41,-18.196 -12.05,-12.129 -18.06,-31.535 -18.06,-58.222 V 701.172 h -43.95 v 168.457 c 0,19.527 -3.58,34.18 -10.74,43.941 -7.17,9.77 -18.89,14.653 -35.16,14.653 -12.37,0 -23.8,-3.254 -34.29,-9.77 -10.51,-6.512 -18.12,-16.031 -22.84,-28.562 -4.72,-12.539 -7.08,-30.606 -7.08,-54.2 V 701.172 h -43.94"
         style="fill:#2d49a3;fill-opacity:1;fill-rule:nonzero;stroke:none"
         id="path120" /><path
         d="m 4775.15,855.711 h 144.77 c -1.95,21.809 -7.49,38.164 -16.6,49.07 -14,16.926 -32.15,25.395 -54.44,25.395 -20.19,0 -37.15,-6.758 -50.91,-20.266 -13.75,-13.515 -21.36,-31.582 -22.82,-54.199 z m 144.28,-71.043 45.41,-5.617 c -7.16,-26.531 -20.43,-47.117 -39.79,-61.77 -19.38,-14.644 -44.11,-21.968 -74.22,-21.968 -37.93,0 -68,11.675 -90.2,35.039 -22.23,23.347 -33.34,56.101 -33.34,98.257 0,43.625 11.24,77.473 33.7,101.567 22.46,24.09 51.59,36.133 87.4,36.133 34.67,0 62.99,-11.809 84.96,-35.403 21.97,-23.601 32.96,-56.804 32.96,-99.609 0,-2.606 -0.09,-6.516 -0.25,-11.719 h -193.35 c 1.62,-28.484 9.67,-50.293 24.17,-65.43 14.48,-15.136 32.54,-22.707 54.19,-22.707 16.12,0 29.87,4.231 41.26,12.7 11.39,8.457 20.42,21.968 27.1,40.527"
         style="fill:#2d49a3;fill-opacity:1;fill-rule:nonzero;stroke:none"
         id="path122" /><path
         d="m 45.1641,270.809 c 0,-33.2 7.2382,-58.071 21.7304,-74.579 14.4844,-16.519 32.7149,-24.789 54.6875,-24.789 21.809,0 39.949,8.297 54.441,24.911 14.485,16.597 21.731,41.898 21.731,75.918 0,32.062 -7.285,56.359 -21.856,72.878 -14.558,16.524 -32.675,24.782 -54.316,24.782 -21.9726,0 -40.2031,-8.219 -54.6875,-24.66 C 52.4023,328.832 45.1641,304.012 45.1641,270.809 Z M 0,270.809 c 0,48.011 13.3398,83.57 40.0391,106.691 22.2968,19.199 49.4726,28.809 81.5429,28.809 35.645,0 64.773,-11.68 87.402,-35.039 22.618,-23.348 33.938,-55.629 33.938,-96.801 0,-33.367 -5.012,-59.61 -15.012,-78.731 -10.019,-19.129 -24.582,-33.976 -43.711,-44.558 -19.121,-10.578 -40,-15.871 -62.617,-15.871 -36.2968,0 -65.6328,11.632 -88.0078,34.91 C 11.1914,193.488 0,227.02 0,270.809"
         style="fill:#2d49a3;fill-opacity:1;fill-rule:nonzero;stroke:none"
         id="path124" /><path
         d="M 304.934,141.172 V 366.27 h -38.821 v 34.179 h 38.821 v 27.59 c 0,17.41 1.543,30.352 4.636,38.813 4.231,11.386 11.68,20.628 22.332,27.718 10.664,7.071 25.598,10.61 44.809,10.61 12.359,0 26.031,-1.461 41.016,-4.391 l -6.594,-38.328 c -9.121,1.621 -17.742,2.437 -25.879,2.437 -13.352,0 -22.793,-2.847 -28.32,-8.539 -5.539,-5.711 -8.301,-16.359 -8.301,-31.988 v -23.922 h 50.539 V 366.27 H 348.633 V 141.172 h -43.699"
         style="fill:#2d49a3;fill-opacity:1;fill-rule:nonzero;stroke:none"
         id="path126" /><path
         d="m 668.215,180.48 6.348,-38.82 c -12.375,-2.601 -23.442,-3.91 -33.208,-3.91 -15.957,0 -28.32,2.531 -37.109,7.57 -8.785,5.039 -14.976,11.68 -18.555,19.891 -3.582,8.23 -5.371,25.519 -5.371,51.891 V 366.27 h -32.222 v 34.179 h 32.222 v 64.211 l 43.703,26.36 v -90.571 h 44.192 V 366.27 H 624.023 V 214.66 c 0,-12.539 0.774,-20.601 2.317,-24.172 1.551,-3.59 4.07,-6.437 7.578,-8.547 3.492,-2.121 8.492,-3.171 15.008,-3.171 4.883,0 11.308,0.562 19.289,1.71"
         style="fill:#2d49a3;fill-opacity:1;fill-rule:nonzero;stroke:none"
         id="path128" /><path
         d="m 711.184,141.172 v 357.91 h 43.945 V 370.66 c 20.508,23.762 46.387,35.649 77.637,35.649 19.199,0 35.886,-3.789 50.047,-11.348 14.16,-7.582 24.296,-18.039 30.39,-31.379 6.113,-13.352 9.16,-32.711 9.16,-58.102 V 141.172 H 878.418 V 305.48 c 0,21.969 -4.766,37.961 -14.277,47.981 -9.532,10 -22.996,15.008 -40.411,15.008 -13.027,0 -25.273,-3.379 -36.738,-10.129 -11.484,-6.762 -19.656,-15.918 -24.543,-27.469 -4.883,-11.57 -7.32,-27.512 -7.32,-47.851 V 141.172 h -43.945"
         style="fill:#2d49a3;fill-opacity:1;fill-rule:nonzero;stroke:none"
         id="path130" /><path
         d="m 1022.46,295.711 h 144.78 c -1.96,21.809 -7.49,38.168 -16.61,49.07 -14,16.93 -32.14,25.391 -54.44,25.391 -20.18,0 -37.15,-6.75 -50.91,-20.262 -13.75,-13.519 -21.35,-31.582 -22.82,-54.199 z m 144.29,-71.039 45.41,-5.621 c -7.17,-26.531 -20.43,-47.121 -39.8,-61.77 -19.37,-14.652 -44.11,-21.972 -74.22,-21.972 -37.93,0 -67.99,11.679 -90.2,35.043 -22.225,23.347 -33.331,56.097 -33.331,98.257 0,43.61 11.231,77.473 33.691,101.563 22.46,24.09 51.59,36.137 87.4,36.137 34.67,0 62.99,-11.809 84.96,-35.399 21.98,-23.609 32.96,-56.808 32.96,-99.609 0,-2.61 -0.08,-6.52 -0.24,-11.723 h -193.36 c 1.62,-28.488 9.68,-50.289 24.17,-65.43 14.48,-15.136 32.55,-22.707 54.2,-22.707 16.11,0 29.86,4.231 41.26,12.7 11.39,8.461 20.42,21.968 27.1,40.531"
         style="fill:#2d49a3;fill-opacity:1;fill-rule:nonzero;stroke:none"
         id="path132" /><path
         d="m 1412.84,141.172 v 357.91 h 258.79 V 456.84 H 1460.21 V 347.219 H 1658.2 V 305.23 H 1460.21 V 183.41 h 219.72 v -42.238 h -267.09"
         style="fill:#2d49a3;fill-opacity:1;fill-rule:nonzero;stroke:none"
         id="path134" /><path
         d="m 1909.67,141.172 v 38.09 c -20.19,-29.301 -47.61,-43.953 -82.28,-43.953 -15.3,0 -29.58,2.929 -42.85,8.793 -13.26,5.859 -23.1,13.218 -29.53,22.089 -6.44,8.879 -10.96,19.739 -13.55,32.598 -1.8,8.621 -2.69,22.293 -2.69,41.012 v 160.648 h 43.94 V 256.648 c 0,-22.949 0.89,-38.418 2.69,-46.386 2.76,-11.563 8.62,-20.633 17.58,-27.211 8.94,-6.61 20.02,-9.903 33.2,-9.903 13.19,0 25.55,3.383 37.11,10.133 11.55,6.758 19.74,15.957 24.53,27.598 4.81,11.633 7.21,28.512 7.21,50.652 v 138.918 h 43.94 V 141.172 h -39.3"
         style="fill:#2d49a3;fill-opacity:1;fill-rule:nonzero;stroke:none"
         id="path136" /><path
         d="m 2017.33,141.172 v 259.277 h 39.55 v -39.308 c 10.09,18.39 19.41,30.519 27.96,36.379 8.54,5.859 17.94,8.789 28.2,8.789 14.8,0 29.86,-4.727 45.16,-14.161 l -15.13,-40.769 c -10.75,6.34 -21.49,9.519 -32.23,9.519 -9.61,0 -18.23,-2.886 -25.88,-8.679 -7.66,-5.77 -13.1,-13.778 -16.36,-24.039 -4.88,-15.621 -7.32,-32.711 -7.32,-51.27 V 141.172 h -43.95"
         style="fill:#2d49a3;fill-opacity:1;fill-rule:nonzero;stroke:none"
         id="path138" /><path
         d="m 2213.13,270.809 c 0,-33.2 7.24,-58.071 21.73,-74.579 14.49,-16.519 32.72,-24.789 54.69,-24.789 21.81,0 39.95,8.297 54.44,24.911 14.49,16.597 21.73,41.898 21.73,75.918 0,32.062 -7.28,56.359 -21.85,72.878 -14.56,16.524 -32.68,24.782 -54.32,24.782 -21.97,0 -40.2,-8.219 -54.69,-24.66 -14.49,-16.438 -21.73,-41.258 -21.73,-74.461 z m -45.16,0 c 0,48.011 13.34,83.57 40.04,106.691 22.29,19.199 49.47,28.809 81.54,28.809 35.65,0 64.78,-11.68 87.4,-35.039 22.62,-23.348 33.94,-55.629 33.94,-96.801 0,-33.367 -5.01,-59.61 -15.01,-78.731 -10.02,-19.129 -24.58,-33.976 -43.71,-44.558 -19.12,-10.578 -40,-15.871 -62.62,-15.871 -36.3,0 -65.63,11.632 -88.01,34.91 -22.38,23.269 -33.57,56.801 -33.57,100.59"
         style="fill:#2d49a3;fill-opacity:1;fill-rule:nonzero;stroke:none"
         id="path140" /><path
         d="m 2502.2,269.34 c 0,-33.371 6.75,-58.02 20.26,-73.969 13.51,-15.961 29.86,-23.93 49.07,-23.93 19.53,0 36.25,8.27 50.18,24.789 13.91,16.508 20.87,42.11 20.87,76.782 0,33.027 -6.8,57.769 -20.38,74.207 -13.6,16.441 -29.84,24.66 -48.71,24.66 -18.72,0 -35.28,-8.75 -49.69,-26.238 -14.4,-17.5 -21.6,-42.942 -21.6,-76.301 z M 2462.4,41.8008 V 400.449 h 40.04 v -33.687 c 9.44,13.179 20.1,23.058 31.98,29.66 11.88,6.59 26.28,9.887 43.22,9.887 22.13,0 41.66,-5.707 58.59,-17.09 16.92,-11.399 29.7,-27.457 38.33,-48.231 8.62,-20.738 12.94,-43.488 12.94,-68.226 0,-26.532 -4.76,-50.422 -14.29,-71.653 -9.51,-21.25 -23.35,-37.519 -41.5,-48.828 -18.15,-11.312 -37.23,-16.972 -57.25,-16.972 -14.65,0 -27.79,3.101 -39.43,9.281 -11.63,6.18 -21.2,13.992 -28.68,23.441 V 41.8008 h -43.95"
         style="fill:#2d49a3;fill-opacity:1;fill-rule:nonzero;stroke:none"
         id="path142" /><path
         d="m 2773.68,295.711 h 144.78 c -1.96,21.809 -7.49,38.168 -16.6,49.07 -14.01,16.93 -32.15,25.391 -54.45,25.391 -20.18,0 -37.15,-6.75 -50.91,-20.262 -13.75,-13.519 -21.35,-31.582 -22.82,-54.199 z m 144.29,-71.039 45.41,-5.621 c -7.17,-26.531 -20.43,-47.121 -39.8,-61.77 -19.37,-14.652 -44.11,-21.972 -74.21,-21.972 -37.93,0 -68,11.679 -90.21,35.043 -22.23,23.347 -33.33,56.097 -33.33,98.257 0,43.61 11.23,77.473 33.69,101.563 22.46,24.09 51.59,36.137 87.4,36.137 34.67,0 62.99,-11.809 84.96,-35.399 21.98,-23.609 32.96,-56.808 32.96,-99.609 0,-2.61 -0.08,-6.52 -0.24,-11.723 h -193.36 c 1.62,-28.488 9.68,-50.289 24.17,-65.43 14.48,-15.136 32.55,-22.707 54.2,-22.707 16.11,0 29.86,4.231 41.26,12.7 11.39,8.461 20.42,21.968 27.1,40.531"
         style="fill:#2d49a3;fill-opacity:1;fill-rule:nonzero;stroke:none"
         id="path144" /><path
         d="m 3184.08,271.301 c -15.95,-6.52 -39.88,-12.051 -71.78,-16.602 -18.06,-2.609 -30.84,-5.539 -38.33,-8.789 -7.49,-3.269 -13.27,-8.019 -17.33,-14.289 -4.07,-6.262 -6.1,-13.223 -6.1,-20.871 0,-11.719 4.43,-21.48 13.3,-29.301 8.87,-7.808 21.85,-11.719 38.94,-11.719 16.93,0 31.99,3.711 45.17,11.11 13.18,7.41 22.86,17.539 29.05,30.398 4.72,9.922 7.08,24.571 7.08,43.942 z m 3.66,-98.153 c -16.28,-13.839 -31.94,-23.597 -46.99,-29.289 -15.06,-5.699 -31.22,-8.55 -48.46,-8.55 -28.49,0 -50.39,6.953 -65.68,20.882 -15.3,13.911 -22.95,31.688 -22.95,53.34 0,12.688 2.89,24.301 8.67,34.778 5.78,10.511 13.34,18.929 22.7,25.281 9.36,6.351 19.9,11.14 31.62,14.398 8.62,2.282 21.64,4.481 39.06,6.594 35.48,4.227 61.6,9.277 78.37,15.137 0.16,6.019 0.25,9.84 0.25,11.48 0,17.903 -4.15,30.512 -12.45,37.84 -11.24,9.922 -27.92,14.891 -50.05,14.891 -20.68,0 -35.93,-3.621 -45.79,-10.871 -9.84,-7.239 -17.12,-20.059 -21.84,-38.45 l -42.97,5.86 c 3.91,18.39 10.33,33.25 19.29,44.562 8.94,11.309 21.88,20.02 38.82,26.117 16.92,6.114 36.53,9.161 58.83,9.161 22.13,0 40.12,-2.61 53.96,-7.821 13.83,-5.207 24,-11.75 30.52,-19.636 6.5,-7.903 11.06,-17.883 13.67,-29.922 1.46,-7.489 2.2,-20.989 2.2,-40.52 v -58.601 c 0,-40.86 0.93,-66.688 2.8,-77.508 1.87,-10.832 5.57,-21.211 11.11,-31.129 h -45.9 c -4.56,9.109 -7.49,19.777 -8.79,31.976"
         style="fill:#2d49a3;fill-opacity:1;fill-rule:nonzero;stroke:none"
         id="path146" /><path
         d="m 3296.63,141.172 v 259.277 h 39.55 v -36.867 c 19.04,28.477 46.54,42.727 82.52,42.727 15.63,0 29.99,-2.821 43.1,-8.418 13.09,-5.629 22.9,-12.993 29.41,-22.102 6.5,-9.117 11.07,-19.937 13.67,-32.469 1.62,-8.148 2.44,-22.379 2.44,-42.73 V 141.172 h -43.94 v 157.707 c 0,17.91 -1.71,31.293 -5.13,40.16 -3.42,8.883 -9.48,15.961 -18.19,21.25 -8.7,5.281 -18.92,7.93 -30.64,7.93 -18.72,0 -34.87,-5.949 -48.46,-17.821 -13.59,-11.886 -20.38,-34.429 -20.38,-67.628 V 141.172 h -43.95"
         style="fill:#2d49a3;fill-opacity:1;fill-rule:nonzero;stroke:none"
         id="path148" /><path
         d="m 3954.1,499.082 h 47.36 V 292.289 c 0,-35.969 -4.07,-64.539 -12.2,-85.687 -8.15,-21.161 -22.83,-38.372 -44.06,-51.641 -21.25,-13.262 -49.13,-19.891 -83.63,-19.891 -33.53,0 -60.95,5.782 -82.27,17.328 -21.33,11.551 -36.55,28.282 -45.66,50.184 -9.12,21.879 -13.67,51.777 -13.67,89.707 v 206.793 h 47.36 V 292.539 c 0,-31.098 2.89,-54 8.67,-68.73 5.78,-14.731 15.71,-26.09 29.78,-34.059 14.08,-7.969 31.29,-11.961 51.64,-11.961 34.83,0 59.65,7.891 74.46,23.68 14.81,15.781 22.22,46.152 22.22,91.07 v 206.543"
         style="fill:#2d49a3;fill-opacity:1;fill-rule:nonzero;stroke:none"
         id="path150" /><path
         d="m 4074.71,141.172 v 259.277 h 39.55 v -36.867 c 19.04,28.477 46.54,42.727 82.52,42.727 15.62,0 29.99,-2.821 43.09,-8.418 13.1,-5.629 22.9,-12.993 29.42,-22.102 6.5,-9.117 11.06,-19.937 13.67,-32.469 1.62,-8.148 2.44,-22.379 2.44,-42.73 V 141.172 h -43.94 v 157.707 c 0,17.91 -1.71,31.293 -5.13,40.16 -3.42,8.883 -9.48,15.961 -18.2,21.25 -8.7,5.281 -18.91,7.93 -30.63,7.93 -18.72,0 -34.87,-5.949 -48.47,-17.821 -13.58,-11.886 -20.38,-34.429 -20.38,-67.628 V 141.172 h -43.94"
         style="fill:#2d49a3;fill-opacity:1;fill-rule:nonzero;stroke:none"
         id="path152" /><path
         d="m 4353.03,141.172 v 259.277 h 43.94 V 141.172 Z m 0,307.367 v 50.543 h 43.94 v -50.543 h -43.94"
         style="fill:#2d49a3;fill-opacity:1;fill-rule:nonzero;stroke:none"
         id="path154" /><path
         d="m 4492.68,270.809 c 0,-33.2 7.23,-58.071 21.72,-74.579 14.49,-16.519 32.72,-24.789 54.69,-24.789 21.81,0 39.95,8.297 54.45,24.911 14.48,16.597 21.72,41.898 21.72,75.918 0,32.062 -7.28,56.359 -21.85,72.878 -14.56,16.524 -32.68,24.782 -54.32,24.782 -21.97,0 -40.2,-8.219 -54.69,-24.66 -14.49,-16.438 -21.72,-41.258 -21.72,-74.461 z m -45.17,0 c 0,48.011 13.34,83.57 40.04,106.691 22.29,19.199 49.47,28.809 81.54,28.809 35.65,0 64.78,-11.68 87.4,-35.039 22.62,-23.348 33.94,-55.629 33.94,-96.801 0,-33.367 -5.01,-59.61 -15.01,-78.731 -10.02,-19.129 -24.58,-33.976 -43.71,-44.558 -19.12,-10.578 -40,-15.871 -62.62,-15.871 -36.3,0 -65.63,11.632 -88.01,34.91 -22.38,23.269 -33.57,56.801 -33.57,100.59"
         style="fill:#2d49a3;fill-opacity:1;fill-rule:nonzero;stroke:none"
         id="path156" /><path
         d="m 4741.94,141.172 v 259.277 h 39.55 v -36.867 c 19.05,28.477 46.55,42.727 82.52,42.727 15.63,0 29.99,-2.821 43.1,-8.418 13.1,-5.629 22.9,-12.993 29.41,-22.102 6.51,-9.117 11.07,-19.937 13.68,-32.469 1.62,-8.148 2.44,-22.379 2.44,-42.73 V 141.172 h -43.95 v 157.707 c 0,17.91 -1.71,31.293 -5.13,40.16 -3.41,8.883 -9.48,15.961 -18.19,21.25 -8.7,5.281 -18.91,7.93 -30.63,7.93 -18.72,0 -34.88,-5.949 -48.47,-17.821 -13.58,-11.886 -20.38,-34.429 -20.38,-67.628 V 141.172 h -43.95"
         style="fill:#2d49a3;fill-opacity:1;fill-rule:nonzero;stroke:none"
         id="path158" /></g></g></svg>
