<?xml version="1.0" encoding="UTF-8" standalone="no"?>
<!-- Created with Inkscape (http://www.inkscape.org/) -->

<svg
   version="1.1"
   id="svg2"
   xml:space="preserve"
   width="1181.0667"
   height="222.60001"
   viewBox="0 0 1181.0667 222.60001"
   sodipodi:docname="logosbeneficaireserasmusleft_nl_0.eps"
   xmlns:inkscape="http://www.inkscape.org/namespaces/inkscape"
   xmlns:sodipodi="http://sodipodi.sourceforge.net/DTD/sodipodi-0.dtd"
   xmlns="http://www.w3.org/2000/svg"
   xmlns:svg="http://www.w3.org/2000/svg"><defs
     id="defs6" /><sodipodi:namedview
     id="namedview4"
     pagecolor="#ffffff"
     bordercolor="#666666"
     borderopacity="1.0"
     inkscape:pageshadow="2"
     inkscape:pageopacity="0.0"
     inkscape:pagecheckerboard="0" /><g
     id="g8"
     inkscape:groupmode="layer"
     inkscape:label="ink_ext_XXXXXX"
     transform="matrix(1.3333333,0,0,-1.3333333,0,222.6)"><g
       id="g10"
       transform="scale(0.1)"><path
         d="M 8858,0 V 1669.52 H 6379.79 V 0 H 8858"
         style="fill:#2d49a3;fill-opacity:1;fill-rule:nonzero;stroke:none"
         id="path12" /><path
         d="m 8240.26,861.59 -25.86,0.527 -38.24,0.723 -12.52,34.094 -8.1,21.785 -7.97,-21.785 -12.42,-34.094 -38.25,-0.723 -25.84,-0.527 21.1,-15.195 30.13,-21.629 -10.95,-34.133 -7.52,-23.242 20.39,13.457 31.33,20.742 31.7,-20.742 20.13,-13.457 -7.38,23.242 -10.86,34.133 30.04,21.629 21.09,15.195"
         style="fill:#f3f020;fill-opacity:1;fill-rule:nonzero;stroke:none"
         id="path14" /><path
         d="m 8240.26,861.59 -25.86,0.527 -38.24,0.723 -12.52,34.094 -8.1,21.785 -7.97,-21.785 -12.42,-34.094 -38.25,-0.723 -25.84,-0.527 21.1,-15.195 30.13,-21.629 -10.95,-34.133 -7.52,-23.242 20.39,13.457 31.33,20.742 31.7,-20.742 20.13,-13.457 -7.38,23.242 -10.86,34.133 30.04,21.629 z"
         style="fill:none;stroke:#f3f020;stroke-width:11.064;stroke-linecap:butt;stroke-linejoin:miter;stroke-miterlimit:4;stroke-dasharray:none;stroke-opacity:1"
         id="path16" /><path
         d="m 8050.44,1093.95 -10.84,-34.18 -7.38,-23.18 20.25,13.28 31.47,21.04 31.69,-21.04 20,-13.28 -7.26,23.18 -10.96,34.18 30.04,21.64 21.19,15.2 -25.84,0.47 -38.38,0.6 -12.38,34.18 -8.1,22 -8.01,-22 -12.37,-34.18 -38.26,-0.6 -25.86,-0.47 20.98,-15.2 30.02,-21.64"
         style="fill:#f3f020;fill-opacity:1;fill-rule:nonzero;stroke:none"
         id="path18" /><path
         d="m 8050.44,1093.95 -10.84,-34.18 -7.38,-23.18 20.25,13.28 31.47,21.04 31.69,-21.04 20,-13.28 -7.26,23.18 -10.96,34.18 30.04,21.64 21.19,15.2 -25.84,0.47 -38.38,0.6 -12.38,34.18 -8.1,22 -8.01,-22 -12.37,-34.18 -38.26,-0.6 -25.86,-0.47 20.98,-15.2 z"
         style="fill:none;stroke:#f3f020;stroke-width:11.064;stroke-linecap:butt;stroke-linejoin:miter;stroke-miterlimit:4;stroke-dasharray:none;stroke-opacity:1"
         id="path20" /><path
         d="m 7909.72,1327.64 -12.52,34.13 -8.11,21.93 -7.97,-21.93 -12.4,-34.13 -38.24,-0.66 -26,-0.59 21.21,-15.13 30.16,-21.69 -10.96,-34.14 -7.52,-23.19 20.37,13.24 31.35,20.91 31.58,-20.91 20.28,-13.24 -7.52,23.19 -10.74,34.14 30.03,21.69 21.08,15.13 -25.72,0.59 -38.36,0.66"
         style="fill:#f3f020;fill-opacity:1;fill-rule:nonzero;stroke:none"
         id="path22" /><path
         d="m 7909.72,1327.64 -12.52,34.13 -8.11,21.93 -7.97,-21.93 -12.4,-34.13 -38.24,-0.66 -26,-0.59 21.21,-15.13 30.16,-21.69 -10.96,-34.14 -7.52,-23.19 20.37,13.24 31.35,20.91 31.58,-20.91 20.28,-13.24 -7.52,23.19 -10.74,34.14 30.03,21.69 21.08,15.13 -25.72,0.59 z"
         style="fill:none;stroke:#f3f020;stroke-width:11.064;stroke-linecap:butt;stroke-linejoin:miter;stroke-miterlimit:4;stroke-dasharray:none;stroke-opacity:1"
         id="path24" /><path
         d="m 7637.31,1399.85 -12.52,34.03 -8.12,21.92 -7.85,-21.92 -12.52,-34.03 -38.24,-0.84 -25.98,-0.41 21.21,-15.19 30.04,-21.75 -10.86,-34.2 -7.5,-23.12 20.25,13.23 31.45,20.97 31.7,-20.97 20.14,-13.23 -7.37,23.12 -10.86,34.2 30.04,21.75 20.96,15.19 -25.72,0.41 -38.25,0.84"
         style="fill:#f3f020;fill-opacity:1;fill-rule:nonzero;stroke:none"
         id="path26" /><path
         d="m 7637.31,1399.85 -12.52,34.03 -8.12,21.92 -7.85,-21.92 -12.52,-34.03 -38.24,-0.84 -25.98,-0.41 21.21,-15.19 30.04,-21.75 -10.86,-34.2 -7.5,-23.12 20.25,13.23 31.45,20.97 31.7,-20.97 20.14,-13.23 -7.37,23.12 -10.86,34.2 30.04,21.75 20.96,15.19 -25.72,0.41 z"
         style="fill:none;stroke:#f3f020;stroke-width:11.064;stroke-linecap:butt;stroke-linejoin:miter;stroke-miterlimit:4;stroke-dasharray:none;stroke-opacity:1"
         id="path28" /><path
         d="m 7367.28,1327.64 -12.52,34.13 -7.86,21.93 -7.98,-21.93 -12.5,-34.13 -38.27,-0.66 -25.97,-0.41 21.09,-15.25 30.16,-21.63 -10.86,-34.14 -7.48,-23.31 20.23,13.47 31.58,20.8 31.35,-20.8 20.26,-13.47 -7.39,23.31 -10.86,34.14 30.04,21.63 21.21,15.25 -25.97,0.41 -38.26,0.66"
         style="fill:#f3f020;fill-opacity:1;fill-rule:nonzero;stroke:none"
         id="path30" /><path
         d="m 7367.28,1327.64 -12.52,34.13 -7.86,21.93 -7.98,-21.93 -12.5,-34.13 -38.27,-0.66 -25.97,-0.41 21.09,-15.25 30.16,-21.63 -10.86,-34.14 -7.48,-23.31 20.23,13.47 31.58,20.8 31.35,-20.8 20.26,-13.47 -7.39,23.31 -10.86,34.14 30.04,21.63 21.21,15.25 -25.97,0.41 z"
         style="fill:none;stroke:#f3f020;stroke-width:11.064;stroke-linecap:butt;stroke-linejoin:miter;stroke-miterlimit:4;stroke-dasharray:none;stroke-opacity:1"
         id="path32" /><path
         d="m 7170.67,1133.93 -12.3,34.04 -7.97,21.85 -8.09,-21.85 -12.4,-34.04 -38.26,-0.7 -25.86,-0.49 21.09,-15.25 30.04,-21.68 -10.95,-34.08 -7.29,-23.25 20.02,13.34 31.58,20.86 31.59,-20.86 20.13,-13.34 -7.4,23.25 -10.84,34.08 30.16,21.68 20.97,15.25 -25.88,0.49 -38.34,0.7"
         style="fill:#f3f020;fill-opacity:1;fill-rule:nonzero;stroke:none"
         id="path34" /><path
         d="m 7170.67,1133.93 -12.3,34.04 -7.97,21.85 -8.09,-21.85 -12.4,-34.04 -38.26,-0.7 -25.86,-0.49 21.09,-15.25 30.04,-21.68 -10.95,-34.08 -7.29,-23.25 20.02,13.34 31.58,20.86 31.59,-20.86 20.13,-13.34 -7.4,23.25 -10.84,34.08 30.16,21.68 20.97,15.25 -25.88,0.49 z"
         style="fill:none;stroke:#f3f020;stroke-width:11.064;stroke-linecap:butt;stroke-linejoin:miter;stroke-miterlimit:4;stroke-dasharray:none;stroke-opacity:1"
         id="path36" /><path
         d="m 7108.33,781.336 20.25,-13.457 -7.36,23.351 -10.86,34.083 30.02,21.675 21.09,15.129 -25.84,0.547 -38.26,0.652 -12.5,34.036 -7.99,21.855 -8,-21.855 -12.5,-34.036 -38.25,-0.652 -25.85,-0.547 20.95,-15.129 30.16,-21.675 -10.84,-34.083 -7.38,-23.351 20.11,13.457 31.6,20.852 31.45,-20.852"
         style="fill:#f3f020;fill-opacity:1;fill-rule:nonzero;stroke:none"
         id="path38" /><path
         d="m 7108.33,781.336 20.25,-13.457 -7.36,23.351 -10.86,34.083 30.02,21.675 21.09,15.129 -25.84,0.547 -38.26,0.652 -12.5,34.036 -7.99,21.855 -8,-21.855 -12.5,-34.036 -38.25,-0.652 -25.85,-0.547 20.95,-15.129 30.16,-21.675 -10.84,-34.083 -7.38,-23.351 20.11,13.457 31.6,20.852 z"
         style="fill:none;stroke:#f3f020;stroke-width:11.064;stroke-linecap:butt;stroke-linejoin:miter;stroke-miterlimit:4;stroke-dasharray:none;stroke-opacity:1"
         id="path40" /><path
         d="m 7169.81,596.27 -12.5,33.96 -7.87,21.879 -8.1,-21.879 -12.5,-33.96 -38.24,-0.829 -25.86,-0.582 21.07,-15.019 30.04,-21.809 -10.86,-34.09 -7.5,-23.043 20.25,13.161 31.47,20.839 31.58,-20.839 20.14,-13.278 -7.39,23.16 -10.72,34.09 30.02,21.809 20.98,15.019 -25.86,0.582 -38.15,0.829"
         style="fill:#f3f020;fill-opacity:1;fill-rule:nonzero;stroke:none"
         id="path42" /><path
         d="m 7169.81,596.27 -12.5,33.96 -7.87,21.879 -8.1,-21.879 -12.5,-33.96 -38.24,-0.829 -25.86,-0.582 21.07,-15.019 30.04,-21.809 -10.86,-34.09 -7.5,-23.043 20.25,13.161 31.47,20.839 31.58,-20.839 20.14,-13.278 -7.39,23.16 -10.72,34.09 30.02,21.809 20.98,15.019 -25.86,0.582 z"
         style="fill:none;stroke:#f3f020;stroke-width:11.064;stroke-linecap:butt;stroke-linejoin:miter;stroke-miterlimit:4;stroke-dasharray:none;stroke-opacity:1"
         id="path44" /><path
         d="m 7364.89,400.73 -12.38,34.2 -7.99,21.859 -8.1,-21.859 -12.39,-34.2 -38.38,-0.601 -25.86,-0.59 21.22,-15.141 29.9,-21.687 -10.72,-34.063 -7.5,-23.25 20.11,13.231 31.72,20.922 31.33,-20.922 20.39,-13.231 -7.52,23.25 -10.82,34.063 30.02,21.687 21.21,15.141 -25.98,0.59 -38.26,0.601"
         style="fill:#f3f020;fill-opacity:1;fill-rule:nonzero;stroke:none"
         id="path46" /><path
         d="m 7364.89,400.73 -12.38,34.2 -7.99,21.859 -8.1,-21.859 -12.39,-34.2 -38.38,-0.601 -25.86,-0.59 21.22,-15.141 29.9,-21.687 -10.72,-34.063 -7.5,-23.25 20.11,13.231 31.72,20.922 31.33,-20.922 20.39,-13.231 -7.52,23.25 -10.82,34.063 30.02,21.687 21.21,15.141 -25.98,0.59 z"
         style="fill:none;stroke:#f3f020;stroke-width:11.064;stroke-linecap:butt;stroke-linejoin:miter;stroke-miterlimit:4;stroke-dasharray:none;stroke-opacity:1"
         id="path48" /><path
         d="m 7637.06,328.582 -12.38,33.898 -8.13,21.989 -7.85,-21.989 -12.52,-33.898 -38.24,-0.781 -26,-0.602 21.1,-15.25 30.17,-21.551 -10.97,-34.089 -7.27,-23.297 20.14,13.386 31.44,20.922 31.6,-20.922 20.14,-13.386 -7.26,23.297 -10.98,34.089 30.04,21.551 21.07,15.25 -25.72,0.602 -38.38,0.781"
         style="fill:#f3f020;fill-opacity:1;fill-rule:nonzero;stroke:none"
         id="path50" /><path
         d="m 7637.06,328.582 -12.38,33.898 -8.13,21.989 -7.85,-21.989 -12.52,-33.898 -38.24,-0.781 -26,-0.602 21.1,-15.25 30.17,-21.551 -10.97,-34.089 -7.27,-23.297 20.14,13.386 31.44,20.922 31.6,-20.922 20.14,-13.386 -7.26,23.297 -10.98,34.089 30.04,21.551 21.07,15.25 -25.72,0.602 z"
         style="fill:none;stroke:#f3f020;stroke-width:11.064;stroke-linecap:butt;stroke-linejoin:miter;stroke-miterlimit:4;stroke-dasharray:none;stroke-opacity:1"
         id="path52" /><path
         d="m 7907.22,399.422 -12.52,34.078 -7.99,21.871 -7.99,-21.871 -12.4,-34.078 -38.24,-0.844 -25.98,-0.476 21.23,-15.122 30.02,-21.679 -10.86,-34.102 -7.38,-23.23 20.13,13.242 31.47,20.898 31.58,-20.898 20.02,-13.242 -7.15,23.23 -10.86,34.102 29.91,21.679 21.11,15.122 -25.86,0.476 -38.24,0.844"
         style="fill:#f3f020;fill-opacity:1;fill-rule:nonzero;stroke:none"
         id="path54" /><path
         d="m 7907.22,399.422 -12.52,34.078 -7.99,21.871 -7.99,-21.871 -12.4,-34.078 -38.24,-0.844 -25.98,-0.476 21.23,-15.122 30.02,-21.679 -10.86,-34.102 -7.38,-23.23 20.13,13.242 31.47,20.898 31.58,-20.898 20.02,-13.242 -7.15,23.23 -10.86,34.102 29.91,21.679 21.11,15.122 -25.86,0.476 z"
         style="fill:none;stroke:#f3f020;stroke-width:11.064;stroke-linecap:butt;stroke-linejoin:miter;stroke-miterlimit:4;stroke-dasharray:none;stroke-opacity:1"
         id="path56" /><path
         d="m 8103.47,593.879 -12.52,34.109 -7.97,21.782 -7.99,-21.782 -12.52,-34.109 -38.26,-0.699 -25.84,-0.489 21.19,-15.25 29.94,-21.621 -10.84,-34.199 -7.28,-23.172 20.04,13.34 31.56,20.852 31.56,-20.852 20.04,-13.34 -7.4,23.172 -10.72,34.199 30.03,21.621 21.1,15.25 -25.88,0.489 -38.24,0.699"
         style="fill:#f3f020;fill-opacity:1;fill-rule:nonzero;stroke:none"
         id="path58" /><path
         d="m 8103.47,593.879 -12.52,34.109 -7.97,21.782 -7.99,-21.782 -12.52,-34.109 -38.26,-0.699 -25.84,-0.489 21.19,-15.25 29.94,-21.621 -10.84,-34.199 -7.28,-23.172 20.04,13.34 31.56,20.852 31.56,-20.852 20.04,-13.34 -7.4,23.172 -10.72,34.199 30.03,21.621 21.1,15.25 -25.88,0.489 z"
         style="fill:none;stroke:#f3f020;stroke-width:11.064;stroke-linecap:butt;stroke-linejoin:miter;stroke-miterlimit:4;stroke-dasharray:none;stroke-opacity:1"
         id="path60" /><path
         d="m 0,1261.18 v 357.91 h 71.2891 l 84.7189,-253.42 c 7.808,-23.61 13.504,-41.27 17.09,-52.99 4.058,13.03 10.41,32.15 19.043,57.39 l 85.691,249.02 h 63.723 v -357.91 h -45.657 v 299.55 L 191.895,1261.18 H 149.172 L 45.6563,1565.87 V 1261.18 H 0"
         style="fill:#2d49a3;fill-opacity:1;fill-rule:nonzero;stroke:none"
         id="path62" /><path
         d="m 445.559,1415.71 h 144.773 c -1.953,21.82 -7.488,38.17 -16.602,49.08 -14.003,16.92 -32.148,25.39 -54.445,25.39 -20.183,0 -37.144,-6.75 -50.906,-20.27 -13.75,-13.51 -21.359,-31.57 -22.82,-54.2 z m 144.285,-71.03 45.41,-5.63 c -7.168,-26.52 -20.43,-47.11 -39.793,-61.76 -19.375,-14.65 -44.113,-21.97 -74.223,-21.97 -37.925,0 -67.996,11.67 -90.203,35.03 -22.226,23.35 -33.332,56.1 -33.332,98.27 0,43.61 11.235,77.46 33.692,101.56 22.46,24.09 51.593,36.14 87.406,36.14 34.668,0 62.984,-11.81 84.961,-35.41 21.968,-23.6 32.957,-56.8 32.957,-99.61 0,-2.6 -0.086,-6.51 -0.242,-11.72 H 443.113 c 1.621,-28.48 9.68,-50.29 24.172,-65.43 14.485,-15.14 32.551,-22.7 54.199,-22.7 16.114,0 29.864,4.22 41.258,12.7 11.391,8.46 20.422,21.97 27.102,40.53"
         style="fill:#2d49a3;fill-opacity:1;fill-rule:nonzero;stroke:none"
         id="path64" /><path
         d="m 719.727,1390.57 c 0,-33.2 6.992,-58.02 20.996,-74.47 13.996,-16.43 30.515,-24.65 49.558,-24.65 19.199,0 35.532,7.85 48.949,23.56 13.438,15.7 20.145,39.67 20.145,71.89 0,35.49 -6.836,61.53 -20.508,78.13 -13.672,16.6 -30.515,24.9 -50.539,24.9 -19.527,0 -35.848,-7.97 -48.941,-23.93 -13.11,-15.94 -19.66,-41.09 -19.66,-75.43 z m 138.918,-129.39 v 32.71 c -16.45,-25.72 -40.618,-38.57 -72.512,-38.57 -20.672,0 -39.68,5.7 -57,17.09 -17.348,11.39 -30.766,27.3 -40.293,47.73 -9.516,20.41 -14.277,43.89 -14.277,70.43 0,25.88 4.304,49.36 12.937,70.43 8.621,21.08 21.563,37.23 38.816,48.46 17.247,11.23 36.536,16.86 57.864,16.86 15.625,0 29.543,-3.3 41.75,-9.89 12.207,-6.6 22.129,-15.19 29.785,-25.76 v 128.42 h 43.699 v -357.91 h -40.769"
         style="fill:#2d49a3;fill-opacity:1;fill-rule:nonzero;stroke:none"
         id="path66" /><path
         d="m 1001.71,1415.71 h 144.77 c -1.95,21.82 -7.49,38.17 -16.6,49.08 -14,16.92 -32.15,25.39 -54.44,25.39 -20.19,0 -37.15,-6.75 -50.91,-20.27 -13.75,-13.51 -21.36,-31.57 -22.82,-54.2 z m 144.29,-71.03 45.41,-5.63 c -7.17,-26.52 -20.43,-47.11 -39.8,-61.76 -19.37,-14.65 -44.11,-21.97 -74.22,-21.97 -37.93,0 -68,11.67 -90.202,35.03 -22.227,23.35 -33.333,56.1 -33.333,98.27 0,43.61 11.235,77.46 33.696,101.56 22.459,24.09 51.589,36.14 87.399,36.14 34.67,0 62.99,-11.81 84.96,-35.41 21.97,-23.6 32.96,-56.8 32.96,-99.61 0,-2.6 -0.09,-6.51 -0.24,-11.72 H 999.27 c 1.62,-28.48 9.68,-50.29 24.17,-65.43 14.48,-15.14 32.55,-22.7 54.2,-22.7 16.11,0 29.86,4.22 41.26,12.7 11.38,8.46 20.42,21.97 27.1,40.53"
         style="fill:#2d49a3;fill-opacity:1;fill-rule:nonzero;stroke:none"
         id="path68" /><path
         d="m 1413.82,1395.46 c 0,-34.03 6.75,-58.85 20.26,-74.48 13.51,-15.62 30.43,-23.43 50.78,-23.43 20.18,0 37.11,7.77 50.78,23.32 13.68,15.54 20.51,39.92 20.51,73.12 0,31.74 -7.04,55.67 -21.11,71.78 -14.08,16.11 -31.06,24.16 -50.91,24.16 -19.53,0 -36.13,-7.93 -49.8,-23.8 -13.68,-15.87 -20.51,-39.42 -20.51,-70.67 z m -36.38,-155.76 42.73,-6.35 c 1.78,-13.19 6.74,-22.8 14.89,-28.81 10.9,-8.15 25.79,-12.21 44.68,-12.21 20.34,0 36.04,4.06 47.12,12.21 11.06,8.14 18.55,19.53 22.46,34.18 2.27,8.94 3.33,27.74 3.17,56.39 -19.21,-22.62 -43.13,-33.93 -71.78,-33.93 -35.64,0 -63.23,12.85 -82.76,38.57 -19.53,25.71 -29.3,56.56 -29.3,92.52 0,24.75 4.48,47.57 13.43,68.49 8.95,20.91 21.93,37.06 38.94,48.47 17.01,11.38 36.99,17.09 59.94,17.09 30.59,0 55.82,-12.39 75.68,-37.11 v 31.25 h 40.53 v -224.12 c 0,-40.38 -4.11,-68.98 -12.33,-85.82 -8.22,-16.85 -21.25,-30.16 -39.06,-39.93 -17.83,-9.76 -39.76,-14.64 -65.8,-14.64 -30.93,0 -55.91,6.96 -74.95,20.87 -19.04,13.92 -28.24,34.88 -27.59,62.88"
         style="fill:#2d49a3;fill-opacity:1;fill-rule:nonzero;stroke:none"
         id="path70" /><path
         d="m 1696.78,1415.71 h 144.77 c -1.95,21.82 -7.49,38.17 -16.6,49.08 -14,16.92 -32.15,25.39 -54.44,25.39 -20.19,0 -37.15,-6.75 -50.91,-20.27 -13.75,-13.51 -21.36,-31.57 -22.82,-54.2 z m 144.28,-71.03 45.41,-5.63 c -7.16,-26.52 -20.43,-47.11 -39.79,-61.76 -19.38,-14.65 -44.11,-21.97 -74.22,-21.97 -37.93,0 -68,11.67 -90.2,35.03 -22.23,23.35 -33.33,56.1 -33.33,98.27 0,43.61 11.23,77.46 33.69,101.56 22.46,24.09 51.59,36.14 87.4,36.14 34.67,0 62.99,-11.81 84.96,-35.41 21.97,-23.6 32.96,-56.8 32.96,-99.61 0,-2.6 -0.09,-6.51 -0.24,-11.72 h -193.36 c 1.62,-28.48 9.67,-50.29 24.17,-65.43 14.48,-15.14 32.54,-22.7 54.2,-22.7 16.11,0 29.86,4.22 41.25,12.7 11.39,8.46 20.42,21.97 27.1,40.53"
         style="fill:#2d49a3;fill-opacity:1;fill-rule:nonzero;stroke:none"
         id="path72" /><path
         d="m 1952.15,1261.18 v 225.1 h -38.82 v 34.18 h 38.82 v 27.58 c 0,17.42 1.54,30.35 4.64,38.82 4.23,11.39 11.68,20.63 22.33,27.71 10.67,7.08 25.6,10.61 44.81,10.61 12.36,0 26.03,-1.46 41.01,-4.39 l -6.59,-38.32 c -9.12,1.62 -17.74,2.44 -25.88,2.44 -13.35,0 -22.79,-2.85 -28.32,-8.55 -5.54,-5.7 -8.3,-16.35 -8.3,-31.98 v -23.92 h 50.54 v -34.18 h -50.54 v -225.1 h -43.7"
         style="fill:#2d49a3;fill-opacity:1;fill-rule:nonzero;stroke:none"
         id="path74" /><path
         d="m 2080.81,1261.18 v 259.28 h 43.95 v -259.28 z m 0,307.36 v 50.55 h 43.95 v -50.55 h -43.95"
         style="fill:#2d49a3;fill-opacity:1;fill-rule:nonzero;stroke:none"
         id="path76" /><path
         d="m 2191.65,1261.18 v 259.28 h 39.55 v -36.88 c 19.04,28.49 46.54,42.74 82.52,42.74 15.63,0 29.99,-2.82 43.1,-8.43 13.09,-5.62 22.9,-12.98 29.41,-22.1 6.5,-9.11 11.06,-19.94 13.67,-32.46 1.62,-8.15 2.44,-22.38 2.44,-42.74 v -159.41 h -43.94 v 157.71 c 0,17.9 -1.71,31.29 -5.13,40.16 -3.42,8.87 -9.48,15.95 -18.19,21.24 -8.7,5.28 -18.92,7.94 -30.64,7.94 -18.72,0 -34.87,-5.95 -48.46,-17.83 -13.59,-11.88 -20.38,-34.42 -20.38,-67.62 v -141.6 h -43.95"
         style="fill:#2d49a3;fill-opacity:1;fill-rule:nonzero;stroke:none"
         id="path78" /><path
         d="m 2635.25,1391.3 c -15.95,-6.51 -39.88,-12.04 -71.77,-16.6 -18.07,-2.6 -30.85,-5.53 -38.33,-8.79 -7.49,-3.26 -13.27,-8.01 -17.34,-14.28 -4.07,-6.27 -6.1,-13.22 -6.1,-20.88 0,-11.72 4.43,-21.48 13.3,-29.3 8.88,-7.81 21.86,-11.72 38.95,-11.72 16.92,0 31.98,3.72 45.16,11.12 13.18,7.4 22.86,17.54 29.05,30.39 4.72,9.93 7.08,24.58 7.08,43.94 z m 3.67,-98.15 c -16.28,-13.83 -31.95,-23.59 -47,-29.29 -15.05,-5.69 -31.22,-8.54 -48.46,-8.54 -28.49,0 -50.38,6.95 -65.68,20.87 -15.3,13.92 -22.95,31.69 -22.95,53.35 0,12.69 2.89,24.28 8.68,34.78 5.77,10.5 13.34,18.93 22.69,25.28 9.37,6.35 19.9,11.14 31.62,14.39 8.63,2.29 21.64,4.47 39.06,6.6 35.48,4.22 61.61,9.28 78.37,15.14 0.16,6.02 0.25,9.84 0.25,11.47 0,17.91 -4.15,30.52 -12.45,37.85 -11.23,9.92 -27.92,14.88 -50.05,14.88 -20.68,0 -35.93,-3.61 -45.78,-10.86 -9.85,-7.25 -17.13,-20.06 -21.85,-38.46 l -42.97,5.86 c 3.91,18.4 10.33,33.24 19.29,44.56 8.94,11.31 21.88,20.02 38.82,26.13 16.92,6.1 36.53,9.16 58.84,9.16 22.12,0 40.11,-2.62 53.95,-7.82 13.83,-5.21 24,-11.77 30.52,-19.65 6.5,-7.9 11.06,-17.87 13.67,-29.92 1.47,-7.48 2.2,-20.99 2.2,-40.52 v -58.6 c 0,-40.85 0.94,-66.68 2.8,-77.51 1.88,-10.83 5.58,-21.2 11.11,-31.12 h -45.89 c -4.57,9.1 -7.5,19.77 -8.79,31.97"
         style="fill:#2d49a3;fill-opacity:1;fill-rule:nonzero;stroke:none"
         id="path80" /><path
         d="m 2747.8,1261.18 v 259.28 h 39.55 v -36.88 c 19.05,28.49 46.55,42.74 82.52,42.74 15.63,0 29.99,-2.82 43.1,-8.43 13.09,-5.62 22.9,-12.98 29.41,-22.1 6.51,-9.11 11.07,-19.94 13.67,-32.46 1.63,-8.15 2.45,-22.38 2.45,-42.74 v -159.41 h -43.95 v 157.71 c 0,17.9 -1.71,31.29 -5.13,40.16 -3.41,8.87 -9.48,15.95 -18.19,21.24 -8.7,5.28 -18.92,7.94 -30.63,7.94 -18.72,0 -34.88,-5.95 -48.47,-17.83 -13.59,-11.88 -20.38,-34.42 -20.38,-67.62 v -141.6 h -43.95"
         style="fill:#2d49a3;fill-opacity:1;fill-rule:nonzero;stroke:none"
         id="path82" /><path
         d="m 3195.07,1356.14 43.21,-5.6 c -4.73,-29.79 -16.81,-53.11 -36.26,-69.95 -19.44,-16.85 -43.33,-25.27 -71.65,-25.27 -35.49,0 -64,11.59 -85.58,34.79 -21.56,23.19 -32.34,56.43 -32.34,99.72 0,28 4.64,52.5 13.92,73.5 9.27,20.99 23.4,36.74 42.35,47.23 18.97,10.5 39.59,15.76 61.9,15.76 28.15,0 51.18,-7.13 69.09,-21.37 17.9,-14.24 29.37,-34.47 34.42,-60.66 l -42.72,-6.61 c -4.08,17.43 -11.27,30.53 -21.62,39.32 -10.33,8.79 -22.82,13.18 -37.47,13.18 -22.13,0 -40.12,-7.94 -53.95,-23.8 -13.84,-15.87 -20.75,-40.98 -20.75,-75.32 0,-34.84 6.67,-60.14 20.02,-75.93 13.34,-15.79 30.76,-23.68 52.24,-23.68 17.25,0 31.65,5.28 43.22,15.86 11.55,10.59 18.87,26.86 21.97,48.83"
         style="fill:#2d49a3;fill-opacity:1;fill-rule:nonzero;stroke:none"
         id="path84" /><path
         d="m 3276.12,1261.18 v 259.28 h 43.95 v -259.28 z m 0,307.36 v 50.55 h 43.95 v -50.55 h -43.95"
         style="fill:#2d49a3;fill-opacity:1;fill-rule:nonzero;stroke:none"
         id="path86" /><path
         d="m 3420.17,1415.71 h 144.77 c -1.95,21.82 -7.49,38.17 -16.6,49.08 -14,16.92 -32.15,25.39 -54.44,25.39 -20.19,0 -37.15,-6.75 -50.91,-20.27 -13.75,-13.51 -21.36,-31.57 -22.82,-54.2 z m 144.28,-71.03 45.41,-5.63 c -7.16,-26.52 -20.43,-47.11 -39.79,-61.76 -19.38,-14.65 -44.11,-21.97 -74.22,-21.97 -37.93,0 -68,11.67 -90.21,35.03 -22.22,23.35 -33.33,56.1 -33.33,98.27 0,43.61 11.23,77.46 33.7,101.56 22.46,24.09 51.59,36.14 87.4,36.14 34.67,0 62.99,-11.81 84.96,-35.41 21.97,-23.6 32.96,-56.8 32.96,-99.61 0,-2.6 -0.09,-6.51 -0.25,-11.72 h -193.36 c 1.63,-28.48 9.68,-50.29 24.17,-65.43 14.49,-15.14 32.55,-22.7 54.2,-22.7 16.12,0 29.87,4.22 41.26,12.7 11.39,8.46 20.42,21.97 27.1,40.53"
         style="fill:#2d49a3;fill-opacity:1;fill-rule:nonzero;stroke:none"
         id="path88" /><path
         d="m 3664.55,1261.18 v 259.28 h 39.55 v -39.32 c 10.09,18.4 19.41,30.53 27.96,36.39 8.54,5.86 17.94,8.79 28.19,8.79 14.81,0 29.87,-4.73 45.17,-14.16 l -15.14,-40.78 c -10.74,6.34 -21.48,9.53 -32.22,9.53 -9.61,0 -18.24,-2.89 -25.88,-8.68 -7.66,-5.78 -13.11,-13.78 -16.36,-24.04 -4.88,-15.62 -7.32,-32.71 -7.32,-51.27 v -135.74 h -43.95"
         style="fill:#2d49a3;fill-opacity:1;fill-rule:nonzero;stroke:none"
         id="path90" /><path
         d="m 3860.84,1390.57 c 0,-33.2 6.99,-58.02 21,-74.47 13.99,-16.43 30.51,-24.65 49.56,-24.65 19.2,0 35.52,7.85 48.94,23.56 13.44,15.7 20.15,39.67 20.15,71.89 0,35.49 -6.84,61.53 -20.51,78.13 -13.67,16.6 -30.52,24.9 -50.54,24.9 -19.53,0 -35.85,-7.97 -48.94,-23.93 -13.11,-15.94 -19.66,-41.09 -19.66,-75.43 z m 138.92,-129.39 v 32.71 c -16.45,-25.72 -40.62,-38.57 -72.51,-38.57 -20.68,0 -39.68,5.7 -57.01,17.09 -17.34,11.39 -30.76,27.3 -40.29,47.73 -9.51,20.41 -14.28,43.89 -14.28,70.43 0,25.88 4.31,49.36 12.94,70.43 8.63,21.08 21.57,37.23 38.82,48.46 17.25,11.23 36.53,16.86 57.86,16.86 15.63,0 29.54,-3.3 41.75,-9.89 12.21,-6.6 22.13,-15.19 29.79,-25.76 v 128.42 h 43.7 v -357.91 h -40.77"
         style="fill:#2d49a3;fill-opacity:1;fill-rule:nonzero;stroke:none"
         id="path92" /><path
         d="m 4277.83,1390.57 c 0,-33.2 6.99,-58.02 21,-74.47 13.99,-16.43 30.52,-24.65 49.56,-24.65 19.2,0 35.53,7.85 48.94,23.56 13.44,15.7 20.15,39.67 20.15,71.89 0,35.49 -6.84,61.53 -20.51,78.13 -13.67,16.6 -30.51,24.9 -50.53,24.9 -19.54,0 -35.85,-7.97 -48.95,-23.93 -13.11,-15.94 -19.66,-41.09 -19.66,-75.43 z m 138.92,-129.39 v 32.71 c -16.45,-25.72 -40.62,-38.57 -72.51,-38.57 -20.68,0 -39.68,5.7 -57,17.09 -17.35,11.39 -30.77,27.3 -40.3,47.73 -9.51,20.41 -14.27,43.89 -14.27,70.43 0,25.88 4.3,49.36 12.94,70.43 8.62,21.08 21.56,37.23 38.81,48.46 17.25,11.23 36.54,16.86 57.87,16.86 15.62,0 29.54,-3.3 41.74,-9.89 12.21,-6.6 22.13,-15.19 29.79,-25.76 v 128.42 h 43.7 v -357.91 h -40.77"
         style="fill:#2d49a3;fill-opacity:1;fill-rule:nonzero;stroke:none"
         id="path94" /><path
         d="m 4555.42,1390.81 c 0,-33.2 7.24,-58.07 21.73,-74.58 14.48,-16.52 32.71,-24.78 54.69,-24.78 21.8,0 39.95,8.3 54.44,24.91 14.48,16.6 21.73,41.9 21.73,75.91 0,32.07 -7.29,56.36 -21.86,72.88 -14.56,16.52 -32.67,24.78 -54.31,24.78 -21.98,0 -40.21,-8.22 -54.69,-24.65 -14.49,-16.44 -21.73,-41.27 -21.73,-74.47 z m -45.17,0 c 0,48.01 13.34,83.57 40.04,106.7 22.3,19.2 49.48,28.81 81.55,28.81 35.64,0 64.77,-11.68 87.4,-35.04 22.62,-23.36 33.93,-55.63 33.93,-96.8 0,-33.38 -5.01,-59.62 -15.01,-78.74 -10.02,-19.13 -24.58,-33.97 -43.71,-44.56 -19.12,-10.57 -40,-15.86 -62.61,-15.86 -36.3,0 -65.64,11.63 -88.01,34.9 -22.38,23.28 -33.58,56.81 -33.58,100.59"
         style="fill:#2d49a3;fill-opacity:1;fill-rule:nonzero;stroke:none"
         id="path96" /><path
         d="m 4833.5,1390.81 c 0,-33.2 7.23,-58.07 21.72,-74.58 14.49,-16.52 32.72,-24.78 54.69,-24.78 21.81,0 39.95,8.3 54.45,24.91 14.48,16.6 21.72,41.9 21.72,75.91 0,32.07 -7.28,56.36 -21.85,72.88 -14.56,16.52 -32.68,24.78 -54.32,24.78 -21.97,0 -40.2,-8.22 -54.69,-24.65 -14.49,-16.44 -21.72,-41.27 -21.72,-74.47 z m -45.17,0 c 0,48.01 13.34,83.57 40.04,106.7 22.29,19.2 49.47,28.81 81.54,28.81 35.65,0 64.78,-11.68 87.4,-35.04 22.62,-23.36 33.94,-55.63 33.94,-96.8 0,-33.38 -5.01,-59.62 -15.01,-78.74 -10.02,-19.13 -24.58,-33.97 -43.71,-44.56 -19.12,-10.57 -40,-15.86 -62.62,-15.86 -36.3,0 -65.63,11.63 -88.01,34.9 -22.38,23.28 -33.57,56.81 -33.57,100.59"
         style="fill:#2d49a3;fill-opacity:1;fill-rule:nonzero;stroke:none"
         id="path98" /><path
         d="m 5082.28,1261.18 v 259.28 h 39.55 v -39.32 c 10.08,18.4 19.4,30.53 27.96,36.39 8.53,5.86 17.93,8.79 28.19,8.79 14.8,0 29.86,-4.73 45.16,-14.16 l -15.13,-40.78 c -10.74,6.34 -21.49,9.53 -32.23,9.53 -9.61,0 -18.23,-2.89 -25.88,-8.68 -7.65,-5.78 -13.1,-13.78 -16.36,-24.04 -4.88,-15.62 -7.32,-32.71 -7.32,-51.27 v -135.74 h -43.94"
         style="fill:#2d49a3;fill-opacity:1;fill-rule:nonzero;stroke:none"
         id="path100" /><path
         d="m 5388.18,1261.18 v 357.91 h 43.95 v -128.42 c 20.51,23.75 46.39,35.65 77.64,35.65 19.19,0 35.88,-3.79 50.04,-11.36 14.16,-7.57 24.3,-18.03 30.4,-31.38 6.11,-13.34 9.16,-32.71 9.16,-58.1 v -164.3 h -43.95 v 164.3 c 0,21.97 -4.77,37.97 -14.28,47.98 -9.53,10 -23,15 -40.41,15 -13.02,0 -25.27,-3.37 -36.74,-10.12 -11.48,-6.76 -19.65,-15.91 -24.54,-27.47 -4.88,-11.56 -7.32,-27.5 -7.32,-47.85 v -141.84 h -43.95"
         style="fill:#2d49a3;fill-opacity:1;fill-rule:nonzero;stroke:none"
         id="path102" /><path
         d="m 5699.46,1415.71 h 144.78 c -1.95,21.82 -7.49,38.17 -16.6,49.08 -14.01,16.92 -32.15,25.39 -54.45,25.39 -20.18,0 -37.15,-6.75 -50.9,-20.27 -13.75,-13.51 -21.36,-31.57 -22.83,-54.2 z m 144.29,-71.03 45.41,-5.63 c -7.17,-26.52 -20.43,-47.11 -39.79,-61.76 -19.38,-14.65 -44.12,-21.97 -74.22,-21.97 -37.93,0 -68,11.67 -90.21,35.03 -22.23,23.35 -33.33,56.1 -33.33,98.27 0,43.61 11.23,77.46 33.69,101.56 22.46,24.09 51.59,36.14 87.41,36.14 34.66,0 62.98,-11.81 84.96,-35.41 21.97,-23.6 32.96,-56.8 32.96,-99.61 0,-2.6 -0.09,-6.51 -0.25,-11.72 h -193.36 c 1.62,-28.48 9.68,-50.29 24.17,-65.43 14.48,-15.14 32.55,-22.7 54.2,-22.7 16.11,0 29.86,4.22 41.26,12.7 11.39,8.46 20.42,21.97 27.1,40.53"
         style="fill:#2d49a3;fill-opacity:1;fill-rule:nonzero;stroke:none"
         id="path104" /><path
         d="m 6040.28,1300.48 6.35,-38.81 c -12.37,-2.61 -23.44,-3.91 -33.2,-3.91 -15.96,0 -28.32,2.52 -37.11,7.56 -8.79,5.05 -14.98,11.68 -18.56,19.9 -3.58,8.23 -5.37,25.51 -5.37,51.88 v 149.18 h -32.22 v 34.18 h 32.22 v 64.2 l 43.7,26.36 v -90.56 h 44.19 v -34.18 h -44.19 v -151.62 c 0,-12.53 0.78,-20.59 2.32,-24.16 1.55,-3.6 4.07,-6.44 7.58,-8.56 3.49,-2.11 8.49,-3.16 15.01,-3.16 4.88,0 11.3,0.56 19.28,1.7"
         style="fill:#2d49a3;fill-opacity:1;fill-rule:nonzero;stroke:none"
         id="path106" /><path
         d="m 1163.09,829.344 c 0,-33.367 6.74,-58.028 20.26,-73.977 13.51,-15.957 29.86,-23.926 49.07,-23.926 19.53,0 36.25,8.262 50.18,24.789 13.9,16.512 20.87,42.11 20.87,76.778 0,33.035 -6.8,57.781 -20.38,74.219 -13.6,16.433 -29.84,24.656 -48.71,24.656 -18.73,0 -35.28,-8.75 -49.69,-26.25 -14.4,-17.5 -21.6,-42.93 -21.6,-76.289 z m -39.8,-227.543 v 358.644 h 40.04 v -33.687 c 9.43,13.183 20.1,23.074 31.98,29.656 11.88,6.602 26.28,9.895 43.22,9.895 22.12,0 41.66,-5.696 58.59,-17.09 16.92,-11.399 29.7,-27.473 38.33,-48.215 8.62,-20.762 12.94,-43.508 12.94,-68.242 0,-26.532 -4.76,-50.418 -14.29,-71.653 -9.51,-21.25 -23.35,-37.515 -41.5,-48.828 -18.15,-11.316 -37.23,-16.968 -57.25,-16.968 -14.65,0 -27.79,3.093 -39.43,9.277 -11.63,6.18 -21.2,13.992 -28.68,23.433 V 601.801 h -43.95"
         style="fill:#2d49a3;fill-opacity:1;fill-rule:nonzero;stroke:none"
         id="path108" /><path
         d="m 1400.88,701.172 v 259.273 h 39.55 v -39.304 c 10.09,18.386 19.4,30.515 27.96,36.379 8.53,5.859 17.94,8.789 28.19,8.789 14.81,0 29.87,-4.719 45.17,-14.161 l -15.14,-40.773 c -10.74,6.348 -21.48,9.523 -32.23,9.523 -9.6,0 -18.23,-2.89 -25.87,-8.664 -7.66,-5.781 -13.11,-13.796 -16.36,-24.05 -4.88,-15.625 -7.33,-32.715 -7.33,-51.274 V 701.172 h -43.94"
         style="fill:#2d49a3;fill-opacity:1;fill-rule:nonzero;stroke:none"
         id="path110" /><path
         d="m 1596.68,830.809 c 0,-33.204 7.24,-58.067 21.73,-74.579 14.48,-16.527 32.71,-24.789 54.69,-24.789 21.8,0 39.95,8.301 54.44,24.907 14.48,16.597 21.73,41.902 21.73,75.925 0,32.063 -7.29,56.348 -21.86,72.872 -14.56,16.523 -32.67,24.785 -54.31,24.785 -21.98,0 -40.21,-8.223 -54.69,-24.657 -14.49,-16.437 -21.73,-41.261 -21.73,-74.464 z m -45.17,0 c 0,48.007 13.34,83.574 40.04,106.687 22.3,19.211 49.48,28.813 81.55,28.813 35.64,0 64.77,-11.68 87.4,-35.032 22.62,-23.359 33.93,-55.625 33.93,-96.804 0,-33.371 -5.01,-59.614 -15.01,-78.735 -10.02,-19.129 -24.58,-33.98 -43.71,-44.558 -19.12,-10.575 -40,-15.867 -62.61,-15.867 -36.3,0 -65.64,11.628 -88.01,34.91 -22.38,23.269 -33.58,56.797 -33.58,100.586"
         style="fill:#2d49a3;fill-opacity:1;fill-rule:nonzero;stroke:none"
         id="path112" /><path
         d="m 1874.27,835.445 c 0,-34.019 6.75,-58.836 20.26,-74.461 13.51,-15.625 30.43,-23.437 50.78,-23.437 20.18,0 37.11,7.773 50.78,23.312 13.68,15.543 20.51,39.918 20.51,73.125 0,31.739 -7.04,55.664 -21.11,71.778 -14.08,16.109 -31.06,24.168 -50.91,24.168 -19.53,0 -36.13,-7.93 -49.8,-23.809 -13.68,-15.859 -20.51,-39.426 -20.51,-70.676 z m -36.38,-155.757 42.73,-6.348 c 1.78,-13.192 6.74,-22.789 14.89,-28.809 10.9,-8.14 25.79,-12.211 44.68,-12.211 20.34,0 36.04,4.071 47.11,12.211 11.07,8.141 18.56,19.528 22.47,34.18 2.27,8.953 3.33,27.742 3.17,56.394 -19.21,-22.625 -43.14,-33.933 -71.78,-33.933 -35.64,0 -63.23,12.851 -82.76,38.57 -19.53,25.715 -29.3,56.555 -29.3,92.531 0,24.739 4.47,47.559 13.43,68.477 8.94,20.918 21.93,37.07 38.93,48.469 17.02,11.394 37,17.09 59.95,17.09 30.59,0 55.82,-12.375 75.68,-37.114 v 31.25 h 40.53 V 736.324 c 0,-40.359 -4.11,-68.965 -12.33,-85.812 -8.22,-16.84 -21.25,-30.153 -39.06,-39.922 -17.83,-9.762 -39.77,-14.641 -65.8,-14.641 -30.93,0 -55.91,6.961 -74.95,20.86 -19.04,13.929 -28.24,34.89 -27.59,62.879"
         style="fill:#2d49a3;fill-opacity:1;fill-rule:nonzero;stroke:none"
         id="path114" /><path
         d="m 2123.54,701.172 v 259.273 h 39.55 v -39.304 c 10.08,18.386 19.4,30.515 27.95,36.379 8.54,5.859 17.94,8.789 28.2,8.789 14.8,0 29.86,-4.719 45.16,-14.161 l -15.13,-40.773 c -10.74,6.348 -21.49,9.523 -32.23,9.523 -9.61,0 -18.23,-2.89 -25.88,-8.664 -7.65,-5.781 -13.1,-13.796 -16.36,-24.05 -4.88,-15.625 -7.32,-32.715 -7.32,-51.274 V 701.172 h -43.94"
         style="fill:#2d49a3;fill-opacity:1;fill-rule:nonzero;stroke:none"
         id="path116" /><path
         d="m 2456.05,831.297 c -15.95,-6.516 -39.88,-12.051 -71.77,-16.602 -18.07,-2.605 -30.85,-5.539 -38.33,-8.789 -7.49,-3.261 -13.27,-8.015 -17.34,-14.289 -4.07,-6.258 -6.1,-13.219 -6.1,-20.867 0,-11.719 4.43,-21.484 13.3,-29.297 8.88,-7.812 21.86,-11.719 38.95,-11.719 16.92,0 31.98,3.704 45.16,11.106 13.19,7.41 22.86,17.539 29.05,30.398 4.72,9.922 7.08,24.571 7.08,43.946 z m 3.67,-98.145 c -16.28,-13.836 -31.95,-23.601 -47,-29.297 -15.05,-5.695 -31.22,-8.542 -48.46,-8.542 -28.49,0 -50.38,6.953 -65.68,20.878 -15.3,13.907 -22.95,31.688 -22.95,53.336 0,12.7 2.9,24.297 8.68,34.789 5.77,10.504 13.34,18.922 22.69,25.274 9.37,6.348 19.9,11.14 31.62,14.402 8.63,2.278 21.64,4.473 39.07,6.594 35.47,4.227 61.6,9.273 78.36,15.137 0.16,6.023 0.25,9.843 0.25,11.472 0,17.903 -4.15,30.52 -12.45,37.84 -11.23,9.934 -27.92,14.895 -50.05,14.895 -20.67,0 -35.93,-3.621 -45.78,-10.86 -9.85,-7.246 -17.13,-20.066 -21.85,-38.457 l -42.97,5.86 c 3.91,18.386 10.34,33.242 19.29,44.55 8.95,11.309 21.89,20.02 38.82,26.133 16.92,6.094 36.53,9.153 58.84,9.153 22.13,0 40.11,-2.61 53.95,-7.817 13.83,-5.203 24.01,-11.765 30.52,-19.656 6.5,-7.891 11.06,-17.859 13.67,-29.902 1.47,-7.493 2.2,-20.996 2.2,-40.528 v -58.593 c 0,-40.86 0.94,-66.692 2.8,-77.508 1.88,-10.832 5.58,-21.211 11.11,-31.133 h -45.89 c -4.56,9.109 -7.49,19.773 -8.79,31.98"
         style="fill:#2d49a3;fill-opacity:1;fill-rule:nonzero;stroke:none"
         id="path118" /><path
         d="m 2568.6,701.172 v 259.273 h 39.31 V 924.07 c 8.13,12.696 18.96,22.91 32.47,30.645 13.51,7.726 28.89,11.594 46.14,11.594 19.2,0 34.95,-3.996 47.25,-11.965 12.28,-7.981 20.95,-19.121 26,-33.446 20.5,30.274 47.19,45.411 80.07,45.411 25.72,0 45.49,-7.121 59.33,-21.36 13.83,-14.25 20.75,-36.179 20.75,-65.801 V 701.172 h -43.7 V 864.5 c 0,17.578 -1.43,30.234 -4.27,37.969 -2.85,7.722 -8.02,13.945 -15.5,18.672 -7.49,4.718 -16.28,7.082 -26.37,7.082 -18.23,0 -33.37,-6.067 -45.41,-18.196 -12.05,-12.129 -18.07,-31.535 -18.07,-58.222 V 701.172 h -43.94 v 168.457 c 0,19.527 -3.59,34.18 -10.75,43.941 -7.16,9.77 -18.88,14.653 -35.15,14.653 -12.38,0 -23.81,-3.254 -34.3,-9.77 -10.51,-6.512 -18.11,-16.031 -22.83,-28.562 -4.73,-12.539 -7.08,-30.606 -7.08,-54.2 V 701.172 h -43.95"
         style="fill:#2d49a3;fill-opacity:1;fill-rule:nonzero;stroke:none"
         id="path120" /><path
         d="m 2985.11,701.172 v 259.273 h 39.3 V 924.07 c 8.14,12.696 18.96,22.91 32.47,30.645 13.51,7.726 28.89,11.594 46.15,11.594 19.2,0 34.95,-3.996 47.24,-11.965 12.29,-7.981 20.95,-19.121 26,-33.446 20.51,30.274 47.2,45.411 80.08,45.411 25.71,0 45.49,-7.121 59.32,-21.36 13.83,-14.25 20.76,-36.179 20.76,-65.801 V 701.172 h -43.71 V 864.5 c 0,17.578 -1.42,30.234 -4.26,37.969 -2.85,7.722 -8.03,13.945 -15.51,18.672 -7.49,4.718 -16.28,7.082 -26.37,7.082 -18.23,0 -33.37,-6.067 -45.41,-18.196 -12.05,-12.129 -18.06,-31.535 -18.06,-58.222 V 701.172 h -43.95 v 168.457 c 0,19.527 -3.58,34.18 -10.74,43.941 -7.17,9.77 -18.89,14.653 -35.16,14.653 -12.37,0 -23.81,-3.254 -34.3,-9.77 -10.5,-6.512 -18.11,-16.031 -22.83,-28.562 -4.72,-12.539 -7.08,-30.606 -7.08,-54.2 V 701.172 h -43.94"
         style="fill:#2d49a3;fill-opacity:1;fill-rule:nonzero;stroke:none"
         id="path122" /><path
         d="m 3567.14,831.297 c -15.96,-6.516 -39.88,-12.051 -71.78,-16.602 -18.07,-2.605 -30.85,-5.539 -38.33,-8.789 -7.49,-3.261 -13.27,-8.015 -17.33,-14.289 -4.07,-6.258 -6.11,-13.219 -6.11,-20.867 0,-11.719 4.44,-21.484 13.3,-29.297 8.88,-7.812 21.86,-11.719 38.95,-11.719 16.92,0 31.98,3.704 45.17,11.106 13.18,7.41 22.86,17.539 29.05,30.398 4.72,9.922 7.08,24.571 7.08,43.946 z m 3.66,-98.145 c -16.28,-13.836 -31.94,-23.601 -46.99,-29.297 -15.06,-5.695 -31.22,-8.542 -48.47,-8.542 -28.48,0 -50.38,6.953 -65.67,20.878 -15.3,13.907 -22.95,31.688 -22.95,53.336 0,12.7 2.89,24.297 8.67,34.789 5.77,10.504 13.34,18.922 22.7,25.274 9.36,6.348 19.9,11.14 31.62,14.402 8.62,2.278 21.64,4.473 39.06,6.594 35.48,4.227 61.6,9.273 78.37,15.137 0.15,6.023 0.24,9.843 0.24,11.472 0,17.903 -4.15,30.52 -12.45,37.84 -11.23,9.934 -27.92,14.895 -50.05,14.895 -20.67,0 -35.92,-3.621 -45.78,-10.86 -9.84,-7.246 -17.13,-20.066 -21.84,-38.457 l -42.97,5.86 c 3.9,18.386 10.33,33.242 19.28,44.55 8.95,11.309 21.89,20.02 38.82,26.133 16.93,6.094 36.54,9.153 58.84,9.153 22.13,0 40.12,-2.61 53.96,-7.817 13.82,-5.203 24,-11.765 30.51,-19.656 6.51,-7.891 11.07,-17.859 13.68,-29.902 1.46,-7.493 2.19,-20.996 2.19,-40.528 v -58.593 c 0,-40.86 0.94,-66.692 2.81,-77.508 1.87,-10.832 5.57,-21.211 11.11,-31.133 h -45.9 c -4.56,9.109 -7.49,19.773 -8.79,31.98"
         style="fill:#2d49a3;fill-opacity:1;fill-rule:nonzero;stroke:none"
         id="path124" /><path
         d="m 3825.2,701.172 v 357.908 h 258.78 v -42.24 H 3872.56 V 907.227 h 198 v -41.993 h -198 V 743.406 h 219.73 V 701.172 H 3825.2"
         style="fill:#2d49a3;fill-opacity:1;fill-rule:nonzero;stroke:none"
         id="path126" /><path
         d="m 4151.61,701.172 v 259.273 h 39.55 v -39.304 c 10.09,18.386 19.41,30.515 27.96,36.379 8.54,5.859 17.94,8.789 28.19,8.789 14.81,0 29.87,-4.719 45.17,-14.161 l -15.14,-40.773 c -10.74,6.348 -21.48,9.523 -32.22,9.523 -9.61,0 -18.24,-2.89 -25.88,-8.664 -7.66,-5.781 -13.11,-13.796 -16.36,-24.05 -4.88,-15.625 -7.32,-32.715 -7.32,-51.274 V 701.172 h -43.95"
         style="fill:#2d49a3;fill-opacity:1;fill-rule:nonzero;stroke:none"
         id="path128" /><path
         d="m 4484.13,831.297 c -15.96,-6.516 -39.88,-12.051 -71.78,-16.602 -18.06,-2.605 -30.85,-5.539 -38.33,-8.789 -7.49,-3.261 -13.27,-8.015 -17.33,-14.289 -4.07,-6.258 -6.1,-13.219 -6.1,-20.867 0,-11.719 4.43,-21.484 13.3,-29.297 8.87,-7.812 21.85,-11.719 38.94,-11.719 16.93,0 31.98,3.704 45.17,11.106 13.18,7.41 22.86,17.539 29.05,30.398 4.72,9.922 7.08,24.571 7.08,43.946 z m 3.66,-98.145 c -16.28,-13.836 -31.94,-23.601 -46.99,-29.297 -15.06,-5.695 -31.22,-8.542 -48.47,-8.542 -28.48,0 -50.38,6.953 -65.67,20.878 -15.3,13.907 -22.95,31.688 -22.95,53.336 0,12.7 2.89,24.297 8.67,34.789 5.77,10.504 13.34,18.922 22.7,25.274 9.36,6.348 19.9,11.14 31.62,14.402 8.62,2.278 21.64,4.473 39.06,6.594 35.48,4.227 61.6,9.273 78.37,15.137 0.16,6.023 0.25,9.843 0.25,11.472 0,17.903 -4.16,30.52 -12.46,37.84 -11.23,9.934 -27.92,14.895 -50.04,14.895 -20.68,0 -35.93,-3.621 -45.79,-10.86 -9.84,-7.246 -17.13,-20.066 -21.84,-38.457 l -42.97,5.86 c 3.91,18.386 10.33,33.242 19.29,44.55 8.94,11.309 21.88,20.02 38.81,26.133 16.93,6.094 36.54,9.153 58.84,9.153 22.13,0 40.12,-2.61 53.96,-7.817 13.83,-5.203 24,-11.765 30.52,-19.656 6.5,-7.891 11.06,-17.859 13.67,-29.902 1.46,-7.493 2.19,-20.996 2.19,-40.528 v -58.593 c 0,-40.86 0.94,-66.692 2.81,-77.508 1.87,-10.832 5.57,-21.211 11.11,-31.133 h -45.9 c -4.56,9.109 -7.49,19.773 -8.79,31.98"
         style="fill:#2d49a3;fill-opacity:1;fill-rule:nonzero;stroke:none"
         id="path130" /><path
         d="m 4579.1,778.563 43.46,6.835 c 2.44,-17.421 9.24,-30.761 20.38,-40.039 11.15,-9.277 26.74,-13.918 46.76,-13.918 20.17,0 35.15,4.114 44.92,12.329 9.76,8.218 14.65,17.859 14.65,28.933 0,9.922 -4.32,17.735 -12.94,23.438 -6.03,3.906 -21,8.867 -44.92,14.89 -32.23,8.137 -54.56,15.18 -67.03,21.125 -12.44,5.938 -21.88,14.16 -28.32,24.649 -6.42,10.508 -9.63,22.097 -9.63,34.797 0,11.55 2.64,22.253 7.94,32.097 5.28,9.844 12.48,18.028 21.6,24.539 6.83,5.051 16.15,9.321 27.95,12.825 11.8,3.496 24.45,5.246 37.96,5.246 20.35,0 38.21,-2.93 53.6,-8.789 15.37,-5.864 26.73,-13.801 34.05,-23.801 7.33,-10.02 12.36,-23.399 15.14,-40.164 l -42.97,-5.864 c -1.95,13.352 -7.61,23.762 -16.96,31.25 -9.37,7.493 -22.59,11.235 -39.68,11.235 -20.19,0 -34.59,-3.34 -43.21,-10.012 -8.64,-6.68 -12.94,-14.492 -12.94,-23.437 0,-5.704 1.78,-10.821 5.37,-15.379 3.57,-4.719 9.19,-8.625 16.84,-11.719 4.4,-1.633 17.34,-5.371 38.82,-11.231 31.09,-8.3 52.77,-15.097 65.07,-20.382 12.28,-5.293 21.92,-12.989 28.93,-23.075 6.99,-10.097 10.49,-22.628 10.49,-37.597 0,-14.653 -4.26,-28.442 -12.82,-41.391 -8.53,-12.93 -20.87,-22.945 -36.98,-30.015 -16.11,-7.09 -34.35,-10.625 -54.69,-10.625 -33.69,0 -59.36,6.992 -77.02,20.996 -17.67,13.992 -28.94,34.746 -33.82,62.254"
         style="fill:#2d49a3;fill-opacity:1;fill-rule:nonzero;stroke:none"
         id="path132" /><path
         d="m 4846.68,701.172 v 259.273 h 39.31 V 924.07 c 8.13,12.696 18.95,22.91 32.47,30.645 13.5,7.726 28.88,11.594 46.14,11.594 19.2,0 34.95,-3.996 47.25,-11.965 12.28,-7.981 20.94,-19.121 25.99,-33.446 20.51,30.274 47.2,45.411 80.08,45.411 25.71,0 45.49,-7.121 59.33,-21.36 13.82,-14.25 20.75,-36.179 20.75,-65.801 V 701.172 h -43.7 V 864.5 c 0,17.578 -1.43,30.234 -4.27,37.969 -2.85,7.722 -8.03,13.945 -15.51,18.672 -7.49,4.718 -16.28,7.082 -26.37,7.082 -18.23,0 -33.36,-6.067 -45.41,-18.196 -12.05,-12.129 -18.06,-31.535 -18.06,-58.222 V 701.172 h -43.95 v 168.457 c 0,19.527 -3.58,34.18 -10.74,43.941 -7.17,9.77 -18.89,14.653 -35.16,14.653 -12.37,0 -23.8,-3.254 -34.29,-9.77 -10.51,-6.512 -18.12,-16.031 -22.83,-28.562 -4.73,-12.539 -7.08,-30.606 -7.08,-54.2 V 701.172 h -43.95"
         style="fill:#2d49a3;fill-opacity:1;fill-rule:nonzero;stroke:none"
         id="path134" /><path
         d="m 5433.11,701.172 v 38.086 c -20.19,-29.297 -47.61,-43.945 -82.28,-43.945 -15.3,0 -29.58,2.925 -42.85,8.789 -13.26,5.859 -23.11,13.218 -29.53,22.089 -6.44,8.875 -10.96,19.735 -13.56,32.594 -1.79,8.625 -2.68,22.297 -2.68,41.02 v 160.64 h 43.94 V 816.648 c 0,-22.949 0.89,-38.418 2.69,-46.386 2.76,-11.563 8.62,-20.633 17.58,-27.215 8.94,-6.606 20.02,-9.895 33.2,-9.895 13.18,0 25.55,3.379 37.11,10.125 11.55,6.758 19.73,15.957 24.53,27.602 4.8,11.629 7.21,28.516 7.21,50.652 v 138.914 h 43.94 V 701.172 h -39.3"
         style="fill:#2d49a3;fill-opacity:1;fill-rule:nonzero;stroke:none"
         id="path136" /><path
         d="m 5523.68,778.563 43.46,6.835 c 2.44,-17.421 9.24,-30.761 20.38,-40.039 11.15,-9.277 26.74,-13.918 46.76,-13.918 20.17,0 35.15,4.114 44.92,12.329 9.76,8.218 14.65,17.859 14.65,28.933 0,9.922 -4.32,17.735 -12.94,23.438 -6.03,3.906 -21,8.867 -44.92,14.89 -32.23,8.137 -54.56,15.18 -67.03,21.125 -12.44,5.938 -21.88,14.16 -28.32,24.649 -6.42,10.508 -9.63,22.097 -9.63,34.797 0,11.55 2.64,22.253 7.94,32.097 5.28,9.844 12.48,18.028 21.6,24.539 6.83,5.051 16.15,9.321 27.95,12.825 11.8,3.496 24.45,5.246 37.96,5.246 20.35,0 38.21,-2.93 53.6,-8.789 15.37,-5.864 26.73,-13.801 34.05,-23.801 7.33,-10.02 12.36,-23.399 15.14,-40.164 l -42.97,-5.864 c -1.95,13.352 -7.61,23.762 -16.96,31.25 -9.37,7.493 -22.59,11.235 -39.68,11.235 -20.19,0 -34.59,-3.34 -43.21,-10.012 -8.64,-6.68 -12.94,-14.492 -12.94,-23.437 0,-5.704 1.78,-10.821 5.37,-15.379 3.57,-4.719 9.19,-8.625 16.84,-11.719 4.4,-1.633 17.34,-5.371 38.82,-11.231 31.09,-8.3 52.77,-15.097 65.07,-20.382 12.29,-5.293 21.92,-12.989 28.93,-23.075 6.99,-10.097 10.49,-22.628 10.49,-37.597 0,-14.653 -4.26,-28.442 -12.82,-41.391 -8.53,-12.93 -20.87,-22.945 -36.98,-30.015 -16.11,-7.09 -34.35,-10.625 -54.69,-10.625 -33.69,0 -59.36,6.992 -77.02,20.996 -17.67,13.992 -28.94,34.746 -33.82,62.254"
         style="fill:#2d49a3;fill-opacity:1;fill-rule:nonzero;stroke:none"
         id="path138" /><path
         d="m 5883.54,759.031 v 98.145 h -97.41 v 41.015 h 97.41 v 97.414 h 41.51 v -97.414 h 97.41 v -41.015 h -97.41 v -98.145 h -41.51"
         style="fill:#2d49a3;fill-opacity:1;fill-rule:nonzero;stroke:none"
         id="path140" /><path
         d="m 1207.52,141.172 -98.63,259.277 h 46.38 l 55.67,-155.277 c 6.01,-16.762 11.55,-34.184 16.6,-52.242 3.91,13.672 9.35,30.109 16.36,49.308 l 57.61,158.211 h 45.17 l -98.14,-259.277 h -41.02"
         style="fill:#2d49a3;fill-opacity:1;fill-rule:nonzero;stroke:none"
         id="path142" /><path
         d="m 1551.03,271.301 c -15.96,-6.52 -39.89,-12.051 -71.78,-16.602 -18.07,-2.609 -30.85,-5.539 -38.33,-8.789 -7.49,-3.269 -13.27,-8.019 -17.34,-14.289 -4.07,-6.262 -6.1,-13.223 -6.1,-20.871 0,-11.719 4.43,-21.48 13.3,-29.301 8.88,-7.808 21.86,-11.719 38.95,-11.719 16.92,0 31.98,3.711 45.16,11.11 13.19,7.41 22.86,17.539 29.06,30.398 4.71,9.922 7.08,24.571 7.08,43.942 z m 3.66,-98.153 c -16.28,-13.839 -31.95,-23.597 -46.99,-29.289 -15.06,-5.699 -31.23,-8.55 -48.47,-8.55 -28.49,0 -50.38,6.953 -65.68,20.882 -15.3,13.911 -22.94,31.688 -22.94,53.34 0,12.688 2.89,24.301 8.67,34.778 5.77,10.511 13.34,18.929 22.69,25.281 9.37,6.351 19.91,11.14 31.62,14.398 8.63,2.282 21.64,4.481 39.07,6.594 35.47,4.227 61.6,9.277 78.37,15.137 0.15,6.019 0.24,9.84 0.24,11.48 0,17.903 -4.15,30.512 -12.45,37.84 -11.23,9.922 -27.92,14.891 -50.05,14.891 -20.67,0 -35.93,-3.621 -45.78,-10.871 -9.85,-7.239 -17.13,-20.059 -21.85,-38.45 l -42.97,5.86 c 3.91,18.39 10.34,33.25 19.29,44.562 8.95,11.309 21.89,20.02 38.82,26.117 16.92,6.114 36.53,9.161 58.84,9.161 22.13,0 40.11,-2.61 53.95,-7.821 13.83,-5.207 24.01,-11.75 30.52,-19.636 6.5,-7.903 11.06,-17.883 13.67,-29.922 1.47,-7.489 2.2,-20.989 2.2,-40.52 v -58.601 c 0,-40.86 0.94,-66.688 2.8,-77.508 1.88,-10.832 5.58,-21.211 11.12,-31.129 h -45.9 c -4.56,9.109 -7.49,19.777 -8.79,31.976"
         style="fill:#2d49a3;fill-opacity:1;fill-rule:nonzero;stroke:none"
         id="path144" /><path
         d="m 1663.57,141.172 v 259.277 h 39.56 v -36.867 c 19.04,28.477 46.54,42.727 82.51,42.727 15.63,0 29.99,-2.821 43.1,-8.418 13.1,-5.629 22.9,-12.993 29.41,-22.102 6.51,-9.117 11.07,-19.937 13.68,-32.469 1.62,-8.148 2.44,-22.379 2.44,-42.73 V 141.172 h -43.95 v 157.707 c 0,17.91 -1.71,31.293 -5.12,40.16 -3.42,8.883 -9.49,15.961 -18.2,21.25 -8.7,5.281 -18.91,7.93 -30.63,7.93 -18.72,0 -34.88,-5.949 -48.47,-17.821 -13.58,-11.886 -20.38,-34.429 -20.38,-67.628 V 141.172 h -43.95"
         style="fill:#2d49a3;fill-opacity:1;fill-rule:nonzero;stroke:none"
         id="path146" /><path
         d="m 2109.86,270.559 c 0,-33.2 7,-58.02 21,-74.457 13.99,-16.442 30.52,-24.661 49.56,-24.661 19.2,0 35.53,7.86 48.95,23.559 13.43,15.711 20.14,39.68 20.14,71.898 0,35.481 -6.83,61.532 -20.51,78.133 -13.67,16.598 -30.51,24.899 -50.53,24.899 -19.53,0 -35.85,-7.981 -48.95,-23.93 -13.1,-15.949 -19.66,-41.102 -19.66,-75.441 z m 138.92,-129.387 v 32.707 c -16.45,-25.719 -40.62,-38.57 -72.51,-38.57 -20.67,0 -39.68,5.703 -57,17.089 -17.35,11.391 -30.76,27.313 -40.3,47.731 -9.51,20.422 -14.27,43.902 -14.27,70.43 0,25.882 4.3,49.363 12.94,70.429 8.62,21.09 21.56,37.242 38.82,48.473 17.24,11.23 36.53,16.848 57.86,16.848 15.62,0 29.54,-3.297 41.74,-9.887 12.21,-6.602 22.13,-15.184 29.79,-25.762 v 128.422 h 43.7 v -357.91 h -40.77"
         style="fill:#2d49a3;fill-opacity:1;fill-rule:nonzero;stroke:none"
         id="path148" /><path
         d="m 2391.85,295.711 h 144.77 c -1.95,21.809 -7.49,38.168 -16.6,49.07 -14,16.93 -32.15,25.391 -54.44,25.391 -20.19,0 -37.15,-6.75 -50.91,-20.262 -13.75,-13.519 -21.36,-31.582 -22.82,-54.199 z m 144.28,-71.039 45.41,-5.621 c -7.16,-26.531 -20.43,-47.121 -39.79,-61.77 -19.38,-14.652 -44.11,-21.972 -74.22,-21.972 -37.93,0 -68,11.679 -90.21,35.043 -22.22,23.347 -33.33,56.097 -33.33,98.257 0,43.61 11.23,77.473 33.7,101.563 22.46,24.09 51.59,36.137 87.4,36.137 34.67,0 62.99,-11.809 84.96,-35.399 21.97,-23.609 32.96,-56.808 32.96,-99.609 0,-2.61 -0.09,-6.52 -0.25,-11.723 H 2389.4 c 1.63,-28.488 9.68,-50.289 24.17,-65.43 14.49,-15.136 32.55,-22.707 54.2,-22.707 16.12,0 29.87,4.231 41.26,12.7 11.39,8.461 20.42,21.968 27.1,40.531"
         style="fill:#2d49a3;fill-opacity:1;fill-rule:nonzero;stroke:none"
         id="path150" /><path
         d="m 2782.23,141.172 v 357.91 h 258.79 V 456.84 H 2829.59 V 347.219 h 198 V 305.23 h -198 V 183.41 h 219.73 v -42.238 h -267.09"
         style="fill:#2d49a3;fill-opacity:1;fill-rule:nonzero;stroke:none"
         id="path152" /><path
         d="m 3279.05,141.172 v 38.09 c -20.18,-29.301 -47.6,-43.953 -82.27,-43.953 -15.31,0 -29.58,2.929 -42.85,8.793 -13.27,5.859 -23.11,13.218 -29.54,22.089 -6.43,8.879 -10.95,19.739 -13.55,32.598 -1.8,8.621 -2.69,22.293 -2.69,41.012 v 160.648 h 43.95 V 256.648 c 0,-22.949 0.89,-38.418 2.69,-46.386 2.76,-11.563 8.62,-20.633 17.57,-27.211 8.95,-6.61 20.02,-9.903 33.21,-9.903 13.18,0 25.54,3.383 37.11,10.133 11.55,6.758 19.73,15.957 24.53,27.598 4.8,11.633 7.2,28.512 7.2,50.652 v 138.918 h 43.95 V 141.172 h -39.31"
         style="fill:#2d49a3;fill-opacity:1;fill-rule:nonzero;stroke:none"
         id="path154" /><path
         d="m 3386.72,141.172 v 259.277 h 39.55 v -39.308 c 10.09,18.39 19.4,30.519 27.96,36.379 8.53,5.859 17.94,8.789 28.19,8.789 14.81,0 29.87,-4.727 45.17,-14.161 l -15.14,-40.769 c -10.74,6.34 -21.48,9.519 -32.23,9.519 -9.6,0 -18.23,-2.886 -25.87,-8.679 -7.66,-5.77 -13.11,-13.778 -16.36,-24.039 -4.88,-15.621 -7.33,-32.711 -7.33,-51.27 V 141.172 h -43.94"
         style="fill:#2d49a3;fill-opacity:1;fill-rule:nonzero;stroke:none"
         id="path156" /><path
         d="m 3582.52,270.809 c 0,-33.2 7.24,-58.071 21.73,-74.579 14.48,-16.519 32.71,-24.789 54.69,-24.789 21.8,0 39.95,8.297 54.44,24.911 14.48,16.597 21.73,41.898 21.73,75.918 0,32.062 -7.29,56.359 -21.86,72.878 -14.56,16.524 -32.67,24.782 -54.31,24.782 -21.98,0 -40.21,-8.219 -54.69,-24.66 -14.49,-16.438 -21.73,-41.258 -21.73,-74.461 z m -45.17,0 c 0,48.011 13.34,83.57 40.04,106.691 22.3,19.199 49.48,28.809 81.55,28.809 35.64,0 64.77,-11.68 87.4,-35.039 22.62,-23.348 33.93,-55.629 33.93,-96.801 0,-33.367 -5.01,-59.61 -15.01,-78.731 -10.02,-19.129 -24.58,-33.976 -43.71,-44.558 -19.12,-10.578 -40,-15.871 -62.61,-15.871 -36.3,0 -65.64,11.632 -88.01,34.91 -22.39,23.269 -33.58,56.801 -33.58,100.59"
         style="fill:#2d49a3;fill-opacity:1;fill-rule:nonzero;stroke:none"
         id="path158" /><path
         d="m 3871.58,269.34 c 0,-33.371 6.75,-58.02 20.27,-73.969 13.5,-15.961 29.86,-23.93 49.07,-23.93 19.53,0 36.25,8.27 50.17,24.789 13.91,16.508 20.87,42.11 20.87,76.782 0,33.027 -6.79,57.769 -20.38,74.207 -13.59,16.441 -29.83,24.66 -48.71,24.66 -18.72,0 -35.27,-8.75 -49.69,-26.238 -14.39,-17.5 -21.6,-42.942 -21.6,-76.301 z M 3831.79,41.8008 V 400.449 h 40.04 v -33.687 c 9.43,13.179 20.09,23.058 31.98,29.66 11.87,6.59 26.28,9.887 43.21,9.887 22.13,0 41.66,-5.707 58.6,-17.09 16.92,-11.399 29.69,-27.457 38.33,-48.231 8.62,-20.738 12.93,-43.488 12.93,-68.226 0,-26.532 -4.75,-50.422 -14.28,-71.653 -9.51,-21.25 -23.35,-37.519 -41.51,-48.828 -18.14,-11.312 -37.22,-16.972 -57.24,-16.972 -14.65,0 -27.8,3.101 -39.44,9.281 -11.63,6.18 -21.2,13.992 -28.68,23.441 V 41.8008 h -43.94"
         style="fill:#2d49a3;fill-opacity:1;fill-rule:nonzero;stroke:none"
         id="path160" /><path
         d="m 4143.07,295.711 h 144.77 c -1.95,21.809 -7.49,38.168 -16.6,49.07 -14,16.93 -32.15,25.391 -54.44,25.391 -20.19,0 -37.15,-6.75 -50.91,-20.262 -13.75,-13.519 -21.36,-31.582 -22.82,-54.199 z m 144.28,-71.039 45.41,-5.621 c -7.16,-26.531 -20.43,-47.121 -39.79,-61.77 -19.38,-14.652 -44.11,-21.972 -74.22,-21.972 -37.93,0 -68,11.679 -90.21,35.043 -22.22,23.347 -33.33,56.097 -33.33,98.257 0,43.61 11.24,77.473 33.7,101.563 22.46,24.09 51.59,36.137 87.4,36.137 34.67,0 62.99,-11.809 84.96,-35.399 21.97,-23.609 32.96,-56.808 32.96,-99.609 0,-2.61 -0.09,-6.52 -0.25,-11.723 h -193.35 c 1.62,-28.488 9.67,-50.289 24.16,-65.43 14.49,-15.136 32.55,-22.707 54.2,-22.707 16.12,0 29.87,4.231 41.26,12.7 11.39,8.461 20.42,21.968 27.1,40.531"
         style="fill:#2d49a3;fill-opacity:1;fill-rule:nonzero;stroke:none"
         id="path162" /><path
         d="m 4370.36,218.559 43.46,6.839 c 2.44,-17.418 9.24,-30.757 20.38,-40.039 11.15,-9.277 26.74,-13.918 46.76,-13.918 20.17,0 35.15,4.11 44.92,12.329 9.76,8.218 14.65,17.859 14.65,28.929 0,9.93 -4.32,17.742 -12.94,23.442 -6.03,3.91 -21,8.871 -44.92,14.89 -32.23,8.141 -54.56,15.18 -67.03,21.117 -12.44,5.942 -21.88,14.161 -28.32,24.661 -6.42,10.492 -9.63,22.089 -9.63,34.793 0,11.546 2.64,22.257 7.94,32.109 5.28,9.84 12.48,18.019 21.6,24.527 6.83,5.043 16.15,9.321 27.95,12.813 11.8,3.508 24.45,5.258 37.96,5.258 20.35,0 38.21,-2.93 53.6,-8.789 15.37,-5.86 26.73,-13.79 34.05,-23.809 7.33,-10 12.36,-23.402 15.14,-40.16 l -42.97,-5.86 c -1.95,13.34 -7.61,23.758 -16.96,31.25 -9.37,7.481 -22.59,11.231 -39.68,11.231 -20.19,0 -34.59,-3.34 -43.21,-10.012 -8.64,-6.68 -12.94,-14.488 -12.94,-23.43 0,-5.71 1.78,-10.832 5.37,-15.378 3.57,-4.731 9.19,-8.641 16.84,-11.723 4.4,-1.629 17.34,-5.367 38.82,-11.231 31.09,-8.296 52.77,-15.097 65.07,-20.386 12.28,-5.293 21.92,-12.981 28.93,-23.071 6.99,-10.101 10.49,-22.632 10.49,-37.601 0,-14.649 -4.26,-28.442 -12.82,-41.379 -8.53,-12.93 -20.87,-22.949 -36.98,-30.02 -16.11,-7.089 -34.35,-10.632 -54.69,-10.632 -33.69,0 -59.36,6.992 -77.02,21 -17.67,13.992 -28.94,34.742 -33.82,62.25"
         style="fill:#2d49a3;fill-opacity:1;fill-rule:nonzero;stroke:none"
         id="path164" /><path
         d="m 4671.14,295.711 h 144.78 c -1.96,21.809 -7.49,38.168 -16.6,49.07 -14.01,16.93 -32.15,25.391 -54.45,25.391 -20.18,0 -37.15,-6.75 -50.91,-20.262 -13.75,-13.519 -21.35,-31.582 -22.82,-54.199 z m 144.29,-71.039 45.41,-5.621 c -7.17,-26.531 -20.43,-47.121 -39.8,-61.77 -19.37,-14.652 -44.11,-21.972 -74.21,-21.972 -37.93,0 -68,11.679 -90.21,35.043 -22.23,23.347 -33.33,56.097 -33.33,98.257 0,43.61 11.23,77.473 33.69,101.563 22.46,24.09 51.59,36.137 87.4,36.137 34.67,0 62.99,-11.809 84.97,-35.399 21.97,-23.609 32.95,-56.808 32.95,-99.609 0,-2.61 -0.08,-6.52 -0.24,-11.723 H 4668.7 c 1.62,-28.488 9.68,-50.289 24.17,-65.43 14.48,-15.136 32.55,-22.707 54.2,-22.707 16.11,0 29.86,4.231 41.26,12.7 11.39,8.461 20.42,21.968 27.1,40.531"
         style="fill:#2d49a3;fill-opacity:1;fill-rule:nonzero;stroke:none"
         id="path166" /><path
         d="m 5295.41,499.082 h 47.36 V 292.289 c 0,-35.969 -4.07,-64.539 -12.2,-85.687 -8.15,-21.161 -22.84,-38.372 -44.07,-51.641 -21.25,-13.262 -49.12,-19.891 -83.62,-19.891 -33.53,0 -60.96,5.782 -82.27,17.328 -21.33,11.551 -36.55,28.282 -45.66,50.184 -9.12,21.879 -13.67,51.777 -13.67,89.707 v 206.793 h 47.36 V 292.539 c 0,-31.098 2.89,-54 8.66,-68.73 5.79,-14.731 15.72,-26.09 29.79,-34.059 14.08,-7.969 31.29,-11.961 51.64,-11.961 34.82,0 59.65,7.891 74.46,23.68 14.81,15.781 22.22,46.152 22.22,91.07 v 206.543"
         style="fill:#2d49a3;fill-opacity:1;fill-rule:nonzero;stroke:none"
         id="path168" /><path
         d="m 5416.02,141.172 v 259.277 h 39.55 v -36.867 c 19.04,28.477 46.54,42.727 82.52,42.727 15.62,0 29.99,-2.821 43.09,-8.418 13.1,-5.629 22.9,-12.993 29.42,-22.102 6.5,-9.117 11.06,-19.937 13.67,-32.469 1.62,-8.148 2.44,-22.379 2.44,-42.73 V 141.172 h -43.95 v 157.707 c 0,17.91 -1.71,31.293 -5.12,40.16 -3.42,8.883 -9.49,15.961 -18.2,21.25 -8.7,5.281 -18.91,7.93 -30.63,7.93 -18.72,0 -34.87,-5.949 -48.47,-17.821 -13.58,-11.886 -20.38,-34.429 -20.38,-67.628 V 141.172 h -43.94"
         style="fill:#2d49a3;fill-opacity:1;fill-rule:nonzero;stroke:none"
         id="path170" /><path
         d="m 5694.34,141.172 v 259.277 h 43.94 V 141.172 Z m 0,307.367 v 50.543 h 43.94 v -50.543 h -43.94"
         style="fill:#2d49a3;fill-opacity:1;fill-rule:nonzero;stroke:none"
         id="path172" /><path
         d="m 5838.38,295.711 h 144.77 c -1.95,21.809 -7.49,38.168 -16.6,49.07 -14,16.93 -32.15,25.391 -54.44,25.391 -20.19,0 -37.15,-6.75 -50.91,-20.262 -13.75,-13.519 -21.36,-31.582 -22.82,-54.199 z m 144.29,-71.039 45.41,-5.621 c -7.17,-26.531 -20.43,-47.121 -39.8,-61.77 -19.37,-14.652 -44.11,-21.972 -74.22,-21.972 -37.93,0 -68,11.679 -90.2,35.043 -22.23,23.347 -33.33,56.097 -33.33,98.257 0,43.61 11.23,77.473 33.69,101.563 22.46,24.09 51.59,36.137 87.4,36.137 34.67,0 62.99,-11.809 84.96,-35.399 21.97,-23.609 32.96,-56.808 32.96,-99.609 0,-2.61 -0.09,-6.52 -0.24,-11.723 h -193.36 c 1.62,-28.488 9.68,-50.289 24.17,-65.43 14.48,-15.136 32.55,-22.707 54.2,-22.707 16.11,0 29.86,4.231 41.26,12.7 11.38,8.461 20.42,21.968 27.1,40.531"
         style="fill:#2d49a3;fill-opacity:1;fill-rule:nonzero;stroke:none"
         id="path174" /></g></g></svg>
