<svg id="Ebene_1" data-name="Ebene 1" xmlns="http://www.w3.org/2000/svg" xmlns:xlink="http://www.w3.org/1999/xlink" viewBox="0 0 599.9 426.21"><defs><style>.cls-1,.cls-3,.cls-4,.cls-5{fill:none;}.cls-2{clip-path:url(#clip-path);}.cls-3,.cls-4,.cls-5{stroke:#2e578d;}.cls-3{stroke-miterlimit:10;stroke-width:8.33px;}.cls-4{stroke-width:4.63px;}.cls-5{stroke-width:2.78px;}.cls-6{fill:#2e578d;}.cls-7{fill:#1d1d1b;}.cls-8{fill:#8aaac3;}.cls-9{fill:#f3901a;}.cls-10{fill:#fff;}.cls-11{fill:#c00c38;}.cls-12{fill:#8a7891;}.cls-13{fill:#5e486b;}.cls-14{fill:#7d0f25;}.cls-15{fill:#bab0c0;}.cls-16{fill:#8f9fbb;}.cls-17{fill:#abb1b6;}.cls-18{fill:#7e7b8a;}.cls-19{fill:#28193a;}.cls-20{fill:#3a3938;}.cls-21{fill:#6b6678;}.cls-22{fill:#ba7d16;}.cls-23{fill:#926e55;}.cls-24{fill:#925f26;}.cls-25{fill:#80402a;}.cls-26{fill:#f8bc56;}</style><clipPath id="clip-path" transform="translate(2.42 -207.53)"><rect class="cls-1" x="-2.42" y="207.53" width="599.9" height="426.21"/></clipPath></defs><g class="cls-2"><path class="cls-3" d="M251.15,615.92s45.91-3.6,99.69-26.23,57.06-30.83,57.06-30.83" transform="translate(2.42 -207.53)"/><path class="cls-4" d="M202.94,496.88s58.18-6.89,109.86-30.5A591,591,0,0,0,375,433.33" transform="translate(2.42 -207.53)"/><path class="cls-5" d="M200.25,534.59s52.21-5.24,104.68-25.71c80.57-31.42,88.41-48.27,88.41-48.27" transform="translate(2.42 -207.53)"/><path class="cls-6" d="M198.71,523.89l.91-7.23c14.63,1.83,53.94-7.57,95.59-22.86C344.91,475.55,377.5,457,384,448l5.89,4.29c-8.62,11.82-45.66,31.25-92.18,48.32-43.3,15.91-83.09,25.25-99,23.26" transform="translate(2.42 -207.53)"/><path class="cls-6" d="M206.77,487.62l-.55-7.26c16.7-1.25,46.07-9,76.63-20.22,32-11.76,60-25.27,73-35.26l4.44,5.78C346.73,441.06,318,455,285.37,467c-31.16,11.44-61.28,19.35-78.6,20.65" transform="translate(2.42 -207.53)"/><path class="cls-6" d="M202.88,553.75l.56-7.26c16.85,1.31,57.48-8.57,101.11-24.59,45.76-16.8,85.8-38.71,95.62-50.27l4.32,6.81c-10.71,12.62-49.86,32.84-97.43,50.3-45.21,16.6-86.11,26.42-104.18,25" transform="translate(2.42 -207.53)"/><path class="cls-7" d="M243.3,607.08a105.53,105.53,0,0,0,167-61.31c-23.57,13.37-51.5,26.11-81.16,37S269.92,602,243.3,607.08m64,26.66a110.94,110.94,0,0,1-71.66-26.22L231.47,604l5.4-.94c27.73-4.86,59-13.54,90.47-25.09s60.92-25.18,85.21-39.42l4.73-2.77-.9,5.41a110.58,110.58,0,0,1-109.07,92.57" transform="translate(2.42 -207.53)"/><path class="cls-8" d="M471.49,479.13c5.45,14.86-17.82,38.27-57.64,61.62-23.58,13.82-53,27.62-85.62,39.61s-64,20.49-90.92,25.2c-45.46,8-78.35,5.19-83.81-9.67-4.95-13.5,13.78-34,47.07-55.18a108.48,108.48,0,0,0,3.12,13.39c-9.25,6.51-14,11.86-12.72,15.27s8.58,4.48,20.23,3.36c22.5-2.18,61.21-12.33,103.94-28s78.81-33,97.37-45.91c9.6-6.68,14.52-12.17,13.24-15.64s-8.3-4.45-19.56-3.42a108.23,108.23,0,0,0-6.3-12.22c39.07-5.43,66.64-1.89,71.6,11.6" transform="translate(2.42 -207.53)"/><path class="cls-9" d="M200.7,546.85l.83,1.22a167.21,167.21,0,0,0-19.66,14.85c3.77-4.75,10-10.08,18.83-16.07" transform="translate(2.42 -207.53)"/><path class="cls-9" d="M202.36,549.28l-.83-1.21.46-.3Z" transform="translate(2.42 -207.53)"/><path class="cls-6" d="M439.84,479.75c-1.37-3.71-5.08-6.18-11.24-7.41-6-1.17-14.2-1.19-24.83,0l.16,1.46.47,4.41c20.27-2.17,28.73.45,29.91,3.63,1.95,5.32-12.2,19.58-47.9,38.3a590.81,590.81,0,0,1-69.22,30.21c-14.9,5.47-29.7,10.33-43.83,14.39-9.89,2.87-19.44,5.34-28.49,7.37-39.33,8.84-59.34,7.12-61.3,1.79-1.15-3.11,3.43-10.39,19.59-21.55l.86-.58-1.66-2.44-.83-1.21-.83-1.22c-8.79,6-15.06,11.32-18.83,16.07-4,4.94-5.2,9.23-3.83,13s5,5.9,10.14,7.13c13.49,3.22,37.43-.58,58-5.2,9.3-2.08,19.13-4.63,29.3-7.58,14.13-4.08,28.89-8.94,43.76-14.4a598.69,598.69,0,0,0,69.93-30.51c25.79-13.53,55.52-32.41,50.69-45.57" transform="translate(2.42 -207.53)"/><path class="cls-6" d="M457.81,478.34c-5.06-13.78-33.41-13.17-56.29-10.23l.75,5.85,1.66-.21a166.36,166.36,0,0,1,24.67-1.4c15.06.45,22.19,4,23.68,8,2.68,7.31-9.45,24.37-52.51,48.35-22.25,12.41-49.1,24.5-77.65,35-13.06,4.79-26.07,9.1-38.72,12.83-15,4.44-29.57,8.07-43.13,10.75-48.34,9.58-68.63,4.43-71.32-2.88-1.49-4.06,1.68-11.38,12.92-21.49a167.21,167.21,0,0,1,19.66-14.85l.46-.3.93-.61-1.6-2.46-1.61-2.49c-19.35,12.57-41.36,30.45-36.28,44.23,1.95,5.33,7.32,8.54,14.61,10.28,17.16,4.09,44.91,0,63.38-3.64a513.27,513.27,0,0,0,51.89-13.38c10.16-3.15,20.48-6.64,30.83-10.45,28.84-10.59,56-22.81,78.5-35.37,23.43-13.06,61.75-37.63,55.17-55.54" transform="translate(2.42 -207.53)"/><path class="cls-7" d="M198.75,544.94c-31,20.22-47,38.82-42.84,50.06,4.73,12.88,35.75,16,81,8,27.73-4.86,59-13.54,90.47-25.09s60.92-25.18,85.21-39.42c39.6-23.21,61.26-45.63,56.53-58.51C465,468.78,440.74,464.93,404,469.57c1.35,2.44,2.61,4.94,3.77,7.47,12.24-.91,18.73.76,20.37,5.24,1.75,4.77-2.76,10.69-14.18,18.63-19.58,13.61-56.2,30.88-98,46.21S235.17,573,211.44,575.28c-13.85,1.34-21.12-.26-22.87-5-1.65-4.47,2.22-10,12.14-17.18-.75-2.68-1.41-5.4-2-8.13m-5.14,67.58c-23.76,0-38.7-5.35-42.51-15.75-5.32-14.47,11.76-35.15,48.1-58.23l3.27-2.07.64,3.82a104.51,104.51,0,0,0,3,13.07l.53,1.78-1.52,1.06c-12.8,9-11.79,12.25-11.78,12.28s1.39,3.25,17.57,1.69c23-2.22,62.55-12.9,103.31-27.86s77.84-32.44,96.79-45.61c13.34-9.28,12.31-12.62,12.29-12.65s-1.34-3.16-16.92-1.74l-1.84.17-.74-1.7a106.8,106.8,0,0,0-6.15-11.94l-2-3.32,3.84-.54c42.64-5.92,69-1.2,74.35,13.27,5.82,15.83-15.6,39.42-58.74,64.71-24.55,14.39-54.3,28.16-86,39.81s-63.33,20.41-91.35,25.32c-16.91,3-31.74,4.43-44.15,4.43" transform="translate(2.42 -207.53)"/><path class="cls-7" d="M307.19,417.64A105.53,105.53,0,0,0,203.11,540.29a106.28,106.28,0,0,0,3,13.07c.62,2,1.3,4.11,2.05,6.14a104.74,104.74,0,0,0,4.5,10.49c23.19-2.58,61.83-13.09,101.57-27.68s76-31.58,95.34-44.62a106.28,106.28,0,0,0-3.35-10.91c-.75-2-1.56-4-2.41-6a106.8,106.8,0,0,0-6.15-11.94,105.47,105.47,0,0,0-90.5-51.2M209.71,575.45l-.79-1.55a111.33,111.33,0,0,1-5.55-12.63c-.78-2.13-1.5-4.29-2.14-6.43a110.62,110.62,0,0,1,207.31-76.12c.89,2,1.75,4.17,2.53,6.29A113.68,113.68,0,0,1,415,498.23l.39,1.69-1.42,1c-19.58,13.61-56.2,30.88-98,46.21S235.17,573,211.44,575.28Z" transform="translate(2.42 -207.53)"/><path class="cls-7" d="M199.46,548.23a.19.19,0,0,1,0,.07.19.19,0,0,0,0-.07m.07.29.09.34-.09-.34m.1.39.09.37c.31,1.27.64,2.54,1,3.79a49.5,49.5,0,0,0-9.88,8.91c-2.43,3.13-3.15,5.85-2.26,8.27,1.35,3.69,6,5.48,14.48,5.48q3,0,6.66-.3l-.79-1.53-.48-.94c-1.94.13-3.73.2-5.37.2-6.89,0-11.15-1.21-12.09-3.79-1.15-3.13,2.72-7.89,10.51-13.68-.09-.28-.18-.57-.26-.85q-.89-2.94-1.6-5.93m129.79,29.93c-3.24.64-6.29,1.2-9.19,1.67-29,10.28-57.72,18-83.36,22.53-16.62,2.91-31.31,4.34-43.49,4.34-14.63,0-25.63-2.06-32-6.08a19,19,0,0,0,7.31,5.81c6.57,1.89,15,2.81,24.85,2.81,12.46,0,27.27-1.47,43.73-4.36q3.34-.59,6.77-1.24l-1-.75c25.41-4.89,54.34-13,84.4-24l2-.73m-161.93,27.9,1.26.38h0l-1.24-.37" transform="translate(2.42 -207.53)"/><path class="cls-7" d="M201.69,546.43h0Zm0,0L199.4,548l.06.26,0,.07a1.74,1.74,0,0,1,.05.22l.09.35v0q.72,3,1.6,5.93c.09.28.17.57.26.85.7-.52,1.43-1.05,2.2-1.59-.77-2.55-1.42-5.11-2-7.67m77.89,10.38q-8.54,2.66-16.56,4.93l-.13,0-.33.1-.23.06,0,0c-20.7,5.81-38.46,9.55-51.09,10.78-.95.09-1.87.17-2.76.23l.48.94.79,1.53v0l1.73-.17c16.1-1.56,39.27-6.9,65.54-15a34,34,0,0,1,2.61-3.5" transform="translate(2.42 -207.53)"/><path class="cls-7" d="M412.37,498.91l-2.15,1.45c-5.35,2.43-12.15,5.44-19.88,8.72-3.95,2.1-8.16,4.26-12.62,6.44h0l-.37.18h0l-.35.17-.06,0-.33.17h0l-.36.18h0l-.72.35,0,0-.35.17h0l-.35.17,0,0-.33.16-.06,0-.29.13-.13.07-.25.12-.12,0-.27.13-.12.06-.27.13-.1,0-.26.13-.16.08-.18.08-.2.1-.19.09-.21.09-.17.09-.2.09-.19.09-.22.1-.18.09-.18.08-.23.11-.17.08-.3.14-.06,0-.27.13-.15.07-.23.1-.15.07-.21.1-.21.1-.12.06-.26.11-.13.07-1.26.58-.34.16-.55.25-.09,0-.67.3-.13.07-.69.31-.11.05-.27.12-.13.06-.22.1-.21.1-.2.09-.19.08-.22.11-.2.08-.2.1-.19.08-.23.1-.18.08-.3.14-.07,0-.33.15-.09,0-.31.14-.1,0-.28.13-.15.07-.28.12-.1,0-.34.15-.06,0-.35.16-.06,0-.33.15-.09,0-.35.16h0l-.39.17h0l-.37.16-.09,0-.3.13-.14.06-.31.14-.05,0-.34.16-.12,0-.3.13-.11,0-.31.13-.1.05-.34.14h0l-.39.18h0l-.41.18h0l-.39.17-.09,0c-2.19.95-4.42,1.9-6.67,2.85l-.07,0-.83.34h0l-.39.17,0,0-.35.15-.09,0-.39.17h0l-.41.17h0l-.37.15-.1,0-.28.12-.19.08-.26.1-.17.07-.29.13-.12,0-.33.13-.13.05-.29.12-.15.07-.31.12-.12.05-.33.14-.09,0-.37.15-.07,0-.32.14-.18.07-.3.12-.11,0-.31.12-.14.06-.34.14-.06,0-.35.14-.17.07-.3.12-.08,0-.37.15-.07,0-.8.32L336,534l-.27.11-.14.06-.3.12-.14,0-.33.14h0l-.44.17-.13,0-1.53.61-.31.12-.65.26-.09,0-.75.29-.17.07-.34.13-.09,0-.31.12-.17.06-.33.13-.1,0-.28.11-.22.09-.22.08-.21.09-.25.09-.23.09-.24.1-.2.07-.27.11-.2.08-.26.1-.19.07-.26.1-.22.09-.24.09-.2.08-.26.09-.23.1-.24.09-.19.07-.28.11-.19.07-.28.11-.16.06-.29.11-.21.08-.26.1-.18.07-.27.1-.23.09-.24.09-.2.07-.26.1-.24.09-.22.09-.23.08-.23.09-.27.1-.2.08-.23.08-.24.1-.23.08-.24.09-.24.09-.22.08-.27.1-.2.08-.23.08-.25.1-.23.08-.24.09-.23.09-.22.08-.32.12-.15.06-.28.1-.2.07-.22.08-.26.1-.13.05-.33.12-.31.12-.16,0-.47.18-.47.17-.2.07-.28.1-.2.08-.27.1-.22.08-.24.09-.22.07-.27.1-.14.05-.33.12-.18.07-.29.1-.18.07-.28.1-.25.09-.23.08-.21.08-.25.09-.26.09-.2.08-.26.09-.21.07-.3.11-.16.06-.29.1-.19.07-.26.09-.22.08L307,545l-.19.07-.37.13-.06,0-.36.13-.14.05-.34.12-.11,0-.34.11-.14,0-.36.13-.07,0-.37.13-.12,0-.35.12-.12,0-.33.12-.13.05-.38.13h0l-.44.15h0l-.9.31h0c-33.42,11.6-64.9,19.95-85.66,22.69q.57,1.22,1.17,2.43l-2.69.34c12.39-1.47,29-5.08,48.21-10.46l0,0,.23-.06.33-.1.13,0q8-2.26,16.56-4.93h0c11.33-3.54,23.27-7.59,35.55-12.1,42.62-15.64,78.63-32.92,97.23-45.8" transform="translate(2.42 -207.53)"/><path class="cls-6" d="M398.2,573.13c-12.93,9-35.74,20-61.68,29.52-23.15,8.5-45.73,14.63-61.43,16.83,2.86.87,5.77,1.62,8.7,2.26,15-2.89,34.1-8.36,54-15.67,23.74-8.72,43.12-18,55.17-25.25q2.79-3.74,5.25-7.69" transform="translate(2.42 -207.53)"/><path class="cls-10" d="M326.27,408.45s26.14-15.24,47.76,6.74c19.87,20.19-3.36,40.12-3.36,40.12s7.16,27.52-11.42,31.05c-15.78,3-30-12.25-28.21-31.11,1.5-15.51,4.91-14.06,3.65-22.57-1.42-9.63-21.95-11.8-21.95-11.8H305s-20.53,2.17-21.95,11.8c-1.26,8.51,2.15,7.06,3.64,22.57,1.83,18.86-12.43,34.11-28.2,31.11-18.59-3.53-11.43-31.05-11.43-31.05s-23.23-19.93-3.35-40.12c21.62-22,47.76-6.74,47.76-6.74Z" transform="translate(2.42 -207.53)"/><path class="cls-11" d="M353.56,380.81a15.37,15.37,0,0,1,7.62-1.21A57.49,57.49,0,0,1,371.61,382s4,16.85,3.2,24.47-.8,8.82-.8,8.82-12-9.63-18.45-10.83-2.81-6.82-2.81-6.82l.81-7.62Z" transform="translate(2.42 -207.53)"/><path class="cls-11" d="M218.39,293.37s-5.62-5.62-10.43-5.62-7.62,1.6-7.62,4a22.38,22.38,0,0,1-.81,5.22s-5.21,0-7.62,4.41-7.22,10.83-3.61,15.64a26.06,26.06,0,0,0,8.83,7.22s18.05,21.66,28.48,26.47,10,4.42,10,4.42,14.84-25.68,12.44-33.3-14.84-15.24-14.84-15.24.4-13.23-3.21-16a15.17,15.17,0,0,0-6.42-3.21Z" transform="translate(2.42 -207.53)"/><path class="cls-6" d="M264.05,624v-1.81l-.73-1.68.35-.15h.38c14.65,0,43.1-6.94,72.47-17.73,29.53-10.84,55-23.55,66.46-33.16l2.34,2.79c-11.76,9.87-37.64,22.81-67.54,33.79-30.2,11.09-58.45,18-73.73,17.95" transform="translate(2.42 -207.53)"/><path class="cls-12" d="M403.64,480.33l.2.45.17.39c-.06-.13-.12-.26-.17-.39s-.14-.3-.2-.45" transform="translate(2.42 -207.53)"/><path class="cls-7" d="M390.34,509.08h0c-3.95,2.1-8.16,4.26-12.62,6.44,4.46-2.18,8.67-4.34,12.62-6.44m-12.62,6.44-.37.18.37-.18m-.38.18-.35.18.35-.18m-.41.2-.33.17.33-.17m-.34.17-.36.18.36-.18m-.39.19-.72.35.72-.35m-.76.37-.35.17.35-.17m-.37.18-.35.17.35-.17m-.39.19-.33.16.33-.16m-.4.19-.28.13.28-.13m-.41.2-.25.12.25-.12m-.37.17-.27.13.27-.13m-.39.19-.27.13.27-.13m-.37.17-.26.13.26-.13m-.42.21-.18.08.18-.08m-.38.18-.19.08.19-.08m-.4.18-.17.09.17-.09m-.37.18-.19.09.19-.09m-.41.19-.18.09.18-.09m-.36.17-.23.11.23-.11m-.4.19-.3.14.3-.14m-.36.17-.27.13.27-.13m-.42.2-.23.1.23-.1m-.38.17-.21.1.21-.1m-.42.2-.12,0,.12,0m-.38.17-.13.07.13-.07m-1.39.65-.34.16.34-.16m-.89.4-.09.05.09-.05m-.76.35-.13.07.13-.07m-.82.38-.11.05.11-.05m-.38.17-.13.06.13-.06m-.35.16-.21.1.21-.1m-.41.19-.19.08.19-.08m-.41.18-.2.09.2-.09m-.4.19-.19.08.19-.08m-.42.18-.18.08.18-.08m-.48.22-.07,0,.07,0m-.4.18-.09,0,.09,0m-.4.18-.1,0,.1,0m-.38.17-.15.06.15-.06m-.43.19-.1,0,.1,0m-.44.19-.06,0,.06,0m-.41.19-.06,0,.06,0m-.39.17-.09,0,.09,0m-.44.2h0m-.42.18h0m-.39.17-.09,0,.09,0m-.39.17-.14.06.14-.06m-.45.2-.05,0,.05,0m-.4.17-.11.06.11-.06m-.41.18-.11,0,.11,0m-.42.19-.11.05.11-.05m-.44.19h0m-.42.19h0Zm-.42.18h0Zm-.41.17-.08,0,.08,0m-6.75,2.88-.07,0,.07,0m-.9.38h0m-.42.18,0,0,0,0m-.4.17-.09,0,.09,0m-.48.2h0m-.43.18h0m-.4.16-.1,0,.1,0m-.38.16-.19.08.19-.08m-.45.18-.17.07.17-.07m-.46.2-.12,0,.12,0m-.45.18-.13.05.13-.05m-.42.17-.15.07.15-.07m-.46.19-.12.05.12-.05m-.45.18-.09,0,.09,0m-.46.2-.07,0,.07,0m-.39.16-.18.07.18-.07m-.48.19-.11,0,.11,0m-.42.17-.14.06.14-.06m-.48.2-.06,0,.06,0m-.41.16-.17.07.17-.07m-.47.19-.08,0,.08,0m-.45.18-.07,0,.07,0m-.87.35L336,534l.19-.08m-.46.19-.14.06.14-.06m-.44.18-.14,0,.14,0m-.47.18h0Zm-.44.18-.13,0,.13,0m-1.66.66-.31.12.31-.12m-1,.38-.09,0,.09,0m-.84.33-.17.07.17-.07m-.51.2-.09,0,.09,0m-.4.16-.17.06.17-.06m-.5.19-.1,0,.1,0m-.38.15-.22.09.22-.09m-.44.17-.21.09.21-.09m-.46.18-.23.09.23-.09m-.47.19-.2.07.2-.07m-.47.18-.2.08.2-.08m-.46.18-.19.07.19-.07m-.45.17-.22.08.22-.08m-.46.18-.2.08.2-.08m-.46.17-.23.1.23-.1m-.47.18-.19.08.19-.08m-.47.19-.19.07.19-.07m-.47.18-.16.06.16-.06m-.45.17-.21.08.21-.08m-.47.18-.18.07.18-.07m-.45.17-.23.09.23-.09m-.47.18-.2.07.2-.07m-.46.17-.24.09.24-.09m-.46.18-.23.08.23-.08m-.46.17-.27.1.27-.1m-.47.18-.23.08.23-.08m-.47.18-.23.08.23-.08m-.47.17-.24.09.24-.09m-.46.17-.27.1.27-.1m-.47.18-.23.08.23-.08m-.48.18-.23.08.23-.08m-.47.17-.23.09.23-.09m-.45.17-.32.12.32-.12m-.47.18-.28.1.28-.1m-.48.17-.22.08.22-.08m-.48.18-.13.05.13-.05m-.46.17-.31.11.31-.11m-.47.17-.47.18.47-.18m-.47.18-.47.17.47-.17m-.67.24-.28.1.28-.1m-.48.18-.27.09.27-.09m-.49.18-.24.09.24-.09m-.46.16-.27.1.27-.1m-.41.15-.33.12.33-.12m-.51.19-.29.1.29-.1m-.47.17-.28.1.28-.1m-.53.19-.23.08.23-.08m-.44.16-.25.09.25-.09m-.51.18-.2.08.2-.08m-.46.17-.21.07.21-.07m-.51.18-.16.06.16-.06m-.45.16-.19.07.19-.07m-.45.16-.22.08.22-.08M307,545l-.19.07L307,545m-.56.2-.06,0,.06,0m-.42.15-.14.05.14-.05m-.48.17-.11,0,.11,0m-.45.15-.14,0,.14,0m-.5.18-.07,0,.07,0m-.44.16-.12,0,.12,0m-.47.16-.12,0,.12,0m-.45.16-.13.05.13-.05m-.51.18h0m-.46.16h0m-.93.32h0" transform="translate(2.42 -207.53)"/><path class="cls-7" d="M279.59,556.81h0q-8.54,2.66-16.56,4.93,8-2.26,16.56-4.93m-16.69,5-.33.1.33-.1m-.56.16,0,0,0,0" transform="translate(2.42 -207.53)"/><path class="cls-7" d="M404.51,501c-4.19,2.59-8.94,5.3-14.17,8.1h0c5.23-2.8,10-5.51,14.17-8.1" transform="translate(2.42 -207.53)"/><path class="cls-13" d="M409.6,497.69c-1.58,1.07-3.29,2.17-5.09,3.29h0c1.8-1.12,3.51-2.22,5.09-3.29h0" transform="translate(2.42 -207.53)"/><path class="cls-7" d="M413.11,495.28c-1,.49-2.24,1.08-3.67,1.75.05.22.11.44.16.66-1.58,1.07-3.29,2.17-5.09,3.29-4.19,2.59-8.94,5.3-14.17,8.1,7.73-3.28,14.53-6.29,19.88-8.72l2.15-1.45.14-.1a4.56,4.56,0,0,1-.13-.94c0-1.17,1-.52,1-1.46a3.59,3.59,0,0,0-.24-1.13" transform="translate(2.42 -207.53)"/><path class="cls-7" d="M410.34,545.73c-10.08,5.72-21,11.33-32.45,16.73,11.45-5.38,22.31-11,32.38-16.69-.07.32-.14.63-.22.94,0-.05,0-.1.05-.15l.24-.83m-32.48,16.75-.32.15.32-.15m-.6.28-.37.17.37-.17m-.66.31-.32.15.32-.15m-.72.33-.21.1.21-.1m-.67.31-.11,0,.11,0m-.63.29-.08,0,.08,0m-.65.31-.06,0,.06,0m-.65.29,0,0,0,0m-.65.3,0,0,0,0m-.65.3h0M330.5,582.26h0m-.69.25h0m-.7.26h0l-.69.25.69-.25m-1.31.48-.09,0,.09,0M274.4,600l-.09,0,.09,0m-.68.17-.08,0,.08,0m-.63.17-.15,0,.15,0m-.65.17-.18,0,.18,0m-.67.17-.2,0,.2,0m-.68.17-.19,0,.19,0m-.68.17-.19.05.19-.05m-.66.17-.23.06.23-.06m-.67.17-.26.06.26-.06m-.68.17-.25.06.25-.06m-.68.17-.23,0,.23,0m-.67.16-.2,0,.2,0m-1,.25-.34.08.34-.08m-.69.16-.32.08.32-.08m-.68.17-.33.08.33-.08m-.64.15-.38.09.38-.09m-.68.16-.37.09.37-.09m-.68.17-.36.08.36-.08m-.69.16-.36.08.36-.08m-.66.15-.37.09.37-.09m-.69.16-.34.08.34-.08m-.67.16-.33.07.33-.07m-.69.16-.31.07.31-.07m-.66.15-.32.07.32-.07m-.68.15-.26.06.26-.06m-.66.15-.15,0,.15,0m-1.19.26-.12,0,.12,0m-.58.13-.19,0,.19,0m-.64.14-.21,0,.21,0m-.65.14-.22,0,.22,0m-.65.14-.23,0,.23,0m-.67.15-.2,0,.2,0m-.66.14-.19,0,.19,0m-.68.14-.13,0,.13,0m-.65.14-.12,0,.12,0m-.67.14h0" transform="translate(2.42 -207.53)"/><path class="cls-7" d="M411.63,540.79c-22.85,13.26-51,26.47-82.21,38.05q3.06-.6,6.34-1.31c-2.5,1-5,1.9-7.53,2.83-30,11-58.8,19.06-84.15,24,1,.69,2,1.37,3,2l3.14-.64h.05l.55-.12.12,0,.52-.11.13,0,.49-.1.19,0,.46-.1.2,0,.44-.1.23,0,.43-.09.22,0,.44-.09.21,0,.45-.1.19,0,.46-.1.12,0,1-.23.14,0,.41-.09.26-.06.36-.08.32-.07.35-.08.31-.07.36-.09.32-.07.34-.08.34-.08.32-.07.37-.09.3-.07.36-.08.33-.08.36-.08.31-.08.37-.09.3-.07.38-.09.31-.07.33-.08.36-.09.32-.08.35-.08.34-.08.8-.2.2,0,.44-.11.23,0,.43-.11.25-.06.42-.11.26-.06.44-.11.23-.06.47-.12.19-.05.49-.12.19,0,.48-.12.2,0,.49-.13.18,0,.5-.13.15,0,.55-.15.08,0,.58-.15.1,0c17.29-4.53,35.27-10.16,53.31-16.74l.09,0,.62-.23.69-.25.69-.25h0l.68-.25h0c14.34-5.31,28.26-11,41.47-17.06h0l.61-.28,0,0,.6-.27,0,0,.58-.27.06,0,.58-.27.08,0,.52-.24.11,0,.46-.21.21-.1.4-.18.32-.15.29-.14.37-.17.28-.13.32-.15,0,0c11.48-5.4,22.37-11,32.45-16.73.47-1.64.89-3.28,1.29-4.94" transform="translate(2.42 -207.53)"/><path class="cls-7" d="M335.76,577.53q-3.28.71-6.34,1.31l-2,.73c-30.06,11-59,19.11-84.4,24l1,.75c25.35-4.9,54.19-13,84.15-24,2.53-.93,5-1.87,7.53-2.83" transform="translate(2.42 -207.53)"/><path class="cls-10" d="M303.27,418.9h6.47a48.08,48.08,0,1,0,0-96.15h-6.47a48.08,48.08,0,1,0,0,96.15" transform="translate(2.42 -207.53)"/><path class="cls-10" d="M357.82,342.37l14.59,37.23c0,10.79-45.73-27.27-34.88,39.31h-62c-11.15,0-15.38-6.06-15.38-16.85l5.62-59.76c0-3.11-9.77-6-8.42-8.6a19.86,19.86,0,0,1,3.89-5.22,20.54,20.54,0,0,1,13.27-5.7l1,0h62.06A20.42,20.42,0,0,1,356,334.25a18.75,18.75,0,0,1,1.83,8.12" transform="translate(2.42 -207.53)"/><path class="cls-10" d="M249.27,318.63l27.4,12.07-1.42,3.74L274,337.69l-7.29,19.15c-1.19.33-2.39.63-3.64.88-8,1.63-14.14,2.48-25-2.18" transform="translate(2.42 -207.53)"/><path class="cls-7" d="M253.89,360.72c-14,0-32.68-6.54-56.59-33.34a25.85,25.85,0,0,0-3.85-3.24c-4.62-3.44-10.94-8.16-6.89-18,3.43-8.31,8-10.6,10.88-11.17-.2-2.38.13-5.93,3.16-8.25,5.75-4.39,12,.22,17.46,4.28l.52.38c.77-2.55,2.55-6.42,7.26-6.2,9.08.39,9.71,16.06,9.72,20.3,3.17,3.19,20.11,19.09,42.77,18.78h0a2,2,0,0,1,0,4c-26.92.34-45.57-19.79-46.35-20.65a2,2,0,0,1-.52-1.4c.12-5.47-1.15-16.83-5.84-17-2-.09-2.8,1.52-3.54,4.51-.31,1.24-.57,2.32-1.76,2.76a2.15,2.15,0,0,1-2-.26c-.91-.64-1.81-1.31-2.72-2-5.77-4.27-9.5-6.69-12.6-4.32-2.58,2-1.32,6.32-1.31,6.37a2,2,0,0,1-2.36,2.56c-.16,0-5.14-.74-9.09,8.82-2.86,6.93,1,9.84,5.57,13.21a30,30,0,0,1,4.45,3.79c31.08,34.84,52.47,33.93,65.85,30.2a2,2,0,1,1,1.08,3.9,49.19,49.19,0,0,1-13.36,1.93" transform="translate(2.42 -207.53)"/><path class="cls-7" d="M222,294.14l-.45,6.41a2.11,2.11,0,0,1-.37,1.06l-.05.08a6,6,0,0,0-.43.53c-.15.2-.29.42-.43.64a14.92,14.92,0,0,0-.74,1.37,9.75,9.75,0,0,0-.9,4.5,9,9,0,0,0,.25,1.54,10.07,10.07,0,0,0,1.29,2.94l.05.09a1,1,0,0,1-.36,1.38,1,1,0,0,1-1.3-.24,12.42,12.42,0,0,1-2.07-3.37,10.53,10.53,0,0,1-.61-1.95,11.58,11.58,0,0,1-.22-2,13.47,13.47,0,0,1,.55-4.05,14.7,14.7,0,0,1,.7-1.92q.21-.47.45-.93a8.91,8.91,0,0,1,.57-1h0l-.42,1.14.47-6.59a2,2,0,1,1,4,.28Z" transform="translate(2.42 -207.53)"/><path class="cls-7" d="M235.55,356.46a1.62,1.62,0,0,1-1.16-.5,1.6,1.6,0,0,1,.05-2.26C245.3,343.27,247,318.1,247,317.85a1.6,1.6,0,0,1,3.2.2c-.06,1.08-1.75,26.67-13.52,38a1.59,1.59,0,0,1-1.11.45" transform="translate(2.42 -207.53)"/><path class="cls-7" d="M338.59,385.81a1.6,1.6,0,0,1-.54-3.11c1.09-.4,27-9.65,36.37-1.19a1.6,1.6,0,0,1-2.14,2.38c-6.62-5.95-26.17-.7-33.14,1.82a1.52,1.52,0,0,1-.55.1" transform="translate(2.42 -207.53)"/><path class="cls-7" d="M257.37,406.43c0-3.05.05-6.1.19-9.15.33-6.1.92-12.18,1.43-18.27.13-1.52.27-3,.43-4.56s.31-3,.5-4.56.36-3,.57-4.56l.58-4.56c.17-1.53.39-3,.67-4.55s.69-3,1.11-4.48a40.39,40.39,0,0,1,3.59-8.59.32.32,0,0,1,.44-.12.33.33,0,0,1,.16.26h0A44.77,44.77,0,0,1,267,348c-.06,1.53-.22,3-.36,4.54s-.36,3-.57,4.48-.53,2.95-.8,4.44l-.4,2.22c-.12.75-.22,1.49-.32,2.24-.21,1.49-.4,3-.57,4.49s-.34,3-.49,4.5-.3,3-.42,4.51c-.55,6-.72,12.07-.94,18.11-.1,2.3-.2,4.6-.34,6.9" transform="translate(2.42 -207.53)"/><path class="cls-7" d="M259.78,392q-.25,3-.42,6.13c.86.09,1.76.19,2.69.27l0-.88c.06-1.49.11-3,.16-4.47a8.27,8.27,0,0,1-2.46-1.05" transform="translate(2.42 -207.53)"/><path class="cls-7" d="M352.87,392.72a8.5,8.5,0,0,1-2,.5l-.47,0c.07,1.74.12,3.47.17,5.21.92-.07,1.81-.14,2.67-.23-.09-1.87-.2-3.72-.34-5.53" transform="translate(2.42 -207.53)"/><path class="cls-10" d="M284.69,390.08c-5.86,2.37-14.93,1.88-21.11,1.13A6.64,6.64,0,0,1,264.69,378c5.78.27,14.45.4,19.94-.82Z" transform="translate(2.42 -207.53)"/><path class="cls-7" d="M264.37,380a4.62,4.62,0,0,0-.55,9.2c8.76,1.06,15.9.71,20.11-1,.89-.36,1.25-1.86,1.36-2.49a11.4,11.4,0,0,0-.81-6.46c-5.62,1.12-13.86,1-19.89.74h-.22m20.32,10.08ZM273,393.85a82.16,82.16,0,0,1-9.69-.63A8.66,8.66,0,0,1,264.78,376c8.48.39,15.37.12,19.41-.78.74-.16,3.25-.36,4.61,4,1.27,4.09,1.08,11-3.36,12.78-3.49,1.41-8,1.89-12.41,1.89" transform="translate(2.42 -207.53)"/><path class="cls-10" d="M329.5,390.08c5.85,2.37,14.92,1.88,21.1,1.13A6.64,6.64,0,0,0,349.5,378c-5.79.27-14.46.4-19.95-.82Z" transform="translate(2.42 -207.53)"/><path class="cls-7" d="M330.25,388.21c4.21,1.7,11.35,2.06,20.11,1a4.62,4.62,0,0,0-.77-9.2c-6,.28-14.27.38-19.89-.74a11.4,11.4,0,0,0-.81,6.46c.12.63.47,2.13,1.36,2.49m10.9,5.64c-4.44,0-8.91-.48-12.41-1.89-4.44-1.8-4.62-8.69-3.35-12.78,1.35-4.35,3.86-4.15,4.6-4,4,.9,10.93,1.17,19.41.78a8.66,8.66,0,0,1,1.44,17.25,82,82,0,0,1-9.69.63" transform="translate(2.42 -207.53)"/><path class="cls-10" d="M331.76,372.89V393.6a7,7,0,0,1-7,7H286.64a7,7,0,0,1-7-7V372.89a7,7,0,0,1,7-7h38.14a7,7,0,0,1,7,7" transform="translate(2.42 -207.53)"/><path class="cls-7" d="M286.65,367.93a5,5,0,0,0-5,5V393.6a5,5,0,0,0,5,5h38.13a5,5,0,0,0,5-5V372.89a5,5,0,0,0-5-5Zm38.13,34.67H286.65a9,9,0,0,1-9-9V372.89a9,9,0,0,1,9-9h38.13a9,9,0,0,1,9,9V393.6a9,9,0,0,1-9,9" transform="translate(2.42 -207.53)"/><path class="cls-11" d="M325.24,383.25a6,6,0,1,1-6-6,6,6,0,0,1,6,6" transform="translate(2.42 -207.53)"/><path class="cls-10" d="M315.28,378.69a6,6,0,0,0-2.08,4.56,6.78,6.78,0,0,0,.11,1.2h0a5.86,5.86,0,0,1-.12-1.19h0v-.08h0v-.08h0v-.33h0a6,6,0,0,1,2.06-4.05m9.58,2.46,0,0,0,0m0,0a6.42,6.42,0,0,1,.34,1.53,6.42,6.42,0,0,0-.34-1.53m.35,1.73v0m0,.15v0m0,.19a5.79,5.79,0,0,1-.12,1.19h0a6,6,0,0,0,.12-1.2" transform="translate(2.42 -207.53)"/><path class="cls-14" d="M324.2,382.26a6,6,0,0,1-10,0,5.56,5.56,0,1,0,10.88,2.18,6,6,0,0,0-.92-2.18" transform="translate(2.42 -207.53)"/><path class="cls-15" d="M313.22,382.74h0m0,.07v0m0,.07v0m0,.07v0m0,.07v0m0,.08v0m0,.07v0" transform="translate(2.42 -207.53)"/><path class="cls-16" d="M324.83,381.07a6.44,6.44,0,0,1-.63,1.19,6,6,0,0,1,.92,2.18,5.93,5.93,0,0,0,.12-1.19,6,6,0,0,0-.41-2.18m-11.22,0a5.82,5.82,0,0,0-.39,1.67h0a.13.13,0,0,1,0,.06v.36h0v.08a5.93,5.93,0,0,0,.12,1.19,6,6,0,0,1,.92-2.18,5.89,5.89,0,0,1-.63-1.19" transform="translate(2.42 -207.53)"/><path class="cls-7" d="M319.22,378.74a4.51,4.51,0,1,0,4.51,4.51,4.52,4.52,0,0,0-4.51-4.51m0,12a7.54,7.54,0,1,1,7.54-7.53,7.54,7.54,0,0,1-7.54,7.53" transform="translate(2.42 -207.53)"/><path class="cls-7" d="M302.16,402.1a1.52,1.52,0,0,1-1.52-1.52v-11a6.06,6.06,0,0,0-2.4-4.81l-1.61-1.22a9.09,9.09,0,0,1-3.62-7.24v-10.4a1.52,1.52,0,0,1,3,0v10.4a6,6,0,0,0,2.4,4.82l1.61,1.21a9.12,9.12,0,0,1,3.61,7.24v11a1.52,1.52,0,0,1-1.51,1.52" transform="translate(2.42 -207.53)"/><path class="cls-7" d="M349.61,334.64c-.63.44-1.26.88-1.9,1.31.79,1,1.6,2,2.44,3.13.6-.51,1.19-1,1.77-1.58-.79-1-1.57-2-2.31-2.86" transform="translate(2.42 -207.53)"/><path class="cls-10" d="M369,310a1.26,1.26,0,0,1-1.08-1.44l5.13-36.43a1.27,1.27,0,0,1,1.44-1.09,13.4,13.4,0,0,1,11.4,15.14l-1.75,12.42A13.4,13.4,0,0,1,369,310" transform="translate(2.42 -207.53)"/><path class="cls-7" d="M374.33,271.41a.87.87,0,0,0-.53.18.86.86,0,0,0-.34.58l-5.13,36.44a.81.81,0,0,0,.17.65.86.86,0,0,0,.58.34,13,13,0,0,0,14.69-11.06l1.75-12.43a13,13,0,0,0-11.06-14.69Zm-3.43,39.11a14,14,0,0,1-1.93-.14,1.64,1.64,0,0,1-1.1-.65,1.6,1.6,0,0,1-.32-1.23l5.13-36.44a1.67,1.67,0,0,1,1.89-1.42,13.79,13.79,0,0,1,11.73,15.58l-1.75,12.43a13.82,13.82,0,0,1-13.65,11.87" transform="translate(2.42 -207.53)"/><path class="cls-7" d="M370.24,307.91A11.22,11.22,0,0,0,382,298.29l1.75-12.43a11.23,11.23,0,0,0-8.63-12.5Zm.66,4.41a14.64,14.64,0,0,1-2.18-.16,3.45,3.45,0,0,1-3-3.92l5.13-36.43a3.45,3.45,0,0,1,3.92-2.95,15.58,15.58,0,0,1,13.26,17.61l-1.75,12.43a15.61,15.61,0,0,1-15.43,13.42" transform="translate(2.42 -207.53)"/><path class="cls-10" d="M254.25,254.1a1.27,1.27,0,0,1,1.09,1.44L250.21,292a1.28,1.28,0,0,1-1.45,1.09,13.41,13.41,0,0,1-11.4-15.14l1.75-12.42a13.4,13.4,0,0,1,15.14-11.4" transform="translate(2.42 -207.53)"/><path class="cls-7" d="M252.36,254.36a13,13,0,0,0-12.86,11.19L237.75,278a13,13,0,0,0,11.07,14.69.88.88,0,0,0,1-.75L255,255.48a.89.89,0,0,0-.17-.65.86.86,0,0,0-.58-.34,12.75,12.75,0,0,0-1.84-.13M249,293.47l-.24,0A13.81,13.81,0,0,1,237,277.87l1.75-12.43a13.81,13.81,0,0,1,15.59-11.73,1.67,1.67,0,0,1,1.42,1.88L250.6,292a1.68,1.68,0,0,1-1.65,1.44" transform="translate(2.42 -207.53)"/><path class="cls-7" d="M252.36,256.15a11.23,11.23,0,0,0-11.08,9.65l-1.75,12.43a11.23,11.23,0,0,0,8.64,12.5L253,256.17l-.68,0M249,295.26a4,4,0,0,1-.49,0,15.6,15.6,0,0,1-13.27-17.61l1.75-12.43a15.59,15.59,0,0,1,17.62-13.26,3.4,3.4,0,0,1,2.28,1.34,3.44,3.44,0,0,1,.67,2.57l-5.13,36.44a3.46,3.46,0,0,1-3.43,3" transform="translate(2.42 -207.53)"/><path class="cls-10" d="M373,295.17a62.69,62.69,0,1,1-48.18-74.43A62.69,62.69,0,0,1,373,295.17" transform="translate(2.42 -207.53)"/><path class="cls-7" d="M311.63,219.73a62.35,62.35,0,1,0,13.06,1.39,62.42,62.42,0,0,0-13.06-1.39m0,125.41a63.09,63.09,0,1,1,61.68-49.89,63,63,0,0,1-61.68,49.89" transform="translate(2.42 -207.53)"/><path class="cls-7" d="M373,295.17Zm-61.33-73.64a60.55,60.55,0,1,0,12.68,1.35,60.61,60.61,0,0,0-12.68-1.35m0,125.41a64.89,64.89,0,1,1,63.44-51.31,65.3,65.3,0,0,1-63.44,51.31" transform="translate(2.42 -207.53)"/><path class="cls-7" d="M372.42,296.7a56.16,56.16,0,0,1-17,30.35C349,333,326,341,300.55,336.22,276.93,331.76,258,314.94,254.34,307a56.19,56.19,0,0,1-4.15-34.55c6.31-31.85,36.29-39.62,70.05-32.93s58.5,25.32,52.18,57.17" transform="translate(2.42 -207.53)"/><path class="cls-10" d="M340.07,303.15a5.21,5.21,0,0,0-4.4,2.78c-1.38,2.45-.8,5.4,1.31,6.59a3.87,3.87,0,0,0,1.9.49,5.2,5.2,0,0,0,4.4-2.78c1.39-2.45.8-5.4-1.3-6.59a3.88,3.88,0,0,0-1.91-.49" transform="translate(2.42 -207.53)"/><path class="cls-17" d="M366.43,264.63h0a37.9,37.9,0,0,1,5.4,11.15h0a37.71,37.71,0,0,0-5.4-11.16" transform="translate(2.42 -207.53)"/><path class="cls-18" d="M276.66,327.2l0,0,0,0m.1.06a77.33,77.33,0,0,0,23.79,9,86.09,86.09,0,0,0,15.85,1.46c.73,0,1.46,0,2.18,0-.72,0-1.45,0-2.18,0a85.26,85.26,0,0,1-15.85-1.47,77.32,77.32,0,0,1-23.79-9M344,333.14l-.13.05.13-.05" transform="translate(2.42 -207.53)"/><path class="cls-19" d="M371.83,275.79h0c0,.07.05.14.07.22,0-.08,0-.15-.07-.22m.08.25,0,.2,0-.2m.08.31,0,.08,0-.08m.08.28v0m.06.24h0m-13.35,46.77q-1.62,1.77-3.38,3.41c-2.13,2-6.1,4.2-11.4,6.09,5.3-1.89,9.27-4.11,11.4-6.09q1.75-1.64,3.38-3.41" transform="translate(2.42 -207.53)"/><path class="cls-20" d="M366.43,264.64a62.85,62.85,0,0,1-1.26,11.73,69.91,69.91,0,0,1-3.39,11.74,15,15,0,0,1-3.39,7.46,72.2,72.2,0,0,1-14.82,19.32c-6.37,5.93-25.77,13.5-49.48,13.5a108.37,108.37,0,0,1-17.91-1.47l.48.28,0,0,.07,0a77.32,77.32,0,0,0,23.79,9,85.26,85.26,0,0,0,15.85,1.47c.73,0,1.46,0,2.18,0a83.47,83.47,0,0,0,25.29-4.48l.13-.05c5.3-1.89,9.27-4.11,11.4-6.09q1.75-1.64,3.38-3.41a56,56,0,0,0,13.64-26.94,44,44,0,0,0-.28-19.82h0c0-.07,0-.14-.05-.21a0,0,0,0,1,0,0,1.46,1.46,0,0,1-.05-.2l0-.08,0-.11,0-.2a0,0,0,0,1,0,0l-.07-.22a37.9,37.9,0,0,0-5.4-11.15" transform="translate(2.42 -207.53)"/><path class="cls-21" d="M361.78,288.11a68.87,68.87,0,0,1-3.39,7.46,15,15,0,0,0,3.39-7.46" transform="translate(2.42 -207.53)"/><path class="cls-7" d="M372.71,269.68a1.93,1.93,0,0,1-1.5-.7l-.17-.2-.12-.25c-7.43-16.48-25.71-28.71-50.13-33.55-24.57-4.88-46.16-.27-59.24,12.62l-.15.13a2,2,0,0,1-2.55-2.95c14-13.78,36.87-18.75,62.69-13.63,25.64,5.09,44.91,18.09,52.89,35.68a1.95,1.95,0,0,1-1.72,2.85" transform="translate(2.42 -207.53)"/><path class="cls-10" d="M302.66,246.16c-8,0-17.89,1.26-26.73,5.43-19.41,9.17-15.78,42.54-15.78,42.54s4.23-10.13,15.63-25c14.78-19.23,43-20.41,43-20.41.48-.79-6.53-2.6-16.16-2.6" transform="translate(2.42 -207.53)"/><path class="cls-7" d="M358.8,485.29a1.55,1.55,0,1,1-1.55-1.55,1.55,1.55,0,0,1,1.55,1.55" transform="translate(2.42 -207.53)"/><path class="cls-7" d="M312.58,420.11h-7.72a55.11,55.11,0,0,0-12.19,2.9h32.1a55.11,55.11,0,0,0-12.19-2.9" transform="translate(2.42 -207.53)"/><path class="cls-7" d="M332.77,428.1c0,.33,0,.66,0,1a9.92,9.92,0,0,0,1.71,6c.11.15.22.3.34.44a21.07,21.07,0,0,0-.27-3.61,7.73,7.73,0,0,0-1.76-3.81" transform="translate(2.42 -207.53)"/><path class="cls-11" d="M330.88,454.48c-1.82,18.86,12.44,34.1,28.21,31.11,18.58-3.53,11.43-31,11.43-31s11.39-9.8,11.37-22.61c-2.28-.86-5.7-2.17-8.72-3.48-5.1-2.22-6.8,0-15.59,0s-22.68,4.43-22.68,4.43h-.25c.85,7.42-2.33,6.72-3.77,21.6M235.64,430c-1.29,13.76,11.29,24.58,11.29,24.58s-7.16,27.52,11.42,31c15.77,3,30-12.25,28.21-31.11-1.44-14.88-4.62-14.18-3.77-21.6H281s-25.19-5.42-30.86-5.42c-2.22,0-11.44,1.67-14.54,2.5" transform="translate(2.42 -207.53)"/><path class="cls-22" d="M369.12,479.46l-.41.07-.21,0a13.92,13.92,0,0,1-9.41,6l-.33.06h0l.33-.06c5-.95,8.12-3.26,10-6.13M346,483.88a21.45,21.45,0,0,0,9.16,2.09l.74,0h-.74a21.44,21.44,0,0,1-9.16-2.08h0" transform="translate(2.42 -207.53)"/><path class="cls-7" d="M358.76,485.65a20.81,20.81,0,0,1-2.91.3h0a20.81,20.81,0,0,0,2.91-.3h0" transform="translate(2.42 -207.53)"/><path class="cls-23" d="M324.78,423h0c3.14,1.2,6.16,2.85,8,5.09h0c-1.84-2.24-4.85-3.89-8-5.09" transform="translate(2.42 -207.53)"/><path class="cls-24" d="M288.32,425.08h0c-2.82,1.7-5,3.92-5.41,6.82,0,.17-.05.34-.07.5,0-.16,0-.32.07-.49.43-2.91,2.59-5.14,5.41-6.83" transform="translate(2.42 -207.53)"/><path class="cls-23" d="M292.67,423h0a28.41,28.41,0,0,0-4.34,2.07h0a28.08,28.08,0,0,1,4.35-2.07" transform="translate(2.42 -207.53)"/><path class="cls-24" d="M334.8,435.52a12.12,12.12,0,0,1-.26,2.29h0a12.22,12.22,0,0,0,.26-2.29h0m-2.9,11.77h0c-.38,1.9-.73,4.24-1,7.19a31,31,0,0,0,6.17,22.17,31,31,0,0,1-6.17-22.17c.29-3,.64-5.29,1-7.19M342.76,482h0a24.18,24.18,0,0,0,3.19,1.84h0a23.66,23.66,0,0,1-3.2-1.84" transform="translate(2.42 -207.53)"/><path class="cls-25" d="M337.05,476.65h0a26.21,26.21,0,0,0,5.71,5.39,26.21,26.21,0,0,1-5.71-5.39" transform="translate(2.42 -207.53)"/><path class="cls-25" d="M334.54,437.81h0c-.51,2.43-1.66,4.5-2.64,9.48,1-5,2.13-7.05,2.64-9.48" transform="translate(2.42 -207.53)"/><path class="cls-7" d="M312.58,420.1h-7.72a55.61,55.61,0,0,0-12.2,2.91h0a55.11,55.11,0,0,1,12.19-2.9h7.72a55.11,55.11,0,0,1,12.19,2.9h0a55.48,55.48,0,0,0-12.2-2.91" transform="translate(2.42 -207.53)"/><path class="cls-7" d="M332.77,428.1h0a7.73,7.73,0,0,1,1.76,3.81,21.07,21.07,0,0,1,.27,3.61h0a20.2,20.2,0,0,0-.27-3.62,7.73,7.73,0,0,0-1.76-3.8" transform="translate(2.42 -207.53)"/><path class="cls-22" d="M248.32,479.46c1.91,2.87,5.05,5.18,10,6.13a21.7,21.7,0,0,0,4,.38,21.41,21.41,0,0,0,9.16-2.09h0a21.44,21.44,0,0,1-9.16,2.08,21.68,21.68,0,0,1-4-.37,14,14,0,0,1-9.41-6l-.21,0-.41-.07" transform="translate(2.42 -207.53)"/><path class="cls-24" d="M284.86,444.33a63,63,0,0,1,1.7,10.15,35.45,35.45,0,0,1,.14,4.23h0a33.47,33.47,0,0,0-.14-4.23,61.86,61.86,0,0,0-1.7-10.15m.51,22.64h0c-2.32,7.72-7.46,13.86-13.88,16.91h0c6.42-3.05,11.56-9.19,13.88-16.91" transform="translate(2.42 -207.53)"/><path class="cls-25" d="M286.7,458.71h0a32.14,32.14,0,0,1-1.33,8.26h0a32.14,32.14,0,0,0,1.33-8.26" transform="translate(2.42 -207.53)"/><path class="cls-7" d="M325.77,407.09A37.57,37.57,0,0,1,337.21,402a41.1,41.1,0,0,1,6.24-1.17,42.8,42.8,0,0,1,6.41-.14,38.31,38.31,0,0,1,6.37,1,39.43,39.43,0,0,1,6.13,2.06,42,42,0,0,1,10.73,7,36.3,36.3,0,0,1,8.07,10.07,26.77,26.77,0,0,1,2.27,6.24,24,24,0,0,1,.43,6.65,29.37,29.37,0,0,1-4,12.38,42,42,0,0,1-3.62,5.3c-.67.83-1.36,1.65-2.09,2.43-.37.39-.74.77-1.12,1.15s-.75.74-1.22,1.15l.64-2c.37,1.51.62,2.9.84,4.36s.37,2.9.47,4.36a40.73,40.73,0,0,1-.3,8.88,29,29,0,0,1-1.07,4.44,21.1,21.1,0,0,1-2,4.26,17.34,17.34,0,0,1-3.15,3.65,17,17,0,0,1-4.14,2.51,20.64,20.64,0,0,1-4.54,1.22c-.76.14-1.53.17-2.3.24s-1.55.06-2.32,0a22.06,22.06,0,0,1-4.57-.7,22.61,22.61,0,0,1-4.33-1.57,28.18,28.18,0,0,1-12.71-12.62,33.85,33.85,0,0,1-3.59-17.41c.09-1.51.28-2.9.44-4.34l.31-2.15.38-2.16c.29-1.43.61-2.87,1-4.28s.9-2.8,1.28-4a11.17,11.17,0,0,0,.55-3.58,7.28,7.28,0,0,0,0-.93c0-.32,0-.63-.08-1l-.12-1c-.06-.26-.1-.5-.17-.74-.58-1.93-2.43-3.65-4.66-4.89a32.52,32.52,0,0,0-7.38-2.91,56.6,56.6,0,0,0-8-1.58l.21,0h-7.72l.21,0a56.88,56.88,0,0,0-8,1.58,32.52,32.52,0,0,0-7.38,2.91c-2.23,1.24-4.08,3-4.66,4.89-.07.24-.11.48-.17.74l-.12,1c0,.33-.06.64-.08,1a7.28,7.28,0,0,0,0,.93,11.17,11.17,0,0,0,.55,3.58c.38,1.24.88,2.63,1.28,4s.75,2.85,1,4.28l.38,2.16.31,2.15c.16,1.44.35,2.83.44,4.34a33.85,33.85,0,0,1-3.59,17.41,28.18,28.18,0,0,1-12.71,12.62,22.61,22.61,0,0,1-4.33,1.57,22.06,22.06,0,0,1-4.57.7c-.77.06-1.55,0-2.32,0s-1.54-.1-2.3-.24a20.64,20.64,0,0,1-4.54-1.22,17,17,0,0,1-4.13-2.51,17.39,17.39,0,0,1-3.16-3.65,21.1,21.1,0,0,1-2-4.26,29,29,0,0,1-1.07-4.44,41.37,41.37,0,0,1-.3-8.88c.1-1.46.25-2.92.47-4.36s.47-2.85.84-4.36l.64,2c-.47-.41-.83-.76-1.22-1.15s-.75-.76-1.12-1.15c-.73-.78-1.42-1.6-2.09-2.43a42,42,0,0,1-3.62-5.3,29.21,29.21,0,0,1-4-12.38A23.91,23.91,0,0,1,234,427a26.51,26.51,0,0,1,2.29-6.22,35.86,35.86,0,0,1,8.12-10,42,42,0,0,1,10.67-7,35.91,35.91,0,0,1,12.45-3.26,39.42,39.42,0,0,1,6.43.08,41.32,41.32,0,0,1,6.28,1.14,38.76,38.76,0,0,1,6,2.16,28.48,28.48,0,0,1,5.44,3.21.68.68,0,0,1,.13,1,.7.7,0,0,1-.77.23l0,0a70.18,70.18,0,0,0-11.49-2.93c-1.94-.32-3.87-.49-5.8-.62-1,0-1.94-.07-2.9,0l-1.44,0-1.44.1a36.15,36.15,0,0,0-11.11,2.74,33.09,33.09,0,0,0-5.07,2.74,35.64,35.64,0,0,0-4.61,3.53,32.22,32.22,0,0,0-7.22,8.85,23,23,0,0,0-1.92,5.21,19.83,19.83,0,0,0-.37,5.49A25.21,25.21,0,0,0,241.07,444a37.56,37.56,0,0,0,3.26,4.77c.61.76,1.24,1.5,1.9,2.2.33.36.67.71,1,1s.7.69,1,.95l.94.82-.3,1.22c-.3,1.23-.55,2.62-.75,3.94s-.35,2.69-.44,4a37.28,37.28,0,0,0,.27,8,23.54,23.54,0,0,0,.9,3.77,17.2,17.2,0,0,0,1.58,3.39,11.5,11.5,0,0,0,5.42,4.58,15.64,15.64,0,0,0,3.6,1c.63.12,1.26.14,1.9.21s1.27,0,1.91,0a17.9,17.9,0,0,0,3.77-.57,18.7,18.7,0,0,0,3.6-1.31,24.17,24.17,0,0,0,10.85-10.82,29.65,29.65,0,0,0,3.14-15.32c-.07-1.3-.25-2.71-.41-4.06l-.29-2-.35-2c-.28-1.33-.57-2.64-1-3.93s-.83-2.56-1.27-4a15.62,15.62,0,0,1-.73-4.75,11.21,11.21,0,0,1,.05-1.17,10.69,10.69,0,0,1,.1-1.15l.13-1.12c.09-.43.17-.89.3-1.32a10.81,10.81,0,0,1,2.71-4.4,17.62,17.62,0,0,1,3.82-2.84,36.06,36.06,0,0,1,8.3-3.29,60.3,60.3,0,0,1,8.62-1.71h8.14a60.3,60.3,0,0,1,8.62,1.71,36.06,36.06,0,0,1,8.3,3.29,17.62,17.62,0,0,1,3.82,2.84,10.81,10.81,0,0,1,2.71,4.4c.13.43.21.89.3,1.32l.14,1.12c.05.37.07.76.09,1.15a11.21,11.21,0,0,1,.05,1.17,15.62,15.62,0,0,1-.73,4.75c-.44,1.45-.9,2.71-1.27,4s-.68,2.6-1,3.93l-.35,2-.29,2c-.16,1.35-.34,2.76-.41,4.06A29.56,29.56,0,0,0,336,471.21,24.1,24.1,0,0,0,346.8,482a18.7,18.7,0,0,0,3.6,1.31,17.9,17.9,0,0,0,3.77.57c.64,0,1.28,0,1.91,0s1.27-.09,1.9-.21a15.64,15.64,0,0,0,3.6-1,12.4,12.4,0,0,0,3.07-1.86,13.12,13.12,0,0,0,2.36-2.72,17.76,17.76,0,0,0,1.57-3.39,23.54,23.54,0,0,0,.9-3.77,37.28,37.28,0,0,0,.27-8c-.09-1.35-.24-2.7-.44-4s-.45-2.71-.75-3.94l-.3-1.22.94-.82c.3-.26.67-.62,1-.95s.68-.68,1-1c.66-.7,1.29-1.44,1.9-2.2a37.56,37.56,0,0,0,3.26-4.77,25.21,25.21,0,0,0,3.45-10.67,19.84,19.84,0,0,0-.4-5.49,22.45,22.45,0,0,0-1.94-5.19,32.22,32.22,0,0,0-7.26-8.77,39,39,0,0,0-9.63-6.29,35.18,35.18,0,0,0-11.06-2.95,44.2,44.2,0,0,0-11.64.41,55.53,55.53,0,0,0-11.44,3.16l-.05,0a.68.68,0,0,1-.88-.38.69.69,0,0,1,.25-.8" transform="translate(2.42 -207.53)"/><path class="cls-7" d="M371.28,456.41l-1.39.44c-.51.15-1,.28-1.55.38a18.42,18.42,0,0,1-3.11.36,25.52,25.52,0,0,1-6-.59,35.12,35.12,0,0,1-5.59-1.82c-.9-.36-1.76-.81-2.63-1.21s-1.69-.91-2.54-1.37c.92.3,1.82.62,2.73.9s1.82.53,2.75.72a34.16,34.16,0,0,0,5.55.78,23,23,0,0,0,5.4-.42,14.64,14.64,0,0,0,2.49-.75,12.24,12.24,0,0,0,1.17-.52l1.25-.65a2,2,0,1,1,1.9,3.59,2.22,2.22,0,0,1-.32.14Z" transform="translate(2.42 -207.53)"/><path class="cls-7" d="M247.85,452.66l1.25.65a12.24,12.24,0,0,0,1.17.52,14.75,14.75,0,0,0,2.5.75,22.92,22.92,0,0,0,5.4.42,34,34,0,0,0,5.54-.78c.93-.19,1.83-.48,2.76-.72s1.81-.6,2.72-.9c-.84.46-1.68.93-2.53,1.37s-1.74.85-2.64,1.21a34.79,34.79,0,0,1-5.59,1.82,25.47,25.47,0,0,1-6,.59,18.42,18.42,0,0,1-3.11-.36c-.52-.1-1-.23-1.55-.38l-1.39-.44-.07,0a2,2,0,0,1,1.23-3.87,1.36,1.36,0,0,1,.33.14" transform="translate(2.42 -207.53)"/><path class="cls-7" d="M381,439.82a1.12,1.12,0,0,1-.32,0,1.52,1.52,0,0,1-1.17-1.8c.7-3.25.19-5.57-1.55-7.06-7.23-6.21-33.23,1.72-42.63,5.3a1.51,1.51,0,1,1-1.08-2.83c3.63-1.39,35.78-13.27,45.68-4.77,2.63,2.25,3.49,5.62,2.55,10a1.52,1.52,0,0,1-1.48,1.2" transform="translate(2.42 -207.53)"/><path class="cls-7" d="M237.05,439.82a1.52,1.52,0,0,1-1.48-1.2c-.94-4.38-.09-7.75,2.54-10,9.9-8.5,42.05,3.38,45.68,4.77a1.51,1.51,0,0,1,.88,1.95,1.53,1.53,0,0,1-2,.88c-9.4-3.58-35.4-11.51-42.63-5.3-1.74,1.49-2.25,3.81-1.55,7.06a1.52,1.52,0,0,1-1.17,1.8,1.1,1.1,0,0,1-.31,0" transform="translate(2.42 -207.53)"/><path class="cls-10" d="M357.93,277.49c-3.62,0-7.48,3.08-9.33,7.79-2.25,5.7-.72,11.65,3.41,13.27a6.08,6.08,0,0,0,2.22.42,9.41,9.41,0,0,0,6.83-3.61,70.79,70.79,0,0,0,3.38-7.46c.68-4.55-1-8.68-4.3-10a6,6,0,0,0-2.21-.41" transform="translate(2.42 -207.53)"/><path class="cls-26" d="M500.08,228.15l-12.51,1.93a5.81,5.81,0,0,0-4.86,4.86l-1.93,12.51-1.94-12.51a5.8,5.8,0,0,0-4.86-4.86l-12.51-1.93L474,226.22a5.81,5.81,0,0,0,4.86-4.87l1.94-12.51,1.93,12.51a5.83,5.83,0,0,0,4.86,4.87Z" transform="translate(2.42 -207.53)"/><path class="cls-26" d="M597.48,375.62l-6.26,1a2.93,2.93,0,0,0-2.43,2.43l-1,6.26-1-6.26a2.92,2.92,0,0,0-2.43-2.43l-6.26-1,6.26-1a2.91,2.91,0,0,0,2.43-2.43l1-6.26,1,6.26a2.92,2.92,0,0,0,2.43,2.43Z" transform="translate(2.42 -207.53)"/><path class="cls-26" d="M163.06,404.59l-8.13,1.25a3.78,3.78,0,0,0-3.16,3.16l-1.26,8.13L149.26,409a3.78,3.78,0,0,0-3.16-3.16L138,404.59l8.14-1.26a3.78,3.78,0,0,0,3.16-3.16l1.25-8.13,1.26,8.13a3.78,3.78,0,0,0,3.16,3.16Z" transform="translate(2.42 -207.53)"/><path class="cls-26" d="M15.15,334.64l-5.7.88a2.64,2.64,0,0,0-2.21,2.21l-.88,5.69-.88-5.69a2.63,2.63,0,0,0-2.21-2.21l-5.69-.88,5.69-.88a2.64,2.64,0,0,0,2.21-2.21l.88-5.7.88,5.7a2.65,2.65,0,0,0,2.21,2.21Z" transform="translate(2.42 -207.53)"/><path class="cls-26" d="M162.26,231.73l-15.69,2.42a7.29,7.29,0,0,0-6.09,6.1l-2.42,15.68-2.43-15.68a7.29,7.29,0,0,0-6.09-6.1l-15.69-2.42,15.69-2.42a7.29,7.29,0,0,0,6.09-6.1l2.43-15.68,2.42,15.68a7.29,7.29,0,0,0,6.09,6.1Z" transform="translate(2.42 -207.53)"/><path class="cls-26" d="M70.19,622l-6.25,1a2.89,2.89,0,0,0-2.43,2.43l-1,6.26-1-6.26A2.91,2.91,0,0,0,57.14,623l-6.25-1,6.25-1a2.93,2.93,0,0,0,2.44-2.44l1-6.25,1,6.25a2.91,2.91,0,0,0,2.43,2.44Z" transform="translate(2.42 -207.53)"/><path class="cls-26" d="M543.67,581.53,528,584a7.31,7.31,0,0,0-6.1,6.1l-2.42,15.68-2.42-15.68A7.3,7.3,0,0,0,511,584l-15.69-2.42L511,579.11a7.28,7.28,0,0,0,6.09-6.09l2.42-15.69L521.89,573a7.29,7.29,0,0,0,6.1,6.09Z" transform="translate(2.42 -207.53)"/><path class="cls-26" d="M62,492.45l-15.69,2.42A7.28,7.28,0,0,0,40.25,501l-2.42,15.69L35.4,501a7.28,7.28,0,0,0-6.09-6.09l-15.69-2.42L29.31,490a7.28,7.28,0,0,0,6.09-6.09l2.43-15.68,2.42,15.68A7.28,7.28,0,0,0,46.34,490Z" transform="translate(2.42 -207.53)"/><path class="cls-26" d="M248.87,318.63" transform="translate(2.42 -207.53)"/><path class="cls-7" d="M350.29,391.29c.12,2.65.19,5.3.28,7.95,0,1.09.08,2.18.13,3.27l4.51,1.18c0-1.55-.06-3.09-.12-4.63-.16-3.23-.43-6.45-.72-9.67-.85.33-2.84,1.29-4.08,1.9m3-11.8c-.2-1.74-.38-3.48-.62-5.21-.37-2.74-.84-5.46-1.2-8.21a44,44,0,0,0-1.7-8.1,39.25,39.25,0,0,0-3.24-7.76.31.31,0,0,0-.25-.16.33.33,0,0,0-.36.29h0a31.7,31.7,0,0,0-.12,4.23c0,1.39.1,2.77.23,4.14s.3,2.72.51,4.06.52,2.68.79,4c.58,2.67.95,5.36,1.33,8.06.18,1.28.31,2.57.47,3.85h3.3Z" transform="translate(2.42 -207.53)"/><path class="cls-7" d="M360.21,346.59a136.48,136.48,0,0,0-10.28-14.34l-3.47,2.16a133.92,133.92,0,0,1,10.39,14.43c8.38,13.47,18.13,34.85,17,60.21-.06,1.42-.16,2.79-.28,4.11l3.77,2.81q.39-3.17.55-6.74c1.2-26.44-8.94-48.66-17.66-62.64" transform="translate(2.42 -207.53)"/><path class="cls-11" d="M305.89,354.65c0-.42,0-1-.11-1.63a2.81,2.81,0,0,0-1.45-2.17,3.38,3.38,0,0,0-2.43-.34,2.89,2.89,0,0,0-2.19,1.74,3.85,3.85,0,0,0-.27,1.38,24.78,24.78,0,0,0,0,2.86,2.88,2.88,0,0,0,1.39,2.27,3.4,3.4,0,0,0,2.66.37,2.93,2.93,0,0,0,2.3-2.84c0-.48,0-1,.06-1.64m-6.88,0c0-.57.05-1.14.12-1.71a3.31,3.31,0,0,1,2.78-2.87,4,4,0,0,1,2.29.24,3.27,3.27,0,0,1,2,2.66,19.15,19.15,0,0,1,.07,2.73,4.91,4.91,0,0,1-.2,1.53,3.26,3.26,0,0,1-2.57,2.27,3.61,3.61,0,0,1-2.27-.18,3.26,3.26,0,0,1-2.07-2.66,15,15,0,0,1-.09-2h0" transform="translate(2.42 -207.53)"/><path class="cls-11" d="M320.61,359.55h-6.4v-9.41h6.4c0,.11,0,.21,0,.32s0,.05-.06.06h-5.82c-.15,0-.15,0-.15.16V359c0,.15,0,.15.15.15h5.88Z" transform="translate(2.42 -207.53)"/><path class="cls-11" d="M326.33,352.71l-.25.28a1.41,1.41,0,0,0-.62-.36,2.65,2.65,0,0,0-1.12,0,.82.82,0,0,0-.35.2.34.34,0,0,0,.11.57,2.61,2.61,0,0,0,.5.11c.51.1,1,.15,1.52.28a2.39,2.39,0,0,1,1.47,1,2.66,2.66,0,0,1,.42,1.19,3.34,3.34,0,0,1-.12,1.63,2.88,2.88,0,0,1-1.54,1.67,4.34,4.34,0,0,1-1.81.4,6,6,0,0,1-2.15-.28,3.83,3.83,0,0,1-1.53-1l.26-.27.26.25a3.61,3.61,0,0,0,1.93.86,6.3,6.3,0,0,0,1.84,0,3.58,3.58,0,0,0,1.38-.5,2.38,2.38,0,0,0,1.13-2.17,4.06,4.06,0,0,0-.11-.92,1.89,1.89,0,0,0-1.2-1.36,5,5,0,0,0-1.27-.3l-.93-.14a.68.68,0,0,1-.2-.07.75.75,0,0,1-.16-1.28,1.07,1.07,0,0,1,.66-.26,3.09,3.09,0,0,1,1.09.07,1.76,1.76,0,0,1,.79.46" transform="translate(2.42 -207.53)"/><path class="cls-11" d="M327.83,351.2l-.26.26h0a3.46,3.46,0,0,0-1.92-.94,4.75,4.75,0,0,0-2,.08,2.53,2.53,0,0,0-1.79,1.51,2.83,2.83,0,0,0,.09,2.38,1.92,1.92,0,0,0,1.27,1c.43.12.87.17,1.31.25.22,0,.45.06.67.11a.7.7,0,0,1,.58.62.77.77,0,0,1-.4.87,1.91,1.91,0,0,1-.62.17,3.31,3.31,0,0,1-1.83-.3,5.14,5.14,0,0,1-.55-.36l.3-.28a2.75,2.75,0,0,0,2.17.55,1.14,1.14,0,0,0,.3-.09.43.43,0,0,0,.21-.62.36.36,0,0,0-.23-.17c-.25-.06-.51-.09-.76-.13a5.82,5.82,0,0,1-1.55-.35,2.43,2.43,0,0,1-1.51-2,3.23,3.23,0,0,1,.16-1.66,3,3,0,0,1,2.08-1.82,5,5,0,0,1,1.73-.13,4.35,4.35,0,0,1,1.62.41,3.49,3.49,0,0,1,.92.65l.06.06" transform="translate(2.42 -207.53)"/><path class="cls-11" d="M292.59,359.47h-.37v-9.33h6.4v.32a.14.14,0,0,1-.07.06h-5.8c-.16,0-.16,0-.16.16v8.79Z" transform="translate(2.42 -207.53)"/><path class="cls-11" d="M309.14,359.47h-.38v-6.8h-2v-.38H309c.09,0,.13,0,.13.12q0,3.48,0,7v.09" transform="translate(2.42 -207.53)"/><path class="cls-11" d="M311.49,359.47h-.39v-.13q0-3.46,0-6.93c0-.11,0-.13.14-.13h2.17c.11,0,.15,0,.14.14a1.77,1.77,0,0,0,0,.24h-2Z" transform="translate(2.42 -207.53)"/></g><rect class="cls-11" x="290.74" y="142.7" width="0.36" height="9.24"/><g class="cls-2"><path class="cls-11" d="M291,359.47h-.36s0-.08,0-.13v-9c0-.12,0-.15.14-.14H291Z" transform="translate(2.42 -207.53)"/><path class="cls-11" d="M319.88,356.07h-2.8c-.15,0-.15,0-.15.17s0,.44,0,.66,0,.13.14.13h3.55v.37h-4.05v-1.71h3.17c.11,0,.16,0,.15.15a1.91,1.91,0,0,0,0,.24" transform="translate(2.42 -207.53)"/><path class="cls-11" d="M297.88,353.61V354h-3.32v-1.73h3.92c.12,0,.15,0,.14.15a1.76,1.76,0,0,0,0,.23H295v1Z" transform="translate(2.42 -207.53)"/><path class="cls-11" d="M316.56,353.93v-1.65h4.05v.38h-3.55c-.11,0-.14,0-.14.14s0,.4,0,.61,0,.14.15.14h2.8c0,.11,0,.21,0,.32s0,0-.06.06h-3.25Z" transform="translate(2.42 -207.53)"/><path class="cls-11" d="M297.88,356.14h-2.94v3.33h-.37v-3.71h3.17c.11,0,.16,0,.15.14a1.77,1.77,0,0,0,0,.24" transform="translate(2.42 -207.53)"/><path class="cls-11" d="M306.71,350.52v-.38h6.82c0,.11,0,.21,0,.32s0,.05-.06.06h-6.76Z" transform="translate(2.42 -207.53)"/><path class="cls-11" d="M301.74,354.83h0c0,.26,0,.52,0,.78a5.65,5.65,0,0,0,.12.92.73.73,0,0,0,.76.55.74.74,0,0,0,.74-.56,3,3,0,0,0,.08-.52,16.31,16.31,0,0,0,0-2.52,1,1,0,0,0-.29-.7.8.8,0,0,0-.84-.13.73.73,0,0,0-.49.67c-.05.5-.07,1-.11,1.51m-.38,0c0-.51.05-1,.12-1.55a1.1,1.1,0,0,1,.89-1,1.13,1.13,0,0,1,1.42.91,5.39,5.39,0,0,1,.1.9,12.5,12.5,0,0,1-.06,2.29,1.18,1.18,0,0,1-2.36,0c-.06-.51-.07-1-.11-1.55" transform="translate(2.42 -207.53)"/></g></svg>