<?xml version="1.0" encoding="UTF-8" standalone="no"?>
<!-- Created with Inkscape (http://www.inkscape.org/) -->

<svg
   version="1.1"
   id="svg2"
   xml:space="preserve"
   width="1042.9867"
   height="222.60001"
   viewBox="0 0 1042.9867 222.60001"
   sodipodi:docname="logosbeneficaireserasmusleft_fr_0.eps"
   xmlns:inkscape="http://www.inkscape.org/namespaces/inkscape"
   xmlns:sodipodi="http://sodipodi.sourceforge.net/DTD/sodipodi-0.dtd"
   xmlns="http://www.w3.org/2000/svg"
   xmlns:svg="http://www.w3.org/2000/svg"><defs
     id="defs6" /><sodipodi:namedview
     id="namedview4"
     pagecolor="#ffffff"
     bordercolor="#666666"
     borderopacity="1.0"
     inkscape:pageshadow="2"
     inkscape:pageopacity="0.0"
     inkscape:pagecheckerboard="0" /><g
     id="g8"
     inkscape:groupmode="layer"
     inkscape:label="ink_ext_XXXXXX"
     transform="matrix(1.3333333,0,0,-1.3333333,0,222.6)"><g
       id="g10"
       transform="scale(0.1)"><path
         d="M 7822.35,0 V 1669.52 H 5344.14 V 0 h 2478.21"
         style="fill:#2d49a3;fill-opacity:1;fill-rule:nonzero;stroke:none"
         id="path12" /><path
         d="m 7204.62,861.59 -25.86,0.527 -38.24,0.723 -12.52,34.094 -8.11,21.785 -7.97,-21.785 -12.42,-34.094 -38.24,-0.723 -25.84,-0.527 21.09,-15.195 30.14,-21.629 -10.96,-34.133 -7.52,-23.242 20.39,13.457 31.33,20.742 31.7,-20.742 20.14,-13.457 -7.38,23.242 -10.86,34.133 30.04,21.629 21.09,15.195"
         style="fill:#f3f020;fill-opacity:1;fill-rule:nonzero;stroke:none"
         id="path14" /><path
         d="m 7204.62,861.59 -25.86,0.527 -38.24,0.723 -12.52,34.094 -8.11,21.785 -7.97,-21.785 -12.42,-34.094 -38.24,-0.723 -25.84,-0.527 21.09,-15.195 30.14,-21.629 -10.96,-34.133 -7.52,-23.242 20.39,13.457 31.33,20.742 31.7,-20.742 20.14,-13.457 -7.38,23.242 -10.86,34.133 30.04,21.629 z"
         style="fill:none;stroke:#f3f020;stroke-width:11.064;stroke-linecap:butt;stroke-linejoin:miter;stroke-miterlimit:4;stroke-dasharray:none;stroke-opacity:1"
         id="path16" /><path
         d="m 7014.79,1093.95 -10.83,-34.18 -7.39,-23.18 20.26,13.28 31.46,21.04 31.7,-21.04 20,-13.28 -7.27,23.18 -10.95,34.18 30.04,21.64 21.19,15.2 -25.84,0.47 -38.38,0.6 -12.38,34.18 -8.11,22 -8.01,-22 -12.36,-34.18 -38.26,-0.6 -25.86,-0.47 20.98,-15.2 30.01,-21.64"
         style="fill:#f3f020;fill-opacity:1;fill-rule:nonzero;stroke:none"
         id="path18" /><path
         d="m 7014.79,1093.95 -10.83,-34.18 -7.39,-23.18 20.26,13.28 31.46,21.04 31.7,-21.04 20,-13.28 -7.27,23.18 -10.95,34.18 30.04,21.64 21.19,15.2 -25.84,0.47 -38.38,0.6 -12.38,34.18 -8.11,22 -8.01,-22 -12.36,-34.18 -38.26,-0.6 -25.86,-0.47 20.98,-15.2 z"
         style="fill:none;stroke:#f3f020;stroke-width:11.064;stroke-linecap:butt;stroke-linejoin:miter;stroke-miterlimit:4;stroke-dasharray:none;stroke-opacity:1"
         id="path20" /><path
         d="m 6874.07,1327.64 -12.52,34.13 -8.1,21.93 -7.97,-21.93 -12.4,-34.13 -38.25,-0.66 -25.99,-0.59 21.21,-15.13 30.16,-21.69 -10.96,-34.14 -7.52,-23.19 20.37,13.24 31.35,20.91 31.58,-20.91 20.27,-13.24 -7.52,23.19 -10.74,34.14 30.04,21.69 21.07,15.13 -25.72,0.59 -38.36,0.66"
         style="fill:#f3f020;fill-opacity:1;fill-rule:nonzero;stroke:none"
         id="path22" /><path
         d="m 6874.07,1327.64 -12.52,34.13 -8.1,21.93 -7.97,-21.93 -12.4,-34.13 -38.25,-0.66 -25.99,-0.59 21.21,-15.13 30.16,-21.69 -10.96,-34.14 -7.52,-23.19 20.37,13.24 31.35,20.91 31.58,-20.91 20.27,-13.24 -7.52,23.19 -10.74,34.14 30.04,21.69 21.07,15.13 -25.72,0.59 z"
         style="fill:none;stroke:#f3f020;stroke-width:11.064;stroke-linecap:butt;stroke-linejoin:miter;stroke-miterlimit:4;stroke-dasharray:none;stroke-opacity:1"
         id="path24" /><path
         d="m 6601.67,1399.85 -12.52,34.03 -8.12,21.92 -7.86,-21.92 -12.52,-34.03 -38.24,-0.84 -25.97,-0.41 21.21,-15.19 30.04,-21.75 -10.86,-34.2 -7.5,-23.12 20.25,13.23 31.45,20.97 31.69,-20.97 20.14,-13.23 -7.36,23.12 -10.86,34.2 30.04,21.75 20.95,15.19 -25.72,0.41 -38.24,0.84"
         style="fill:#f3f020;fill-opacity:1;fill-rule:nonzero;stroke:none"
         id="path26" /><path
         d="m 6601.67,1399.85 -12.52,34.03 -8.12,21.92 -7.86,-21.92 -12.52,-34.03 -38.24,-0.84 -25.97,-0.41 21.21,-15.19 30.04,-21.75 -10.86,-34.2 -7.5,-23.12 20.25,13.23 31.45,20.97 31.69,-20.97 20.14,-13.23 -7.36,23.12 -10.86,34.2 30.04,21.75 20.95,15.19 -25.72,0.41 z"
         style="fill:none;stroke:#f3f020;stroke-width:11.064;stroke-linecap:butt;stroke-linejoin:miter;stroke-miterlimit:4;stroke-dasharray:none;stroke-opacity:1"
         id="path28" /><path
         d="m 6331.63,1327.64 -12.52,34.13 -7.85,21.93 -7.99,-21.93 -12.5,-34.13 -38.26,-0.66 -25.98,-0.41 21.1,-15.25 30.15,-21.63 -10.86,-34.14 -7.48,-23.31 20.24,13.47 31.58,20.8 31.35,-20.8 20.25,-13.47 -7.38,23.31 -10.86,34.14 30.04,21.63 21.21,15.25 -25.98,0.41 -38.26,0.66"
         style="fill:#f3f020;fill-opacity:1;fill-rule:nonzero;stroke:none"
         id="path30" /><path
         d="m 6331.63,1327.64 -12.52,34.13 -7.85,21.93 -7.99,-21.93 -12.5,-34.13 -38.26,-0.66 -25.98,-0.41 21.1,-15.25 30.15,-21.63 -10.86,-34.14 -7.48,-23.31 20.24,13.47 31.58,20.8 31.35,-20.8 20.25,-13.47 -7.38,23.31 -10.86,34.14 30.04,21.63 21.21,15.25 -25.98,0.41 z"
         style="fill:none;stroke:#f3f020;stroke-width:11.064;stroke-linecap:butt;stroke-linejoin:miter;stroke-miterlimit:4;stroke-dasharray:none;stroke-opacity:1"
         id="path32" /><path
         d="m 6135.03,1133.93 -12.31,34.04 -7.96,21.85 -8.09,-21.85 -12.4,-34.04 -38.26,-0.7 -25.86,-0.49 21.09,-15.25 30.04,-21.68 -10.96,-34.08 -7.28,-23.25 20.02,13.34 31.58,20.86 31.58,-20.86 20.14,-13.34 -7.4,23.25 -10.84,34.08 30.15,21.68 20.98,15.25 -25.88,0.49 -38.34,0.7"
         style="fill:#f3f020;fill-opacity:1;fill-rule:nonzero;stroke:none"
         id="path34" /><path
         d="m 6135.03,1133.93 -12.31,34.04 -7.96,21.85 -8.09,-21.85 -12.4,-34.04 -38.26,-0.7 -25.86,-0.49 21.09,-15.25 30.04,-21.68 -10.96,-34.08 -7.28,-23.25 20.02,13.34 31.58,20.86 31.58,-20.86 20.14,-13.34 -7.4,23.25 -10.84,34.08 30.15,21.68 20.98,15.25 -25.88,0.49 z"
         style="fill:none;stroke:#f3f020;stroke-width:11.064;stroke-linecap:butt;stroke-linejoin:miter;stroke-miterlimit:4;stroke-dasharray:none;stroke-opacity:1"
         id="path36" /><path
         d="m 6072.69,781.336 20.25,-13.457 -7.36,23.351 -10.86,34.083 30.02,21.675 21.09,15.129 -25.84,0.547 -38.26,0.652 -12.5,34.036 -7.99,21.855 -8.01,-21.855 -12.5,-34.036 -38.24,-0.652 -25.86,-0.547 20.96,-15.129 30.15,-21.675 -10.84,-34.083 -7.38,-23.351 20.12,13.457 31.6,20.852 31.45,-20.852"
         style="fill:#f3f020;fill-opacity:1;fill-rule:nonzero;stroke:none"
         id="path38" /><path
         d="m 6072.69,781.336 20.25,-13.457 -7.36,23.351 -10.86,34.083 30.02,21.675 21.09,15.129 -25.84,0.547 -38.26,0.652 -12.5,34.036 -7.99,21.855 -8.01,-21.855 -12.5,-34.036 -38.24,-0.652 -25.86,-0.547 20.96,-15.129 30.15,-21.675 -10.84,-34.083 -7.38,-23.351 20.12,13.457 31.6,20.852 z"
         style="fill:none;stroke:#f3f020;stroke-width:11.064;stroke-linecap:butt;stroke-linejoin:miter;stroke-miterlimit:4;stroke-dasharray:none;stroke-opacity:1"
         id="path40" /><path
         d="m 6134.17,596.27 -12.5,33.96 -7.87,21.879 -8.11,-21.879 -12.5,-33.96 -38.24,-0.829 -25.86,-0.582 21.08,-15.019 30.04,-21.809 -10.86,-34.09 -7.5,-23.043 20.25,13.161 31.46,20.839 31.59,-20.839 20.13,-13.278 -7.38,23.16 -10.72,34.09 30.02,21.809 20.97,15.019 -25.86,0.582 -38.14,0.829"
         style="fill:#f3f020;fill-opacity:1;fill-rule:nonzero;stroke:none"
         id="path42" /><path
         d="m 6134.17,596.27 -12.5,33.96 -7.87,21.879 -8.11,-21.879 -12.5,-33.96 -38.24,-0.829 -25.86,-0.582 21.08,-15.019 30.04,-21.809 -10.86,-34.09 -7.5,-23.043 20.25,13.161 31.46,20.839 31.59,-20.839 20.13,-13.278 -7.38,23.16 -10.72,34.09 30.02,21.809 20.97,15.019 -25.86,0.582 z"
         style="fill:none;stroke:#f3f020;stroke-width:11.064;stroke-linecap:butt;stroke-linejoin:miter;stroke-miterlimit:4;stroke-dasharray:none;stroke-opacity:1"
         id="path44" /><path
         d="m 6329.25,400.73 -12.38,34.2 -7.99,21.859 -8.11,-21.859 -12.38,-34.2 -38.38,-0.601 -25.86,-0.59 21.21,-15.141 29.9,-21.687 -10.72,-34.063 -7.5,-23.25 20.12,13.231 31.72,20.922 31.33,-20.922 20.39,-13.231 -7.52,23.25 -10.82,34.063 30.02,21.687 21.21,15.141 -25.98,0.59 -38.26,0.601"
         style="fill:#f3f020;fill-opacity:1;fill-rule:nonzero;stroke:none"
         id="path46" /><path
         d="m 6329.25,400.73 -12.38,34.2 -7.99,21.859 -8.11,-21.859 -12.38,-34.2 -38.38,-0.601 -25.86,-0.59 21.21,-15.141 29.9,-21.687 -10.72,-34.063 -7.5,-23.25 20.12,13.231 31.72,20.922 31.33,-20.922 20.39,-13.231 -7.52,23.25 -10.82,34.063 30.02,21.687 21.21,15.141 -25.98,0.59 z"
         style="fill:none;stroke:#f3f020;stroke-width:11.064;stroke-linecap:butt;stroke-linejoin:miter;stroke-miterlimit:4;stroke-dasharray:none;stroke-opacity:1"
         id="path48" /><path
         d="m 6601.42,328.582 -12.39,33.898 -8.12,21.989 -7.85,-21.989 -12.52,-33.898 -38.25,-0.781 -25.99,-0.602 21.09,-15.25 30.18,-21.551 -10.98,-34.089 -7.26,-23.297 20.13,13.386 31.45,20.922 31.6,-20.922 20.14,-13.386 -7.27,23.297 -10.98,34.089 30.04,21.551 21.08,15.25 -25.73,0.602 -38.37,0.781"
         style="fill:#f3f020;fill-opacity:1;fill-rule:nonzero;stroke:none"
         id="path50" /><path
         d="m 6601.42,328.582 -12.39,33.898 -8.12,21.989 -7.85,-21.989 -12.52,-33.898 -38.25,-0.781 -25.99,-0.602 21.09,-15.25 30.18,-21.551 -10.98,-34.089 -7.26,-23.297 20.13,13.386 31.45,20.922 31.6,-20.922 20.14,-13.386 -7.27,23.297 -10.98,34.089 30.04,21.551 21.08,15.25 -25.73,0.602 z"
         style="fill:none;stroke:#f3f020;stroke-width:11.064;stroke-linecap:butt;stroke-linejoin:miter;stroke-miterlimit:4;stroke-dasharray:none;stroke-opacity:1"
         id="path52" /><path
         d="m 6871.57,399.422 -12.52,34.078 -7.99,21.871 -7.98,-21.871 -12.41,-34.078 -38.24,-0.844 -25.97,-0.476 21.23,-15.122 30.02,-21.679 -10.86,-34.102 -7.39,-23.23 20.14,13.242 31.46,20.898 31.59,-20.898 20.02,-13.242 -7.15,23.23 -10.86,34.102 29.9,21.679 21.11,15.122 -25.86,0.476 -38.24,0.844"
         style="fill:#f3f020;fill-opacity:1;fill-rule:nonzero;stroke:none"
         id="path54" /><path
         d="m 6871.57,399.422 -12.52,34.078 -7.99,21.871 -7.98,-21.871 -12.41,-34.078 -38.24,-0.844 -25.97,-0.476 21.23,-15.122 30.02,-21.679 -10.86,-34.102 -7.39,-23.23 20.14,13.242 31.46,20.898 31.59,-20.898 20.02,-13.242 -7.15,23.23 -10.86,34.102 29.9,21.679 21.11,15.122 -25.86,0.476 z"
         style="fill:none;stroke:#f3f020;stroke-width:11.064;stroke-linecap:butt;stroke-linejoin:miter;stroke-miterlimit:4;stroke-dasharray:none;stroke-opacity:1"
         id="path56" /><path
         d="m 7067.82,593.879 -12.52,34.109 -7.97,21.782 -7.98,-21.782 -12.52,-34.109 -38.27,-0.699 -25.84,-0.489 21.2,-15.25 29.94,-21.621 -10.84,-34.199 -7.29,-23.172 20.04,13.34 31.56,20.852 31.57,-20.852 20.04,-13.34 -7.41,23.172 -10.72,34.199 30.04,21.621 21.09,15.25 -25.88,0.489 -38.24,0.699"
         style="fill:#f3f020;fill-opacity:1;fill-rule:nonzero;stroke:none"
         id="path58" /><path
         d="m 7067.82,593.879 -12.52,34.109 -7.97,21.782 -7.98,-21.782 -12.52,-34.109 -38.27,-0.699 -25.84,-0.489 21.2,-15.25 29.94,-21.621 -10.84,-34.199 -7.29,-23.172 20.04,13.34 31.56,20.852 31.57,-20.852 20.04,-13.34 -7.41,23.172 -10.72,34.199 30.04,21.621 21.09,15.25 -25.88,0.489 z"
         style="fill:none;stroke:#f3f020;stroke-width:11.064;stroke-linecap:butt;stroke-linejoin:miter;stroke-miterlimit:4;stroke-dasharray:none;stroke-opacity:1"
         id="path60" /><path
         d="m 1667.48,1386.67 47.36,-11.97 c -9.93,-38.9 -27.79,-68.56 -53.59,-88.99 -25.79,-20.43 -57.33,-30.64 -94.6,-30.64 -38.57,0 -69.95,7.85 -94.11,23.56 -24.18,15.71 -42.57,38.45 -55.18,68.23 -12.61,29.79 -18.92,61.78 -18.92,95.96 0,37.27 7.12,69.78 21.36,97.53 14.24,27.74 34.51,48.83 60.79,63.23 26.29,14.41 55.21,21.6 86.79,21.6 35.8,0 65.92,-9.11 90.33,-27.34 24.42,-18.22 41.42,-43.87 51.03,-76.89 l -46.63,-11 c -8.3,26.04 -20.35,45 -36.13,56.89 -15.79,11.88 -35.65,17.82 -59.57,17.82 -27.51,0 -50.5,-6.59 -68.97,-19.77 -18.48,-13.18 -31.46,-30.89 -38.94,-53.1 -7.49,-22.22 -11.23,-45.13 -11.23,-68.74 0,-30.42 4.43,-57 13.3,-79.7 8.87,-22.71 22.66,-39.67 41.38,-50.9 18.71,-11.23 38.98,-16.86 60.79,-16.86 26.53,0 48.99,7.66 67.39,22.95 18.39,15.31 30.84,38.01 37.35,68.13"
         style="fill:#2d49a3;fill-opacity:1;fill-rule:nonzero;stroke:none"
         id="path62" /><path
         d="m 1796.39,1390.81 c 0,-33.2 7.23,-58.07 21.73,-74.58 14.48,-16.52 32.71,-24.78 54.68,-24.78 21.81,0 39.95,8.3 54.45,24.91 14.48,16.6 21.72,41.9 21.72,75.91 0,32.07 -7.28,56.36 -21.85,72.88 -14.56,16.52 -32.68,24.78 -54.32,24.78 -21.97,0 -40.2,-8.22 -54.68,-24.65 -14.5,-16.44 -21.73,-41.27 -21.73,-74.47 z m -45.17,0 c 0,48.01 13.34,83.57 40.04,106.7 22.29,19.2 49.47,28.81 81.54,28.81 35.65,0 64.78,-11.68 87.41,-35.04 22.61,-23.36 33.93,-55.63 33.93,-96.8 0,-33.38 -5.01,-59.62 -15.01,-78.74 -10.02,-19.13 -24.58,-33.97 -43.71,-44.56 -19.12,-10.57 -40,-15.86 -62.62,-15.86 -36.3,0 -65.63,11.63 -88.01,34.9 -22.38,23.28 -33.57,56.81 -33.57,100.59"
         style="fill:#2d49a3;fill-opacity:1;fill-rule:nonzero;stroke:none"
         id="path64" /><path
         d="m 2056.15,1261.18 v 225.1 h -38.82 v 34.18 h 38.82 v 27.58 c 0,17.42 1.55,30.35 4.64,38.82 4.23,11.39 11.68,20.63 22.34,27.71 10.66,7.08 25.59,10.61 44.8,10.61 12.36,0 26.03,-1.46 41.02,-4.39 l -6.6,-38.32 c -9.12,1.62 -17.74,2.44 -25.88,2.44 -13.34,0 -22.79,-2.85 -28.32,-8.55 -5.53,-5.7 -8.3,-16.35 -8.3,-31.98 v -23.92 h 50.54 v -34.18 h -50.54 v -225.1 h -43.7"
         style="fill:#2d49a3;fill-opacity:1;fill-rule:nonzero;stroke:none"
         id="path66" /><path
         d="m 2184.81,1261.18 v 259.28 h 43.95 v -259.28 z m 0,307.36 v 50.55 h 43.95 v -50.55 h -43.95"
         style="fill:#2d49a3;fill-opacity:1;fill-rule:nonzero;stroke:none"
         id="path68" /><path
         d="m 2295.65,1261.18 v 259.28 h 39.56 v -36.88 c 19.04,28.49 46.54,42.74 82.51,42.74 15.63,0 29.99,-2.82 43.1,-8.43 13.1,-5.62 22.9,-12.98 29.41,-22.1 6.51,-9.11 11.07,-19.94 13.68,-32.46 1.62,-8.15 2.44,-22.38 2.44,-42.74 v -159.41 h -43.95 v 157.71 c 0,17.9 -1.71,31.29 -5.12,40.16 -3.42,8.87 -9.49,15.95 -18.2,21.24 -8.7,5.28 -18.91,7.94 -30.63,7.94 -18.72,0 -34.88,-5.95 -48.47,-17.83 -13.58,-11.88 -20.38,-34.42 -20.38,-67.62 v -141.6 h -43.95"
         style="fill:#2d49a3;fill-opacity:1;fill-rule:nonzero;stroke:none"
         id="path70" /><path
         d="m 2739.26,1391.3 c -15.96,-6.51 -39.88,-12.04 -71.78,-16.6 -18.07,-2.6 -30.85,-5.53 -38.33,-8.79 -7.49,-3.26 -13.27,-8.01 -17.33,-14.28 -4.08,-6.27 -6.11,-13.22 -6.11,-20.88 0,-11.72 4.44,-21.48 13.3,-29.3 8.88,-7.81 21.86,-11.72 38.95,-11.72 16.92,0 31.98,3.72 45.17,11.12 13.18,7.4 22.86,17.54 29.05,30.39 4.71,9.93 7.08,24.58 7.08,43.94 z m 3.66,-98.15 c -16.28,-13.83 -31.94,-23.59 -46.99,-29.29 -15.06,-5.69 -31.22,-8.54 -48.47,-8.54 -28.49,0 -50.38,6.95 -65.67,20.87 -15.31,13.92 -22.95,31.69 -22.95,53.35 0,12.69 2.89,24.28 8.67,34.78 5.77,10.5 13.34,18.93 22.7,25.28 9.36,6.35 19.9,11.14 31.62,14.39 8.62,2.29 21.64,4.47 39.06,6.6 35.48,4.22 61.6,9.28 78.37,15.14 0.15,6.02 0.24,9.84 0.24,11.47 0,17.91 -4.15,30.52 -12.45,37.85 -11.23,9.92 -27.92,14.88 -50.05,14.88 -20.67,0 -35.93,-3.61 -45.78,-10.86 -9.84,-7.25 -17.13,-20.06 -21.84,-38.46 l -42.97,5.86 c 3.9,18.4 10.33,33.24 19.28,44.56 8.95,11.31 21.89,20.02 38.82,26.13 16.93,6.1 36.53,9.16 58.84,9.16 22.13,0 40.12,-2.62 53.95,-7.82 13.83,-5.21 24.01,-11.77 30.52,-19.65 6.51,-7.9 11.07,-17.87 13.67,-29.92 1.47,-7.48 2.2,-20.99 2.2,-40.52 v -58.6 c 0,-40.85 0.94,-66.68 2.8,-77.51 1.88,-10.83 5.58,-21.2 11.12,-31.12 h -45.9 c -4.56,9.1 -7.49,19.77 -8.79,31.97"
         style="fill:#2d49a3;fill-opacity:1;fill-rule:nonzero;stroke:none"
         id="path72" /><path
         d="m 2851.81,1261.18 v 259.28 h 39.55 v -36.88 c 19.04,28.49 46.54,42.74 82.52,42.74 15.62,0 29.99,-2.82 43.09,-8.43 13.1,-5.62 22.9,-12.98 29.42,-22.1 6.5,-9.11 11.06,-19.94 13.67,-32.46 1.62,-8.15 2.44,-22.38 2.44,-42.74 v -159.41 h -43.95 v 157.71 c 0,17.9 -1.7,31.29 -5.12,40.16 -3.42,8.87 -9.48,15.95 -18.2,21.24 -8.7,5.28 -18.91,7.94 -30.63,7.94 -18.72,0 -34.87,-5.95 -48.47,-17.83 -13.58,-11.88 -20.38,-34.42 -20.38,-67.62 v -141.6 h -43.94"
         style="fill:#2d49a3;fill-opacity:1;fill-rule:nonzero;stroke:none"
         id="path74" /><path
         d="m 3299.07,1356.14 43.22,-5.6 c -4.73,-29.79 -16.81,-53.11 -36.26,-69.95 -19.45,-16.85 -43.33,-25.27 -71.65,-25.27 -35.49,0 -64.01,11.59 -85.58,34.79 -21.56,23.19 -32.34,56.43 -32.34,99.72 0,28 4.63,52.5 13.91,73.5 9.28,20.99 23.4,36.74 42.35,47.23 18.97,10.5 39.59,15.76 61.9,15.76 28.15,0 51.18,-7.13 69.09,-21.37 17.9,-14.24 29.38,-34.47 34.42,-60.66 l -42.72,-6.61 c -4.07,17.43 -11.27,30.53 -21.61,39.32 -10.33,8.79 -22.82,13.18 -37.47,13.18 -22.14,0 -40.13,-7.94 -53.96,-23.8 -13.83,-15.87 -20.75,-40.98 -20.75,-75.32 0,-34.84 6.67,-60.14 20.02,-75.93 13.34,-15.79 30.76,-23.68 52.25,-23.68 17.24,0 31.65,5.28 43.21,15.86 11.55,10.59 18.88,26.86 21.97,48.83"
         style="fill:#2d49a3;fill-opacity:1;fill-rule:nonzero;stroke:none"
         id="path76" /><path
         d="m 3460.45,1552.68 32.47,68.36 h 57.62 l -53.71,-68.36 z m -47.36,-136.97 h 144.77 c -1.95,21.82 -7.49,38.17 -16.6,49.08 -14,16.92 -32.15,25.39 -54.44,25.39 -20.19,0 -37.15,-6.75 -50.91,-20.27 -13.75,-13.51 -21.36,-31.57 -22.82,-54.2 z m 144.28,-71.03 45.41,-5.63 c -7.16,-26.52 -20.43,-47.11 -39.79,-61.76 -19.38,-14.65 -44.11,-21.97 -74.22,-21.97 -37.93,0 -68,11.67 -90.21,35.03 -22.22,23.35 -33.33,56.1 -33.33,98.27 0,43.61 11.23,77.46 33.7,101.56 22.46,24.09 51.59,36.14 87.4,36.14 34.67,0 62.99,-11.81 84.96,-35.41 21.97,-23.6 32.96,-56.8 32.96,-99.61 0,-2.6 -0.09,-6.51 -0.25,-11.72 h -193.36 c 1.63,-28.48 9.68,-50.29 24.17,-65.43 14.49,-15.14 32.55,-22.7 54.2,-22.7 16.12,0 29.87,4.22 41.26,12.7 11.39,8.46 20.42,21.97 27.1,40.53"
         style="fill:#2d49a3;fill-opacity:1;fill-rule:nonzero;stroke:none"
         id="path78" /><path
         d="m 3836.67,1389.34 c 0,-33.36 6.75,-58.02 20.26,-73.96 13.51,-15.96 29.87,-23.93 49.08,-23.93 19.53,0 36.25,8.26 50.17,24.78 13.91,16.51 20.87,42.12 20.87,76.79 0,33.02 -6.8,57.77 -20.38,74.21 -13.59,16.43 -29.83,24.65 -48.71,24.65 -18.72,0 -35.27,-8.75 -49.69,-26.24 -14.39,-17.5 -21.6,-42.93 -21.6,-76.3 z m -39.79,-227.54 v 358.66 h 40.03 v -33.69 c 9.44,13.18 20.1,23.06 31.99,29.66 11.87,6.59 26.28,9.89 43.21,9.89 22.13,0 41.66,-5.71 58.59,-17.09 16.93,-11.41 29.7,-27.47 38.33,-48.23 8.63,-20.75 12.94,-43.49 12.94,-68.24 0,-26.52 -4.75,-50.41 -14.28,-71.65 -9.52,-21.24 -23.35,-37.52 -41.51,-48.83 -18.14,-11.3 -37.22,-16.96 -57.24,-16.96 -14.65,0 -27.8,3.09 -39.44,9.28 -11.63,6.17 -21.2,13.98 -28.68,23.44 V 1161.8 h -43.94"
         style="fill:#2d49a3;fill-opacity:1;fill-rule:nonzero;stroke:none"
         id="path80" /><path
         d="m 4240.48,1391.3 c -15.96,-6.51 -39.88,-12.04 -71.78,-16.6 -18.07,-2.6 -30.85,-5.53 -38.33,-8.79 -7.49,-3.26 -13.27,-8.01 -17.33,-14.28 -4.08,-6.27 -6.11,-13.22 -6.11,-20.88 0,-11.72 4.44,-21.48 13.3,-29.3 8.88,-7.81 21.86,-11.72 38.95,-11.72 16.92,0 31.98,3.72 45.17,11.12 13.18,7.4 22.86,17.54 29.05,30.39 4.72,9.93 7.08,24.58 7.08,43.94 z m 3.66,-98.15 c -16.28,-13.83 -31.94,-23.59 -46.99,-29.29 -15.06,-5.69 -31.22,-8.54 -48.47,-8.54 -28.48,0 -50.38,6.95 -65.67,20.87 -15.3,13.92 -22.95,31.69 -22.95,53.35 0,12.69 2.89,24.28 8.67,34.78 5.77,10.5 13.34,18.93 22.7,25.28 9.36,6.35 19.9,11.14 31.62,14.39 8.62,2.29 21.64,4.47 39.06,6.6 35.48,4.22 61.6,9.28 78.37,15.14 0.15,6.02 0.24,9.84 0.24,11.47 0,17.91 -4.15,30.52 -12.45,37.85 -11.23,9.92 -27.92,14.88 -50.05,14.88 -20.67,0 -35.93,-3.61 -45.78,-10.86 -9.84,-7.25 -17.13,-20.06 -21.84,-38.46 l -42.97,5.86 c 3.9,18.4 10.33,33.24 19.28,44.56 8.95,11.31 21.89,20.02 38.82,26.13 16.93,6.1 36.54,9.16 58.84,9.16 22.13,0 40.12,-2.62 53.96,-7.82 13.82,-5.21 24,-11.77 30.51,-19.65 6.51,-7.9 11.07,-17.87 13.67,-29.92 1.47,-7.48 2.2,-20.99 2.2,-40.52 v -58.6 c 0,-40.85 0.94,-66.68 2.8,-77.51 1.88,-10.83 5.58,-21.2 11.12,-31.12 h -45.9 c -4.56,9.1 -7.49,19.77 -8.79,31.97"
         style="fill:#2d49a3;fill-opacity:1;fill-rule:nonzero;stroke:none"
         id="path82" /><path
         d="m 4352.54,1261.18 v 259.28 h 39.55 v -39.32 c 10.09,18.4 19.4,30.53 27.96,36.39 8.53,5.86 17.94,8.79 28.19,8.79 14.81,0 29.87,-4.73 45.17,-14.16 l -15.14,-40.78 c -10.74,6.34 -21.48,9.53 -32.23,9.53 -9.6,0 -18.23,-2.89 -25.87,-8.68 -7.66,-5.78 -13.11,-13.78 -16.36,-24.04 -4.88,-15.62 -7.33,-32.71 -7.33,-51.27 v -135.74 h -43.94"
         style="fill:#2d49a3;fill-opacity:1;fill-rule:nonzero;stroke:none"
         id="path84" /><path
         d="m 4657.47,1261.18 v 357.91 h 43.95 v -357.91 h -43.95"
         style="fill:#2d49a3;fill-opacity:1;fill-rule:nonzero;stroke:none"
         id="path86" /><path
         d="m 4802.73,1415.71 h 144.78 c -1.95,21.82 -7.49,38.17 -16.6,49.08 -14.01,16.92 -32.15,25.39 -54.45,25.39 -20.18,0 -37.14,-6.75 -50.9,-20.27 -13.75,-13.51 -21.36,-31.57 -22.83,-54.2 z m 144.29,-71.03 45.41,-5.63 c -7.17,-26.52 -20.43,-47.11 -39.79,-61.76 -19.38,-14.65 -44.11,-21.97 -74.22,-21.97 -37.93,0 -68,11.67 -90.21,35.03 -22.22,23.35 -33.33,56.1 -33.33,98.27 0,43.61 11.23,77.46 33.69,101.56 22.47,24.09 51.6,36.14 87.41,36.14 34.66,0 62.98,-11.81 84.96,-35.41 21.97,-23.6 32.96,-56.8 32.96,-99.61 0,-2.6 -0.09,-6.51 -0.25,-11.72 h -193.36 c 1.62,-28.48 9.68,-50.29 24.17,-65.43 14.49,-15.14 32.55,-22.7 54.2,-22.7 16.12,0 29.87,4.22 41.26,12.7 11.39,8.46 20.42,21.97 27.1,40.53"
         style="fill:#2d49a3;fill-opacity:1;fill-rule:nonzero;stroke:none"
         id="path88" /><path
         d="m 127.441,829.344 c 0,-33.367 6.747,-58.028 20.262,-73.977 13.508,-15.957 29.863,-23.926 49.074,-23.926 19.532,0 36.25,8.262 50.176,24.789 13.906,16.512 20.867,42.11 20.867,76.778 0,33.035 -6.797,57.781 -20.379,74.219 -13.593,16.433 -29.836,24.656 -48.711,24.656 -18.718,0 -35.273,-8.75 -49.687,-26.25 -14.395,-17.5 -21.602,-42.93 -21.602,-76.289 z M 87.6484,601.801 v 358.644 h 40.0396 v -33.687 c 9.429,13.183 20.093,23.074 31.98,29.656 11.875,6.602 26.277,9.895 43.215,9.895 22.129,0 41.656,-5.696 58.594,-17.09 16.921,-11.399 29.695,-27.473 38.328,-48.215 8.625,-20.762 12.937,-43.508 12.937,-68.242 0,-26.532 -4.754,-50.418 -14.285,-71.653 -9.512,-21.25 -23.352,-37.515 -41.504,-48.828 -18.144,-11.316 -37.226,-16.968 -57.246,-16.968 -14.648,0 -27.793,3.093 -39.434,9.277 -11.628,6.18 -21.203,13.992 -28.679,23.433 V 601.801 H 87.6484"
         style="fill:#2d49a3;fill-opacity:1;fill-rule:nonzero;stroke:none"
         id="path90" /><path
         d="m 365.234,701.172 v 259.273 h 39.551 v -39.304 c 10.086,18.386 19.403,30.515 27.957,36.379 8.535,5.859 17.942,8.789 28.196,8.789 14.804,0 29.863,-4.719 45.167,-14.161 l -15.136,-40.773 c -10.742,6.348 -21.489,9.523 -32.231,9.523 -9.605,0 -18.23,-2.89 -25.879,-8.664 -7.656,-5.781 -13.101,-13.796 -16.355,-24.05 -4.883,-15.625 -7.324,-32.715 -7.324,-51.274 V 701.172 h -43.946"
         style="fill:#2d49a3;fill-opacity:1;fill-rule:nonzero;stroke:none"
         id="path92" /><path
         d="m 561.035,830.809 c 0,-33.204 7.235,-58.067 21.731,-74.579 14.48,-16.527 32.714,-24.789 54.683,-24.789 21.809,0 39.953,8.301 54.446,24.907 14.484,16.597 21.726,41.902 21.726,75.925 0,32.063 -7.281,56.348 -21.851,72.872 -14.563,16.523 -32.676,24.785 -54.321,24.785 -21.969,0 -40.203,-8.223 -54.683,-24.657 -14.496,-16.437 -21.731,-41.261 -21.731,-74.464 z m -45.168,0 c 0,48.007 13.344,83.574 40.039,106.687 22.297,19.211 49.477,28.813 81.543,28.813 35.649,0 64.778,-11.68 87.406,-35.032 22.618,-23.359 33.934,-55.625 33.934,-96.804 0,-33.371 -5.012,-59.614 -15.012,-78.735 -10.015,-19.129 -24.578,-33.98 -43.711,-44.558 -19.121,-10.575 -40,-15.867 -62.617,-15.867 -36.297,0 -65.633,11.628 -88.008,34.91 -22.378,23.269 -33.574,56.797 -33.574,100.586"
         style="fill:#2d49a3;fill-opacity:1;fill-rule:nonzero;stroke:none"
         id="path94" /><path
         d="m 838.621,835.445 c 0,-34.019 6.75,-58.836 20.266,-74.461 13.508,-15.625 30.429,-23.437 50.781,-23.437 20.176,0 37.109,7.773 50.781,23.312 13.672,15.543 20.508,39.918 20.508,73.125 0,31.739 -7.039,55.664 -21.113,71.778 -14.082,16.109 -31.055,24.168 -50.906,24.168 -19.536,0 -36.133,-7.93 -49.805,-23.809 -13.672,-15.859 -20.512,-39.426 -20.512,-70.676 z m -36.375,-155.757 42.727,-6.348 c 1.785,-13.192 6.746,-22.789 14.89,-28.809 10.899,-8.14 25.789,-12.211 44.68,-12.211 20.34,0 36.043,4.071 47.117,12.211 11.067,8.141 18.555,19.528 22.461,34.18 2.274,8.953 3.328,27.742 3.176,56.394 -19.211,-22.625 -43.137,-33.933 -71.777,-33.933 -35.649,0 -63.235,12.851 -82.766,38.57 -19.531,25.715 -29.297,56.555 -29.297,92.531 0,24.739 4.473,47.559 13.43,68.477 8.941,20.918 21.929,37.07 38.933,48.469 17.012,11.394 36.993,17.09 59.942,17.09 30.593,0 55.82,-12.375 75.683,-37.114 v 31.25 h 40.525 V 736.324 c 0,-40.359 -4.11,-68.965 -12.32,-85.812 -8.22,-16.84 -21.252,-30.153 -39.064,-39.922 -17.832,-9.762 -39.766,-14.641 -65.801,-14.641 -30.93,0 -55.906,6.961 -74.949,20.86 -19.043,13.929 -28.242,34.89 -27.59,62.879"
         style="fill:#2d49a3;fill-opacity:1;fill-rule:nonzero;stroke:none"
         id="path96" /><path
         d="m 1087.89,701.172 v 259.273 h 39.55 v -39.304 c 10.09,18.386 19.41,30.515 27.96,36.379 8.54,5.859 17.94,8.789 28.19,8.789 14.81,0 29.87,-4.719 45.17,-14.161 l -15.14,-40.773 c -10.74,6.348 -21.48,9.523 -32.22,9.523 -9.61,0 -18.24,-2.89 -25.88,-8.664 -7.66,-5.781 -13.11,-13.796 -16.36,-24.05 -4.88,-15.625 -7.32,-32.715 -7.32,-51.274 V 701.172 h -43.95"
         style="fill:#2d49a3;fill-opacity:1;fill-rule:nonzero;stroke:none"
         id="path98" /><path
         d="m 1420.41,831.297 c -15.96,-6.516 -39.88,-12.051 -71.78,-16.602 -18.06,-2.605 -30.85,-5.539 -38.33,-8.789 -7.49,-3.261 -13.27,-8.015 -17.33,-14.289 -4.07,-6.258 -6.1,-13.219 -6.1,-20.867 0,-11.719 4.43,-21.484 13.3,-29.297 8.87,-7.812 21.85,-11.719 38.94,-11.719 16.93,0 31.98,3.704 45.17,11.106 13.18,7.41 22.86,17.539 29.05,30.398 4.72,9.922 7.08,24.571 7.08,43.946 z m 3.66,-98.145 c -16.28,-13.836 -31.94,-23.601 -46.99,-29.297 -15.06,-5.695 -31.22,-8.542 -48.47,-8.542 -28.48,0 -50.38,6.953 -65.67,20.878 -15.3,13.907 -22.95,31.688 -22.95,53.336 0,12.7 2.89,24.297 8.67,34.789 5.77,10.504 13.34,18.922 22.7,25.274 9.36,6.348 19.9,11.14 31.62,14.402 8.62,2.278 21.64,4.473 39.06,6.594 35.48,4.227 61.6,9.273 78.37,15.137 0.16,6.023 0.24,9.843 0.24,11.472 0,17.903 -4.15,30.52 -12.45,37.84 -11.23,9.934 -27.92,14.895 -50.05,14.895 -20.67,0 -35.92,-3.621 -45.78,-10.86 -9.84,-7.246 -17.13,-20.066 -21.84,-38.457 l -42.97,5.86 c 3.9,18.386 10.33,33.242 19.29,44.55 8.94,11.309 21.88,20.02 38.81,26.133 16.93,6.094 36.54,9.153 58.84,9.153 22.13,0 40.12,-2.61 53.96,-7.817 13.83,-5.203 24,-11.765 30.51,-19.656 6.51,-7.891 11.07,-17.859 13.68,-29.902 1.46,-7.493 2.19,-20.996 2.19,-40.528 v -58.593 c 0,-40.86 0.94,-66.692 2.81,-77.508 1.87,-10.832 5.57,-21.211 11.11,-31.133 h -45.9 c -4.56,9.109 -7.49,19.773 -8.79,31.98"
         style="fill:#2d49a3;fill-opacity:1;fill-rule:nonzero;stroke:none"
         id="path100" /><path
         d="m 1532.96,701.172 v 259.273 h 39.31 V 924.07 c 8.13,12.696 18.95,22.91 32.47,30.645 13.5,7.726 28.88,11.594 46.14,11.594 19.2,0 34.95,-3.996 47.25,-11.965 12.28,-7.981 20.94,-19.121 25.99,-33.446 20.51,30.274 47.2,45.411 80.08,45.411 25.71,0 45.49,-7.121 59.33,-21.36 13.82,-14.25 20.75,-36.179 20.75,-65.801 V 701.172 h -43.7 V 864.5 c 0,17.578 -1.43,30.234 -4.27,37.969 -2.85,7.722 -8.03,13.945 -15.51,18.672 -7.49,4.718 -16.28,7.082 -26.37,7.082 -18.23,0 -33.37,-6.067 -45.41,-18.196 -12.05,-12.129 -18.06,-31.535 -18.06,-58.222 V 701.172 h -43.95 v 168.457 c 0,19.527 -3.58,34.18 -10.74,43.941 -7.17,9.77 -18.89,14.653 -35.16,14.653 -12.37,0 -23.81,-3.254 -34.29,-9.77 -10.51,-6.512 -18.12,-16.031 -22.84,-28.562 -4.72,-12.539 -7.08,-30.606 -7.08,-54.2 V 701.172 h -43.94"
         style="fill:#2d49a3;fill-opacity:1;fill-rule:nonzero;stroke:none"
         id="path102" /><path
         d="m 1949.46,701.172 v 259.273 h 39.31 V 924.07 c 8.13,12.696 18.95,22.91 32.47,30.645 13.51,7.726 28.89,11.594 46.14,11.594 19.2,0 34.95,-3.996 47.25,-11.965 12.28,-7.981 20.95,-19.121 26,-33.446 20.5,30.274 47.19,45.411 80.07,45.411 25.72,0 45.49,-7.121 59.33,-21.36 13.83,-14.25 20.75,-36.179 20.75,-65.801 V 701.172 h -43.7 V 864.5 c 0,17.578 -1.43,30.234 -4.27,37.969 -2.85,7.722 -8.02,13.945 -15.51,18.672 -7.49,4.718 -16.27,7.082 -26.36,7.082 -18.23,0 -33.37,-6.067 -45.41,-18.196 -12.05,-12.129 -18.07,-31.535 -18.07,-58.222 V 701.172 h -43.94 v 168.457 c 0,19.527 -3.59,34.18 -10.75,43.941 -7.16,9.77 -18.88,14.653 -35.15,14.653 -12.38,0 -23.81,-3.254 -34.3,-9.77 -10.51,-6.512 -18.11,-16.031 -22.83,-28.562 -4.73,-12.539 -7.08,-30.606 -7.08,-54.2 V 701.172 h -43.95"
         style="fill:#2d49a3;fill-opacity:1;fill-rule:nonzero;stroke:none"
         id="path104" /><path
         d="m 2399.17,855.711 h 144.78 c -1.96,21.809 -7.49,38.164 -16.61,49.07 -14,16.926 -32.14,25.395 -54.44,25.395 -20.19,0 -37.15,-6.758 -50.91,-20.266 -13.75,-13.515 -21.36,-31.582 -22.82,-54.199 z m 144.29,-71.043 45.41,-5.617 c -7.17,-26.531 -20.43,-47.117 -39.8,-61.77 -19.37,-14.644 -44.11,-21.968 -74.22,-21.968 -37.93,0 -67.99,11.675 -90.2,35.039 -22.23,23.347 -33.33,56.101 -33.33,98.257 0,43.625 11.23,77.473 33.69,101.567 22.46,24.09 51.59,36.133 87.4,36.133 34.67,0 62.99,-11.809 84.96,-35.403 21.98,-23.601 32.96,-56.804 32.96,-99.609 0,-2.606 -0.09,-6.516 -0.24,-11.719 h -193.36 c 1.62,-28.484 9.68,-50.293 24.17,-65.43 14.48,-15.136 32.55,-22.707 54.2,-22.707 16.11,0 29.86,4.231 41.26,12.7 11.38,8.457 20.42,21.968 27.1,40.527"
         style="fill:#2d49a3;fill-opacity:1;fill-rule:nonzero;stroke:none"
         id="path106" /><path
         d="m 2789.55,701.172 v 357.908 h 258.79 v -42.24 H 2836.91 V 907.227 h 198 v -41.993 h -198 V 743.406 h 219.73 v -42.234 h -267.09"
         style="fill:#2d49a3;fill-opacity:1;fill-rule:nonzero;stroke:none"
         id="path108" /><path
         d="m 3115.97,701.172 v 259.273 h 39.55 v -39.304 c 10.09,18.386 19.4,30.515 27.96,36.379 8.53,5.859 17.94,8.789 28.19,8.789 14.8,0 29.86,-4.719 45.17,-14.161 l -15.14,-40.773 c -10.74,6.348 -21.49,9.523 -32.23,9.523 -9.61,0 -18.23,-2.89 -25.88,-8.664 -7.65,-5.781 -13.1,-13.796 -16.35,-24.05 -4.89,-15.625 -7.33,-32.715 -7.33,-51.274 V 701.172 h -43.94"
         style="fill:#2d49a3;fill-opacity:1;fill-rule:nonzero;stroke:none"
         id="path110" /><path
         d="m 3448.49,831.297 c -15.96,-6.516 -39.89,-12.051 -71.78,-16.602 -18.07,-2.605 -30.85,-5.539 -38.33,-8.789 -7.49,-3.261 -13.27,-8.015 -17.34,-14.289 -4.07,-6.258 -6.1,-13.219 -6.1,-20.867 0,-11.719 4.44,-21.484 13.3,-29.297 8.88,-7.812 21.86,-11.719 38.95,-11.719 16.92,0 31.98,3.704 45.16,11.106 13.19,7.41 22.86,17.539 29.06,30.398 4.71,9.922 7.08,24.571 7.08,43.946 z m 3.66,-98.145 c -16.28,-13.836 -31.94,-23.601 -46.99,-29.297 -15.06,-5.695 -31.22,-8.542 -48.47,-8.542 -28.49,0 -50.38,6.953 -65.67,20.878 -15.31,13.907 -22.95,31.688 -22.95,53.336 0,12.7 2.89,24.297 8.67,34.789 5.77,10.504 13.34,18.922 22.69,25.274 9.37,6.348 19.91,11.14 31.62,14.402 8.63,2.278 21.65,4.473 39.07,6.594 35.48,4.227 61.6,9.273 78.37,15.137 0.15,6.023 0.24,9.843 0.24,11.472 0,17.903 -4.15,30.52 -12.45,37.84 -11.23,9.934 -27.92,14.895 -50.05,14.895 -20.67,0 -35.93,-3.621 -45.78,-10.86 -9.84,-7.246 -17.13,-20.066 -21.85,-38.457 l -42.97,5.86 c 3.91,18.386 10.34,33.242 19.29,44.55 8.95,11.309 21.89,20.02 38.82,26.133 16.92,6.094 36.53,9.153 58.84,9.153 22.13,0 40.12,-2.61 53.95,-7.817 13.83,-5.203 24.01,-11.765 30.52,-19.656 6.5,-7.891 11.07,-17.859 13.67,-29.902 1.47,-7.493 2.2,-20.996 2.2,-40.528 v -58.593 c 0,-40.86 0.94,-66.692 2.8,-77.508 1.88,-10.832 5.58,-21.211 11.12,-31.133 h -45.9 c -4.56,9.109 -7.49,19.773 -8.79,31.98"
         style="fill:#2d49a3;fill-opacity:1;fill-rule:nonzero;stroke:none"
         id="path112" /><path
         d="m 3543.46,778.563 43.45,6.835 c 2.45,-17.421 9.24,-30.761 20.38,-40.039 11.16,-9.277 26.74,-13.918 46.76,-13.918 20.18,0 35.16,4.114 44.92,12.329 9.77,8.218 14.65,17.859 14.65,28.933 0,9.922 -4.31,17.735 -12.94,23.438 -6.02,3.906 -20.99,8.867 -44.92,14.89 -32.22,8.137 -54.56,15.18 -67.02,21.125 -12.44,5.938 -21.88,14.16 -28.32,24.649 -6.43,10.508 -9.64,22.097 -9.64,34.797 0,11.55 2.65,22.253 7.94,32.097 5.28,9.844 12.48,18.028 21.6,24.539 6.84,5.051 16.15,9.321 27.95,12.825 11.81,3.496 24.45,5.246 37.97,5.246 20.34,0 38.2,-2.93 53.59,-8.789 15.38,-5.864 26.73,-13.801 34.06,-23.801 7.32,-10.02 12.36,-23.399 15.13,-40.164 l -42.97,-5.864 c -1.95,13.352 -7.6,23.762 -16.96,31.25 -9.36,7.493 -22.59,11.235 -39.68,11.235 -20.18,0 -34.59,-3.34 -43.21,-10.012 -8.63,-6.68 -12.94,-14.492 -12.94,-23.437 0,-5.704 1.79,-10.821 5.37,-15.379 3.58,-4.719 9.19,-8.625 16.85,-11.719 4.39,-1.633 17.33,-5.371 38.82,-11.231 31.08,-8.3 52.77,-15.097 65.07,-20.382 12.28,-5.293 21.92,-12.989 28.92,-23.075 6.99,-10.097 10.5,-22.628 10.5,-37.597 0,-14.653 -4.27,-28.442 -12.82,-41.391 -8.54,-12.93 -20.87,-22.945 -36.99,-30.015 -16.11,-7.09 -34.34,-10.625 -54.68,-10.625 -33.69,0 -59.37,6.992 -77.02,20.996 -17.67,13.992 -28.94,34.746 -33.82,62.254"
         style="fill:#2d49a3;fill-opacity:1;fill-rule:nonzero;stroke:none"
         id="path114" /><path
         d="m 3811.04,701.172 v 259.273 h 39.3 V 924.07 c 8.14,12.696 18.96,22.91 32.47,30.645 13.51,7.726 28.89,11.594 46.15,11.594 19.19,0 34.95,-3.996 47.24,-11.965 12.29,-7.981 20.95,-19.121 26,-33.446 20.51,30.274 47.19,45.411 80.08,45.411 25.71,0 45.48,-7.121 59.32,-21.36 13.83,-14.25 20.75,-36.179 20.75,-65.801 V 701.172 h -43.7 V 864.5 c 0,17.578 -1.42,30.234 -4.27,37.969 -2.85,7.722 -8.02,13.945 -15.5,18.672 -7.49,4.718 -16.28,7.082 -26.37,7.082 -18.23,0 -33.37,-6.067 -45.41,-18.196 -12.05,-12.129 -18.07,-31.535 -18.07,-58.222 V 701.172 h -43.94 v 168.457 c 0,19.527 -3.59,34.18 -10.74,43.941 -7.17,9.77 -18.89,14.653 -35.16,14.653 -12.37,0 -23.81,-3.254 -34.3,-9.77 -10.51,-6.512 -18.11,-16.031 -22.83,-28.562 -4.73,-12.539 -7.08,-30.606 -7.08,-54.2 V 701.172 h -43.94"
         style="fill:#2d49a3;fill-opacity:1;fill-rule:nonzero;stroke:none"
         id="path116" /><path
         d="m 4397.46,701.172 v 38.086 c -20.18,-29.297 -47.61,-43.945 -82.27,-43.945 -15.31,0 -29.58,2.925 -42.86,8.789 -13.26,5.859 -23.1,13.218 -29.53,22.089 -6.43,8.875 -10.95,19.735 -13.55,32.594 -1.8,8.625 -2.69,22.297 -2.69,41.02 v 160.64 h 43.95 V 816.648 c 0,-22.949 0.89,-38.418 2.68,-46.386 2.77,-11.563 8.63,-20.633 17.58,-27.215 8.95,-6.606 20.02,-9.895 33.2,-9.895 13.19,0 25.55,3.379 37.11,10.125 11.56,6.758 19.74,15.957 24.54,27.602 4.8,11.629 7.2,28.516 7.2,50.652 v 138.914 h 43.95 V 701.172 h -39.31"
         style="fill:#2d49a3;fill-opacity:1;fill-rule:nonzero;stroke:none"
         id="path118" /><path
         d="m 4488.04,778.563 43.45,6.835 c 2.45,-17.421 9.24,-30.761 20.39,-40.039 11.15,-9.277 26.73,-13.918 46.75,-13.918 20.18,0 35.16,4.114 44.92,12.329 9.77,8.218 14.65,17.859 14.65,28.933 0,9.922 -4.31,17.735 -12.94,23.438 -6.02,3.906 -20.99,8.867 -44.92,14.89 -32.22,8.137 -54.56,15.18 -67.02,21.125 -12.44,5.938 -21.88,14.16 -28.32,24.649 -6.43,10.508 -9.64,22.097 -9.64,34.797 0,11.55 2.65,22.253 7.94,32.097 5.28,9.844 12.48,18.028 21.6,24.539 6.84,5.051 16.15,9.321 27.95,12.825 11.81,3.496 24.45,5.246 37.97,5.246 20.34,0 38.2,-2.93 53.59,-8.789 15.38,-5.864 26.73,-13.801 34.06,-23.801 7.32,-10.02 12.36,-23.399 15.13,-40.164 l -42.97,-5.864 c -1.95,13.352 -7.6,23.762 -16.96,31.25 -9.36,7.493 -22.59,11.235 -39.68,11.235 -20.18,0 -34.59,-3.34 -43.21,-10.012 -8.63,-6.68 -12.94,-14.492 -12.94,-23.437 0,-5.704 1.79,-10.821 5.37,-15.379 3.58,-4.719 9.19,-8.625 16.85,-11.719 4.39,-1.633 17.33,-5.371 38.82,-11.231 31.08,-8.3 52.77,-15.097 65.07,-20.382 12.28,-5.293 21.92,-12.989 28.92,-23.075 6.99,-10.097 10.5,-22.628 10.5,-37.597 0,-14.653 -4.27,-28.442 -12.82,-41.391 -8.54,-12.93 -20.87,-22.945 -36.99,-30.015 -16.11,-7.09 -34.34,-10.625 -54.68,-10.625 -33.69,0 -59.37,6.992 -77.02,20.996 -17.67,13.992 -28.94,34.746 -33.82,62.254"
         style="fill:#2d49a3;fill-opacity:1;fill-rule:nonzero;stroke:none"
         id="path120" /><path
         d="m 4847.9,759.031 v 98.145 h -97.41 v 41.015 h 97.41 v 97.414 h 41.5 v -97.414 h 97.42 v -41.015 h -97.42 v -98.145 h -41.5"
         style="fill:#2d49a3;fill-opacity:1;fill-rule:nonzero;stroke:none"
         id="path122" /><path
         d="m 45.1641,270.559 c 0,-33.2 6.9922,-58.02 20.9961,-74.457 13.9961,-16.442 30.5195,-24.661 49.5628,-24.661 19.199,0 35.527,7.86 48.945,23.559 13.437,15.711 20.145,39.68 20.145,71.898 0,35.481 -6.833,61.532 -20.504,78.133 -13.672,16.598 -30.52,24.899 -50.539,24.899 C 94.2383,369.93 77.918,361.949 64.8242,346 51.7188,330.051 45.1641,304.898 45.1641,270.559 Z M 184.082,141.172 v 32.707 c -16.445,-25.719 -40.613,-38.57 -72.512,-38.57 -20.6716,0 -39.6755,5.703 -56.9997,17.089 -17.3437,11.391 -30.7617,27.313 -40.293,47.731 C 4.76563,220.551 0,244.031 0,270.559 c 0,25.882 4.30469,49.363 12.9414,70.429 8.6211,21.09 21.5625,37.242 38.8164,48.473 17.2461,11.23 36.5313,16.848 57.8592,16.848 15.625,0 29.543,-3.297 41.75,-9.887 12.207,-6.602 22.129,-15.184 29.785,-25.762 v 128.422 h 43.703 v -357.91 h -40.773"
         style="fill:#2d49a3;fill-opacity:1;fill-rule:nonzero;stroke:none"
         id="path124" /><path
         d="m 327.148,295.711 h 144.778 c -1.953,21.809 -7.492,38.168 -16.606,49.07 -14.004,16.93 -32.144,25.391 -54.441,25.391 -20.188,0 -37.149,-6.75 -50.906,-20.262 -13.75,-13.519 -21.36,-31.582 -22.825,-54.199 z m 144.29,-71.039 45.41,-5.621 c -7.168,-26.531 -20.43,-47.121 -39.797,-61.77 -19.375,-14.652 -44.113,-21.972 -74.219,-21.972 -37.93,0 -67.996,11.679 -90.203,35.043 -22.231,23.347 -33.332,56.097 -33.332,98.257 0,43.61 11.23,77.473 33.691,101.563 22.461,24.09 51.59,36.137 87.403,36.137 34.668,0 62.988,-11.809 84.961,-35.399 21.972,-23.609 32.961,-56.808 32.961,-99.609 0,-2.61 -0.09,-6.52 -0.247,-11.723 H 324.707 c 1.621,-28.488 9.68,-50.289 24.172,-65.43 14.48,-15.136 32.547,-22.707 54.195,-22.707 16.114,0 29.864,4.231 41.262,12.7 11.387,8.461 20.422,21.968 27.102,40.531"
         style="fill:#2d49a3;fill-opacity:1;fill-rule:nonzero;stroke:none"
         id="path126" /><path
         d="m 709.961,141.172 v 357.91 h 43.945 v -357.91 h -43.945"
         style="fill:#2d49a3;fill-opacity:1;fill-rule:nonzero;stroke:none"
         id="path128" /><path
         d="m 819.336,451.719 v 51.019 h 47.117 v -40.277 c 0,-21.82 -2.527,-37.52 -7.566,-47.121 -7,-13.18 -17.91,-23.121 -32.715,-29.789 l -10.742,17.34 c 8.789,3.57 15.34,9.238 19.648,16.968 4.317,7.731 6.719,18.34 7.207,31.86 h -22.949"
         style="fill:#2d49a3;fill-opacity:1;fill-rule:nonzero;stroke:none"
         id="path130" /><path
         d="m 1173.58,499.082 h 47.37 V 292.289 c 0,-35.969 -4.07,-64.539 -12.21,-85.687 -8.14,-21.161 -22.83,-38.372 -44.06,-51.641 -21.25,-13.262 -49.12,-19.891 -83.63,-19.891 -33.53,0 -60.95,5.782 -82.273,17.328 -21.328,11.551 -36.543,28.282 -45.652,50.184 -9.121,21.879 -13.672,51.777 -13.672,89.707 v 206.793 h 47.363 V 292.539 c 0,-31.098 2.891,-54 8.664,-68.73 5.78,-14.731 15.71,-26.09 29.78,-34.059 14.09,-7.969 31.29,-11.961 51.64,-11.961 34.83,0 59.65,7.891 74.47,23.68 14.8,15.781 22.21,46.152 22.21,91.07 v 206.543"
         style="fill:#2d49a3;fill-opacity:1;fill-rule:nonzero;stroke:none"
         id="path132" /><path
         d="m 1294.19,141.172 v 259.277 h 39.55 v -36.867 c 19.04,28.477 46.54,42.727 82.52,42.727 15.62,0 29.99,-2.821 43.1,-8.418 13.09,-5.629 22.9,-12.993 29.41,-22.102 6.5,-9.117 11.06,-19.937 13.67,-32.469 1.62,-8.148 2.44,-22.379 2.44,-42.73 V 141.172 h -43.94 v 157.707 c 0,17.91 -1.71,31.293 -5.13,40.16 -3.42,8.883 -9.48,15.961 -18.19,21.25 -8.7,5.281 -18.92,7.93 -30.64,7.93 -18.72,0 -34.87,-5.949 -48.46,-17.821 -13.59,-11.886 -20.39,-34.429 -20.39,-67.628 V 141.172 h -43.94"
         style="fill:#2d49a3;fill-opacity:1;fill-rule:nonzero;stroke:none"
         id="path134" /><path
         d="m 1572.51,141.172 v 259.277 h 43.95 V 141.172 Z m 0,307.367 v 50.543 h 43.95 v -50.543 h -43.95"
         style="fill:#2d49a3;fill-opacity:1;fill-rule:nonzero;stroke:none"
         id="path136" /><path
         d="m 1712.16,270.809 c 0,-33.2 7.23,-58.071 21.73,-74.579 14.48,-16.519 32.71,-24.789 54.68,-24.789 21.81,0 39.96,8.297 54.45,24.911 14.48,16.597 21.73,41.898 21.73,75.918 0,32.062 -7.29,56.359 -21.86,72.878 -14.56,16.524 -32.68,24.782 -54.32,24.782 -21.97,0 -40.2,-8.219 -54.68,-24.66 -14.5,-16.438 -21.73,-41.258 -21.73,-74.461 z m -45.17,0 c 0,48.011 13.34,83.57 40.04,106.691 22.3,19.199 49.47,28.809 81.54,28.809 35.65,0 64.78,-11.68 87.41,-35.039 22.61,-23.348 33.93,-55.629 33.93,-96.801 0,-33.367 -5.01,-59.61 -15.01,-78.731 -10.02,-19.129 -24.58,-33.976 -43.71,-44.558 -19.12,-10.578 -40,-15.871 -62.62,-15.871 -36.29,0 -65.63,11.632 -88,34.91 -22.39,23.269 -33.58,56.801 -33.58,100.59"
         style="fill:#2d49a3;fill-opacity:1;fill-rule:nonzero;stroke:none"
         id="path138" /><path
         d="m 1961.43,141.172 v 259.277 h 39.55 v -36.867 c 19.04,28.477 46.54,42.727 82.52,42.727 15.62,0 29.99,-2.821 43.09,-8.418 13.1,-5.629 22.9,-12.993 29.42,-22.102 6.5,-9.117 11.06,-19.937 13.67,-32.469 1.62,-8.148 2.44,-22.379 2.44,-42.73 V 141.172 h -43.95 v 157.707 c 0,17.91 -1.71,31.293 -5.12,40.16 -3.42,8.883 -9.49,15.961 -18.2,21.25 -8.7,5.281 -18.91,7.93 -30.63,7.93 -18.72,0 -34.87,-5.949 -48.47,-17.821 -13.58,-11.886 -20.38,-34.429 -20.38,-67.628 V 141.172 h -43.94"
         style="fill:#2d49a3;fill-opacity:1;fill-rule:nonzero;stroke:none"
         id="path140" /><path
         d="m 2411.62,295.711 h 144.78 c -1.96,21.809 -7.49,38.168 -16.61,49.07 -14,16.93 -32.14,25.391 -54.44,25.391 -20.18,0 -37.15,-6.75 -50.91,-20.262 -13.75,-13.519 -21.35,-31.582 -22.82,-54.199 z m 144.29,-71.039 45.41,-5.621 c -7.17,-26.531 -20.43,-47.121 -39.8,-61.77 -19.37,-14.652 -44.11,-21.972 -74.22,-21.972 -37.92,0 -67.99,11.679 -90.2,35.043 -22.23,23.347 -33.33,56.097 -33.33,98.257 0,43.61 11.23,77.473 33.69,101.563 22.46,24.09 51.59,36.137 87.4,36.137 34.67,0 62.99,-11.809 84.96,-35.399 21.98,-23.609 32.96,-56.808 32.96,-99.609 0,-2.61 -0.08,-6.52 -0.24,-11.723 h -193.36 c 1.62,-28.488 9.68,-50.289 24.17,-65.43 14.48,-15.136 32.55,-22.707 54.2,-22.707 16.11,0 29.86,4.231 41.26,12.7 11.39,8.461 20.42,21.968 27.1,40.531"
         style="fill:#2d49a3;fill-opacity:1;fill-rule:nonzero;stroke:none"
         id="path142" /><path
         d="m 2826.42,141.172 v 38.09 c -20.19,-29.301 -47.61,-43.953 -82.28,-43.953 -15.3,0 -29.58,2.929 -42.85,8.793 -13.26,5.859 -23.11,13.218 -29.53,22.089 -6.44,8.879 -10.96,19.739 -13.56,32.598 -1.79,8.621 -2.68,22.293 -2.68,41.012 v 160.648 h 43.94 V 256.648 c 0,-22.949 0.89,-38.418 2.69,-46.386 2.76,-11.563 8.62,-20.633 17.58,-27.211 8.94,-6.61 20.02,-9.903 33.2,-9.903 13.18,0 25.55,3.383 37.11,10.133 11.55,6.758 19.74,15.957 24.53,27.598 4.81,11.633 7.21,28.512 7.21,50.652 v 138.918 h 43.94 V 141.172 h -39.3"
         style="fill:#2d49a3;fill-opacity:1;fill-rule:nonzero;stroke:none"
         id="path144" /><path
         d="m 2934.08,141.172 v 259.277 h 39.55 v -39.308 c 10.09,18.39 19.41,30.519 27.96,36.379 8.54,5.859 17.94,8.789 28.2,8.789 14.8,0 29.86,-4.727 45.16,-14.161 l -15.14,-40.769 c -10.74,6.34 -21.48,9.519 -32.22,9.519 -9.61,0 -18.23,-2.886 -25.88,-8.679 -7.66,-5.77 -13.11,-13.778 -16.36,-24.039 -4.88,-15.621 -7.32,-32.711 -7.32,-51.27 V 141.172 h -43.95"
         style="fill:#2d49a3;fill-opacity:1;fill-rule:nonzero;stroke:none"
         id="path146" /><path
         d="m 3129.88,270.809 c 0,-33.2 7.24,-58.071 21.73,-74.579 14.48,-16.519 32.72,-24.789 54.69,-24.789 21.81,0 39.95,8.297 54.44,24.911 14.48,16.597 21.73,41.898 21.73,75.918 0,32.062 -7.28,56.359 -21.85,72.878 -14.57,16.524 -32.68,24.782 -54.32,24.782 -21.97,0 -40.21,-8.219 -54.69,-24.66 -14.49,-16.438 -21.73,-41.258 -21.73,-74.461 z m -45.16,0 c 0,48.011 13.34,83.57 40.04,106.691 22.29,19.199 49.47,28.809 81.54,28.809 35.64,0 64.77,-11.68 87.4,-35.039 22.62,-23.348 33.94,-55.629 33.94,-96.801 0,-33.367 -5.01,-59.61 -15.01,-78.731 -10.02,-19.129 -24.58,-33.976 -43.71,-44.558 -19.13,-10.578 -40,-15.871 -62.62,-15.871 -36.3,0 -65.64,11.632 -88.01,34.91 -22.38,23.269 -33.57,56.801 -33.57,100.59"
         style="fill:#2d49a3;fill-opacity:1;fill-rule:nonzero;stroke:none"
         id="path148" /><path
         d="m 3418.95,269.34 c 0,-33.371 6.74,-58.02 20.26,-73.969 13.5,-15.961 29.86,-23.93 49.07,-23.93 19.53,0 36.25,8.27 50.18,24.789 13.9,16.508 20.87,42.11 20.87,76.782 0,33.027 -6.8,57.769 -20.38,74.207 -13.6,16.441 -29.84,24.66 -48.72,24.66 -18.72,0 -35.27,-8.75 -49.68,-26.238 -14.4,-17.5 -21.6,-42.942 -21.6,-76.301 z M 3379.15,41.8008 V 400.449 h 40.04 v -33.687 c 9.43,13.179 20.1,23.058 31.98,29.66 11.88,6.59 26.28,9.887 43.21,9.887 22.13,0 41.66,-5.707 58.6,-17.09 16.92,-11.399 29.7,-27.457 38.33,-48.231 8.62,-20.738 12.94,-43.488 12.94,-68.226 0,-26.532 -4.76,-50.422 -14.29,-71.653 -9.51,-21.25 -23.35,-37.519 -41.5,-48.828 -18.15,-11.312 -37.23,-16.972 -57.25,-16.972 -14.65,0 -27.79,3.101 -39.43,9.281 -11.63,6.18 -21.2,13.992 -28.68,23.441 V 41.8008 h -43.95"
         style="fill:#2d49a3;fill-opacity:1;fill-rule:nonzero;stroke:none"
         id="path150" /><path
         d="m 3737.79,432.672 32.47,68.359 h 57.62 l -53.71,-68.359 z m -47.36,-136.961 h 144.78 c -1.96,21.809 -7.5,38.168 -16.61,49.07 -14,16.93 -32.14,25.391 -54.44,25.391 -20.19,0 -37.15,-6.75 -50.91,-20.262 -13.75,-13.519 -21.36,-31.582 -22.82,-54.199 z m 144.29,-71.039 45.41,-5.621 c -7.17,-26.531 -20.43,-47.121 -39.8,-61.77 -19.37,-14.652 -44.11,-21.972 -74.22,-21.972 -37.93,0 -67.99,11.679 -90.2,35.043 -22.23,23.347 -33.33,56.097 -33.33,98.257 0,43.61 11.23,77.473 33.69,101.563 22.46,24.09 51.59,36.137 87.4,36.137 34.67,0 62.99,-11.809 84.96,-35.399 21.98,-23.609 32.96,-56.808 32.96,-99.609 0,-2.61 -0.09,-6.52 -0.24,-11.723 h -193.36 c 1.62,-28.488 9.68,-50.289 24.17,-65.43 14.48,-15.136 32.55,-22.707 54.2,-22.707 16.11,0 29.86,4.231 41.26,12.7 11.38,8.461 20.42,21.968 27.1,40.531"
         style="fill:#2d49a3;fill-opacity:1;fill-rule:nonzero;stroke:none"
         id="path152" /><path
         d="m 3968.51,295.711 h 144.77 c -1.95,21.809 -7.49,38.168 -16.6,49.07 -14,16.93 -32.15,25.391 -54.44,25.391 -20.19,0 -37.15,-6.75 -50.91,-20.262 -13.75,-13.519 -21.36,-31.582 -22.82,-54.199 z m 144.28,-71.039 45.41,-5.621 c -7.16,-26.531 -20.43,-47.121 -39.79,-61.77 -19.38,-14.652 -44.11,-21.972 -74.22,-21.972 -37.93,0 -68,11.679 -90.21,35.043 -22.22,23.347 -33.33,56.097 -33.33,98.257 0,43.61 11.23,77.473 33.7,101.563 22.46,24.09 51.59,36.137 87.4,36.137 34.67,0 62.99,-11.809 84.96,-35.399 21.97,-23.609 32.96,-56.808 32.96,-99.609 0,-2.61 -0.09,-6.52 -0.25,-11.723 h -193.36 c 1.63,-28.488 9.68,-50.289 24.17,-65.43 14.49,-15.136 32.55,-22.707 54.2,-22.707 16.12,0 29.87,4.231 41.26,12.7 11.39,8.461 20.42,21.968 27.1,40.531"
         style="fill:#2d49a3;fill-opacity:1;fill-rule:nonzero;stroke:none"
         id="path154" /><path
         d="m 4213.38,141.172 v 259.277 h 39.55 v -36.867 c 19.04,28.477 46.54,42.727 82.52,42.727 15.62,0 29.99,-2.821 43.09,-8.418 13.1,-5.629 22.91,-12.993 29.42,-22.102 6.5,-9.117 11.06,-19.937 13.67,-32.469 1.62,-8.148 2.44,-22.379 2.44,-42.73 V 141.172 h -43.94 v 157.707 c 0,17.91 -1.71,31.293 -5.13,40.16 -3.42,8.883 -9.48,15.961 -18.19,21.25 -8.7,5.281 -18.92,7.93 -30.64,7.93 -18.72,0 -34.87,-5.949 -48.46,-17.821 -13.59,-11.886 -20.39,-34.429 -20.39,-67.628 V 141.172 h -43.94"
         style="fill:#2d49a3;fill-opacity:1;fill-rule:nonzero;stroke:none"
         id="path156" /><path
         d="m 4491.46,141.172 v 259.277 h 39.55 v -36.867 c 19.04,28.477 46.54,42.727 82.52,42.727 15.62,0 29.99,-2.821 43.09,-8.418 13.1,-5.629 22.9,-12.993 29.42,-22.102 6.5,-9.117 11.06,-19.937 13.67,-32.469 1.62,-8.148 2.44,-22.379 2.44,-42.73 V 141.172 h -43.95 v 157.707 c 0,17.91 -1.71,31.293 -5.12,40.16 -3.42,8.883 -9.49,15.961 -18.2,21.25 -8.7,5.281 -18.91,7.93 -30.63,7.93 -18.72,0 -34.87,-5.949 -48.47,-17.821 -13.58,-11.886 -20.38,-34.429 -20.38,-67.628 V 141.172 h -43.94"
         style="fill:#2d49a3;fill-opacity:1;fill-rule:nonzero;stroke:none"
         id="path158" /><path
         d="m 4802.73,295.711 h 144.78 c -1.95,21.809 -7.49,38.168 -16.6,49.07 -14.01,16.93 -32.15,25.391 -54.45,25.391 -20.18,0 -37.14,-6.75 -50.9,-20.262 -13.75,-13.519 -21.36,-31.582 -22.83,-54.199 z m 144.29,-71.039 45.41,-5.621 c -7.17,-26.531 -20.43,-47.121 -39.79,-61.77 -19.38,-14.652 -44.11,-21.972 -74.22,-21.972 -37.93,0 -68,11.679 -90.21,35.043 -22.22,23.347 -33.33,56.097 -33.33,98.257 0,43.61 11.23,77.473 33.69,101.563 22.47,24.09 51.6,36.137 87.41,36.137 34.66,0 62.98,-11.809 84.96,-35.399 21.97,-23.609 32.96,-56.808 32.96,-99.609 0,-2.61 -0.09,-6.52 -0.25,-11.723 h -193.36 c 1.62,-28.488 9.68,-50.289 24.17,-65.43 14.49,-15.136 32.55,-22.707 54.2,-22.707 16.12,0 29.87,4.231 41.26,12.7 11.39,8.461 20.42,21.968 27.1,40.531"
         style="fill:#2d49a3;fill-opacity:1;fill-rule:nonzero;stroke:none"
         id="path160" /></g></g></svg>
