<?xml version="1.0" encoding="UTF-8" standalone="no"?>
<!-- Created with Inkscape (http://www.inkscape.org/) -->

<svg
   version="1.1"
   id="svg2"
   width="971.65332"
   height="222.60001"
   viewBox="0 0 971.65332 222.60001"
   sodipodi:docname="logosbeneficaireserasmusleft_sl_0.eps"
   xmlns:inkscape="http://www.inkscape.org/namespaces/inkscape"
   xmlns:sodipodi="http://sodipodi.sourceforge.net/DTD/sodipodi-0.dtd"
   xmlns="http://www.w3.org/2000/svg"
   xmlns:svg="http://www.w3.org/2000/svg">
  <defs
     id="defs6" />
  <sodipodi:namedview
     id="namedview4"
     pagecolor="#ffffff"
     bordercolor="#000000"
     borderopacity="0.25"
     inkscape:showpageshadow="2"
     inkscape:pageopacity="0.0"
     inkscape:pagecheckerboard="0"
     inkscape:deskcolor="#d1d1d1" />
  <g
     id="g8"
     inkscape:groupmode="layer"
     inkscape:label="ink_ext_XXXXXX"
     transform="matrix(1.3333333,0,0,-1.3333333,0,222.6)">
    <g
       id="g10"
       transform="scale(0.1)">
      <path
         d="M 7287.44,0 V 1669.52 H 4809.23 V 0 h 2478.21"
         style="fill:#2d49a3;fill-opacity:1;fill-rule:nonzero;stroke:none"
         id="path12" />
      <path
         d="m 6669.71,861.59 -25.86,0.527 -38.24,0.723 -12.52,34.094 -8.11,21.785 -7.97,-21.785 -12.42,-34.094 -38.24,-0.723 -25.84,-0.527 21.09,-15.195 30.14,-21.629 -10.96,-34.133 -7.52,-23.242 20.39,13.457 31.33,20.742 31.7,-20.742 20.14,-13.457 -7.39,23.242 -10.86,34.133 30.04,21.629 21.1,15.195"
         style="fill:#f3f020;fill-opacity:1;fill-rule:nonzero;stroke:none"
         id="path14" />
      <path
         d="m 6669.71,861.59 -25.86,0.527 -38.24,0.723 -12.52,34.094 -8.11,21.785 -7.97,-21.785 -12.42,-34.094 -38.24,-0.723 -25.84,-0.527 21.09,-15.195 30.14,-21.629 -10.96,-34.133 -7.52,-23.242 20.39,13.457 31.33,20.742 31.7,-20.742 20.14,-13.457 -7.39,23.242 -10.86,34.133 30.04,21.629 z"
         style="fill:none;stroke:#f3f020;stroke-width:11.064;stroke-linecap:butt;stroke-linejoin:miter;stroke-miterlimit:4;stroke-dasharray:none;stroke-opacity:1"
         id="path16" />
      <path
         d="m 6479.88,1093.95 -10.84,-34.18 -7.38,-23.18 20.25,13.28 31.47,21.04 31.7,-21.04 20,-13.28 -7.27,23.18 -10.95,34.18 30.03,21.64 21.2,15.2 -25.84,0.47 -38.38,0.6 -12.39,34.18 -8.1,22 -8.01,-22 -12.36,-34.18 -38.26,-0.6 -25.86,-0.47 20.97,-15.2 30.02,-21.64"
         style="fill:#f3f020;fill-opacity:1;fill-rule:nonzero;stroke:none"
         id="path18" />
      <path
         d="m 6479.88,1093.95 -10.84,-34.18 -7.38,-23.18 20.25,13.28 31.47,21.04 31.7,-21.04 20,-13.28 -7.27,23.18 -10.95,34.18 30.03,21.64 21.2,15.2 -25.84,0.47 -38.38,0.6 -12.39,34.18 -8.1,22 -8.01,-22 -12.36,-34.18 -38.26,-0.6 -25.86,-0.47 20.97,-15.2 z"
         style="fill:none;stroke:#f3f020;stroke-width:11.064;stroke-linecap:butt;stroke-linejoin:miter;stroke-miterlimit:4;stroke-dasharray:none;stroke-opacity:1"
         id="path20" />
      <path
         d="m 6339.16,1327.64 -12.52,34.13 -8.1,21.93 -7.97,-21.93 -12.41,-34.13 -38.24,-0.66 -25.99,-0.59 21.21,-15.13 30.15,-21.69 -10.95,-34.14 -7.52,-23.19 20.37,13.24 31.35,20.91 31.58,-20.91 20.27,-13.24 -7.52,23.19 -10.74,34.14 30.04,21.69 21.07,15.13 -25.72,0.59 -38.36,0.66"
         style="fill:#f3f020;fill-opacity:1;fill-rule:nonzero;stroke:none"
         id="path22" />
      <path
         d="m 6339.16,1327.64 -12.52,34.13 -8.1,21.93 -7.97,-21.93 -12.41,-34.13 -38.24,-0.66 -25.99,-0.59 21.21,-15.13 30.15,-21.69 -10.95,-34.14 -7.52,-23.19 20.37,13.24 31.35,20.91 31.58,-20.91 20.27,-13.24 -7.52,23.19 -10.74,34.14 30.04,21.69 21.07,15.13 -25.72,0.59 z"
         style="fill:none;stroke:#f3f020;stroke-width:11.064;stroke-linecap:butt;stroke-linejoin:miter;stroke-miterlimit:4;stroke-dasharray:none;stroke-opacity:1"
         id="path24" />
      <path
         d="m 6066.76,1399.85 -12.52,34.03 -8.13,21.92 -7.85,-21.92 -12.52,-34.03 -38.24,-0.84 -25.98,-0.41 21.21,-15.19 30.04,-21.75 -10.86,-34.2 -7.5,-23.12 20.26,13.23 31.44,20.97 31.7,-20.97 20.14,-13.23 -7.36,23.12 -10.86,34.2 30.04,21.75 20.95,15.19 -25.72,0.41 -38.24,0.84"
         style="fill:#f3f020;fill-opacity:1;fill-rule:nonzero;stroke:none"
         id="path26" />
      <path
         d="m 6066.76,1399.85 -12.52,34.03 -8.13,21.92 -7.85,-21.92 -12.52,-34.03 -38.24,-0.84 -25.98,-0.41 21.21,-15.19 30.04,-21.75 -10.86,-34.2 -7.5,-23.12 20.26,13.23 31.44,20.97 31.7,-20.97 20.14,-13.23 -7.36,23.12 -10.86,34.2 30.04,21.75 20.95,15.19 -25.72,0.41 z"
         style="fill:none;stroke:#f3f020;stroke-width:11.064;stroke-linecap:butt;stroke-linejoin:miter;stroke-miterlimit:4;stroke-dasharray:none;stroke-opacity:1"
         id="path28" />
      <path
         d="m 5796.72,1327.64 -12.52,34.13 -7.85,21.93 -7.99,-21.93 -12.5,-34.13 -38.26,-0.66 -25.98,-0.41 21.09,-15.25 30.16,-21.63 -10.86,-34.14 -7.48,-23.31 20.24,13.47 31.58,20.8 31.35,-20.8 20.25,-13.47 -7.38,23.31 -10.86,34.14 30.04,21.63 21.21,15.25 -25.98,0.41 -38.26,0.66"
         style="fill:#f3f020;fill-opacity:1;fill-rule:nonzero;stroke:none"
         id="path30" />
      <path
         d="m 5796.72,1327.64 -12.52,34.13 -7.85,21.93 -7.99,-21.93 -12.5,-34.13 -38.26,-0.66 -25.98,-0.41 21.09,-15.25 30.16,-21.63 -10.86,-34.14 -7.48,-23.31 20.24,13.47 31.58,20.8 31.35,-20.8 20.25,-13.47 -7.38,23.31 -10.86,34.14 30.04,21.63 21.21,15.25 -25.98,0.41 z"
         style="fill:none;stroke:#f3f020;stroke-width:11.064;stroke-linecap:butt;stroke-linejoin:miter;stroke-miterlimit:4;stroke-dasharray:none;stroke-opacity:1"
         id="path32" />
      <path
         d="m 5600.12,1133.93 -12.31,34.04 -7.97,21.85 -8.08,-21.85 -12.4,-34.04 -38.27,-0.7 -25.86,-0.49 21.1,-15.25 30.04,-21.68 -10.96,-34.08 -7.28,-23.25 20.01,13.34 31.59,20.86 31.58,-20.86 20.14,-13.34 -7.41,23.25 -10.84,34.08 30.16,21.68 20.98,15.25 -25.88,0.49 -38.34,0.7"
         style="fill:#f3f020;fill-opacity:1;fill-rule:nonzero;stroke:none"
         id="path34" />
      <path
         d="m 5600.12,1133.93 -12.31,34.04 -7.97,21.85 -8.08,-21.85 -12.4,-34.04 -38.27,-0.7 -25.86,-0.49 21.1,-15.25 30.04,-21.68 -10.96,-34.08 -7.28,-23.25 20.01,13.34 31.59,20.86 31.58,-20.86 20.14,-13.34 -7.41,23.25 -10.84,34.08 30.16,21.68 20.98,15.25 -25.88,0.49 z"
         style="fill:none;stroke:#f3f020;stroke-width:11.064;stroke-linecap:butt;stroke-linejoin:miter;stroke-miterlimit:4;stroke-dasharray:none;stroke-opacity:1"
         id="path36" />
      <path
         d="m 5537.77,781.336 20.26,-13.457 -7.37,23.351 -10.86,34.083 30.02,21.675 21.1,15.129 -25.84,0.547 -38.26,0.652 -12.5,34.036 -7.99,21.855 -8.01,-21.855 -12.5,-34.036 -38.24,-0.652 -25.86,-0.547 20.96,-15.129 30.15,-21.675 -10.84,-34.083 -7.38,-23.351 20.12,13.457 31.6,20.852 31.44,-20.852"
         style="fill:#f3f020;fill-opacity:1;fill-rule:nonzero;stroke:none"
         id="path38" />
      <path
         d="m 5537.77,781.336 20.26,-13.457 -7.37,23.351 -10.86,34.083 30.02,21.675 21.1,15.129 -25.84,0.547 -38.26,0.652 -12.5,34.036 -7.99,21.855 -8.01,-21.855 -12.5,-34.036 -38.24,-0.652 -25.86,-0.547 20.96,-15.129 30.15,-21.675 -10.84,-34.083 -7.38,-23.351 20.12,13.457 31.6,20.852 z"
         style="fill:none;stroke:#f3f020;stroke-width:11.064;stroke-linecap:butt;stroke-linejoin:miter;stroke-miterlimit:4;stroke-dasharray:none;stroke-opacity:1"
         id="path40" />
      <path
         d="m 5599.26,596.27 -12.5,33.96 -7.87,21.879 -8.11,-21.879 -12.5,-33.96 -38.24,-0.829 -25.86,-0.582 21.07,-15.019 30.04,-21.809 -10.86,-34.09 -7.5,-23.043 20.26,13.161 31.46,20.839 31.58,-20.839 20.14,-13.278 -7.38,23.16 -10.72,34.09 30.02,21.809 20.97,15.019 -25.86,0.582 -38.14,0.829"
         style="fill:#f3f020;fill-opacity:1;fill-rule:nonzero;stroke:none"
         id="path42" />
      <path
         d="m 5599.26,596.27 -12.5,33.96 -7.87,21.879 -8.11,-21.879 -12.5,-33.96 -38.24,-0.829 -25.86,-0.582 21.07,-15.019 30.04,-21.809 -10.86,-34.09 -7.5,-23.043 20.26,13.161 31.46,20.839 31.58,-20.839 20.14,-13.278 -7.38,23.16 -10.72,34.09 30.02,21.809 20.97,15.019 -25.86,0.582 z"
         style="fill:none;stroke:#f3f020;stroke-width:11.064;stroke-linecap:butt;stroke-linejoin:miter;stroke-miterlimit:4;stroke-dasharray:none;stroke-opacity:1"
         id="path44" />
      <path
         d="m 5794.34,400.73 -12.39,34.2 -7.99,21.859 -8.1,-21.859 -12.38,-34.2 -38.38,-0.601 -25.86,-0.59 21.21,-15.141 29.9,-21.687 -10.72,-34.063 -7.5,-23.25 20.12,13.231 31.71,20.922 31.33,-20.922 20.39,-13.231 -7.52,23.25 -10.82,34.063 30.02,21.687 21.21,15.141 -25.97,0.59 -38.26,0.601"
         style="fill:#f3f020;fill-opacity:1;fill-rule:nonzero;stroke:none"
         id="path46" />
      <path
         d="m 5794.34,400.73 -12.39,34.2 -7.99,21.859 -8.1,-21.859 -12.38,-34.2 -38.38,-0.601 -25.86,-0.59 21.21,-15.141 29.9,-21.687 -10.72,-34.063 -7.5,-23.25 20.12,13.231 31.71,20.922 31.33,-20.922 20.39,-13.231 -7.52,23.25 -10.82,34.063 30.02,21.687 21.21,15.141 -25.97,0.59 z"
         style="fill:none;stroke:#f3f020;stroke-width:11.064;stroke-linecap:butt;stroke-linejoin:miter;stroke-miterlimit:4;stroke-dasharray:none;stroke-opacity:1"
         id="path48" />
      <path
         d="m 6066.5,328.582 -12.38,33.898 -8.12,21.989 -7.86,-21.989 -12.51,-33.898 -38.25,-0.781 -25.99,-0.602 21.09,-15.25 30.18,-21.551 -10.98,-34.089 -7.27,-23.297 20.14,13.386 31.45,20.922 31.6,-20.922 20.13,-13.386 -7.26,23.297 -10.98,34.089 30.04,21.551 21.08,15.25 -25.73,0.602 -38.38,0.781"
         style="fill:#f3f020;fill-opacity:1;fill-rule:nonzero;stroke:none"
         id="path50" />
      <path
         d="m 6066.5,328.582 -12.38,33.898 -8.12,21.989 -7.86,-21.989 -12.51,-33.898 -38.25,-0.781 -25.99,-0.602 21.09,-15.25 30.18,-21.551 -10.98,-34.089 -7.27,-23.297 20.14,13.386 31.45,20.922 31.6,-20.922 20.13,-13.386 -7.26,23.297 -10.98,34.089 30.04,21.551 21.08,15.25 -25.73,0.602 z"
         style="fill:none;stroke:#f3f020;stroke-width:11.064;stroke-linecap:butt;stroke-linejoin:miter;stroke-miterlimit:4;stroke-dasharray:none;stroke-opacity:1"
         id="path52" />
      <path
         d="m 6336.66,399.422 -12.52,34.078 -7.99,21.871 -7.99,-21.871 -12.4,-34.078 -38.24,-0.844 -25.98,-0.476 21.23,-15.122 30.02,-21.679 -10.86,-34.102 -7.38,-23.23 20.14,13.242 31.46,20.898 31.58,-20.898 20.02,-13.242 -7.14,23.23 -10.86,34.102 29.9,21.679 21.11,15.122 -25.86,0.476 -38.24,0.844"
         style="fill:#f3f020;fill-opacity:1;fill-rule:nonzero;stroke:none"
         id="path54" />
      <path
         d="m 6336.66,399.422 -12.52,34.078 -7.99,21.871 -7.99,-21.871 -12.4,-34.078 -38.24,-0.844 -25.98,-0.476 21.23,-15.122 30.02,-21.679 -10.86,-34.102 -7.38,-23.23 20.14,13.242 31.46,20.898 31.58,-20.898 20.02,-13.242 -7.14,23.23 -10.86,34.102 29.9,21.679 21.11,15.122 -25.86,0.476 z"
         style="fill:none;stroke:#f3f020;stroke-width:11.064;stroke-linecap:butt;stroke-linejoin:miter;stroke-miterlimit:4;stroke-dasharray:none;stroke-opacity:1"
         id="path56" />
      <path
         d="m 6532.91,593.879 -12.52,34.109 -7.97,21.782 -7.99,-21.782 -12.52,-34.109 -38.26,-0.699 -25.84,-0.489 21.19,-15.25 29.95,-21.621 -10.84,-34.199 -7.29,-23.172 20.04,13.34 31.56,20.852 31.56,-20.852 20.04,-13.34 -7.4,23.172 -10.72,34.199 30.04,21.621 21.09,15.25 -25.88,0.489 -38.24,0.699"
         style="fill:#f3f020;fill-opacity:1;fill-rule:nonzero;stroke:none"
         id="path58" />
      <path
         d="m 6532.91,593.879 -12.52,34.109 -7.97,21.782 -7.99,-21.782 -12.52,-34.109 -38.26,-0.699 -25.84,-0.489 21.19,-15.25 29.95,-21.621 -10.84,-34.199 -7.29,-23.172 20.04,13.34 31.56,20.852 31.56,-20.852 20.04,-13.34 -7.4,23.172 -10.72,34.199 30.04,21.621 21.09,15.25 -25.88,0.489 z"
         style="fill:none;stroke:#f3f020;stroke-width:11.064;stroke-linecap:butt;stroke-linejoin:miter;stroke-miterlimit:4;stroke-dasharray:none;stroke-opacity:1"
         id="path60" />
      <path
         d="m 0,1376.16 44.6758,3.91 c 2.1094,-17.9 7.043,-32.59 14.7773,-44.07 7.7227,-11.47 19.7266,-20.75 36.0078,-27.83 16.2691,-7.08 34.5781,-10.62 54.9301,-10.62 18.066,0 34.011,2.69 47.851,8.06 13.828,5.37 24.129,12.74 30.879,22.09 6.758,9.36 10.137,19.57 10.137,30.65 0,11.23 -3.262,21.03 -9.766,29.41 -6.512,8.38 -17.258,15.42 -32.226,21.12 -9.61,3.75 -30.852,9.57 -63.719,17.46 -32.883,7.89 -55.9103,15.33 -69.0939,22.34 -17.0898,8.95 -29.8242,20.06 -38.2031,33.32 -8.3906,13.26 -12.5781,28.11 -12.5781,44.55 0,18.07 5.125,34.96 15.3789,50.66 10.2539,15.71 25.2265,27.63 44.9219,35.77 19.6875,8.14 41.5863,12.2 65.6753,12.2 26.524,0 49.922,-4.26 70.196,-12.81 20.254,-8.54 35.84,-21.11 46.75,-37.71 10.894,-16.61 16.758,-35.41 17.578,-56.41 l -45.41,-3.42 c -2.446,22.63 -10.703,39.72 -24.778,51.27 -14.082,11.56 -34.882,17.35 -62.382,17.35 -28.653,0 -49.52,-5.26 -62.6176,-15.76 -13.1055,-10.49 -19.6563,-23.15 -19.6563,-37.96 0,-12.87 4.6367,-23.43 13.9141,-31.73 9.1094,-8.3 32.9178,-16.82 71.4058,-25.52 38.497,-8.71 64.903,-16.32 79.231,-22.82 20.828,-9.61 36.211,-21.78 46.141,-36.51 9.921,-14.72 14.89,-31.7 14.89,-50.9 0,-19.04 -5.457,-36.99 -16.355,-53.83 -10.91,-16.85 -26.575,-29.96 -46.992,-39.31 -20.43,-9.36 -43.426,-14.04 -68.973,-14.04 -32.395,0 -59.5353,4.72 -81.4181,14.16 -21.8946,9.44 -39.0625,23.64 -51.5235,42.61 C 7.20703,1330.79 0.644531,1352.23 0,1376.16"
         style="fill:#2d49a3;fill-opacity:1;fill-rule:nonzero;stroke:none"
         id="path62" />
      <path
         d="m 372.805,1390.81 c 0,-33.2 7.234,-58.07 21.726,-74.58 14.485,-16.52 32.715,-24.78 54.688,-24.78 21.804,0 39.953,8.3 54.441,24.91 14.485,16.6 21.731,41.9 21.731,75.91 0,32.07 -7.286,56.36 -21.856,72.88 -14.558,16.52 -32.676,24.78 -54.316,24.78 -21.973,0 -40.203,-8.22 -54.688,-24.65 -14.492,-16.44 -21.726,-41.27 -21.726,-74.47 z m -45.168,0 c 0,48.01 13.34,83.57 40.039,106.7 22.297,19.2 49.472,28.81 81.543,28.81 35.644,0 64.773,-11.68 87.402,-35.04 22.617,-23.36 33.938,-55.63 33.938,-96.8 0,-33.38 -5.012,-59.62 -15.012,-78.74 -10.02,-19.13 -24.578,-33.97 -43.711,-44.56 -19.121,-10.57 -40,-15.86 -62.617,-15.86 -36.297,0 -65.633,11.63 -88.008,34.9 -22.383,23.28 -33.574,56.81 -33.574,100.59"
         style="fill:#2d49a3;fill-opacity:1;fill-rule:nonzero;stroke:none"
         id="path64" />
      <path
         d="m 632.566,1261.18 v 225.1 H 593.75 v 34.18 h 38.816 v 27.58 c 0,17.42 1.543,30.35 4.641,38.82 4.231,11.39 11.68,20.63 22.336,27.71 10.66,7.08 25.594,10.61 44.805,10.61 12.363,0 26.035,-1.46 41.011,-4.39 l -6.589,-38.32 c -9.122,1.62 -17.747,2.44 -25.879,2.44 -13.348,0 -22.793,-2.85 -28.321,-8.55 -5.539,-5.7 -8.3,-16.35 -8.3,-31.98 v -23.92 h 50.539 v -34.18 H 676.27 v -225.1 h -43.704"
         style="fill:#2d49a3;fill-opacity:1;fill-rule:nonzero;stroke:none"
         id="path66" />
      <path
         d="m 761.23,1261.18 v 259.28 h 43.946 v -259.28 z m 0,307.36 v 50.55 h 43.946 v -50.55 H 761.23"
         style="fill:#2d49a3;fill-opacity:1;fill-rule:nonzero;stroke:none"
         id="path68" />
      <path
         d="m 872.07,1261.18 v 259.28 h 39.551 v -36.88 c 19.043,28.49 46.543,42.74 82.52,42.74 15.629,0 29.989,-2.82 43.099,-8.43 13.09,-5.62 22.9,-12.98 29.41,-22.1 6.5,-9.11 11.06,-19.94 13.67,-32.46 1.62,-8.15 2.44,-22.38 2.44,-42.74 v -159.41 h -43.94 v 157.71 c 0,17.9 -1.71,31.29 -5.13,40.16 -3.42,8.87 -9.48,15.95 -18.19,21.24 -8.7,5.28 -18.918,7.94 -30.637,7.94 -18.718,0 -34.875,-5.95 -48.468,-17.83 -13.582,-11.88 -20.379,-34.42 -20.379,-67.62 v -141.6 H 872.07"
         style="fill:#2d49a3;fill-opacity:1;fill-rule:nonzero;stroke:none"
         id="path70" />
      <path
         d="m 1315.67,1391.3 c -15.95,-6.51 -39.88,-12.04 -71.77,-16.6 -18.07,-2.6 -30.85,-5.53 -38.33,-8.79 -7.49,-3.26 -13.28,-8.01 -17.34,-14.28 -4.07,-6.27 -6.1,-13.22 -6.1,-20.88 0,-11.72 4.43,-21.48 13.3,-29.3 8.88,-7.81 21.86,-11.72 38.95,-11.72 16.92,0 31.98,3.72 45.16,11.12 13.18,7.4 22.86,17.54 29.05,30.39 4.72,9.93 7.08,24.58 7.08,43.94 z m 3.67,-98.15 c -16.28,-13.83 -31.95,-23.59 -47,-29.29 -15.05,-5.69 -31.22,-8.54 -48.46,-8.54 -28.49,0 -50.38,6.95 -65.68,20.87 -15.3,13.92 -22.95,31.69 -22.95,53.35 0,12.69 2.89,24.28 8.68,34.78 5.77,10.5 13.34,18.93 22.69,25.28 9.37,6.35 19.9,11.14 31.62,14.39 8.63,2.29 21.64,4.47 39.06,6.6 35.48,4.22 61.61,9.28 78.37,15.14 0.16,6.02 0.25,9.84 0.25,11.47 0,17.91 -4.15,30.52 -12.45,37.85 -11.23,9.92 -27.92,14.88 -50.05,14.88 -20.68,0 -35.93,-3.61 -45.78,-10.86 -9.85,-7.25 -17.13,-20.06 -21.85,-38.46 l -42.97,5.86 c 3.91,18.4 10.33,33.24 19.29,44.56 8.94,11.31 21.88,20.02 38.82,26.13 16.92,6.1 36.53,9.16 58.84,9.16 22.12,0 40.11,-2.62 53.95,-7.82 13.83,-5.21 24,-11.77 30.52,-19.65 6.5,-7.9 11.06,-17.87 13.67,-29.92 1.47,-7.48 2.2,-20.99 2.2,-40.52 v -58.6 c 0,-40.85 0.93,-66.68 2.8,-77.51 1.88,-10.83 5.58,-21.2 11.11,-31.12 h -45.89 c -4.57,9.1 -7.5,19.77 -8.79,31.97"
         style="fill:#2d49a3;fill-opacity:1;fill-rule:nonzero;stroke:none"
         id="path72" />
      <path
         d="m 1428.22,1261.18 v 259.28 h 39.55 v -36.88 c 19.05,28.49 46.55,42.74 82.52,42.74 15.63,0 29.99,-2.82 43.1,-8.43 13.09,-5.62 22.9,-12.98 29.41,-22.1 6.51,-9.11 11.07,-19.94 13.67,-32.46 1.63,-8.15 2.45,-22.38 2.45,-42.74 v -159.41 h -43.95 v 157.71 c 0,17.9 -1.71,31.29 -5.13,40.16 -3.41,8.87 -9.48,15.95 -18.19,21.24 -8.7,5.28 -18.92,7.94 -30.63,7.94 -18.73,0 -34.88,-5.95 -48.47,-17.83 -13.59,-11.88 -20.38,-34.42 -20.38,-67.62 v -141.6 h -43.95"
         style="fill:#2d49a3;fill-opacity:1;fill-rule:nonzero;stroke:none"
         id="path74" />
      <path
         d="m 1875.49,1356.14 43.21,-5.6 c -4.73,-29.79 -16.81,-53.11 -36.26,-69.95 -19.44,-16.85 -43.33,-25.27 -71.65,-25.27 -35.49,0 -64,11.59 -85.58,34.79 -21.56,23.19 -32.34,56.43 -32.34,99.72 0,28 4.64,52.5 13.92,73.5 9.27,20.99 23.4,36.74 42.35,47.23 18.97,10.5 39.59,15.76 61.9,15.76 28.15,0 51.18,-7.13 69.09,-21.37 17.9,-14.24 29.37,-34.47 34.42,-60.66 l -42.72,-6.61 c -4.08,17.43 -11.27,30.53 -21.62,39.32 -10.33,8.79 -22.82,13.18 -37.47,13.18 -22.13,0 -40.12,-7.94 -53.95,-23.8 -13.84,-15.87 -20.75,-40.98 -20.75,-75.32 0,-34.84 6.67,-60.14 20.02,-75.93 13.34,-15.79 30.76,-23.68 52.24,-23.68 17.25,0 31.65,5.28 43.22,15.86 11.55,10.59 18.87,26.86 21.97,48.83"
         style="fill:#2d49a3;fill-opacity:1;fill-rule:nonzero;stroke:none"
         id="path76" />
      <path
         d="m 1956.54,1261.18 v 259.28 h 43.95 v -259.28 z m 0,307.36 v 50.55 h 43.95 v -50.55 h -43.95"
         style="fill:#2d49a3;fill-opacity:1;fill-rule:nonzero;stroke:none"
         id="path78" />
      <path
         d="m 2066.89,1261.18 v 259.28 h 39.56 v -39.32 c 10.08,18.4 19.4,30.53 27.95,36.39 8.54,5.86 17.94,8.79 28.2,8.79 14.8,0 29.86,-4.73 45.16,-14.16 l -15.13,-40.78 c -10.75,6.34 -21.49,9.53 -32.23,9.53 -9.61,0 -18.23,-2.89 -25.88,-8.68 -7.65,-5.78 -13.1,-13.78 -16.36,-24.04 -4.88,-15.62 -7.32,-32.71 -7.32,-51.27 v -135.74 h -43.95"
         style="fill:#2d49a3;fill-opacity:1;fill-rule:nonzero;stroke:none"
         id="path80" />
      <path
         d="m 2399.41,1391.3 c -15.95,-6.51 -39.88,-12.04 -71.77,-16.6 -18.07,-2.6 -30.85,-5.53 -38.33,-8.79 -7.49,-3.26 -13.27,-8.01 -17.34,-14.28 -4.07,-6.27 -6.1,-13.22 -6.1,-20.88 0,-11.72 4.43,-21.48 13.3,-29.3 8.88,-7.81 21.86,-11.72 38.95,-11.72 16.92,0 31.98,3.72 45.16,11.12 13.18,7.4 22.86,17.54 29.05,30.39 4.72,9.93 7.08,24.58 7.08,43.94 z m 3.67,-98.15 c -16.28,-13.83 -31.95,-23.59 -47,-29.29 -15.05,-5.69 -31.22,-8.54 -48.46,-8.54 -28.49,0 -50.38,6.95 -65.68,20.87 -15.3,13.92 -22.95,31.69 -22.95,53.35 0,12.69 2.89,24.28 8.68,34.78 5.77,10.5 13.34,18.93 22.69,25.28 9.37,6.35 19.9,11.14 31.62,14.39 8.63,2.29 21.64,4.47 39.06,6.6 35.48,4.22 61.61,9.28 78.37,15.14 0.16,6.02 0.25,9.84 0.25,11.47 0,17.91 -4.15,30.52 -12.45,37.85 -11.23,9.92 -27.92,14.88 -50.05,14.88 -20.68,0 -35.93,-3.61 -45.78,-10.86 -9.85,-7.25 -17.13,-20.06 -21.85,-38.46 l -42.97,5.86 c 3.91,18.4 10.33,33.24 19.29,44.56 8.94,11.31 21.88,20.02 38.82,26.13 16.92,6.1 36.53,9.16 58.84,9.16 22.12,0 40.11,-2.62 53.95,-7.82 13.83,-5.21 24,-11.77 30.52,-19.65 6.5,-7.9 11.06,-17.87 13.67,-29.92 1.47,-7.48 2.2,-20.99 2.2,-40.52 v -58.6 c 0,-40.85 0.94,-66.68 2.8,-77.51 1.88,-10.83 5.58,-21.2 11.11,-31.12 h -45.89 c -4.57,9.1 -7.49,19.77 -8.79,31.97"
         style="fill:#2d49a3;fill-opacity:1;fill-rule:nonzero;stroke:none"
         id="path82" />
      <path
         d="m 2690.67,1389.34 c 0,-33.36 6.75,-58.02 20.27,-73.96 13.5,-15.96 29.86,-23.93 49.07,-23.93 19.53,0 36.25,8.26 50.18,24.78 13.9,16.51 20.86,42.12 20.86,76.79 0,33.02 -6.79,57.77 -20.38,74.21 -13.59,16.43 -29.83,24.65 -48.71,24.65 -18.72,0 -35.27,-8.75 -49.68,-26.24 -14.4,-17.5 -21.61,-42.93 -21.61,-76.3 z m -39.79,-227.54 v 358.66 h 40.04 v -33.69 c 9.43,13.18 20.1,23.06 31.98,29.66 11.88,6.59 26.28,9.89 43.21,9.89 22.13,0 41.66,-5.71 58.6,-17.09 16.92,-11.41 29.69,-27.47 38.33,-48.23 8.62,-20.75 12.94,-43.49 12.94,-68.24 0,-26.52 -4.76,-50.41 -14.29,-71.65 -9.51,-21.24 -23.35,-37.52 -41.5,-48.83 -18.15,-11.3 -37.23,-16.96 -57.25,-16.96 -14.65,0 -27.79,3.09 -39.43,9.28 -11.63,6.17 -21.21,13.98 -28.69,23.44 V 1161.8 h -43.94"
         style="fill:#2d49a3;fill-opacity:1;fill-rule:nonzero;stroke:none"
         id="path84" />
      <path
         d="m 2928.47,1261.18 v 259.28 h 39.55 v -39.32 c 10.09,18.4 19.4,30.53 27.96,36.39 8.53,5.86 17.94,8.79 28.19,8.79 14.8,0 29.86,-4.73 45.17,-14.16 l -15.14,-40.78 c -10.74,6.34 -21.49,9.53 -32.23,9.53 -9.61,0 -18.23,-2.89 -25.88,-8.68 -7.65,-5.78 -13.1,-13.78 -16.35,-24.04 -4.89,-15.62 -7.33,-32.71 -7.33,-51.27 v -135.74 h -43.94"
         style="fill:#2d49a3;fill-opacity:1;fill-rule:nonzero;stroke:none"
         id="path86" />
      <path
         d="m 3124.27,1390.81 c 0,-33.2 7.23,-58.07 21.73,-74.58 14.48,-16.52 32.71,-24.78 54.68,-24.78 21.81,0 39.95,8.3 54.45,24.91 14.48,16.6 21.73,41.9 21.73,75.91 0,32.07 -7.29,56.36 -21.86,72.88 -14.56,16.52 -32.68,24.78 -54.32,24.78 -21.97,0 -40.2,-8.22 -54.68,-24.65 -14.5,-16.44 -21.73,-41.27 -21.73,-74.47 z m -45.17,0 c 0,48.01 13.34,83.57 40.04,106.7 22.3,19.2 49.47,28.81 81.54,28.81 35.65,0 64.78,-11.68 87.41,-35.04 22.61,-23.36 33.93,-55.63 33.93,-96.8 0,-33.38 -5.01,-59.62 -15.01,-78.74 -10.02,-19.13 -24.58,-33.97 -43.71,-44.56 -19.12,-10.57 -40,-15.86 -62.62,-15.86 -36.3,0 -65.63,11.63 -88,34.9 -22.39,23.28 -33.58,56.81 -33.58,100.59"
         style="fill:#2d49a3;fill-opacity:1;fill-rule:nonzero;stroke:none"
         id="path88" />
      <path
         d="m 3401.86,1395.46 c 0,-34.03 6.74,-58.85 20.26,-74.48 13.51,-15.62 30.43,-23.43 50.78,-23.43 20.18,0 37.11,7.77 50.78,23.32 13.67,15.54 20.51,39.92 20.51,73.12 0,31.74 -7.04,55.67 -21.11,71.78 -14.09,16.11 -31.06,24.16 -50.91,24.16 -19.53,0 -36.13,-7.93 -49.81,-23.8 -13.67,-15.87 -20.5,-39.42 -20.5,-70.67 z m -36.38,-155.76 42.72,-6.35 c 1.79,-13.19 6.75,-22.8 14.9,-28.81 10.89,-8.15 25.79,-12.21 44.67,-12.21 20.35,0 36.05,4.06 47.12,12.21 11.07,8.14 18.56,19.53 22.46,34.18 2.28,8.94 3.33,27.74 3.18,56.39 -19.21,-22.62 -43.14,-33.93 -71.78,-33.93 -35.64,0 -63.23,12.85 -82.76,38.57 -19.53,25.71 -29.3,56.56 -29.3,92.52 0,24.75 4.47,47.57 13.43,68.49 8.94,20.91 21.93,37.06 38.93,48.47 17.01,11.38 36.99,17.09 59.94,17.09 30.6,0 55.82,-12.39 75.69,-37.11 v 31.25 h 40.53 v -224.12 c 0,-40.38 -4.12,-68.98 -12.33,-85.82 -8.22,-16.85 -21.25,-30.16 -39.06,-39.93 -17.83,-9.76 -39.77,-14.64 -65.8,-14.64 -30.93,0 -55.91,6.96 -74.95,20.87 -19.05,13.92 -28.25,34.88 -27.59,62.88"
         style="fill:#2d49a3;fill-opacity:1;fill-rule:nonzero;stroke:none"
         id="path90" />
      <path
         d="m 3651.12,1261.18 v 259.28 h 39.55 v -39.32 c 10.09,18.4 19.41,30.53 27.96,36.39 8.54,5.86 17.94,8.79 28.2,8.79 14.8,0 29.86,-4.73 45.16,-14.16 l -15.13,-40.78 c -10.75,6.34 -21.49,9.53 -32.23,9.53 -9.61,0 -18.23,-2.89 -25.88,-8.68 -7.66,-5.78 -13.11,-13.78 -16.36,-24.04 -4.88,-15.62 -7.32,-32.71 -7.32,-51.27 v -135.74 h -43.95"
         style="fill:#2d49a3;fill-opacity:1;fill-rule:nonzero;stroke:none"
         id="path92" />
      <path
         d="m 3983.64,1391.3 c -15.95,-6.51 -39.88,-12.04 -71.77,-16.6 -18.07,-2.6 -30.85,-5.53 -38.33,-8.79 -7.5,-3.26 -13.28,-8.01 -17.34,-14.28 -4.07,-6.27 -6.1,-13.22 -6.1,-20.88 0,-11.72 4.43,-21.48 13.3,-29.3 8.88,-7.81 21.85,-11.72 38.94,-11.72 16.93,0 31.99,3.72 45.17,11.12 13.18,7.4 22.86,17.54 29.05,30.39 4.72,9.93 7.08,24.58 7.08,43.94 z m 3.66,-98.15 c -16.27,-13.83 -31.94,-23.59 -46.99,-29.29 -15.06,-5.69 -31.22,-8.54 -48.46,-8.54 -28.49,0 -50.39,6.95 -65.68,20.87 -15.3,13.92 -22.95,31.69 -22.95,53.35 0,12.69 2.89,24.28 8.67,34.78 5.78,10.5 13.34,18.93 22.7,25.28 9.37,6.35 19.9,11.14 31.62,14.39 8.62,2.29 21.64,4.47 39.06,6.6 35.48,4.22 61.61,9.28 78.37,15.14 0.16,6.02 0.25,9.84 0.25,11.47 0,17.91 -4.15,30.52 -12.45,37.85 -11.23,9.92 -27.92,14.88 -50.05,14.88 -20.68,0 -35.93,-3.61 -45.78,-10.86 -9.85,-7.25 -17.13,-20.06 -21.85,-38.46 l -42.97,5.86 c 3.91,18.4 10.33,33.24 19.29,44.56 8.94,11.31 21.88,20.02 38.82,26.13 16.92,6.1 36.53,9.16 58.83,9.16 22.13,0 40.12,-2.62 53.96,-7.82 13.83,-5.21 24,-11.77 30.52,-19.65 6.5,-7.9 11.06,-17.87 13.67,-29.92 1.46,-7.48 2.2,-20.99 2.2,-40.52 v -58.6 c 0,-40.85 0.93,-66.68 2.8,-77.51 1.87,-10.83 5.58,-21.2 11.11,-31.12 h -45.9 c -4.56,9.1 -7.49,19.77 -8.79,31.97"
         style="fill:#2d49a3;fill-opacity:1;fill-rule:nonzero;stroke:none"
         id="path94" />
      <path
         d="m 4096.19,1261.18 v 259.28 h 39.31 v -36.39 c 8.13,12.7 18.95,22.91 32.47,30.64 13.5,7.74 28.89,11.61 46.14,11.61 19.2,0 34.95,-4 47.25,-11.98 12.28,-7.96 20.94,-19.12 25.99,-33.43 20.51,30.27 47.2,45.41 80.08,45.41 25.71,0 45.49,-7.13 59.33,-21.37 13.83,-14.24 20.75,-36.17 20.75,-65.8 v -177.97 h -43.7 v 163.32 c 0,17.58 -1.43,30.23 -4.27,37.97 -2.85,7.73 -8.03,13.96 -15.51,18.67 -7.49,4.73 -16.28,7.09 -26.36,7.09 -18.24,0 -33.37,-6.07 -45.41,-18.19 -12.05,-12.13 -18.07,-31.54 -18.07,-58.24 v -150.62 h -43.95 v 168.46 c 0,19.53 -3.58,34.18 -10.74,43.94 -7.17,9.77 -18.88,14.65 -35.15,14.65 -12.38,0 -23.81,-3.26 -34.3,-9.77 -10.51,-6.52 -18.12,-16.03 -22.83,-28.57 -4.73,-12.53 -7.08,-30.59 -7.08,-54.2 v -134.51 h -43.95"
         style="fill:#2d49a3;fill-opacity:1;fill-rule:nonzero;stroke:none"
         id="path96" />
      <path
         d="m 1239.75,701.172 v 357.908 h 258.79 v -42.24 H 1287.11 V 907.227 h 198 v -41.993 h -198 V 743.406 h 219.73 v -42.234 h -267.09"
         style="fill:#2d49a3;fill-opacity:1;fill-rule:nonzero;stroke:none"
         id="path98" />
      <path
         d="m 1638.67,701.172 -98.63,259.273 h 46.39 l 55.66,-155.269 c 6.02,-16.77 11.55,-34.184 16.6,-52.246 3.91,13.672 9.36,30.105 16.36,49.312 l 57.62,158.203 h 45.16 l -98.14,-259.273 h -41.02"
         style="fill:#2d49a3;fill-opacity:1;fill-rule:nonzero;stroke:none"
         id="path100" />
      <path
         d="m 1816.16,701.172 v 259.273 h 39.55 v -39.304 c 10.09,18.386 19.41,30.515 27.96,36.379 8.54,5.859 17.94,8.789 28.2,8.789 14.8,0 29.86,-4.719 45.16,-14.161 l -15.14,-40.773 c -10.74,6.348 -21.48,9.523 -32.22,9.523 -9.61,0 -18.23,-2.89 -25.88,-8.664 -7.66,-5.781 -13.11,-13.796 -16.36,-24.05 -4.88,-15.625 -7.32,-32.715 -7.32,-51.274 V 701.172 h -43.95"
         style="fill:#2d49a3;fill-opacity:1;fill-rule:nonzero;stroke:none"
         id="path102" />
      <path
         d="m 2011.96,830.809 c 0,-33.204 7.24,-58.067 21.73,-74.579 14.48,-16.527 32.72,-24.789 54.69,-24.789 21.81,0 39.95,8.301 54.44,24.907 14.48,16.597 21.73,41.902 21.73,75.925 0,32.063 -7.28,56.348 -21.85,72.872 -14.57,16.523 -32.68,24.785 -54.32,24.785 -21.97,0 -40.21,-8.223 -54.69,-24.657 -14.49,-16.437 -21.73,-41.261 -21.73,-74.464 z m -45.16,0 c 0,48.007 13.34,83.574 40.04,106.687 22.29,19.211 49.47,28.813 81.54,28.813 35.64,0 64.77,-11.68 87.4,-35.032 22.62,-23.359 33.94,-55.625 33.94,-96.804 0,-33.371 -5.01,-59.614 -15.01,-78.735 -10.02,-19.129 -24.58,-33.98 -43.71,-44.558 -19.12,-10.575 -40,-15.867 -62.62,-15.867 -36.3,0 -65.64,11.628 -88.01,34.91 -22.38,23.269 -33.57,56.797 -33.57,100.586"
         style="fill:#2d49a3;fill-opacity:1;fill-rule:nonzero;stroke:none"
         id="path104" />
      <path
         d="m 2301.03,829.344 c 0,-33.367 6.74,-58.028 20.26,-73.977 13.5,-15.957 29.86,-23.926 49.07,-23.926 19.53,0 36.25,8.262 50.18,24.789 13.9,16.512 20.87,42.11 20.87,76.778 0,33.035 -6.8,57.781 -20.38,74.219 -13.6,16.433 -29.84,24.656 -48.72,24.656 -18.72,0 -35.27,-8.75 -49.68,-26.25 -14.4,-17.5 -21.6,-42.93 -21.6,-76.289 z m -39.8,-227.543 v 358.644 h 40.04 v -33.687 c 9.43,13.183 20.1,23.074 31.98,29.656 11.88,6.602 26.28,9.895 43.21,9.895 22.13,0 41.67,-5.696 58.6,-17.09 16.92,-11.399 29.7,-27.473 38.33,-48.215 8.62,-20.762 12.94,-43.508 12.94,-68.242 0,-26.532 -4.76,-50.418 -14.29,-71.653 -9.51,-21.25 -23.35,-37.515 -41.5,-48.828 -18.15,-11.316 -37.23,-16.968 -57.25,-16.968 -14.65,0 -27.79,3.093 -39.43,9.277 -11.63,6.18 -21.2,13.992 -28.68,23.433 V 601.801 h -43.95"
         style="fill:#2d49a3;fill-opacity:1;fill-rule:nonzero;stroke:none"
         id="path106" />
      <path
         d="m 2521.73,778.563 43.46,6.835 c 2.44,-17.421 9.23,-30.761 20.38,-40.039 11.15,-9.277 26.73,-13.918 46.75,-13.918 20.18,0 35.16,4.114 44.93,12.329 9.76,8.218 14.64,17.859 14.64,28.933 0,9.922 -4.31,17.735 -12.93,23.438 -6.03,3.906 -21,8.867 -44.93,14.89 -32.22,8.137 -54.56,15.18 -67.02,21.125 -12.44,5.938 -21.88,14.16 -28.32,24.649 -6.42,10.508 -9.64,22.097 -9.64,34.797 0,11.55 2.65,22.253 7.94,32.097 5.29,9.844 12.48,18.028 21.6,24.539 6.84,5.051 16.16,9.321 27.95,12.825 11.81,3.496 24.46,5.246 37.97,5.246 20.34,0 38.2,-2.93 53.6,-8.789 15.37,-5.864 26.72,-13.801 34.05,-23.801 7.32,-10.02 12.36,-23.399 15.13,-40.164 l -42.96,-5.864 c -1.96,13.352 -7.61,23.762 -16.97,31.25 -9.36,7.493 -22.58,11.235 -39.67,11.235 -20.19,0 -34.59,-3.34 -43.22,-10.012 -8.63,-6.68 -12.94,-14.492 -12.94,-23.437 0,-5.704 1.79,-10.821 5.37,-15.379 3.58,-4.719 9.19,-8.625 16.85,-11.719 4.39,-1.633 17.33,-5.371 38.82,-11.231 31.08,-8.3 52.77,-15.097 65.07,-20.382 12.28,-5.293 21.92,-12.989 28.92,-23.075 6.99,-10.097 10.5,-22.628 10.5,-37.597 0,-14.653 -4.27,-28.442 -12.82,-41.391 -8.54,-12.93 -20.87,-22.945 -36.98,-30.015 -16.12,-7.09 -34.35,-10.625 -54.69,-10.625 -33.69,0 -59.37,6.992 -77.02,20.996 -17.67,13.992 -28.94,34.746 -33.82,62.254"
         style="fill:#2d49a3;fill-opacity:1;fill-rule:nonzero;stroke:none"
         id="path108" />
      <path
         d="m 2789.55,701.172 v 357.908 h 43.95 v -204.1 l 104,105.465 h 56.88 l -99.12,-96.187 109.13,-163.086 h -54.19 l -85.7,132.566 -31,-29.785 V 701.172 h -43.95"
         style="fill:#2d49a3;fill-opacity:1;fill-rule:nonzero;stroke:none"
         id="path110" />
      <path
         d="m 3072.51,855.711 h 144.78 c -1.96,21.809 -7.5,38.164 -16.61,49.07 -14,16.926 -32.14,25.395 -54.44,25.395 -20.19,0 -37.15,-6.758 -50.91,-20.266 -13.75,-13.515 -21.36,-31.582 -22.82,-54.199 z m 144.29,-71.043 45.41,-5.617 c -7.17,-26.531 -20.43,-47.117 -39.8,-61.77 -19.37,-14.644 -44.11,-21.968 -74.22,-21.968 -37.93,0 -67.99,11.675 -90.2,35.039 -22.23,23.347 -33.33,56.101 -33.33,98.257 0,43.625 11.23,77.473 33.69,101.567 22.46,24.09 51.59,36.133 87.4,36.133 34.67,0 62.99,-11.809 84.96,-35.403 21.98,-23.601 32.96,-56.804 32.96,-99.609 0,-2.606 -0.09,-6.516 -0.24,-11.719 h -193.36 c 1.62,-28.484 9.68,-50.293 24.17,-65.43 14.48,-15.136 32.55,-22.707 54.2,-22.707 16.11,0 29.86,4.231 41.26,12.7 11.38,8.457 20.42,21.968 27.1,40.527"
         style="fill:#2d49a3;fill-opacity:1;fill-rule:nonzero;stroke:none"
         id="path112" />
      <path
         d="m 3626.22,701.172 v 38.086 c -20.18,-29.297 -47.61,-43.945 -82.27,-43.945 -15.31,0 -29.58,2.925 -42.86,8.789 -13.26,5.859 -23.1,13.218 -29.53,22.089 -6.43,8.875 -10.95,19.735 -13.55,32.594 -1.8,8.625 -2.69,22.297 -2.69,41.02 v 160.64 h 43.95 V 816.648 c 0,-22.949 0.89,-38.418 2.68,-46.386 2.77,-11.563 8.63,-20.633 17.58,-27.215 8.95,-6.606 20.02,-9.895 33.2,-9.895 13.19,0 25.55,3.379 37.11,10.125 11.56,6.758 19.74,15.957 24.54,27.602 4.8,11.629 7.2,28.516 7.2,50.652 v 138.914 h 43.95 V 701.172 h -39.31"
         style="fill:#2d49a3;fill-opacity:1;fill-rule:nonzero;stroke:none"
         id="path114" />
      <path
         d="m 3734.38,701.172 v 259.273 h 39.55 v -36.863 c 19.04,28.477 46.54,42.727 82.52,42.727 15.62,0 29.99,-2.805 43.09,-8.43 13.1,-5.606 22.9,-12.981 29.42,-22.09 6.5,-9.121 11.06,-19.941 13.67,-32.473 1.62,-8.132 2.44,-22.378 2.44,-42.722 V 701.172 h -43.95 v 157.715 c 0,17.898 -1.71,31.289 -5.12,40.164 -3.42,8.867 -9.49,15.937 -18.2,21.23 -8.7,5.293 -18.91,7.942 -30.63,7.942 -18.72,0 -34.88,-5.95 -48.47,-17.825 -13.58,-11.882 -20.38,-34.421 -20.38,-67.625 V 701.172 h -43.94"
         style="fill:#2d49a3;fill-opacity:1;fill-rule:nonzero;stroke:none"
         id="path116" />
      <path
         d="m 4012.7,701.172 v 259.273 h 43.94 V 701.172 Z m 0,307.368 v 50.54 h 43.94 v -50.54 h -43.94"
         style="fill:#2d49a3;fill-opacity:1;fill-rule:nonzero;stroke:none"
         id="path118" />
      <path
         d="m 4123.29,1008.05 v 51.03 h 43.95 v -51.03 z m -55.66,-407.468 8.3,37.359 c 8.79,-2.281 15.7,-3.421 20.75,-3.421 8.95,0 15.62,2.968 20.02,8.921 4.39,5.93 6.59,20.789 6.59,44.543 v 272.461 h 43.95 V 687.012 c 0,-31.891 -4.15,-54.114 -12.45,-66.653 -10.59,-16.269 -28.17,-24.41 -52.74,-24.41 -11.87,0 -23.35,1.551 -34.42,4.633"
         style="fill:#2d49a3;fill-opacity:1;fill-rule:nonzero;stroke:none"
         id="path120" />
      <path
         d="m 4267.82,855.711 h 144.78 c -1.96,21.809 -7.49,38.164 -16.6,49.07 -14.01,16.926 -32.15,25.395 -54.45,25.395 -20.18,0 -37.15,-6.758 -50.91,-20.266 -13.75,-13.515 -21.35,-31.582 -22.82,-54.199 z m 144.29,-71.043 45.41,-5.617 c -7.17,-26.531 -20.43,-47.117 -39.8,-61.77 -19.37,-14.644 -44.11,-21.968 -74.21,-21.968 -37.93,0 -68,11.675 -90.21,35.039 -22.23,23.347 -33.33,56.101 -33.33,98.257 0,43.625 11.23,77.473 33.69,101.567 22.46,24.09 51.59,36.133 87.4,36.133 34.67,0 62.99,-11.809 84.97,-35.403 21.97,-23.601 32.95,-56.804 32.95,-99.609 0,-2.606 -0.08,-6.516 -0.24,-11.719 h -193.36 c 1.62,-28.484 9.68,-50.293 24.17,-65.43 14.48,-15.136 32.55,-22.707 54.2,-22.707 16.11,0 29.86,4.231 41.26,12.7 11.39,8.457 20.42,21.968 27.1,40.527"
         style="fill:#2d49a3;fill-opacity:1;fill-rule:nonzero;stroke:none"
         id="path122" />
      <path
         d="m 2254.64,141.172 v 357.91 h 258.79 V 456.84 H 2302 V 347.219 h 198 V 305.23 H 2302 V 183.41 h 219.73 v -42.238 h -267.09"
         style="fill:#2d49a3;fill-opacity:1;fill-rule:nonzero;stroke:none"
         id="path124" />
      <path
         d="m 2581.05,141.172 v 259.277 h 39.56 v -39.308 c 10.08,18.39 19.4,30.519 27.95,36.379 8.54,5.859 17.94,8.789 28.2,8.789 14.8,0 29.86,-4.727 45.16,-14.161 l -15.13,-40.769 c -10.75,6.34 -21.49,9.519 -32.23,9.519 -9.61,0 -18.23,-2.886 -25.88,-8.679 -7.65,-5.77 -13.1,-13.778 -16.36,-24.039 -4.88,-15.621 -7.32,-32.711 -7.32,-51.27 V 141.172 h -43.95"
         style="fill:#2d49a3;fill-opacity:1;fill-rule:nonzero;stroke:none"
         id="path126" />
      <path
         d="m 2913.57,271.301 c -15.95,-6.52 -39.88,-12.051 -71.77,-16.602 -18.07,-2.609 -30.85,-5.539 -38.33,-8.789 -7.49,-3.269 -13.27,-8.019 -17.34,-14.289 -4.07,-6.262 -6.1,-13.223 -6.1,-20.871 0,-11.719 4.43,-21.48 13.3,-29.301 8.88,-7.808 21.86,-11.719 38.95,-11.719 16.92,0 31.98,3.711 45.16,11.11 13.19,7.41 22.86,17.539 29.05,30.398 4.72,9.922 7.08,24.571 7.08,43.942 z m 3.67,-98.153 c -16.28,-13.839 -31.95,-23.597 -47,-29.289 -15.05,-5.699 -31.22,-8.55 -48.46,-8.55 -28.49,0 -50.38,6.953 -65.68,20.882 -15.3,13.911 -22.95,31.688 -22.95,53.34 0,12.688 2.89,24.301 8.68,34.778 5.77,10.511 13.34,18.929 22.69,25.281 9.37,6.351 19.9,11.14 31.62,14.398 8.63,2.282 21.64,4.481 39.07,6.594 35.47,4.227 61.6,9.277 78.36,15.137 0.16,6.019 0.25,9.84 0.25,11.48 0,17.903 -4.15,30.512 -12.45,37.84 -11.23,9.922 -27.92,14.891 -50.05,14.891 -20.68,0 -35.93,-3.621 -45.78,-10.871 -9.85,-7.239 -17.13,-20.059 -21.85,-38.45 l -42.97,5.86 c 3.91,18.39 10.33,33.25 19.29,44.562 8.95,11.309 21.88,20.02 38.82,26.117 16.92,6.114 36.53,9.161 58.84,9.161 22.12,0 40.11,-2.61 53.95,-7.821 13.83,-5.207 24.01,-11.75 30.52,-19.636 6.5,-7.903 11.06,-17.883 13.67,-29.922 1.47,-7.489 2.2,-20.989 2.2,-40.52 v -58.601 c 0,-40.86 0.94,-66.688 2.8,-77.508 1.88,-10.832 5.58,-21.211 11.11,-31.129 h -45.89 c -4.57,9.109 -7.49,19.777 -8.79,31.976"
         style="fill:#2d49a3;fill-opacity:1;fill-rule:nonzero;stroke:none"
         id="path128" />
      <path
         d="m 3008.54,218.559 43.46,6.839 c 2.44,-17.418 9.24,-30.757 20.38,-40.039 11.16,-9.277 26.74,-13.918 46.76,-13.918 20.18,0 35.16,4.11 44.92,12.329 9.77,8.218 14.65,17.859 14.65,28.929 0,9.93 -4.32,17.742 -12.94,23.442 -6.02,3.91 -20.99,8.871 -44.92,14.89 -32.23,8.141 -54.56,15.18 -67.02,21.117 -12.44,5.942 -21.89,14.161 -28.32,24.661 -6.43,10.492 -9.64,22.089 -9.64,34.793 0,11.546 2.65,22.257 7.94,32.109 5.28,9.84 12.48,18.019 21.6,24.527 6.84,5.043 16.15,9.321 27.95,12.813 11.81,3.508 24.45,5.258 37.97,5.258 20.34,0 38.2,-2.93 53.59,-8.789 15.37,-5.86 26.73,-13.79 34.05,-23.809 7.33,-10 12.37,-23.402 15.14,-40.16 l -42.97,-5.86 c -1.95,13.34 -7.6,23.758 -16.96,31.25 -9.37,7.481 -22.59,11.231 -39.68,11.231 -20.18,0 -34.59,-3.34 -43.21,-10.012 -8.63,-6.68 -12.94,-14.488 -12.94,-23.43 0,-5.71 1.79,-10.832 5.37,-15.378 3.57,-4.731 9.19,-8.641 16.85,-11.723 4.39,-1.629 17.33,-5.367 38.81,-11.231 31.09,-8.296 52.78,-15.097 65.07,-20.386 12.29,-5.293 21.93,-12.981 28.93,-23.071 6.99,-10.101 10.5,-22.632 10.5,-37.601 0,-14.649 -4.27,-28.442 -12.83,-41.379 -8.53,-12.93 -20.86,-22.949 -36.98,-30.02 -16.11,-7.089 -34.34,-10.632 -54.69,-10.632 -33.69,0 -59.36,6.992 -77.02,21 -17.66,13.992 -28.93,34.742 -33.82,62.25"
         style="fill:#2d49a3;fill-opacity:1;fill-rule:nonzero;stroke:none"
         id="path130" />
      <path
         d="m 3276.12,141.172 v 259.277 h 39.31 V 364.07 c 8.13,12.7 18.95,22.91 32.47,30.641 13.51,7.73 28.89,11.598 46.14,11.598 19.2,0 34.95,-4 47.25,-11.969 12.28,-7.969 20.95,-19.129 26,-33.442 20.5,30.274 47.19,45.411 80.07,45.411 25.72,0 45.49,-7.118 59.33,-21.368 13.83,-14.242 20.75,-36.171 20.75,-65.793 V 141.172 h -43.7 V 304.5 c 0,17.578 -1.43,30.23 -4.27,37.961 -2.85,7.73 -8.02,13.949 -15.51,18.68 -7.49,4.718 -16.27,7.078 -26.36,7.078 -18.23,0 -33.37,-6.059 -45.41,-18.18 -12.05,-12.129 -18.07,-31.551 -18.07,-58.238 V 141.172 h -43.94 v 168.457 c 0,19.531 -3.59,34.18 -10.75,43.941 -7.16,9.77 -18.88,14.649 -35.15,14.649 -12.38,0 -23.81,-3.258 -34.3,-9.758 -10.51,-6.52 -18.11,-16.039 -22.83,-28.57 -4.73,-12.539 -7.08,-30.602 -7.08,-54.2 V 141.172 h -43.95"
         style="fill:#2d49a3;fill-opacity:1;fill-rule:nonzero;stroke:none"
         id="path132" />
      <path
         d="m 3862.55,141.172 v 38.09 c -20.19,-29.301 -47.61,-43.953 -82.28,-43.953 -15.3,0 -29.58,2.929 -42.85,8.793 -13.26,5.859 -23.1,13.218 -29.53,22.089 -6.43,8.879 -10.96,19.739 -13.55,32.598 -1.8,8.621 -2.69,22.293 -2.69,41.012 v 160.648 h 43.95 V 256.648 c 0,-22.949 0.88,-38.418 2.68,-46.386 2.76,-11.563 8.62,-20.633 17.58,-27.211 8.94,-6.61 20.02,-9.903 33.2,-9.903 13.19,0 25.55,3.383 37.11,10.133 11.55,6.758 19.74,15.957 24.53,27.598 4.81,11.633 7.21,28.512 7.21,50.652 v 138.918 h 43.95 V 141.172 h -39.31"
         style="fill:#2d49a3;fill-opacity:1;fill-rule:nonzero;stroke:none"
         id="path134" />
      <path
         d="m 3953.13,218.559 43.45,6.839 c 2.44,-17.418 9.24,-30.757 20.38,-40.039 11.16,-9.277 26.74,-13.918 46.76,-13.918 20.18,0 35.16,4.11 44.92,12.329 9.77,8.218 14.65,17.859 14.65,28.929 0,9.93 -4.32,17.742 -12.94,23.442 -6.02,3.91 -20.99,8.871 -44.92,14.89 -32.23,8.141 -54.56,15.18 -67.02,21.117 -12.44,5.942 -21.89,14.161 -28.32,24.661 -6.43,10.492 -9.64,22.089 -9.64,34.793 0,11.546 2.65,22.257 7.94,32.109 5.28,9.84 12.48,18.019 21.6,24.527 6.84,5.043 16.15,9.321 27.95,12.813 11.81,3.508 24.45,5.258 37.97,5.258 20.34,0 38.2,-2.93 53.59,-8.789 15.37,-5.86 26.73,-13.79 34.05,-23.809 7.33,-10 12.37,-23.402 15.14,-40.16 l -42.97,-5.86 c -1.95,13.34 -7.6,23.758 -16.96,31.25 -9.37,7.481 -22.59,11.231 -39.68,11.231 -20.18,0 -34.59,-3.34 -43.21,-10.012 -8.63,-6.68 -12.94,-14.488 -12.94,-23.43 0,-5.71 1.79,-10.832 5.37,-15.378 3.58,-4.731 9.19,-8.641 16.85,-11.723 4.39,-1.629 17.33,-5.367 38.81,-11.231 31.09,-8.296 52.78,-15.097 65.07,-20.386 12.29,-5.293 21.93,-12.981 28.93,-23.071 6.99,-10.101 10.5,-22.632 10.5,-37.601 0,-14.649 -4.27,-28.442 -12.83,-41.379 -8.53,-12.93 -20.86,-22.949 -36.98,-30.02 -16.11,-7.089 -34.34,-10.632 -54.69,-10.632 -33.69,0 -59.36,6.992 -77.02,21 -17.66,13.992 -28.93,34.742 -33.81,62.25"
         style="fill:#2d49a3;fill-opacity:1;fill-rule:nonzero;stroke:none"
         id="path136" />
      <path
         d="m 4312.99,199.031 v 98.149 h -97.41 v 41.011 h 97.41 v 97.411 h 41.5 v -97.411 h 97.41 V 297.18 h -97.41 v -98.149 h -41.5"
         style="fill:#2d49a3;fill-opacity:1;fill-rule:nonzero;stroke:none"
         id="path138" />
    </g>
  </g>
</svg>
