<?xml version="1.0" encoding="UTF-8" standalone="no"?>
<!-- Created with Inkscape (http://www.inkscape.org/) -->

<svg
   version="1.1"
   id="svg2"
   xml:space="preserve"
   width="1097.1733"
   height="222.60001"
   viewBox="0 0 1097.1733 222.60001"
   sodipodi:docname="logosbeneficaireserasmusleft_hu_0.eps"
   xmlns:inkscape="http://www.inkscape.org/namespaces/inkscape"
   xmlns:sodipodi="http://sodipodi.sourceforge.net/DTD/sodipodi-0.dtd"
   xmlns="http://www.w3.org/2000/svg"
   xmlns:svg="http://www.w3.org/2000/svg"><defs
     id="defs6" /><sodipodi:namedview
     id="namedview4"
     pagecolor="#ffffff"
     bordercolor="#666666"
     borderopacity="1.0"
     inkscape:pageshadow="2"
     inkscape:pageopacity="0.0"
     inkscape:pagecheckerboard="0" /><g
     id="g8"
     inkscape:groupmode="layer"
     inkscape:label="ink_ext_XXXXXX"
     transform="matrix(1.3333333,0,0,-1.3333333,0,222.6)"><g
       id="g10"
       transform="scale(0.1)"><path
         d="M 8228.85,0 V 1669.52 H 5750.63 V 0 h 2478.22"
         style="fill:#2d49a3;fill-opacity:1;fill-rule:nonzero;stroke:none"
         id="path12" /><path
         d="m 7611.11,861.59 -25.86,0.527 -38.24,0.723 -12.52,34.094 -8.1,21.785 -7.97,-21.785 -12.42,-34.094 -38.25,-0.723 -25.84,-0.527 21.1,-15.195 30.13,-21.629 -10.95,-34.133 -7.52,-23.242 20.39,13.457 31.33,20.742 31.7,-20.742 20.13,-13.457 -7.38,23.242 -10.86,34.133 30.04,21.629 21.09,15.195"
         style="fill:#f3f020;fill-opacity:1;fill-rule:nonzero;stroke:none"
         id="path14" /><path
         d="m 7611.11,861.59 -25.86,0.527 -38.24,0.723 -12.52,34.094 -8.1,21.785 -7.97,-21.785 -12.42,-34.094 -38.25,-0.723 -25.84,-0.527 21.1,-15.195 30.13,-21.629 -10.95,-34.133 -7.52,-23.242 20.39,13.457 31.33,20.742 31.7,-20.742 20.13,-13.457 -7.38,23.242 -10.86,34.133 30.04,21.629 z"
         style="fill:none;stroke:#f3f020;stroke-width:11.064;stroke-linecap:butt;stroke-linejoin:miter;stroke-miterlimit:4;stroke-dasharray:none;stroke-opacity:1"
         id="path16" /><path
         d="m 7421.29,1093.95 -10.84,-34.18 -7.38,-23.18 20.25,13.28 31.47,21.04 31.69,-21.04 20,-13.28 -7.26,23.18 -10.96,34.18 30.04,21.64 21.19,15.2 -25.84,0.47 -38.38,0.6 -12.38,34.18 -8.1,22 -8.01,-22 -12.37,-34.18 -38.26,-0.6 -25.86,-0.47 20.98,-15.2 30.02,-21.64"
         style="fill:#f3f020;fill-opacity:1;fill-rule:nonzero;stroke:none"
         id="path18" /><path
         d="m 7421.29,1093.95 -10.84,-34.18 -7.38,-23.18 20.25,13.28 31.47,21.04 31.69,-21.04 20,-13.28 -7.26,23.18 -10.96,34.18 30.04,21.64 21.19,15.2 -25.84,0.47 -38.38,0.6 -12.38,34.18 -8.1,22 -8.01,-22 -12.37,-34.18 -38.26,-0.6 -25.86,-0.47 20.98,-15.2 z"
         style="fill:none;stroke:#f3f020;stroke-width:11.064;stroke-linecap:butt;stroke-linejoin:miter;stroke-miterlimit:4;stroke-dasharray:none;stroke-opacity:1"
         id="path20" /><path
         d="m 7280.57,1327.64 -12.52,34.13 -8.11,21.93 -7.97,-21.93 -12.4,-34.13 -38.24,-0.66 -26,-0.59 21.21,-15.13 30.16,-21.69 -10.96,-34.14 -7.52,-23.19 20.37,13.24 31.35,20.91 31.58,-20.91 20.28,-13.24 -7.52,23.19 -10.74,34.14 30.03,21.69 21.08,15.13 -25.72,0.59 -38.36,0.66"
         style="fill:#f3f020;fill-opacity:1;fill-rule:nonzero;stroke:none"
         id="path22" /><path
         d="m 7280.57,1327.64 -12.52,34.13 -8.11,21.93 -7.97,-21.93 -12.4,-34.13 -38.24,-0.66 -26,-0.59 21.21,-15.13 30.16,-21.69 -10.96,-34.14 -7.52,-23.19 20.37,13.24 31.35,20.91 31.58,-20.91 20.28,-13.24 -7.52,23.19 -10.74,34.14 30.03,21.69 21.08,15.13 -25.72,0.59 z"
         style="fill:none;stroke:#f3f020;stroke-width:11.064;stroke-linecap:butt;stroke-linejoin:miter;stroke-miterlimit:4;stroke-dasharray:none;stroke-opacity:1"
         id="path24" /><path
         d="m 7008.16,1399.85 -12.52,34.03 -8.12,21.92 -7.85,-21.92 -12.52,-34.03 -38.24,-0.84 -25.98,-0.41 21.21,-15.19 30.04,-21.75 -10.86,-34.2 -7.5,-23.12 20.25,13.23 31.45,20.97 31.7,-20.97 20.14,-13.23 -7.37,23.12 -10.86,34.2 30.04,21.75 20.96,15.19 -25.72,0.41 -38.25,0.84"
         style="fill:#f3f020;fill-opacity:1;fill-rule:nonzero;stroke:none"
         id="path26" /><path
         d="m 7008.16,1399.85 -12.52,34.03 -8.12,21.92 -7.85,-21.92 -12.52,-34.03 -38.24,-0.84 -25.98,-0.41 21.21,-15.19 30.04,-21.75 -10.86,-34.2 -7.5,-23.12 20.25,13.23 31.45,20.97 31.7,-20.97 20.14,-13.23 -7.37,23.12 -10.86,34.2 30.04,21.75 20.96,15.19 -25.72,0.41 z"
         style="fill:none;stroke:#f3f020;stroke-width:11.064;stroke-linecap:butt;stroke-linejoin:miter;stroke-miterlimit:4;stroke-dasharray:none;stroke-opacity:1"
         id="path28" /><path
         d="m 6738.13,1327.64 -12.52,34.13 -7.86,21.93 -7.98,-21.93 -12.5,-34.13 -38.27,-0.66 -25.97,-0.41 21.09,-15.25 30.16,-21.63 -10.86,-34.14 -7.48,-23.31 20.23,13.47 31.58,20.8 31.35,-20.8 20.26,-13.47 -7.39,23.31 -10.86,34.14 30.04,21.63 21.21,15.25 -25.97,0.41 -38.26,0.66"
         style="fill:#f3f020;fill-opacity:1;fill-rule:nonzero;stroke:none"
         id="path30" /><path
         d="m 6738.13,1327.64 -12.52,34.13 -7.86,21.93 -7.98,-21.93 -12.5,-34.13 -38.27,-0.66 -25.97,-0.41 21.09,-15.25 30.16,-21.63 -10.86,-34.14 -7.48,-23.31 20.23,13.47 31.58,20.8 31.35,-20.8 20.26,-13.47 -7.39,23.31 -10.86,34.14 30.04,21.63 21.21,15.25 -25.97,0.41 z"
         style="fill:none;stroke:#f3f020;stroke-width:11.064;stroke-linecap:butt;stroke-linejoin:miter;stroke-miterlimit:4;stroke-dasharray:none;stroke-opacity:1"
         id="path32" /><path
         d="m 6541.52,1133.93 -12.3,34.04 -7.97,21.85 -8.09,-21.85 -12.4,-34.04 -38.26,-0.7 -25.86,-0.49 21.09,-15.25 30.04,-21.68 -10.95,-34.08 -7.29,-23.25 20.02,13.34 31.58,20.86 31.58,-20.86 20.14,-13.34 -7.4,23.25 -10.84,34.08 30.16,21.68 20.97,15.25 -25.88,0.49 -38.34,0.7"
         style="fill:#f3f020;fill-opacity:1;fill-rule:nonzero;stroke:none"
         id="path34" /><path
         d="m 6541.52,1133.93 -12.3,34.04 -7.97,21.85 -8.09,-21.85 -12.4,-34.04 -38.26,-0.7 -25.86,-0.49 21.09,-15.25 30.04,-21.68 -10.95,-34.08 -7.29,-23.25 20.02,13.34 31.58,20.86 31.58,-20.86 20.14,-13.34 -7.4,23.25 -10.84,34.08 30.16,21.68 20.97,15.25 -25.88,0.49 z"
         style="fill:none;stroke:#f3f020;stroke-width:11.064;stroke-linecap:butt;stroke-linejoin:miter;stroke-miterlimit:4;stroke-dasharray:none;stroke-opacity:1"
         id="path36" /><path
         d="m 6479.18,781.336 20.25,-13.457 -7.36,23.351 -10.86,34.083 30.02,21.675 21.09,15.129 -25.84,0.547 -38.26,0.652 -12.5,34.036 -7.99,21.855 -8,-21.855 -12.5,-34.036 -38.25,-0.652 -25.85,-0.547 20.95,-15.129 30.16,-21.675 -10.84,-34.083 -7.38,-23.351 20.11,13.457 31.6,20.852 31.45,-20.852"
         style="fill:#f3f020;fill-opacity:1;fill-rule:nonzero;stroke:none"
         id="path38" /><path
         d="m 6479.18,781.336 20.25,-13.457 -7.36,23.351 -10.86,34.083 30.02,21.675 21.09,15.129 -25.84,0.547 -38.26,0.652 -12.5,34.036 -7.99,21.855 -8,-21.855 -12.5,-34.036 -38.25,-0.652 -25.85,-0.547 20.95,-15.129 30.16,-21.675 -10.84,-34.083 -7.38,-23.351 20.11,13.457 31.6,20.852 z"
         style="fill:none;stroke:#f3f020;stroke-width:11.064;stroke-linecap:butt;stroke-linejoin:miter;stroke-miterlimit:4;stroke-dasharray:none;stroke-opacity:1"
         id="path40" /><path
         d="m 6540.66,596.27 -12.5,33.96 -7.87,21.879 -8.1,-21.879 -12.5,-33.96 -38.24,-0.829 -25.86,-0.582 21.07,-15.019 30.04,-21.809 -10.86,-34.09 -7.5,-23.043 20.25,13.161 31.47,20.839 31.58,-20.839 20.14,-13.278 -7.39,23.16 -10.72,34.09 30.02,21.809 20.98,15.019 -25.86,0.582 -38.15,0.829"
         style="fill:#f3f020;fill-opacity:1;fill-rule:nonzero;stroke:none"
         id="path42" /><path
         d="m 6540.66,596.27 -12.5,33.96 -7.87,21.879 -8.1,-21.879 -12.5,-33.96 -38.24,-0.829 -25.86,-0.582 21.07,-15.019 30.04,-21.809 -10.86,-34.09 -7.5,-23.043 20.25,13.161 31.47,20.839 31.58,-20.839 20.14,-13.278 -7.39,23.16 -10.72,34.09 30.02,21.809 20.98,15.019 -25.86,0.582 z"
         style="fill:none;stroke:#f3f020;stroke-width:11.064;stroke-linecap:butt;stroke-linejoin:miter;stroke-miterlimit:4;stroke-dasharray:none;stroke-opacity:1"
         id="path44" /><path
         d="m 6735.74,400.73 -12.38,34.2 -7.99,21.859 -8.1,-21.859 -12.39,-34.2 -38.38,-0.601 -25.86,-0.59 21.22,-15.141 29.9,-21.687 -10.72,-34.063 -7.5,-23.25 20.11,13.231 31.72,20.922 31.33,-20.922 20.39,-13.231 -7.52,23.25 -10.82,34.063 30.02,21.687 21.21,15.141 -25.98,0.59 -38.26,0.601"
         style="fill:#f3f020;fill-opacity:1;fill-rule:nonzero;stroke:none"
         id="path46" /><path
         d="m 6735.74,400.73 -12.38,34.2 -7.99,21.859 -8.1,-21.859 -12.39,-34.2 -38.38,-0.601 -25.86,-0.59 21.22,-15.141 29.9,-21.687 -10.72,-34.063 -7.5,-23.25 20.11,13.231 31.72,20.922 31.33,-20.922 20.39,-13.231 -7.52,23.25 -10.82,34.063 30.02,21.687 21.21,15.141 -25.98,0.59 z"
         style="fill:none;stroke:#f3f020;stroke-width:11.064;stroke-linecap:butt;stroke-linejoin:miter;stroke-miterlimit:4;stroke-dasharray:none;stroke-opacity:1"
         id="path48" /><path
         d="m 7007.91,328.582 -12.38,33.898 -8.13,21.989 -7.85,-21.989 -12.52,-33.898 -38.24,-0.781 -26,-0.602 21.1,-15.25 30.17,-21.551 -10.97,-34.089 -7.27,-23.297 20.14,13.386 31.44,20.922 31.6,-20.922 20.14,-13.386 -7.26,23.297 -10.98,34.089 30.04,21.551 21.07,15.25 -25.72,0.602 -38.38,0.781"
         style="fill:#f3f020;fill-opacity:1;fill-rule:nonzero;stroke:none"
         id="path50" /><path
         d="m 7007.91,328.582 -12.38,33.898 -8.13,21.989 -7.85,-21.989 -12.52,-33.898 -38.24,-0.781 -26,-0.602 21.1,-15.25 30.17,-21.551 -10.97,-34.089 -7.27,-23.297 20.14,13.386 31.44,20.922 31.6,-20.922 20.14,-13.386 -7.26,23.297 -10.98,34.089 30.04,21.551 21.07,15.25 -25.72,0.602 z"
         style="fill:none;stroke:#f3f020;stroke-width:11.064;stroke-linecap:butt;stroke-linejoin:miter;stroke-miterlimit:4;stroke-dasharray:none;stroke-opacity:1"
         id="path52" /><path
         d="m 7278.07,399.422 -12.52,34.078 -7.99,21.871 -7.99,-21.871 -12.4,-34.078 -38.24,-0.844 -25.98,-0.476 21.23,-15.122 30.02,-21.679 -10.86,-34.102 -7.38,-23.23 20.13,13.242 31.47,20.898 31.58,-20.898 20.02,-13.242 -7.15,23.23 -10.86,34.102 29.9,21.679 21.12,15.122 -25.86,0.476 -38.24,0.844"
         style="fill:#f3f020;fill-opacity:1;fill-rule:nonzero;stroke:none"
         id="path54" /><path
         d="m 7278.07,399.422 -12.52,34.078 -7.99,21.871 -7.99,-21.871 -12.4,-34.078 -38.24,-0.844 -25.98,-0.476 21.23,-15.122 30.02,-21.679 -10.86,-34.102 -7.38,-23.23 20.13,13.242 31.47,20.898 31.58,-20.898 20.02,-13.242 -7.15,23.23 -10.86,34.102 29.9,21.679 21.12,15.122 -25.86,0.476 z"
         style="fill:none;stroke:#f3f020;stroke-width:11.064;stroke-linecap:butt;stroke-linejoin:miter;stroke-miterlimit:4;stroke-dasharray:none;stroke-opacity:1"
         id="path56" /><path
         d="m 7474.32,593.879 -12.52,34.109 -7.97,21.782 -7.99,-21.782 -12.52,-34.109 -38.26,-0.699 -25.84,-0.489 21.19,-15.25 29.94,-21.621 -10.84,-34.199 -7.28,-23.172 20.04,13.34 31.56,20.852 31.56,-20.852 20.04,-13.34 -7.4,23.172 -10.73,34.199 30.04,21.621 21.1,15.25 -25.88,0.489 -38.24,0.699"
         style="fill:#f3f020;fill-opacity:1;fill-rule:nonzero;stroke:none"
         id="path58" /><path
         d="m 7474.32,593.879 -12.52,34.109 -7.97,21.782 -7.99,-21.782 -12.52,-34.109 -38.26,-0.699 -25.84,-0.489 21.19,-15.25 29.94,-21.621 -10.84,-34.199 -7.28,-23.172 20.04,13.34 31.56,20.852 31.56,-20.852 20.04,-13.34 -7.4,23.172 -10.73,34.199 30.04,21.621 21.1,15.25 -25.88,0.489 z"
         style="fill:none;stroke:#f3f020;stroke-width:11.064;stroke-linecap:butt;stroke-linejoin:miter;stroke-miterlimit:4;stroke-dasharray:none;stroke-opacity:1"
         id="path60" /><path
         d="m 1910.64,1408.15 h 121.34 l -37.35,99.12 c -11.4,30.1 -19.86,54.85 -25.39,74.22 -4.56,-22.95 -10.99,-45.74 -19.29,-68.36 z m -103.27,-146.97 137.45,357.91 h 51.03 l 146.48,-357.91 h -53.95 l -41.75,108.4 h -149.66 l -39.3,-108.4 h -50.3"
         style="fill:#2d49a3;fill-opacity:1;fill-rule:nonzero;stroke:none"
         id="path62" /><path
         d="m 2151.37,1261.18 v 35.64 l 165.04,189.46 c -18.72,-0.98 -35.25,-1.47 -49.56,-1.47 h -105.72 v 35.65 h 211.92 v -29.07 l -140.38,-164.55 -27.1,-30.02 c 19.68,1.47 38.16,2.19 55.42,2.19 h 119.87 v -37.83 h -229.49"
         style="fill:#2d49a3;fill-opacity:1;fill-rule:nonzero;stroke:none"
         id="path64" /><path
         d="m 2570.07,1261.18 v 357.91 h 258.79 v -42.25 h -211.43 v -109.61 h 198 v -41.99 h -198 v -121.83 h 219.73 v -42.23 h -267.09"
         style="fill:#2d49a3;fill-opacity:1;fill-rule:nonzero;stroke:none"
         id="path66" /><path
         d="m 3066.89,1261.18 v 38.09 c -20.18,-29.3 -47.6,-43.95 -82.27,-43.95 -15.3,0 -29.58,2.93 -42.85,8.79 -13.26,5.86 -23.11,13.22 -29.53,22.09 -6.44,8.87 -10.96,19.73 -13.56,32.6 -1.8,8.61 -2.68,22.28 -2.68,41.01 v 160.65 h 43.94 v -143.81 c 0,-22.95 0.89,-38.41 2.69,-46.39 2.76,-11.55 8.62,-20.62 17.58,-27.21 8.94,-6.6 20.01,-9.9 33.2,-9.9 13.18,0 25.55,3.38 37.11,10.14 11.55,6.76 19.73,15.94 24.53,27.59 4.8,11.63 7.21,28.52 7.21,50.65 v 138.93 h 43.94 v -259.28 h -39.31"
         style="fill:#2d49a3;fill-opacity:1;fill-rule:nonzero;stroke:none"
         id="path68" /><path
         d="m 3174.56,1261.18 v 259.28 h 39.55 v -39.32 c 10.09,18.4 19.41,30.53 27.96,36.39 8.54,5.86 17.94,8.79 28.19,8.79 14.81,0 29.87,-4.73 45.17,-14.16 l -15.14,-40.78 c -10.74,6.34 -21.48,9.53 -32.22,9.53 -9.61,0 -18.24,-2.89 -25.88,-8.68 -7.66,-5.78 -13.11,-13.78 -16.36,-24.04 -4.88,-15.62 -7.32,-32.71 -7.32,-51.27 v -135.74 h -43.95"
         style="fill:#2d49a3;fill-opacity:1;fill-rule:nonzero;stroke:none"
         id="path70" /><path
         d="m 3422.36,1552.68 32.47,68.36 h 57.62 l -53.71,-68.36 z m -52,-161.87 c 0,-33.2 7.24,-58.07 21.73,-74.58 14.48,-16.52 32.71,-24.78 54.69,-24.78 21.8,0 39.95,8.3 54.44,24.91 14.48,16.6 21.73,41.9 21.73,75.91 0,32.07 -7.29,56.36 -21.86,72.88 -14.56,16.52 -32.67,24.78 -54.31,24.78 -21.98,0 -40.21,-8.22 -54.69,-24.65 -14.49,-16.44 -21.73,-41.27 -21.73,-74.47 z m -45.16,0 c 0,48.01 13.34,83.57 40.03,106.7 22.3,19.2 49.48,28.81 81.55,28.81 35.64,0 64.77,-11.68 87.4,-35.04 22.62,-23.36 33.94,-55.63 33.94,-96.8 0,-33.38 -5.01,-59.62 -15.01,-78.74 -10.02,-19.13 -24.58,-33.97 -43.72,-44.56 -19.12,-10.57 -40,-15.86 -62.61,-15.86 -36.3,0 -65.64,11.63 -88.01,34.9 -22.38,23.28 -33.57,56.81 -33.57,100.59"
         style="fill:#2d49a3;fill-opacity:1;fill-rule:nonzero;stroke:none"
         id="path72" /><path
         d="m 3659.42,1389.34 c 0,-33.36 6.75,-58.02 20.27,-73.96 13.5,-15.96 29.86,-23.93 49.07,-23.93 19.53,0 36.25,8.26 50.18,24.78 13.9,16.51 20.86,42.12 20.86,76.79 0,33.02 -6.79,57.77 -20.38,74.21 -13.59,16.43 -29.83,24.65 -48.71,24.65 -18.72,0 -35.27,-8.75 -49.68,-26.24 -14.4,-17.5 -21.61,-42.93 -21.61,-76.3 z m -39.79,-227.54 v 358.66 h 40.04 v -33.69 c 9.43,13.18 20.1,23.06 31.98,29.66 11.88,6.59 26.28,9.89 43.21,9.89 22.13,0 41.66,-5.71 58.6,-17.09 16.92,-11.41 29.69,-27.47 38.33,-48.23 8.62,-20.75 12.94,-43.49 12.94,-68.24 0,-26.52 -4.76,-50.41 -14.29,-71.65 -9.51,-21.24 -23.35,-37.52 -41.5,-48.83 -18.15,-11.3 -37.23,-16.96 -57.25,-16.96 -14.65,0 -27.79,3.09 -39.43,9.28 -11.63,6.17 -21.21,13.98 -28.69,23.44 V 1161.8 h -43.94"
         style="fill:#2d49a3;fill-opacity:1;fill-rule:nonzero;stroke:none"
         id="path74" /><path
         d="m 4063.23,1391.3 c -15.95,-6.51 -39.88,-12.04 -71.77,-16.6 -18.07,-2.6 -30.85,-5.53 -38.33,-8.79 -7.5,-3.26 -13.28,-8.01 -17.34,-14.28 -4.07,-6.27 -6.1,-13.22 -6.1,-20.88 0,-11.72 4.43,-21.48 13.3,-29.3 8.88,-7.81 21.85,-11.72 38.94,-11.72 16.93,0 31.99,3.72 45.17,11.12 13.18,7.4 22.86,17.54 29.05,30.39 4.72,9.93 7.08,24.58 7.08,43.94 z m 3.66,-98.15 c -16.27,-13.83 -31.94,-23.59 -46.99,-29.29 -15.06,-5.69 -31.22,-8.54 -48.46,-8.54 -28.49,0 -50.39,6.95 -65.68,20.87 -15.3,13.92 -22.95,31.69 -22.95,53.35 0,12.69 2.89,24.28 8.67,34.78 5.78,10.5 13.34,18.93 22.7,25.28 9.36,6.35 19.9,11.14 31.62,14.39 8.62,2.29 21.64,4.47 39.06,6.6 35.48,4.22 61.6,9.28 78.37,15.14 0.16,6.02 0.25,9.84 0.25,11.47 0,17.91 -4.15,30.52 -12.45,37.85 -11.24,9.92 -27.92,14.88 -50.05,14.88 -20.68,0 -35.93,-3.61 -45.78,-10.86 -9.85,-7.25 -17.13,-20.06 -21.85,-38.46 l -42.97,5.86 c 3.91,18.4 10.33,33.24 19.29,44.56 8.94,11.31 21.88,20.02 38.82,26.13 16.92,6.1 36.53,9.16 58.83,9.16 22.13,0 40.12,-2.62 53.96,-7.82 13.83,-5.21 24,-11.77 30.52,-19.65 6.5,-7.9 11.06,-17.87 13.67,-29.92 1.46,-7.48 2.2,-20.99 2.2,-40.52 v -58.6 c 0,-40.85 0.93,-66.68 2.8,-77.51 1.87,-10.83 5.57,-21.2 11.11,-31.12 h -45.9 c -4.56,9.1 -7.49,19.77 -8.79,31.97"
         style="fill:#2d49a3;fill-opacity:1;fill-rule:nonzero;stroke:none"
         id="path76" /><path
         d="m 4176.03,1261.18 v 259.28 h 43.94 v -259.28 z m 0,307.36 v 50.55 h 43.94 v -50.55 h -43.94"
         style="fill:#2d49a3;fill-opacity:1;fill-rule:nonzero;stroke:none"
         id="path78" /><path
         d="m 4666.26,1619.09 h 47.36 v -206.8 c 0,-35.97 -4.07,-64.53 -12.2,-85.68 -8.15,-21.17 -22.84,-38.38 -44.07,-51.64 -21.25,-13.26 -49.12,-19.9 -83.62,-19.9 -33.53,0 -60.96,5.78 -82.27,17.34 -21.33,11.54 -36.55,28.27 -45.66,50.16 -9.12,21.89 -13.67,51.81 -13.67,89.72 v 206.8 h 47.36 v -206.54 c 0,-31.1 2.89,-54.01 8.66,-68.73 5.79,-14.73 15.72,-26.09 29.79,-34.07 14.08,-7.96 31.29,-11.95 51.64,-11.95 34.82,0 59.65,7.89 74.46,23.67 14.81,15.8 22.22,46.16 22.22,91.08 v 206.54"
         style="fill:#2d49a3;fill-opacity:1;fill-rule:nonzero;stroke:none"
         id="path80" /><path
         d="m 4786.87,1261.18 v 259.28 h 39.55 v -36.88 c 19.04,28.49 46.54,42.74 82.52,42.74 15.62,0 29.99,-2.82 43.09,-8.43 13.1,-5.62 22.9,-12.98 29.42,-22.1 6.5,-9.11 11.06,-19.94 13.67,-32.46 1.62,-8.15 2.44,-22.38 2.44,-42.74 v -159.41 h -43.95 v 157.71 c 0,17.9 -1.71,31.29 -5.12,40.16 -3.42,8.87 -9.49,15.95 -18.2,21.24 -8.7,5.28 -18.91,7.94 -30.63,7.94 -18.72,0 -34.87,-5.95 -48.47,-17.83 -13.58,-11.88 -20.38,-34.42 -20.38,-67.62 v -141.6 h -43.94"
         style="fill:#2d49a3;fill-opacity:1;fill-rule:nonzero;stroke:none"
         id="path82" /><path
         d="m 5065.19,1261.18 v 259.28 h 43.94 v -259.28 z m 0,307.36 v 50.55 h 43.94 v -50.55 h -43.94"
         style="fill:#2d49a3;fill-opacity:1;fill-rule:nonzero;stroke:none"
         id="path84" /><path
         d="m 5256.84,1552.68 32.47,68.36 h 57.61 l -53.71,-68.36 z m -52.01,-161.87 c 0,-33.2 7.24,-58.07 21.73,-74.58 14.48,-16.52 32.72,-24.78 54.69,-24.78 21.81,0 39.95,8.3 54.44,24.91 14.49,16.6 21.73,41.9 21.73,75.91 0,32.07 -7.28,56.36 -21.85,72.88 -14.56,16.52 -32.68,24.78 -54.32,24.78 -21.97,0 -40.21,-8.22 -54.69,-24.65 -14.49,-16.44 -21.73,-41.27 -21.73,-74.47 z m -45.16,0 c 0,48.01 13.34,83.57 40.04,106.7 22.29,19.2 49.47,28.81 81.54,28.81 35.64,0 64.78,-11.68 87.4,-35.04 22.62,-23.36 33.94,-55.63 33.94,-96.8 0,-33.38 -5.01,-59.62 -15.01,-78.74 -10.02,-19.13 -24.58,-33.97 -43.71,-44.56 -19.12,-10.57 -40,-15.86 -62.62,-15.86 -36.3,0 -65.63,11.63 -88.01,34.9 -22.38,23.28 -33.57,56.81 -33.57,100.59"
         style="fill:#2d49a3;fill-opacity:1;fill-rule:nonzero;stroke:none"
         id="path86" /><path
         d="m 0,701.172 v 357.908 h 258.789 v -42.24 H 47.3633 V 907.227 H 245.359 V 865.234 H 47.3633 V 743.406 H 267.09 V 701.172 H 0"
         style="fill:#2d49a3;fill-opacity:1;fill-rule:nonzero;stroke:none"
         id="path88" /><path
         d="m 326.418,701.172 v 259.273 h 39.551 v -39.304 c 10.086,18.386 19.402,30.515 27.957,36.379 8.535,5.859 17.937,8.789 28.191,8.789 14.809,0 29.863,-4.719 45.168,-14.161 l -15.137,-40.773 c -10.742,6.348 -21.484,9.523 -32.226,9.523 -9.609,0 -18.234,-2.89 -25.879,-8.664 -7.656,-5.781 -13.105,-13.796 -16.355,-24.05 -4.883,-15.625 -7.329,-32.715 -7.329,-51.274 V 701.172 h -43.941"
         style="fill:#2d49a3;fill-opacity:1;fill-rule:nonzero;stroke:none"
         id="path90" /><path
         d="m 658.938,831.297 c -15.958,-6.516 -39.883,-12.051 -71.782,-16.602 -18.062,-2.605 -30.847,-5.539 -38.328,-8.789 -7.488,-3.261 -13.269,-8.015 -17.336,-14.289 -4.07,-6.258 -6.101,-13.219 -6.101,-20.867 0,-11.719 4.433,-21.484 13.3,-29.297 8.875,-7.812 21.856,-11.719 38.946,-11.719 16.926,0 31.98,3.704 45.168,11.106 13.179,7.41 22.859,17.539 29.05,30.398 4.715,9.922 7.083,24.571 7.083,43.946 z m 3.66,-98.145 c -16.282,-13.836 -31.946,-23.601 -46.993,-29.297 -15.058,-5.695 -31.218,-8.542 -48.464,-8.542 -28.489,0 -50.383,6.953 -65.676,20.878 -15.305,13.907 -22.949,31.688 -22.949,53.336 0,12.7 2.89,24.297 8.672,34.789 5.773,10.504 13.339,18.922 22.695,25.274 9.363,6.348 19.902,11.14 31.621,14.402 8.625,2.278 21.641,4.473 39.062,6.594 35.481,4.227 61.602,9.273 78.372,15.137 0.156,6.023 0.242,9.843 0.242,11.472 0,17.903 -4.153,30.52 -12.45,37.84 -11.234,9.934 -27.921,14.895 -50.05,14.895 -20.672,0 -35.926,-3.621 -45.782,-10.86 -9.843,-7.246 -17.128,-20.066 -21.843,-38.457 l -42.969,5.86 c 3.902,18.386 10.332,33.242 19.285,44.55 8.945,11.309 21.887,20.02 38.817,26.133 16.925,6.094 36.535,9.153 58.839,9.153 22.129,0 40.118,-2.61 53.953,-7.817 13.833,-5.203 24.004,-11.765 30.52,-19.656 6.504,-7.891 11.063,-17.859 13.672,-29.902 1.465,-7.493 2.195,-20.996 2.195,-40.528 v -58.593 c 0,-40.86 0.942,-66.692 2.805,-77.508 1.875,-10.832 5.574,-21.211 11.113,-31.133 h -45.898 c -4.563,9.109 -7.492,19.773 -8.789,31.98"
         style="fill:#2d49a3;fill-opacity:1;fill-rule:nonzero;stroke:none"
         id="path92" /><path
         d="m 753.906,778.563 43.457,6.835 c 2.442,-17.421 9.239,-30.761 20.379,-40.039 11.153,-9.277 26.738,-13.918 46.762,-13.918 20.176,0 35.152,4.114 44.922,12.329 9.762,8.218 14.644,17.859 14.644,28.933 0,9.922 -4.312,17.735 -12.937,23.438 -6.028,3.906 -20.996,8.867 -44.922,14.89 -32.227,8.137 -54.563,15.18 -67.023,21.125 -12.442,5.938 -21.883,14.16 -28.321,24.649 -6.426,10.508 -9.637,22.097 -9.637,34.797 0,11.55 2.649,22.253 7.942,32.097 5.281,9.844 12.476,18.028 21.598,24.539 6.835,5.051 16.156,9.321 27.953,12.825 11.804,3.496 24.453,5.246 37.965,5.246 20.343,0 38.207,-2.93 53.593,-8.789 15.371,-5.864 26.731,-13.801 34.055,-23.801 7.324,-10.02 12.363,-23.399 15.137,-40.164 l -42.969,-5.864 c -1.953,13.352 -7.609,23.762 -16.961,31.25 -9.367,7.493 -22.59,11.235 -39.68,11.235 -20.183,0 -34.59,-3.34 -43.215,-10.012 -8.628,-6.68 -12.937,-14.492 -12.937,-23.437 0,-5.704 1.785,-10.821 5.371,-15.379 3.574,-4.719 9.188,-8.625 16.848,-11.719 4.39,-1.633 17.332,-5.371 38.816,-11.231 31.082,-8.3 52.774,-15.097 65.067,-20.382 12.289,-5.293 21.925,-12.989 28.925,-23.075 6.992,-10.097 10.5,-22.628 10.5,-37.597 0,-14.653 -4.265,-28.442 -12.82,-41.391 -8.535,-12.93 -20.871,-22.945 -36.984,-30.015 -16.114,-7.09 -34.344,-10.625 -54.688,-10.625 -33.691,0 -59.363,6.992 -77.019,20.996 -17.668,13.992 -28.938,34.746 -33.821,62.254"
         style="fill:#2d49a3;fill-opacity:1;fill-rule:nonzero;stroke:none"
         id="path94" /><path
         d="m 1021.48,701.172 v 259.273 h 39.31 V 924.07 c 8.14,12.696 18.96,22.91 32.47,30.645 13.51,7.726 28.89,11.594 46.14,11.594 19.2,0 34.96,-3.996 47.25,-11.965 12.29,-7.981 20.95,-19.121 26,-33.446 20.5,30.274 47.19,45.411 80.07,45.411 25.72,0 45.49,-7.121 59.33,-21.36 13.83,-14.25 20.75,-36.179 20.75,-65.801 V 701.172 h -43.7 V 864.5 c 0,17.578 -1.42,30.234 -4.27,37.969 -2.85,7.722 -8.02,13.945 -15.5,18.672 -7.49,4.718 -16.28,7.082 -26.37,7.082 -18.23,0 -33.37,-6.067 -45.41,-18.196 -12.05,-12.129 -18.07,-31.535 -18.07,-58.222 V 701.172 h -43.94 v 168.457 c 0,19.527 -3.59,34.18 -10.75,43.941 -7.16,9.77 -18.88,14.653 -35.15,14.653 -12.37,0 -23.81,-3.254 -34.3,-9.77 -10.51,-6.512 -18.11,-16.031 -22.83,-28.562 -4.73,-12.539 -7.08,-30.606 -7.08,-54.2 V 701.172 h -43.95"
         style="fill:#2d49a3;fill-opacity:1;fill-rule:nonzero;stroke:none"
         id="path96" /><path
         d="m 1607.91,701.172 v 38.086 c -20.19,-29.297 -47.61,-43.945 -82.28,-43.945 -15.3,0 -29.58,2.925 -42.85,8.789 -13.26,5.859 -23.1,13.218 -29.53,22.089 -6.43,8.875 -10.96,19.735 -13.55,32.594 -1.8,8.625 -2.69,22.297 -2.69,41.02 v 160.64 h 43.95 V 816.648 c 0,-22.949 0.89,-38.418 2.68,-46.386 2.77,-11.563 8.63,-20.633 17.58,-27.215 8.95,-6.606 20.02,-9.895 33.2,-9.895 13.19,0 25.55,3.379 37.11,10.125 11.56,6.758 19.74,15.957 24.53,27.602 4.81,11.629 7.21,28.516 7.21,50.652 v 138.914 h 43.95 V 701.172 h -39.31"
         style="fill:#2d49a3;fill-opacity:1;fill-rule:nonzero;stroke:none"
         id="path98" /><path
         d="m 1698.49,778.563 43.45,6.835 c 2.44,-17.421 9.24,-30.761 20.38,-40.039 11.16,-9.277 26.74,-13.918 46.76,-13.918 20.18,0 35.16,4.114 44.92,12.329 9.77,8.218 14.65,17.859 14.65,28.933 0,9.922 -4.31,17.735 -12.94,23.438 -6.02,3.906 -20.99,8.867 -44.92,14.89 -32.23,8.137 -54.56,15.18 -67.02,21.125 -12.44,5.938 -21.89,14.16 -28.32,24.649 -6.43,10.508 -9.64,22.097 -9.64,34.797 0,11.55 2.65,22.253 7.94,32.097 5.28,9.844 12.48,18.028 21.6,24.539 6.84,5.051 16.15,9.321 27.95,12.825 11.81,3.496 24.45,5.246 37.97,5.246 20.34,0 38.2,-2.93 53.59,-8.789 15.37,-5.864 26.73,-13.801 34.06,-23.801 7.32,-10.02 12.36,-23.399 15.13,-40.164 l -42.97,-5.864 c -1.95,13.352 -7.6,23.762 -16.96,31.25 -9.36,7.493 -22.59,11.235 -39.68,11.235 -20.18,0 -34.59,-3.34 -43.21,-10.012 -8.63,-6.68 -12.94,-14.492 -12.94,-23.437 0,-5.704 1.79,-10.821 5.37,-15.379 3.58,-4.719 9.19,-8.625 16.85,-11.719 4.39,-1.633 17.33,-5.371 38.82,-11.231 31.08,-8.3 52.77,-15.097 65.06,-20.382 12.29,-5.293 21.93,-12.989 28.93,-23.075 6.99,-10.097 10.5,-22.628 10.5,-37.597 0,-14.653 -4.27,-28.442 -12.82,-41.391 -8.54,-12.93 -20.87,-22.945 -36.99,-30.015 -16.11,-7.09 -34.34,-10.625 -54.68,-10.625 -33.7,0 -59.37,6.992 -77.03,20.996 -17.66,13.992 -28.93,34.746 -33.81,62.254"
         style="fill:#2d49a3;fill-opacity:1;fill-rule:nonzero;stroke:none"
         id="path100" /><path
         d="m 2058.35,759.031 v 98.145 h -97.41 v 41.015 h 97.41 v 97.414 h 41.5 v -97.414 h 97.42 v -41.015 h -97.42 v -98.145 h -41.5"
         style="fill:#2d49a3;fill-opacity:1;fill-rule:nonzero;stroke:none"
         id="path102" /><path
         d="m 2436.77,829.344 c 0,-33.367 6.75,-58.028 20.26,-73.977 13.51,-15.957 29.86,-23.926 49.07,-23.926 19.53,0 36.25,8.262 50.18,24.789 13.91,16.512 20.87,42.11 20.87,76.778 0,33.035 -6.8,57.781 -20.38,74.219 -13.6,16.433 -29.84,24.656 -48.71,24.656 -18.72,0 -35.28,-8.75 -49.69,-26.25 -14.4,-17.5 -21.6,-42.93 -21.6,-76.289 z m -39.8,-227.543 v 358.644 h 40.04 v -33.687 c 9.44,13.183 20.1,23.074 31.98,29.656 11.88,6.602 26.28,9.895 43.22,9.895 22.13,0 41.66,-5.696 58.59,-17.09 16.92,-11.399 29.7,-27.473 38.33,-48.215 8.62,-20.762 12.94,-43.508 12.94,-68.242 0,-26.532 -4.76,-50.418 -14.29,-71.653 -9.51,-21.25 -23.35,-37.515 -41.5,-48.828 -18.15,-11.316 -37.23,-16.968 -57.25,-16.968 -14.65,0 -27.79,3.093 -39.43,9.277 -11.63,6.18 -21.2,13.992 -28.68,23.433 V 601.801 h -43.95"
         style="fill:#2d49a3;fill-opacity:1;fill-rule:nonzero;stroke:none"
         id="path104" /><path
         d="m 2674.56,701.172 v 259.273 h 39.55 v -39.304 c 10.09,18.386 19.41,30.515 27.96,36.379 8.54,5.859 17.94,8.789 28.19,8.789 14.81,0 29.87,-4.719 45.17,-14.161 l -15.14,-40.773 c -10.74,6.348 -21.48,9.523 -32.22,9.523 -9.61,0 -18.24,-2.89 -25.88,-8.664 -7.66,-5.781 -13.11,-13.796 -16.36,-24.05 -4.88,-15.625 -7.32,-32.715 -7.32,-51.274 V 701.172 h -43.95"
         style="fill:#2d49a3;fill-opacity:1;fill-rule:nonzero;stroke:none"
         id="path106" /><path
         d="m 2870.36,830.809 c 0,-33.204 7.24,-58.067 21.73,-74.579 14.48,-16.527 32.71,-24.789 54.69,-24.789 21.8,0 39.95,8.301 54.44,24.907 14.48,16.597 21.73,41.902 21.73,75.925 0,32.063 -7.29,56.348 -21.86,72.872 -14.56,16.523 -32.67,24.785 -54.31,24.785 -21.98,0 -40.21,-8.223 -54.69,-24.657 -14.49,-16.437 -21.73,-41.261 -21.73,-74.464 z m -45.16,0 c 0,48.007 13.34,83.574 40.03,106.687 22.3,19.211 49.48,28.813 81.55,28.813 35.64,0 64.77,-11.68 87.4,-35.032 22.62,-23.359 33.94,-55.625 33.94,-96.804 0,-33.371 -5.01,-59.614 -15.01,-78.735 -10.02,-19.129 -24.58,-33.98 -43.72,-44.558 -19.12,-10.575 -40,-15.867 -62.61,-15.867 -36.3,0 -65.64,11.628 -88.01,34.91 -22.38,23.269 -33.57,56.797 -33.57,100.586"
         style="fill:#2d49a3;fill-opacity:1;fill-rule:nonzero;stroke:none"
         id="path108" /><path
         d="m 3147.95,835.445 c 0,-34.019 6.75,-58.836 20.26,-74.461 13.51,-15.625 30.43,-23.437 50.78,-23.437 20.18,0 37.11,7.773 50.79,23.312 13.67,15.543 20.5,39.918 20.5,73.125 0,31.739 -7.04,55.664 -21.11,71.778 -14.08,16.109 -31.05,24.168 -50.91,24.168 -19.53,0 -36.13,-7.93 -49.8,-23.809 -13.67,-15.859 -20.51,-39.426 -20.51,-70.676 z m -36.38,-155.757 42.73,-6.348 c 1.78,-13.192 6.74,-22.789 14.89,-28.809 10.9,-8.14 25.79,-12.211 44.68,-12.211 20.34,0 36.04,4.071 47.12,12.211 11.06,8.141 18.55,19.528 22.46,34.18 2.27,8.953 3.33,27.742 3.17,56.394 -19.21,-22.625 -43.13,-33.933 -71.78,-33.933 -35.64,0 -63.23,12.851 -82.76,38.57 -19.53,25.715 -29.3,56.555 -29.3,92.531 0,24.739 4.48,47.559 13.43,68.477 8.95,20.918 21.93,37.07 38.94,48.469 17.01,11.394 36.99,17.09 59.94,17.09 30.59,0 55.82,-12.375 75.68,-37.114 v 31.25 h 40.53 V 736.324 c 0,-40.359 -4.11,-68.965 -12.33,-85.812 -8.22,-16.84 -21.25,-30.153 -39.06,-39.922 -17.83,-9.762 -39.76,-14.641 -65.8,-14.641 -30.93,0 -55.91,6.961 -74.95,20.86 -19.04,13.929 -28.24,34.89 -27.59,62.879"
         style="fill:#2d49a3;fill-opacity:1;fill-rule:nonzero;stroke:none"
         id="path110" /><path
         d="m 3397.22,701.172 v 259.273 h 39.55 v -39.304 c 10.09,18.386 19.4,30.515 27.96,36.379 8.53,5.859 17.94,8.789 28.19,8.789 14.8,0 29.86,-4.719 45.17,-14.161 l -15.14,-40.773 c -10.74,6.348 -21.49,9.523 -32.23,9.523 -9.61,0 -18.23,-2.89 -25.88,-8.664 -7.65,-5.781 -13.1,-13.796 -16.35,-24.05 -4.89,-15.625 -7.33,-32.715 -7.33,-51.274 V 701.172 h -43.94"
         style="fill:#2d49a3;fill-opacity:1;fill-rule:nonzero;stroke:none"
         id="path112" /><path
         d="m 3729.74,831.297 c -15.96,-6.516 -39.89,-12.051 -71.78,-16.602 -18.07,-2.605 -30.85,-5.539 -38.33,-8.789 -7.49,-3.261 -13.27,-8.015 -17.34,-14.289 -4.07,-6.258 -6.1,-13.219 -6.1,-20.867 0,-11.719 4.44,-21.484 13.3,-29.297 8.88,-7.812 21.86,-11.719 38.95,-11.719 16.92,0 31.98,3.704 45.16,11.106 13.19,7.41 22.86,17.539 29.06,30.398 4.71,9.922 7.08,24.571 7.08,43.946 z m 3.66,-98.145 c -16.28,-13.836 -31.94,-23.601 -46.99,-29.297 -15.06,-5.695 -31.22,-8.542 -48.47,-8.542 -28.49,0 -50.38,6.953 -65.67,20.878 -15.31,13.907 -22.95,31.688 -22.95,53.336 0,12.7 2.89,24.297 8.67,34.789 5.77,10.504 13.34,18.922 22.69,25.274 9.37,6.348 19.91,11.14 31.62,14.402 8.63,2.278 21.65,4.473 39.07,6.594 35.48,4.227 61.6,9.273 78.37,15.137 0.15,6.023 0.24,9.843 0.24,11.472 0,17.903 -4.15,30.52 -12.45,37.84 -11.23,9.934 -27.92,14.895 -50.05,14.895 -20.67,0 -35.93,-3.621 -45.78,-10.86 -9.84,-7.246 -17.13,-20.066 -21.85,-38.457 l -42.97,5.86 c 3.91,18.386 10.34,33.242 19.29,44.55 8.95,11.309 21.89,20.02 38.82,26.133 16.92,6.094 36.53,9.153 58.84,9.153 22.13,0 40.12,-2.61 53.95,-7.817 13.83,-5.203 24.01,-11.765 30.52,-19.656 6.5,-7.891 11.07,-17.859 13.67,-29.902 1.47,-7.493 2.2,-20.996 2.2,-40.528 v -58.593 c 0,-40.86 0.94,-66.692 2.8,-77.508 1.88,-10.832 5.58,-21.211 11.12,-31.133 h -45.9 c -4.56,9.109 -7.49,19.773 -8.79,31.98"
         style="fill:#2d49a3;fill-opacity:1;fill-rule:nonzero;stroke:none"
         id="path114" /><path
         d="m 3842.29,701.172 v 259.273 h 39.3 V 924.07 c 8.14,12.696 18.96,22.91 32.47,30.645 13.51,7.726 28.89,11.594 46.15,11.594 19.19,0 34.95,-3.996 47.24,-11.965 12.29,-7.981 20.95,-19.121 26,-33.446 20.51,30.274 47.19,45.411 80.08,45.411 25.71,0 45.48,-7.121 59.32,-21.36 13.83,-14.25 20.75,-36.179 20.75,-65.801 V 701.172 h -43.7 V 864.5 c 0,17.578 -1.42,30.234 -4.27,37.969 -2.85,7.722 -8.02,13.945 -15.5,18.672 -7.49,4.718 -16.28,7.082 -26.37,7.082 -18.23,0 -33.37,-6.067 -45.41,-18.196 -12.05,-12.129 -18.07,-31.535 -18.07,-58.222 V 701.172 h -43.94 v 168.457 c 0,19.527 -3.59,34.18 -10.74,43.941 -7.17,9.77 -18.89,14.653 -35.16,14.653 -12.37,0 -23.81,-3.254 -34.3,-9.77 -10.51,-6.512 -18.11,-16.031 -22.83,-28.562 -4.73,-12.539 -7.08,-30.606 -7.08,-54.2 V 701.172 h -43.94"
         style="fill:#2d49a3;fill-opacity:1;fill-rule:nonzero;stroke:none"
         id="path116" /><path
         d="m 4258.54,1008.05 v 51.03 h 43.95 v -51.03 z m -55.66,-407.468 8.3,37.359 c 8.79,-2.281 15.7,-3.421 20.75,-3.421 8.95,0 15.63,2.968 20.02,8.921 4.4,5.93 6.59,20.789 6.59,44.543 v 272.461 h 43.95 V 687.012 c 0,-31.891 -4.15,-54.114 -12.45,-66.653 -10.59,-16.269 -28.16,-24.41 -52.74,-24.41 -11.87,0 -23.34,1.551 -34.42,4.633"
         style="fill:#2d49a3;fill-opacity:1;fill-rule:nonzero;stroke:none"
         id="path118" /><path
         d="m 4449.95,992.676 32.47,68.354 h 57.62 l -53.71,-68.354 z m 85.45,-161.379 c -15.96,-6.516 -39.88,-12.051 -71.78,-16.602 -18.06,-2.605 -30.85,-5.539 -38.33,-8.789 -7.49,-3.261 -13.27,-8.015 -17.33,-14.289 -4.07,-6.258 -6.1,-13.219 -6.1,-20.867 0,-11.719 4.43,-21.484 13.3,-29.297 8.87,-7.812 21.85,-11.719 38.94,-11.719 16.93,0 31.98,3.704 45.17,11.106 13.18,7.41 22.86,17.539 29.05,30.398 4.72,9.922 7.08,24.571 7.08,43.946 z m 3.66,-98.145 c -16.28,-13.836 -31.94,-23.601 -46.99,-29.297 -15.06,-5.695 -31.22,-8.542 -48.47,-8.542 -28.48,0 -50.38,6.953 -65.67,20.878 -15.3,13.907 -22.95,31.688 -22.95,53.336 0,12.7 2.89,24.297 8.67,34.789 5.77,10.504 13.34,18.922 22.7,25.274 9.36,6.348 19.9,11.14 31.62,14.402 8.62,2.278 21.64,4.473 39.06,6.594 35.48,4.227 61.6,9.273 78.37,15.137 0.16,6.023 0.24,9.843 0.24,11.472 0,17.903 -4.15,30.52 -12.45,37.84 -11.23,9.934 -27.92,14.895 -50.05,14.895 -20.67,0 -35.92,-3.621 -45.78,-10.86 -9.84,-7.246 -17.13,-20.066 -21.84,-38.457 l -42.97,5.86 c 3.91,18.386 10.33,33.242 19.29,44.55 8.94,11.309 21.88,20.02 38.81,26.133 16.93,6.094 36.54,9.153 58.84,9.153 22.13,0 40.12,-2.61 53.96,-7.817 13.83,-5.203 24,-11.765 30.51,-19.656 6.51,-7.891 11.07,-17.859 13.68,-29.902 1.46,-7.493 2.19,-20.996 2.19,-40.528 v -58.593 c 0,-40.86 0.94,-66.692 2.81,-77.508 1.87,-10.832 5.57,-21.211 11.11,-31.133 h -45.9 c -4.56,9.109 -7.49,19.773 -8.79,31.98"
         style="fill:#2d49a3;fill-opacity:1;fill-rule:nonzero;stroke:none"
         id="path120" /><path
         d="m 4647.95,701.172 v 259.273 h 39.55 v -36.863 c 19.04,28.477 46.54,42.727 82.52,42.727 15.62,0 29.99,-2.805 43.1,-8.43 13.09,-5.606 22.9,-12.981 29.41,-22.09 6.5,-9.121 11.06,-19.941 13.67,-32.473 1.62,-8.132 2.44,-22.378 2.44,-42.722 V 701.172 h -43.94 v 157.715 c 0,17.898 -1.71,31.289 -5.13,40.164 -3.42,8.867 -9.48,15.937 -18.19,21.23 -8.7,5.293 -18.92,7.942 -30.64,7.942 -18.72,0 -34.87,-5.95 -48.46,-17.825 -13.59,-11.882 -20.39,-34.421 -20.39,-67.625 V 701.172 h -43.94"
         style="fill:#2d49a3;fill-opacity:1;fill-rule:nonzero;stroke:none"
         id="path122" /><path
         d="m 5091.55,831.297 c -15.95,-6.516 -39.88,-12.051 -71.77,-16.602 -18.07,-2.605 -30.85,-5.539 -38.33,-8.789 -7.49,-3.261 -13.28,-8.015 -17.34,-14.289 -4.07,-6.258 -6.1,-13.219 -6.1,-20.867 0,-11.719 4.43,-21.484 13.3,-29.297 8.88,-7.812 21.85,-11.719 38.94,-11.719 16.93,0 31.99,3.704 45.17,11.106 13.18,7.41 22.86,17.539 29.05,30.398 4.72,9.922 7.08,24.571 7.08,43.946 z m 3.66,-98.145 c -16.27,-13.836 -31.94,-23.601 -46.99,-29.297 -15.06,-5.695 -31.22,-8.542 -48.46,-8.542 -28.49,0 -50.38,6.953 -65.68,20.878 -15.3,13.907 -22.95,31.688 -22.95,53.336 0,12.7 2.89,24.297 8.67,34.789 5.78,10.504 13.34,18.922 22.7,25.274 9.37,6.348 19.9,11.14 31.62,14.402 8.62,2.278 21.64,4.473 39.06,6.594 35.48,4.227 61.61,9.273 78.37,15.137 0.16,6.023 0.25,9.843 0.25,11.472 0,17.903 -4.15,30.52 -12.45,37.84 -11.23,9.934 -27.92,14.895 -50.05,14.895 -20.68,0 -35.93,-3.621 -45.78,-10.86 -9.85,-7.246 -17.13,-20.066 -21.85,-38.457 l -42.97,5.86 c 3.91,18.386 10.33,33.242 19.29,44.55 8.94,11.309 21.88,20.02 38.82,26.133 16.92,6.094 36.53,9.153 58.83,9.153 22.13,0 40.12,-2.61 53.96,-7.817 13.83,-5.203 24,-11.765 30.52,-19.656 6.5,-7.891 11.06,-17.859 13.67,-29.902 1.46,-7.493 2.2,-20.996 2.2,-40.528 v -58.593 c 0,-40.86 0.93,-66.692 2.8,-77.508 1.87,-10.832 5.58,-21.211 11.11,-31.133 H 5104 c -4.56,9.109 -7.49,19.773 -8.79,31.98"
         style="fill:#2d49a3;fill-opacity:1;fill-rule:nonzero;stroke:none"
         id="path124" /><path
         d="m 5204.35,701.172 v 357.908 h 43.94 v -204.1 l 104,105.465 h 56.89 l -99.12,-96.187 109.13,-163.086 h -54.2 l -85.69,132.566 -31.01,-29.785 V 701.172 h -43.94"
         style="fill:#2d49a3;fill-opacity:1;fill-rule:nonzero;stroke:none"
         id="path126" /><path
         d="m 853.516,180.48 6.347,-38.82 c -12.375,-2.601 -23.437,-3.91 -33.203,-3.91 -15.957,0 -28.32,2.531 -37.109,7.57 -8.789,5.039 -14.981,11.68 -18.555,19.891 -3.586,8.23 -5.371,25.519 -5.371,51.891 V 366.27 h -32.227 v 34.179 h 32.227 v 64.211 l 43.699,26.36 v -90.571 h 44.192 V 366.27 H 809.324 V 214.66 c 0,-12.539 0.774,-20.601 2.317,-24.172 1.55,-3.59 4.074,-6.437 7.578,-8.547 3.496,-2.121 8.496,-3.171 15.011,-3.171 4.879,0 11.305,0.562 19.286,1.71"
         style="fill:#2d49a3;fill-opacity:1;fill-rule:nonzero;stroke:none"
         id="path128" /><path
         d="m 976.563,432.672 32.467,68.359 h 57.62 l -53.71,-68.359 z m 85.447,-161.371 c -15.96,-6.52 -39.88,-12.051 -71.776,-16.602 -18.066,-2.609 -30.847,-5.539 -38.332,-8.789 -7.488,-3.269 -13.269,-8.019 -17.332,-14.289 -4.074,-6.262 -6.101,-13.223 -6.101,-20.871 0,-11.719 4.429,-21.48 13.301,-29.301 8.875,-7.808 21.851,-11.719 38.945,-11.719 16.922,0 31.985,3.711 45.165,11.11 13.18,7.41 22.86,17.539 29.05,30.398 4.72,9.922 7.08,24.571 7.08,43.942 z m 3.66,-98.153 c -16.28,-13.839 -31.94,-23.597 -46.99,-29.289 -15.06,-5.699 -31.219,-8.55 -48.465,-8.55 -28.485,0 -50.379,6.953 -65.672,20.882 -15.305,13.911 -22.949,31.688 -22.949,53.34 0,12.688 2.886,24.301 8.672,34.778 5.769,10.511 13.339,18.929 22.695,25.281 9.363,6.351 19.898,11.14 31.617,14.398 8.625,2.282 21.645,4.481 39.067,6.594 35.475,4.227 61.595,9.277 78.365,15.137 0.16,6.019 0.25,9.84 0.25,11.48 0,17.903 -4.15,30.512 -12.46,37.84 -11.23,9.922 -27.92,14.891 -50.042,14.891 -20.676,0 -35.93,-3.621 -45.781,-10.871 -9.844,-7.239 -17.129,-20.059 -21.848,-38.45 l -42.969,5.86 c 3.906,18.39 10.332,33.25 19.285,44.562 8.95,11.309 21.887,20.02 38.821,26.117 16.922,6.114 36.535,9.161 58.834,9.161 22.13,0 40.12,-2.61 53.96,-7.821 13.83,-5.207 24,-11.75 30.52,-19.636 6.5,-7.903 11.06,-17.883 13.67,-29.922 1.46,-7.489 2.2,-20.989 2.2,-40.52 v -58.601 c 0,-40.86 0.93,-66.688 2.8,-77.508 1.87,-10.832 5.57,-21.211 11.11,-31.129 h -45.9 c -4.56,9.109 -7.49,19.777 -8.79,31.976"
         style="fill:#2d49a3;fill-opacity:1;fill-rule:nonzero;stroke:none"
         id="path130" /><path
         d="m 1174.07,141.172 v 259.277 h 39.55 v -39.308 c 10.09,18.39 19.41,30.519 27.96,36.379 8.54,5.859 17.94,8.789 28.2,8.789 14.8,0 29.86,-4.727 45.16,-14.161 l -15.14,-40.769 c -10.74,6.34 -21.48,9.519 -32.22,9.519 -9.61,0 -18.23,-2.886 -25.88,-8.679 -7.66,-5.77 -13.11,-13.778 -16.36,-24.039 -4.88,-15.621 -7.32,-32.711 -7.32,-51.27 V 141.172 h -43.95"
         style="fill:#2d49a3;fill-opacity:1;fill-rule:nonzero;stroke:none"
         id="path132" /><path
         d="m 1323.49,218.559 43.45,6.839 c 2.44,-17.418 9.24,-30.757 20.38,-40.039 11.16,-9.277 26.74,-13.918 46.76,-13.918 20.18,0 35.16,4.11 44.92,12.329 9.77,8.218 14.65,17.859 14.65,28.929 0,9.93 -4.31,17.742 -12.94,23.442 -6.02,3.91 -20.99,8.871 -44.92,14.89 -32.23,8.141 -54.56,15.18 -67.02,21.117 -12.44,5.942 -21.89,14.161 -28.32,24.661 -6.43,10.492 -9.64,22.089 -9.64,34.793 0,11.546 2.65,22.257 7.94,32.109 5.28,9.84 12.48,18.019 21.6,24.527 6.84,5.043 16.15,9.321 27.95,12.813 11.81,3.508 24.45,5.258 37.97,5.258 20.34,0 38.2,-2.93 53.59,-8.789 15.37,-5.86 26.73,-13.79 34.06,-23.809 7.32,-10 12.36,-23.402 15.13,-40.16 l -42.97,-5.86 c -1.95,13.34 -7.6,23.758 -16.96,31.25 -9.36,7.481 -22.59,11.231 -39.68,11.231 -20.18,0 -34.59,-3.34 -43.21,-10.012 -8.63,-6.68 -12.94,-14.488 -12.94,-23.43 0,-5.71 1.79,-10.832 5.37,-15.378 3.58,-4.731 9.19,-8.641 16.85,-11.723 4.39,-1.629 17.33,-5.367 38.82,-11.231 31.08,-8.296 52.77,-15.097 65.06,-20.386 12.29,-5.293 21.93,-12.981 28.93,-23.071 6.99,-10.101 10.5,-22.632 10.5,-37.601 0,-14.649 -4.27,-28.442 -12.82,-41.379 -8.54,-12.93 -20.87,-22.949 -36.99,-30.02 -16.11,-7.089 -34.34,-10.632 -54.68,-10.632 -33.7,0 -59.37,6.992 -77.03,21 -17.66,13.992 -28.93,34.742 -33.81,62.25"
         style="fill:#2d49a3;fill-opacity:1;fill-rule:nonzero;stroke:none"
         id="path134" /><path
         d="M 1601.56,141.172 V 366.27 h -38.82 v 34.179 h 38.82 v 27.59 c 0,17.41 1.55,30.352 4.64,38.813 4.23,11.386 11.68,20.628 22.34,27.718 10.66,7.071 25.59,10.61 44.8,10.61 12.36,0 26.04,-1.461 41.02,-4.391 l -6.6,-38.328 c -9.12,1.621 -17.74,2.437 -25.88,2.437 -13.34,0 -22.79,-2.847 -28.32,-8.539 -5.53,-5.711 -8.3,-16.359 -8.3,-31.988 v -23.922 h 50.54 V 366.27 h -50.54 V 141.172 h -43.7"
         style="fill:#2d49a3;fill-opacity:1;fill-rule:nonzero;stroke:none"
         id="path136" /><path
         d="m 1730.22,141.172 v 259.277 h 43.95 V 141.172 Z m 0,307.367 v 50.543 h 43.95 v -50.543 h -43.95"
         style="fill:#2d49a3;fill-opacity:1;fill-rule:nonzero;stroke:none"
         id="path138" /><path
         d="m 1841.06,141.172 v 259.277 h 39.56 v -36.867 c 19.04,28.477 46.54,42.727 82.51,42.727 15.63,0 30,-2.821 43.1,-8.418 13.1,-5.629 22.9,-12.993 29.41,-22.102 6.51,-9.117 11.07,-19.937 13.68,-32.469 1.62,-8.148 2.44,-22.379 2.44,-42.73 V 141.172 h -43.95 v 157.707 c 0,17.91 -1.71,31.293 -5.12,40.16 -3.42,8.883 -9.49,15.961 -18.2,21.25 -8.7,5.281 -18.91,7.93 -30.63,7.93 -18.72,0 -34.88,-5.949 -48.47,-17.821 -13.58,-11.886 -20.38,-34.429 -20.38,-67.628 V 141.172 h -43.95"
         style="fill:#2d49a3;fill-opacity:1;fill-rule:nonzero;stroke:none"
         id="path140" /><path
         d="m 2284.67,271.301 c -15.96,-6.52 -39.88,-12.051 -71.78,-16.602 -18.07,-2.609 -30.85,-5.539 -38.33,-8.789 -7.49,-3.269 -13.27,-8.019 -17.33,-14.289 -4.08,-6.262 -6.11,-13.223 -6.11,-20.871 0,-11.719 4.44,-21.48 13.3,-29.301 8.88,-7.808 21.86,-11.719 38.95,-11.719 16.92,0 31.98,3.711 45.17,11.11 13.18,7.41 22.86,17.539 29.05,30.398 4.71,9.922 7.08,24.571 7.08,43.942 z m 3.66,-98.153 c -16.28,-13.839 -31.94,-23.597 -46.99,-29.289 -15.06,-5.699 -31.22,-8.55 -48.47,-8.55 -28.49,0 -50.38,6.953 -65.67,20.882 -15.31,13.911 -22.95,31.688 -22.95,53.34 0,12.688 2.89,24.301 8.67,34.778 5.77,10.511 13.34,18.929 22.7,25.281 9.36,6.351 19.9,11.14 31.62,14.398 8.62,2.282 21.64,4.481 39.06,6.594 35.48,4.227 61.6,9.277 78.37,15.137 0.15,6.019 0.24,9.84 0.24,11.48 0,17.903 -4.15,30.512 -12.45,37.84 -11.23,9.922 -27.92,14.891 -50.05,14.891 -20.67,0 -35.93,-3.621 -45.78,-10.871 -9.84,-7.239 -17.13,-20.059 -21.84,-38.45 l -42.97,5.86 c 3.9,18.39 10.33,33.25 19.28,44.562 8.95,11.309 21.89,20.02 38.82,26.117 16.93,6.114 36.54,9.161 58.84,9.161 22.13,0 40.12,-2.61 53.95,-7.821 13.83,-5.207 24.01,-11.75 30.52,-19.636 6.51,-7.903 11.07,-17.883 13.67,-29.922 1.47,-7.489 2.2,-20.989 2.2,-40.52 v -58.601 c 0,-40.86 0.94,-66.688 2.8,-77.508 1.88,-10.832 5.58,-21.211 11.12,-31.129 h -45.9 c -4.56,9.109 -7.49,19.777 -8.79,31.976"
         style="fill:#2d49a3;fill-opacity:1;fill-rule:nonzero;stroke:none"
         id="path142" /><path
         d="m 2397.22,141.172 v 259.277 h 39.55 v -36.867 c 19.04,28.477 46.54,42.727 82.52,42.727 15.62,0 29.99,-2.821 43.09,-8.418 13.1,-5.629 22.9,-12.993 29.42,-22.102 6.5,-9.117 11.06,-19.937 13.67,-32.469 1.62,-8.148 2.44,-22.379 2.44,-42.73 V 141.172 h -43.95 v 157.707 c 0,17.91 -1.7,31.293 -5.12,40.16 -3.42,8.883 -9.48,15.961 -18.2,21.25 -8.7,5.281 -18.91,7.93 -30.63,7.93 -18.72,0 -34.87,-5.949 -48.47,-17.821 -13.58,-11.886 -20.38,-34.429 -20.38,-67.628 V 141.172 h -43.94"
         style="fill:#2d49a3;fill-opacity:1;fill-rule:nonzero;stroke:none"
         id="path144" /><path
         d="m 2657.71,218.559 43.46,6.839 c 2.44,-17.418 9.24,-30.757 20.38,-40.039 11.16,-9.277 26.74,-13.918 46.76,-13.918 20.18,0 35.16,4.11 44.92,12.329 9.77,8.218 14.65,17.859 14.65,28.929 0,9.93 -4.32,17.742 -12.94,23.442 -6.02,3.91 -20.99,8.871 -44.92,14.89 -32.23,8.141 -54.56,15.18 -67.02,21.117 -12.44,5.942 -21.89,14.161 -28.32,24.661 -6.43,10.492 -9.64,22.089 -9.64,34.793 0,11.546 2.65,22.257 7.94,32.109 5.28,9.84 12.48,18.019 21.6,24.527 6.84,5.043 16.15,9.321 27.95,12.813 11.81,3.508 24.45,5.258 37.97,5.258 20.34,0 38.2,-2.93 53.59,-8.789 15.37,-5.86 26.73,-13.79 34.05,-23.809 7.33,-10 12.37,-23.402 15.14,-40.16 l -42.97,-5.86 c -1.95,13.34 -7.6,23.758 -16.96,31.25 -9.37,7.481 -22.59,11.231 -39.68,11.231 -20.18,0 -34.59,-3.34 -43.21,-10.012 -8.63,-6.68 -12.94,-14.488 -12.94,-23.43 0,-5.71 1.79,-10.832 5.37,-15.378 3.57,-4.731 9.19,-8.641 16.85,-11.723 4.39,-1.629 17.33,-5.367 38.81,-11.231 31.09,-8.296 52.78,-15.097 65.07,-20.386 12.29,-5.293 21.93,-12.981 28.93,-23.071 6.99,-10.101 10.5,-22.632 10.5,-37.601 0,-14.649 -4.27,-28.442 -12.83,-41.379 -8.53,-12.93 -20.86,-22.949 -36.98,-30.02 -16.11,-7.089 -34.34,-10.632 -54.69,-10.632 -33.69,0 -59.36,6.992 -77.02,21 -17.66,13.992 -28.93,34.742 -33.82,62.25"
         style="fill:#2d49a3;fill-opacity:1;fill-rule:nonzero;stroke:none"
         id="path146" /><path
         d="m 2902.1,141.172 v 35.637 l 165.04,189.461 c -18.72,-0.981 -35.25,-1.469 -49.56,-1.469 h -105.71 v 35.648 h 211.91 V 371.391 L 2983.4,206.84 2956.3,176.809 c 19.69,1.472 38.16,2.203 55.42,2.203 h 119.87 v -37.84 H 2902.1"
         style="fill:#2d49a3;fill-opacity:1;fill-rule:nonzero;stroke:none"
         id="path148" /><path
         d="m 3190.67,141.172 v 259.277 h 43.95 V 141.172 Z m -2.19,291.5 32.47,68.359 h 57.61 l -53.71,-68.359 h -36.37"
         style="fill:#2d49a3;fill-opacity:1;fill-rule:nonzero;stroke:none"
         id="path150" /><path
         d="m 3313.72,141.172 v 259.277 h 39.55 v -39.308 c 10.09,18.39 19.41,30.519 27.96,36.379 8.54,5.859 17.94,8.789 28.19,8.789 14.81,0 29.87,-4.727 45.17,-14.161 l -15.14,-40.769 c -10.74,6.34 -21.48,9.519 -32.22,9.519 -9.61,0 -18.24,-2.886 -25.88,-8.679 -7.66,-5.77 -13.11,-13.778 -16.36,-24.039 -4.88,-15.621 -7.32,-32.711 -7.32,-51.27 V 141.172 h -43.95"
         style="fill:#2d49a3;fill-opacity:1;fill-rule:nonzero;stroke:none"
         id="path152" /><path
         d="m 3509.52,270.809 c 0,-33.2 7.24,-58.071 21.73,-74.579 14.48,-16.519 32.71,-24.789 54.69,-24.789 21.8,0 39.95,8.297 54.44,24.911 14.48,16.597 21.73,41.898 21.73,75.918 0,32.062 -7.29,56.359 -21.86,72.878 -14.56,16.524 -32.67,24.782 -54.31,24.782 -21.98,0 -40.21,-8.219 -54.69,-24.66 -14.49,-16.438 -21.73,-41.258 -21.73,-74.461 z m -45.16,0 c 0,48.011 13.34,83.57 40.03,106.691 22.3,19.199 49.48,28.809 81.55,28.809 35.64,0 64.77,-11.68 87.4,-35.039 22.62,-23.348 33.94,-55.629 33.94,-96.801 0,-33.367 -5.01,-59.61 -15.01,-78.731 -10.02,-19.129 -24.58,-33.976 -43.72,-44.558 -19.12,-10.578 -40,-15.871 -62.61,-15.871 -36.3,0 -65.64,11.632 -88.01,34.91 -22.38,23.269 -33.57,56.801 -33.57,100.59"
         style="fill:#2d49a3;fill-opacity:1;fill-rule:nonzero;stroke:none"
         id="path154" /><path
         d="m 3735.6,141.172 v 35.637 l 165.03,189.461 c -18.72,-0.981 -35.24,-1.469 -49.56,-1.469 h -105.71 v 35.648 h 211.92 v -29.058 l -140.39,-164.551 -27.1,-30.031 c 19.69,1.472 38.17,2.203 55.42,2.203 h 119.88 v -37.84 H 3735.6"
         style="fill:#2d49a3;fill-opacity:1;fill-rule:nonzero;stroke:none"
         id="path156" /><path
         d="m 4088.87,432.672 32.47,68.359 h 57.62 l -53.72,-68.359 z m 85.45,-161.371 c -15.96,-6.52 -39.89,-12.051 -71.78,-16.602 -18.07,-2.609 -30.85,-5.539 -38.33,-8.789 -7.49,-3.269 -13.27,-8.019 -17.33,-14.289 -4.08,-6.262 -6.11,-13.223 -6.11,-20.871 0,-11.719 4.44,-21.48 13.3,-29.301 8.88,-7.808 21.86,-11.719 38.95,-11.719 16.92,0 31.98,3.711 45.16,11.11 13.19,7.41 22.86,17.539 29.06,30.398 4.71,9.922 7.08,24.571 7.08,43.942 z m 3.66,-98.153 c -16.28,-13.839 -31.94,-23.597 -46.99,-29.289 -15.06,-5.699 -31.22,-8.55 -48.47,-8.55 -28.49,0 -50.38,6.953 -65.67,20.882 -15.31,13.911 -22.95,31.688 -22.95,53.34 0,12.688 2.89,24.301 8.67,34.778 5.77,10.511 13.34,18.929 22.69,25.281 9.37,6.351 19.91,11.14 31.62,14.398 8.63,2.282 21.65,4.481 39.07,6.594 35.48,4.227 61.6,9.277 78.37,15.137 0.15,6.019 0.24,9.84 0.24,11.48 0,17.903 -4.15,30.512 -12.45,37.84 -11.23,9.922 -27.92,14.891 -50.05,14.891 -20.67,0 -35.93,-3.621 -45.78,-10.871 -9.84,-7.239 -17.13,-20.059 -21.85,-38.45 l -42.97,5.86 c 3.91,18.39 10.34,33.25 19.29,44.562 8.95,11.309 21.89,20.02 38.82,26.117 16.92,6.114 36.53,9.161 58.84,9.161 22.13,0 40.12,-2.61 53.95,-7.821 13.83,-5.207 24.01,-11.75 30.52,-19.636 6.5,-7.903 11.07,-17.883 13.67,-29.922 1.47,-7.489 2.2,-20.989 2.2,-40.52 v -58.601 c 0,-40.86 0.94,-66.688 2.8,-77.508 1.88,-10.832 5.58,-21.211 11.12,-31.129 h -45.9 c -4.56,9.109 -7.49,19.777 -8.79,31.976"
         style="fill:#2d49a3;fill-opacity:1;fill-rule:nonzero;stroke:none"
         id="path158" /><path
         d="m 4269.29,218.559 43.45,6.839 c 2.45,-17.418 9.24,-30.757 20.39,-40.039 11.15,-9.277 26.73,-13.918 46.75,-13.918 20.18,0 35.16,4.11 44.92,12.329 9.77,8.218 14.65,17.859 14.65,28.929 0,9.93 -4.31,17.742 -12.94,23.442 -6.02,3.91 -20.99,8.871 -44.92,14.89 -32.22,8.141 -54.56,15.18 -67.02,21.117 -12.44,5.942 -21.88,14.161 -28.32,24.661 -6.43,10.492 -9.64,22.089 -9.64,34.793 0,11.546 2.65,22.257 7.94,32.109 5.28,9.84 12.48,18.019 21.6,24.527 6.84,5.043 16.15,9.321 27.95,12.813 11.81,3.508 24.45,5.258 37.97,5.258 20.34,0 38.2,-2.93 53.59,-8.789 15.38,-5.86 26.73,-13.79 34.06,-23.809 7.32,-10 12.36,-23.402 15.13,-40.16 l -42.97,-5.86 c -1.95,13.34 -7.6,23.758 -16.96,31.25 -9.36,7.481 -22.59,11.231 -39.68,11.231 -20.18,0 -34.59,-3.34 -43.21,-10.012 -8.63,-6.68 -12.94,-14.488 -12.94,-23.43 0,-5.71 1.79,-10.832 5.37,-15.378 3.58,-4.731 9.19,-8.641 16.85,-11.723 4.39,-1.629 17.33,-5.367 38.82,-11.231 31.08,-8.296 52.77,-15.097 65.07,-20.386 12.28,-5.293 21.92,-12.981 28.92,-23.071 6.99,-10.101 10.5,-22.632 10.5,-37.601 0,-14.649 -4.27,-28.442 -12.82,-41.379 -8.54,-12.93 -20.87,-22.949 -36.99,-30.02 -16.11,-7.089 -34.34,-10.632 -54.68,-10.632 -33.69,0 -59.37,6.992 -77.02,21 -17.67,13.992 -28.94,34.742 -33.82,62.25"
         style="fill:#2d49a3;fill-opacity:1;fill-rule:nonzero;stroke:none"
         id="path160" /><path
         d="m 4616.94,432.672 32.47,68.359 h 57.62 l -53.71,-68.359 z m 85.45,-161.371 c -15.95,-6.52 -39.88,-12.051 -71.77,-16.602 -18.07,-2.609 -30.85,-5.539 -38.33,-8.789 -7.5,-3.269 -13.28,-8.019 -17.34,-14.289 -4.07,-6.262 -6.1,-13.223 -6.1,-20.871 0,-11.719 4.43,-21.48 13.3,-29.301 8.88,-7.808 21.85,-11.719 38.94,-11.719 16.93,0 31.99,3.711 45.17,11.11 13.18,7.41 22.86,17.539 29.05,30.398 4.72,9.922 7.08,24.571 7.08,43.942 z m 3.66,-98.153 c -16.27,-13.839 -31.94,-23.597 -46.99,-29.289 -15.06,-5.699 -31.22,-8.55 -48.46,-8.55 -28.49,0 -50.39,6.953 -65.68,20.882 -15.3,13.911 -22.95,31.688 -22.95,53.34 0,12.688 2.89,24.301 8.67,34.778 5.78,10.511 13.34,18.929 22.7,25.281 9.37,6.351 19.9,11.14 31.62,14.398 8.62,2.282 21.64,4.481 39.06,6.594 35.48,4.227 61.61,9.277 78.37,15.137 0.16,6.019 0.25,9.84 0.25,11.48 0,17.903 -4.15,30.512 -12.45,37.84 -11.23,9.922 -27.92,14.891 -50.05,14.891 -20.68,0 -35.93,-3.621 -45.78,-10.871 -9.85,-7.239 -17.13,-20.059 -21.85,-38.45 l -42.97,5.86 c 3.91,18.39 10.33,33.25 19.29,44.562 8.94,11.309 21.88,20.02 38.82,26.117 16.92,6.114 36.53,9.161 58.83,9.161 22.13,0 40.12,-2.61 53.96,-7.821 13.83,-5.207 24,-11.75 30.52,-19.636 6.5,-7.903 11.06,-17.883 13.67,-29.922 1.46,-7.489 2.2,-20.989 2.2,-40.52 v -58.601 c 0,-40.86 0.93,-66.688 2.8,-77.508 1.87,-10.832 5.58,-21.211 11.11,-31.129 h -45.9 c -4.56,9.109 -7.49,19.777 -8.79,31.976"
         style="fill:#2d49a3;fill-opacity:1;fill-rule:nonzero;stroke:none"
         id="path162" /><path
         d="m 4886.96,141.172 -98.63,259.277 h 46.39 l 55.66,-155.277 c 6.02,-16.762 11.55,-34.184 16.6,-52.242 3.91,13.672 9.36,30.109 16.36,49.308 l 57.62,158.211 h 45.16 l -98.14,-259.277 h -41.02"
         style="fill:#2d49a3;fill-opacity:1;fill-rule:nonzero;stroke:none"
         id="path164" /><path
         d="m 5230.47,271.301 c -15.96,-6.52 -39.88,-12.051 -71.78,-16.602 -18.06,-2.609 -30.85,-5.539 -38.33,-8.789 -7.49,-3.269 -13.27,-8.019 -17.33,-14.289 -4.07,-6.262 -6.11,-13.223 -6.11,-20.871 0,-11.719 4.44,-21.48 13.3,-29.301 8.88,-7.808 21.86,-11.719 38.95,-11.719 16.92,0 31.98,3.711 45.17,11.11 13.18,7.41 22.86,17.539 29.05,30.398 4.72,9.922 7.08,24.571 7.08,43.942 z m 3.66,-98.153 c -16.28,-13.839 -31.94,-23.597 -46.99,-29.289 -15.06,-5.699 -31.22,-8.55 -48.47,-8.55 -28.48,0 -50.38,6.953 -65.67,20.882 -15.3,13.911 -22.95,31.688 -22.95,53.34 0,12.688 2.89,24.301 8.67,34.778 5.77,10.511 13.34,18.929 22.7,25.281 9.36,6.351 19.9,11.14 31.62,14.398 8.62,2.282 21.64,4.481 39.06,6.594 35.48,4.227 61.6,9.277 78.37,15.137 0.16,6.019 0.24,9.84 0.24,11.48 0,17.903 -4.15,30.512 -12.45,37.84 -11.23,9.922 -27.92,14.891 -50.05,14.891 -20.67,0 -35.92,-3.621 -45.78,-10.871 -9.84,-7.239 -17.13,-20.059 -21.84,-38.45 l -42.97,5.86 c 3.9,18.39 10.33,33.25 19.28,44.562 8.95,11.309 21.89,20.02 38.82,26.117 16.93,6.114 36.54,9.161 58.84,9.161 22.13,0 40.12,-2.61 53.96,-7.821 13.82,-5.207 24,-11.75 30.51,-19.636 6.51,-7.903 11.07,-17.883 13.68,-29.922 1.46,-7.489 2.19,-20.989 2.19,-40.52 v -58.601 c 0,-40.86 0.94,-66.688 2.81,-77.508 1.87,-10.832 5.57,-21.211 11.11,-31.129 h -45.9 c -4.56,9.109 -7.49,19.777 -8.79,31.976"
         style="fill:#2d49a3;fill-opacity:1;fill-rule:nonzero;stroke:none"
         id="path166" /><path
         d="m 5342.04,141.172 v 357.91 h 43.95 v -357.91 h -43.95"
         style="fill:#2d49a3;fill-opacity:1;fill-rule:nonzero;stroke:none"
         id="path168" /></g></g></svg>
