<?xml version="1.0" encoding="UTF-8" standalone="no"?>
<!-- Created with Inkscape (http://www.inkscape.org/) -->

<svg
   version="1.1"
   id="svg2"
   width="1034.16"
   height="222.60001"
   viewBox="0 0 1034.16 222.60001"
   sodipodi:docname="logosbeneficaireserasmusleft_fi_0.eps"
   xmlns:inkscape="http://www.inkscape.org/namespaces/inkscape"
   xmlns:sodipodi="http://sodipodi.sourceforge.net/DTD/sodipodi-0.dtd"
   xmlns="http://www.w3.org/2000/svg"
   xmlns:svg="http://www.w3.org/2000/svg">
  <defs
     id="defs6" />
  <sodipodi:namedview
     id="namedview4"
     pagecolor="#ffffff"
     bordercolor="#000000"
     borderopacity="0.25"
     inkscape:showpageshadow="2"
     inkscape:pageopacity="0.0"
     inkscape:pagecheckerboard="0"
     inkscape:deskcolor="#d1d1d1" />
  <g
     id="g8"
     inkscape:groupmode="layer"
     inkscape:label="ink_ext_XXXXXX"
     transform="matrix(1.3333333,0,0,-1.3333333,0,222.6)">
    <g
       id="g10"
       transform="scale(0.1)">
      <path
         d="M 7756.19,0 V 1669.52 H 5277.98 V 0 h 2478.21"
         style="fill:#2d49a3;fill-opacity:1;fill-rule:nonzero;stroke:none"
         id="path12" />
      <path
         d="m 7138.46,861.59 -25.86,0.527 -38.24,0.723 -12.52,34.094 -8.11,21.785 -7.97,-21.785 -12.42,-34.094 -38.24,-0.723 -25.84,-0.527 21.09,-15.195 30.14,-21.629 -10.96,-34.133 -7.52,-23.242 20.39,13.457 31.33,20.742 31.7,-20.742 20.14,-13.457 -7.39,23.242 -10.86,34.133 30.04,21.629 21.1,15.195"
         style="fill:#f3f020;fill-opacity:1;fill-rule:nonzero;stroke:none"
         id="path14" />
      <path
         d="m 7138.46,861.59 -25.86,0.527 -38.24,0.723 -12.52,34.094 -8.11,21.785 -7.97,-21.785 -12.42,-34.094 -38.24,-0.723 -25.84,-0.527 21.09,-15.195 30.14,-21.629 -10.96,-34.133 -7.52,-23.242 20.39,13.457 31.33,20.742 31.7,-20.742 20.14,-13.457 -7.39,23.242 -10.86,34.133 30.04,21.629 z"
         style="fill:none;stroke:#f3f020;stroke-width:11.064;stroke-linecap:butt;stroke-linejoin:miter;stroke-miterlimit:4;stroke-dasharray:none;stroke-opacity:1"
         id="path16" />
      <path
         d="m 6948.63,1093.95 -10.84,-34.18 -7.38,-23.18 20.25,13.28 31.47,21.04 31.7,-21.04 20,-13.28 -7.27,23.18 -10.95,34.18 30.03,21.64 21.2,15.2 -25.84,0.47 -38.38,0.6 -12.39,34.18 -8.1,22 -8.01,-22 -12.36,-34.18 -38.26,-0.6 -25.86,-0.47 20.97,-15.2 30.02,-21.64"
         style="fill:#f3f020;fill-opacity:1;fill-rule:nonzero;stroke:none"
         id="path18" />
      <path
         d="m 6948.63,1093.95 -10.84,-34.18 -7.38,-23.18 20.25,13.28 31.47,21.04 31.7,-21.04 20,-13.28 -7.27,23.18 -10.95,34.18 30.03,21.64 21.2,15.2 -25.84,0.47 -38.38,0.6 -12.39,34.18 -8.1,22 -8.01,-22 -12.36,-34.18 -38.26,-0.6 -25.86,-0.47 20.97,-15.2 z"
         style="fill:none;stroke:#f3f020;stroke-width:11.064;stroke-linecap:butt;stroke-linejoin:miter;stroke-miterlimit:4;stroke-dasharray:none;stroke-opacity:1"
         id="path20" />
      <path
         d="m 6807.91,1327.64 -12.52,34.13 -8.1,21.93 -7.97,-21.93 -12.41,-34.13 -38.24,-0.66 -25.99,-0.59 21.21,-15.13 30.15,-21.69 -10.95,-34.14 -7.52,-23.19 20.37,13.24 31.35,20.91 31.58,-20.91 20.27,-13.24 -7.52,23.19 -10.74,34.14 30.04,21.69 21.07,15.13 -25.72,0.59 -38.36,0.66"
         style="fill:#f3f020;fill-opacity:1;fill-rule:nonzero;stroke:none"
         id="path22" />
      <path
         d="m 6807.91,1327.64 -12.52,34.13 -8.1,21.93 -7.97,-21.93 -12.41,-34.13 -38.24,-0.66 -25.99,-0.59 21.21,-15.13 30.15,-21.69 -10.95,-34.14 -7.52,-23.19 20.37,13.24 31.35,20.91 31.58,-20.91 20.27,-13.24 -7.52,23.19 -10.74,34.14 30.04,21.69 21.07,15.13 -25.72,0.59 z"
         style="fill:none;stroke:#f3f020;stroke-width:11.064;stroke-linecap:butt;stroke-linejoin:miter;stroke-miterlimit:4;stroke-dasharray:none;stroke-opacity:1"
         id="path24" />
      <path
         d="m 6535.51,1399.85 -12.52,34.03 -8.13,21.92 -7.85,-21.92 -12.52,-34.03 -38.24,-0.84 -25.98,-0.41 21.21,-15.19 30.04,-21.75 -10.86,-34.2 -7.5,-23.12 20.26,13.23 31.44,20.97 31.7,-20.97 20.14,-13.23 -7.36,23.12 -10.86,34.2 30.04,21.75 20.95,15.19 -25.72,0.41 -38.24,0.84"
         style="fill:#f3f020;fill-opacity:1;fill-rule:nonzero;stroke:none"
         id="path26" />
      <path
         d="m 6535.51,1399.85 -12.52,34.03 -8.13,21.92 -7.85,-21.92 -12.52,-34.03 -38.24,-0.84 -25.98,-0.41 21.21,-15.19 30.04,-21.75 -10.86,-34.2 -7.5,-23.12 20.26,13.23 31.44,20.97 31.7,-20.97 20.14,-13.23 -7.36,23.12 -10.86,34.2 30.04,21.75 20.95,15.19 -25.72,0.41 z"
         style="fill:none;stroke:#f3f020;stroke-width:11.064;stroke-linecap:butt;stroke-linejoin:miter;stroke-miterlimit:4;stroke-dasharray:none;stroke-opacity:1"
         id="path28" />
      <path
         d="m 6265.47,1327.64 -12.52,34.13 -7.85,21.93 -7.99,-21.93 -12.5,-34.13 -38.26,-0.66 -25.98,-0.41 21.09,-15.25 30.16,-21.63 -10.86,-34.14 -7.48,-23.31 20.24,13.47 31.58,20.8 31.35,-20.8 20.25,-13.47 -7.38,23.31 -10.86,34.14 30.04,21.63 21.21,15.25 -25.98,0.41 -38.26,0.66"
         style="fill:#f3f020;fill-opacity:1;fill-rule:nonzero;stroke:none"
         id="path30" />
      <path
         d="m 6265.47,1327.64 -12.52,34.13 -7.85,21.93 -7.99,-21.93 -12.5,-34.13 -38.26,-0.66 -25.98,-0.41 21.09,-15.25 30.16,-21.63 -10.86,-34.14 -7.48,-23.31 20.24,13.47 31.58,20.8 31.35,-20.8 20.25,-13.47 -7.38,23.31 -10.86,34.14 30.04,21.63 21.21,15.25 -25.98,0.41 z"
         style="fill:none;stroke:#f3f020;stroke-width:11.064;stroke-linecap:butt;stroke-linejoin:miter;stroke-miterlimit:4;stroke-dasharray:none;stroke-opacity:1"
         id="path32" />
      <path
         d="m 6068.87,1133.93 -12.31,34.04 -7.97,21.85 -8.08,-21.85 -12.4,-34.04 -38.27,-0.7 -25.86,-0.49 21.1,-15.25 30.04,-21.68 -10.96,-34.08 -7.28,-23.25 20.01,13.34 31.59,20.86 31.58,-20.86 20.14,-13.34 -7.41,23.25 -10.84,34.08 30.16,21.68 20.98,15.25 -25.88,0.49 -38.34,0.7"
         style="fill:#f3f020;fill-opacity:1;fill-rule:nonzero;stroke:none"
         id="path34" />
      <path
         d="m 6068.87,1133.93 -12.31,34.04 -7.97,21.85 -8.08,-21.85 -12.4,-34.04 -38.27,-0.7 -25.86,-0.49 21.1,-15.25 30.04,-21.68 -10.96,-34.08 -7.28,-23.25 20.01,13.34 31.59,20.86 31.58,-20.86 20.14,-13.34 -7.41,23.25 -10.84,34.08 30.16,21.68 20.98,15.25 -25.88,0.49 z"
         style="fill:none;stroke:#f3f020;stroke-width:11.064;stroke-linecap:butt;stroke-linejoin:miter;stroke-miterlimit:4;stroke-dasharray:none;stroke-opacity:1"
         id="path36" />
      <path
         d="m 6006.52,781.336 20.26,-13.457 -7.37,23.351 -10.86,34.083 30.02,21.675 21.1,15.129 -25.84,0.547 -38.26,0.652 -12.5,34.036 -7.99,21.855 -8.01,-21.855 -12.5,-34.036 -38.24,-0.652 -25.86,-0.547 20.96,-15.129 30.15,-21.675 -10.84,-34.083 -7.38,-23.351 20.12,13.457 31.6,20.852 31.44,-20.852"
         style="fill:#f3f020;fill-opacity:1;fill-rule:nonzero;stroke:none"
         id="path38" />
      <path
         d="m 6006.52,781.336 20.26,-13.457 -7.37,23.351 -10.86,34.083 30.02,21.675 21.1,15.129 -25.84,0.547 -38.26,0.652 -12.5,34.036 -7.99,21.855 -8.01,-21.855 -12.5,-34.036 -38.24,-0.652 -25.86,-0.547 20.96,-15.129 30.15,-21.675 -10.84,-34.083 -7.38,-23.351 20.12,13.457 31.6,20.852 z"
         style="fill:none;stroke:#f3f020;stroke-width:11.064;stroke-linecap:butt;stroke-linejoin:miter;stroke-miterlimit:4;stroke-dasharray:none;stroke-opacity:1"
         id="path40" />
      <path
         d="m 6068.01,596.27 -12.5,33.96 -7.87,21.879 -8.11,-21.879 -12.5,-33.96 -38.24,-0.829 -25.86,-0.582 21.07,-15.019 30.04,-21.809 -10.86,-34.09 -7.5,-23.043 20.26,13.161 31.46,20.839 31.58,-20.839 20.14,-13.278 -7.38,23.16 -10.72,34.09 30.02,21.809 20.97,15.019 -25.86,0.582 -38.14,0.829"
         style="fill:#f3f020;fill-opacity:1;fill-rule:nonzero;stroke:none"
         id="path42" />
      <path
         d="m 6068.01,596.27 -12.5,33.96 -7.87,21.879 -8.11,-21.879 -12.5,-33.96 -38.24,-0.829 -25.86,-0.582 21.07,-15.019 30.04,-21.809 -10.86,-34.09 -7.5,-23.043 20.26,13.161 31.46,20.839 31.58,-20.839 20.14,-13.278 -7.38,23.16 -10.72,34.09 30.02,21.809 20.97,15.019 -25.86,0.582 z"
         style="fill:none;stroke:#f3f020;stroke-width:11.064;stroke-linecap:butt;stroke-linejoin:miter;stroke-miterlimit:4;stroke-dasharray:none;stroke-opacity:1"
         id="path44" />
      <path
         d="m 6263.09,400.73 -12.39,34.2 -7.99,21.859 -8.1,-21.859 -12.38,-34.2 -38.38,-0.601 -25.86,-0.59 21.21,-15.141 29.9,-21.687 -10.72,-34.063 -7.5,-23.25 20.12,13.231 31.71,20.922 31.33,-20.922 20.39,-13.231 -7.52,23.25 -10.82,34.063 30.02,21.687 21.21,15.141 -25.97,0.59 -38.26,0.601"
         style="fill:#f3f020;fill-opacity:1;fill-rule:nonzero;stroke:none"
         id="path46" />
      <path
         d="m 6263.09,400.73 -12.39,34.2 -7.99,21.859 -8.1,-21.859 -12.38,-34.2 -38.38,-0.601 -25.86,-0.59 21.21,-15.141 29.9,-21.687 -10.72,-34.063 -7.5,-23.25 20.12,13.231 31.71,20.922 31.33,-20.922 20.39,-13.231 -7.52,23.25 -10.82,34.063 30.02,21.687 21.21,15.141 -25.97,0.59 z"
         style="fill:none;stroke:#f3f020;stroke-width:11.064;stroke-linecap:butt;stroke-linejoin:miter;stroke-miterlimit:4;stroke-dasharray:none;stroke-opacity:1"
         id="path48" />
      <path
         d="m 6535.25,328.582 -12.38,33.898 -8.12,21.989 -7.86,-21.989 -12.51,-33.898 -38.25,-0.781 -25.99,-0.602 21.09,-15.25 30.18,-21.551 -10.98,-34.089 -7.27,-23.297 20.14,13.386 31.45,20.922 31.6,-20.922 20.13,-13.386 -7.26,23.297 -10.98,34.089 30.04,21.551 21.08,15.25 -25.73,0.602 -38.38,0.781"
         style="fill:#f3f020;fill-opacity:1;fill-rule:nonzero;stroke:none"
         id="path50" />
      <path
         d="m 6535.25,328.582 -12.38,33.898 -8.12,21.989 -7.86,-21.989 -12.51,-33.898 -38.25,-0.781 -25.99,-0.602 21.09,-15.25 30.18,-21.551 -10.98,-34.089 -7.27,-23.297 20.14,13.386 31.45,20.922 31.6,-20.922 20.13,-13.386 -7.26,23.297 -10.98,34.089 30.04,21.551 21.08,15.25 -25.73,0.602 z"
         style="fill:none;stroke:#f3f020;stroke-width:11.064;stroke-linecap:butt;stroke-linejoin:miter;stroke-miterlimit:4;stroke-dasharray:none;stroke-opacity:1"
         id="path52" />
      <path
         d="m 6805.41,399.422 -12.52,34.078 -7.99,21.871 -7.99,-21.871 -12.4,-34.078 -38.24,-0.844 -25.98,-0.476 21.23,-15.122 30.02,-21.679 -10.86,-34.102 -7.38,-23.23 20.14,13.242 31.46,20.898 31.58,-20.898 20.02,-13.242 -7.14,23.23 -10.86,34.102 29.9,21.679 21.11,15.122 -25.86,0.476 -38.24,0.844"
         style="fill:#f3f020;fill-opacity:1;fill-rule:nonzero;stroke:none"
         id="path54" />
      <path
         d="m 6805.41,399.422 -12.52,34.078 -7.99,21.871 -7.99,-21.871 -12.4,-34.078 -38.24,-0.844 -25.98,-0.476 21.23,-15.122 30.02,-21.679 -10.86,-34.102 -7.38,-23.23 20.14,13.242 31.46,20.898 31.58,-20.898 20.02,-13.242 -7.14,23.23 -10.86,34.102 29.9,21.679 21.11,15.122 -25.86,0.476 z"
         style="fill:none;stroke:#f3f020;stroke-width:11.064;stroke-linecap:butt;stroke-linejoin:miter;stroke-miterlimit:4;stroke-dasharray:none;stroke-opacity:1"
         id="path56" />
      <path
         d="m 7001.66,593.879 -12.52,34.109 -7.97,21.782 -7.99,-21.782 -12.52,-34.109 -38.26,-0.699 -25.84,-0.489 21.19,-15.25 29.95,-21.621 -10.84,-34.199 -7.29,-23.172 20.04,13.34 31.56,20.852 31.56,-20.852 20.04,-13.34 -7.4,23.172 -10.72,34.199 30.04,21.621 21.09,15.25 -25.88,0.489 -38.24,0.699"
         style="fill:#f3f020;fill-opacity:1;fill-rule:nonzero;stroke:none"
         id="path58" />
      <path
         d="m 7001.66,593.879 -12.52,34.109 -7.97,21.782 -7.99,-21.782 -12.52,-34.109 -38.26,-0.699 -25.84,-0.489 21.19,-15.25 29.95,-21.621 -10.84,-34.199 -7.29,-23.172 20.04,13.34 31.56,20.852 31.56,-20.852 20.04,-13.34 -7.4,23.172 -10.72,34.199 30.04,21.621 21.09,15.25 -25.88,0.489 z"
         style="fill:none;stroke:#f3f020;stroke-width:11.064;stroke-linecap:butt;stroke-linejoin:miter;stroke-miterlimit:4;stroke-dasharray:none;stroke-opacity:1"
         id="path60" />
      <path
         d="m 1613.53,1261.18 v 151.6 l -137.94,206.31 h 57.61 l 70.56,-107.91 c 13.02,-20.2 25.15,-40.37 36.38,-60.55 10.74,18.71 23.76,39.79 39.06,63.23 l 69.34,105.23 h 55.17 l -142.82,-206.31 v -151.6 h -47.36"
         style="fill:#2d49a3;fill-opacity:1;fill-rule:nonzero;stroke:none"
         id="path62" />
      <path
         d="m 1840.58,1261.18 v 357.91 h 43.94 v -128.42 c 20.51,23.75 46.39,35.65 77.64,35.65 19.2,0 35.89,-3.79 50.05,-11.36 14.16,-7.57 24.29,-18.03 30.39,-31.38 6.11,-13.34 9.16,-32.71 9.16,-58.1 v -164.3 h -43.95 v 164.3 c 0,21.97 -4.76,37.97 -14.27,47.98 -9.54,10 -23,15 -40.41,15 -13.03,0 -25.28,-3.37 -36.74,-10.12 -11.49,-6.76 -19.66,-15.91 -24.54,-27.47 -4.89,-11.56 -7.33,-27.5 -7.33,-47.85 v -141.84 h -43.94"
         style="fill:#2d49a3;fill-opacity:1;fill-rule:nonzero;stroke:none"
         id="path64" />
      <path
         d="m 2214.6,1300.48 6.35,-38.81 c -12.38,-2.61 -23.44,-3.91 -33.21,-3.91 -15.95,0 -28.32,2.52 -37.11,7.56 -8.78,5.05 -14.98,11.68 -18.55,19.9 -3.58,8.23 -5.37,25.51 -5.37,51.88 v 149.18 h -32.23 v 34.18 h 32.23 v 64.2 l 43.7,26.36 v -90.56 h 44.19 v -34.18 h -44.19 v -151.62 c 0,-12.53 0.77,-20.59 2.31,-24.16 1.56,-3.6 4.08,-6.44 7.58,-8.56 3.5,-2.11 8.5,-3.16 15.01,-3.16 4.89,0 11.31,0.56 19.29,1.7"
         style="fill:#2d49a3;fill-opacity:1;fill-rule:nonzero;stroke:none"
         id="path66" />
      <path
         d="m 2290.77,1415.71 h 144.78 c -1.96,21.82 -7.49,38.17 -16.6,49.08 -14.01,16.92 -32.15,25.39 -54.45,25.39 -20.18,0 -37.15,-6.75 -50.91,-20.27 -13.75,-13.51 -21.35,-31.57 -22.82,-54.2 z m 144.29,-71.03 45.41,-5.63 c -7.17,-26.52 -20.43,-47.11 -39.8,-61.76 -19.37,-14.65 -44.11,-21.97 -74.21,-21.97 -37.93,0 -68,11.67 -90.21,35.03 -22.23,23.35 -33.33,56.1 -33.33,98.27 0,43.61 11.23,77.46 33.69,101.56 22.46,24.09 51.59,36.14 87.4,36.14 34.67,0 62.99,-11.81 84.96,-35.41 21.98,-23.6 32.96,-56.8 32.96,-99.61 0,-2.6 -0.08,-6.51 -0.24,-11.72 h -193.36 c 1.62,-28.48 9.68,-50.29 24.17,-65.43 14.48,-15.14 32.55,-22.7 54.2,-22.7 16.11,0 29.86,4.22 41.26,12.7 11.39,8.46 20.42,21.97 27.1,40.53"
         style="fill:#2d49a3;fill-opacity:1;fill-rule:nonzero;stroke:none"
         id="path68" />
      <path
         d="m 2535.89,1261.18 v 259.28 h 43.94 v -259.28 z m 0,307.36 v 50.55 h 43.94 v -50.55 h -43.94"
         style="fill:#2d49a3;fill-opacity:1;fill-rule:nonzero;stroke:none"
         id="path70" />
      <path
         d="m 2629.15,1338.56 43.46,6.84 c 2.44,-17.42 9.24,-30.76 20.38,-40.04 11.15,-9.28 26.74,-13.91 46.76,-13.91 20.17,0 35.15,4.1 44.92,12.33 9.76,8.22 14.65,17.86 14.65,28.92 0,9.94 -4.32,17.75 -12.94,23.44 -6.03,3.91 -21,8.87 -44.92,14.9 -32.23,8.13 -54.57,15.18 -67.03,21.12 -12.44,5.93 -21.88,14.16 -28.32,24.65 -6.42,10.5 -9.64,22.1 -9.64,34.8 0,11.54 2.65,22.25 7.94,32.1 5.29,9.84 12.48,18.02 21.61,24.54 6.83,5.04 16.15,9.32 27.94,12.81 11.81,3.5 24.46,5.26 37.97,5.26 20.35,0 38.21,-2.93 53.6,-8.79 15.37,-5.86 26.73,-13.8 34.05,-23.81 7.32,-10.01 12.36,-23.4 15.14,-40.16 l -42.97,-5.86 c -1.96,13.34 -7.61,23.75 -16.96,31.25 -9.37,7.48 -22.59,11.23 -39.68,11.23 -20.19,0 -34.59,-3.34 -43.22,-10.02 -8.63,-6.67 -12.93,-14.48 -12.93,-23.43 0,-5.7 1.78,-10.82 5.37,-15.37 3.57,-4.73 9.19,-8.64 16.84,-11.72 4.4,-1.64 17.34,-5.37 38.82,-11.23 31.08,-8.3 52.77,-15.1 65.07,-20.39 12.28,-5.3 21.92,-12.99 28.92,-23.07 7,-10.1 10.5,-22.64 10.5,-37.6 0,-14.65 -4.27,-28.45 -12.82,-41.39 -8.53,-12.94 -20.87,-22.94 -36.98,-30.02 -16.12,-7.08 -34.35,-10.62 -54.69,-10.62 -33.69,0 -59.36,6.99 -77.02,21 -17.67,13.98 -28.94,34.74 -33.82,62.24"
         style="fill:#2d49a3;fill-opacity:1;fill-rule:nonzero;stroke:none"
         id="path72" />
      <path
         d="m 2896.24,1261.18 v 259.28 h 39.55 v -39.32 c 10.09,18.4 19.41,30.53 27.96,36.39 8.54,5.86 17.94,8.79 28.19,8.79 14.81,0 29.87,-4.73 45.17,-14.16 l -15.14,-40.78 c -10.74,6.34 -21.48,9.53 -32.22,9.53 -9.61,0 -18.24,-2.89 -25.88,-8.68 -7.66,-5.78 -13.11,-13.78 -16.36,-24.04 -4.88,-15.62 -7.32,-32.71 -7.32,-51.27 v -135.74 h -43.95"
         style="fill:#2d49a3;fill-opacity:1;fill-rule:nonzero;stroke:none"
         id="path74" />
      <path
         d="m 3228.76,1391.3 c -15.96,-6.51 -39.88,-12.04 -71.78,-16.6 -18.06,-2.6 -30.85,-5.53 -38.33,-8.79 -7.49,-3.26 -13.27,-8.01 -17.33,-14.28 -4.07,-6.27 -6.11,-13.22 -6.11,-20.88 0,-11.72 4.44,-21.48 13.31,-29.3 8.87,-7.81 21.85,-11.72 38.94,-11.72 16.92,0 31.98,3.72 45.17,11.12 13.18,7.4 22.86,17.54 29.05,30.39 4.72,9.93 7.08,24.58 7.08,43.94 z m 3.66,-98.15 c -16.28,-13.83 -31.94,-23.59 -46.99,-29.29 -15.06,-5.69 -31.22,-8.54 -48.47,-8.54 -28.48,0 -50.38,6.95 -65.67,20.87 -15.3,13.92 -22.95,31.69 -22.95,53.35 0,12.69 2.89,24.28 8.67,34.78 5.77,10.5 13.34,18.93 22.7,25.28 9.36,6.35 19.9,11.14 31.62,14.39 8.62,2.29 21.64,4.47 39.06,6.6 35.48,4.22 61.6,9.28 78.37,15.14 0.16,6.02 0.24,9.84 0.24,11.47 0,17.91 -4.15,30.52 -12.45,37.85 -11.23,9.92 -27.92,14.88 -50.05,14.88 -20.67,0 -35.92,-3.61 -45.78,-10.86 -9.84,-7.25 -17.13,-20.06 -21.84,-38.46 l -42.97,5.86 c 3.9,18.4 10.33,33.24 19.29,44.56 8.94,11.31 21.88,20.02 38.81,26.13 16.93,6.1 36.54,9.16 58.84,9.16 22.13,0 40.12,-2.62 53.96,-7.82 13.82,-5.21 24,-11.77 30.51,-19.65 6.51,-7.9 11.07,-17.87 13.68,-29.92 1.46,-7.48 2.19,-20.99 2.19,-40.52 v -58.6 c 0,-40.85 0.94,-66.68 2.81,-77.51 1.87,-10.83 5.57,-21.2 11.11,-31.12 h -45.9 c -4.56,9.1 -7.49,19.77 -8.79,31.97"
         style="fill:#2d49a3;fill-opacity:1;fill-rule:nonzero;stroke:none"
         id="path76" />
      <path
         d="m 3341.31,1261.18 v 357.91 h 43.94 v -128.42 c 20.51,23.75 46.39,35.65 77.64,35.65 19.2,0 35.89,-3.79 50.05,-11.36 14.16,-7.57 24.3,-18.03 30.39,-31.38 6.11,-13.34 9.16,-32.71 9.16,-58.1 v -164.3 h -43.95 v 164.3 c 0,21.97 -4.76,37.97 -14.27,47.98 -9.53,10 -23,15 -40.41,15 -13.03,0 -25.28,-3.37 -36.74,-10.12 -11.49,-6.76 -19.66,-15.91 -24.54,-27.47 -4.88,-11.56 -7.33,-27.5 -7.33,-47.85 v -141.84 h -43.94"
         style="fill:#2d49a3;fill-opacity:1;fill-rule:nonzero;stroke:none"
         id="path78" />
      <path
         d="m 3648.19,1390.81 c 0,-33.2 7.24,-58.07 21.73,-74.58 14.48,-16.52 32.72,-24.78 54.69,-24.78 21.81,0 39.95,8.3 54.44,24.91 14.49,16.6 21.73,41.9 21.73,75.91 0,32.07 -7.28,56.36 -21.85,72.88 -14.56,16.52 -32.68,24.78 -54.32,24.78 -21.97,0 -40.21,-8.22 -54.69,-24.65 -14.49,-16.44 -21.73,-41.27 -21.73,-74.47 z m -45.16,0 c 0,48.01 13.34,83.57 40.04,106.7 22.29,19.2 49.47,28.81 81.54,28.81 35.64,0 64.77,-11.68 87.4,-35.04 22.62,-23.36 33.94,-55.63 33.94,-96.8 0,-33.38 -5.01,-59.62 -15.01,-78.74 -10.02,-19.13 -24.58,-33.97 -43.71,-44.56 -19.12,-10.57 -40,-15.86 -62.62,-15.86 -36.3,0 -65.64,11.63 -88.01,34.9 -22.38,23.28 -33.57,56.81 -33.57,100.59"
         style="fill:#2d49a3;fill-opacity:1;fill-rule:nonzero;stroke:none"
         id="path80" />
      <path
         d="m 3897.71,1261.18 v 259.28 h 43.94 v -259.28 z m 0,307.36 v 50.55 h 43.94 v -50.55 h -43.94"
         style="fill:#2d49a3;fill-opacity:1;fill-rule:nonzero;stroke:none"
         id="path82" />
      <path
         d="m 4104.49,1300.48 6.35,-38.81 c -12.37,-2.61 -23.44,-3.91 -33.2,-3.91 -15.96,0 -28.32,2.52 -37.11,7.56 -8.79,5.05 -14.98,11.68 -18.56,19.9 -3.58,8.23 -5.37,25.51 -5.37,51.88 v 149.18 h -32.22 v 34.18 h 32.22 v 64.2 l 43.7,26.36 v -90.56 h 44.19 v -34.18 h -44.19 v -151.62 c 0,-12.53 0.77,-20.59 2.32,-24.16 1.55,-3.6 4.07,-6.44 7.58,-8.56 3.49,-2.11 8.49,-3.16 15.01,-3.16 4.88,0 11.3,0.56 19.28,1.7"
         style="fill:#2d49a3;fill-opacity:1;fill-rule:nonzero;stroke:none"
         id="path84" />
      <path
         d="m 4180.66,1415.71 h 144.78 c -1.95,21.82 -7.49,38.17 -16.6,49.08 -14.01,16.92 -32.15,25.39 -54.45,25.39 -20.18,0 -37.14,-6.75 -50.9,-20.27 -13.75,-13.51 -21.36,-31.57 -22.83,-54.2 z m 144.29,-71.03 45.41,-5.63 c -7.17,-26.52 -20.43,-47.11 -39.79,-61.76 -19.38,-14.65 -44.11,-21.97 -74.22,-21.97 -37.93,0 -68,11.67 -90.21,35.03 -22.22,23.35 -33.33,56.1 -33.33,98.27 0,43.61 11.23,77.46 33.69,101.56 22.46,24.09 51.6,36.14 87.41,36.14 34.66,0 62.98,-11.81 84.96,-35.41 21.97,-23.6 32.96,-56.8 32.96,-99.61 0,-2.6 -0.09,-6.51 -0.25,-11.72 h -193.36 c 1.62,-28.48 9.68,-50.29 24.17,-65.43 14.49,-15.14 32.55,-22.7 54.2,-22.7 16.12,0 29.87,4.22 41.26,12.7 11.39,8.46 20.42,21.97 27.1,40.53"
         style="fill:#2d49a3;fill-opacity:1;fill-rule:nonzero;stroke:none"
         id="path86" />
      <path
         d="m 4521.48,1300.48 6.35,-38.81 c -12.37,-2.61 -23.44,-3.91 -33.2,-3.91 -15.96,0 -28.32,2.52 -37.11,7.56 -8.79,5.05 -14.98,11.68 -18.56,19.9 -3.58,8.23 -5.37,25.51 -5.37,51.88 v 149.18 h -32.22 v 34.18 h 32.22 v 64.2 l 43.7,26.36 v -90.56 h 44.19 v -34.18 h -44.19 v -151.62 c 0,-12.53 0.78,-20.59 2.32,-24.16 1.55,-3.6 4.07,-6.44 7.58,-8.56 3.49,-2.11 8.49,-3.16 15.01,-3.16 4.88,0 11.31,0.56 19.28,1.7"
         style="fill:#2d49a3;fill-opacity:1;fill-rule:nonzero;stroke:none"
         id="path88" />
      <path
         d="m 4660.4,1300.48 6.35,-38.81 c -12.37,-2.61 -23.44,-3.91 -33.21,-3.91 -15.95,0 -28.32,2.52 -37.1,7.56 -8.79,5.05 -14.98,11.68 -18.56,19.9 -3.58,8.23 -5.37,25.51 -5.37,51.88 v 149.18 h -32.23 v 34.18 h 32.23 v 64.2 l 43.7,26.36 v -90.56 h 44.19 v -34.18 h -44.19 v -151.62 c 0,-12.53 0.77,-20.59 2.32,-24.16 1.55,-3.6 4.07,-6.44 7.57,-8.56 3.5,-2.11 8.5,-3.16 15.01,-3.16 4.89,0 11.31,0.56 19.29,1.7"
         style="fill:#2d49a3;fill-opacity:1;fill-rule:nonzero;stroke:none"
         id="path90" />
      <path
         d="m 4873.29,1261.18 v 38.09 c -20.18,-29.3 -47.61,-43.95 -82.27,-43.95 -15.31,0 -29.58,2.93 -42.86,8.79 -13.26,5.86 -23.1,13.22 -29.53,22.09 -6.43,8.87 -10.95,19.73 -13.55,32.6 -1.8,8.61 -2.69,22.28 -2.69,41.01 v 160.65 h 43.95 v -143.81 c 0,-22.95 0.89,-38.41 2.68,-46.39 2.77,-11.55 8.63,-20.62 17.58,-27.21 8.95,-6.6 20.02,-9.9 33.2,-9.9 13.19,0 25.55,3.38 37.11,10.14 11.56,6.76 19.74,15.94 24.54,27.59 4.8,11.63 7.2,28.52 7.2,50.65 v 138.93 h 43.95 v -259.28 h -39.31"
         style="fill:#2d49a3;fill-opacity:1;fill-rule:nonzero;stroke:none"
         id="path92" />
      <path
         d="m 1068.12,701.172 v 357.908 h 258.78 v -42.24 H 1115.48 V 907.227 h 198 v -41.993 h -198 V 743.406 h 219.73 v -42.234 h -267.09"
         style="fill:#2d49a3;fill-opacity:1;fill-rule:nonzero;stroke:none"
         id="path94" />
      <path
         d="m 1564.94,701.172 v 38.086 c -20.18,-29.297 -47.61,-43.945 -82.27,-43.945 -15.31,0 -29.58,2.925 -42.86,8.789 -13.26,5.859 -23.1,13.218 -29.53,22.089 -6.43,8.875 -10.95,19.735 -13.55,32.594 -1.8,8.625 -2.69,22.297 -2.69,41.02 v 160.64 h 43.95 V 816.648 c 0,-22.949 0.89,-38.418 2.68,-46.386 2.77,-11.563 8.63,-20.633 17.58,-27.215 8.95,-6.606 20.02,-9.895 33.21,-9.895 13.18,0 25.54,3.379 37.1,10.125 11.56,6.758 19.74,15.957 24.54,27.602 4.8,11.629 7.2,28.516 7.2,50.652 v 138.914 h 43.95 V 701.172 h -39.31"
         style="fill:#2d49a3;fill-opacity:1;fill-rule:nonzero;stroke:none"
         id="path96" />
      <path
         d="m 1672.61,701.172 v 259.273 h 39.55 v -39.304 c 10.09,18.386 19.4,30.515 27.96,36.379 8.53,5.859 17.94,8.789 28.19,8.789 14.81,0 29.86,-4.719 45.17,-14.161 l -15.14,-40.773 c -10.74,6.348 -21.48,9.523 -32.23,9.523 -9.61,0 -18.23,-2.89 -25.88,-8.664 -7.65,-5.781 -13.1,-13.796 -16.35,-24.05 -4.89,-15.625 -7.33,-32.715 -7.33,-51.274 V 701.172 h -43.94"
         style="fill:#2d49a3;fill-opacity:1;fill-rule:nonzero;stroke:none"
         id="path98" />
      <path
         d="m 1868.41,830.809 c 0,-33.204 7.23,-58.067 21.73,-74.579 14.48,-16.527 32.71,-24.789 54.68,-24.789 21.81,0 39.96,8.301 54.45,24.907 14.48,16.597 21.73,41.902 21.73,75.925 0,32.063 -7.29,56.348 -21.86,72.872 -14.56,16.523 -32.68,24.785 -54.32,24.785 -21.97,0 -40.2,-8.223 -54.68,-24.657 -14.5,-16.437 -21.73,-41.261 -21.73,-74.464 z m -45.17,0 c 0,48.007 13.34,83.574 40.04,106.687 22.3,19.211 49.47,28.813 81.54,28.813 35.65,0 64.78,-11.68 87.41,-35.032 22.61,-23.359 33.93,-55.625 33.93,-96.804 0,-33.371 -5.01,-59.614 -15.01,-78.735 -10.02,-19.129 -24.58,-33.98 -43.71,-44.558 -19.12,-10.575 -40,-15.867 -62.62,-15.867 -36.29,0 -65.63,11.628 -88,34.91 -22.39,23.269 -33.58,56.797 -33.58,100.586"
         style="fill:#2d49a3;fill-opacity:1;fill-rule:nonzero;stroke:none"
         id="path100" />
      <path
         d="m 2146.48,830.809 c 0,-33.204 7.24,-58.067 21.73,-74.579 14.49,-16.527 32.72,-24.789 54.69,-24.789 21.81,0 39.95,8.301 54.44,24.907 14.49,16.597 21.73,41.902 21.73,75.925 0,32.063 -7.28,56.348 -21.85,72.872 -14.56,16.523 -32.68,24.785 -54.32,24.785 -21.97,0 -40.2,-8.223 -54.69,-24.657 -14.49,-16.437 -21.73,-41.261 -21.73,-74.464 z m -45.16,0 c 0,48.007 13.34,83.574 40.04,106.687 22.29,19.211 49.47,28.813 81.54,28.813 35.64,0 64.78,-11.68 87.4,-35.032 22.62,-23.359 33.94,-55.625 33.94,-96.804 0,-33.371 -5.01,-59.614 -15.01,-78.735 -10.02,-19.129 -24.58,-33.98 -43.71,-44.558 -19.12,-10.575 -40,-15.867 -62.62,-15.867 -36.3,0 -65.63,11.628 -88.01,34.91 -22.38,23.269 -33.57,56.797 -33.57,100.586"
         style="fill:#2d49a3;fill-opacity:1;fill-rule:nonzero;stroke:none"
         id="path102" />
      <path
         d="m 2435.55,829.344 c 0,-33.367 6.74,-58.028 20.26,-73.977 13.51,-15.957 29.86,-23.926 49.07,-23.926 19.53,0 36.25,8.262 50.18,24.789 13.9,16.512 20.87,42.11 20.87,76.778 0,33.035 -6.8,57.781 -20.38,74.219 -13.6,16.433 -29.84,24.656 -48.71,24.656 -18.72,0 -35.28,-8.75 -49.69,-26.25 -14.4,-17.5 -21.6,-42.93 -21.6,-76.289 z m -39.8,-227.543 v 358.644 h 40.04 v -33.687 c 9.43,13.183 20.1,23.074 31.98,29.656 11.88,6.602 26.28,9.895 43.22,9.895 22.13,0 41.66,-5.696 58.59,-17.09 16.92,-11.399 29.7,-27.473 38.33,-48.215 8.62,-20.762 12.94,-43.508 12.94,-68.242 0,-26.532 -4.76,-50.418 -14.29,-71.653 -9.51,-21.25 -23.35,-37.515 -41.5,-48.828 -18.15,-11.316 -37.23,-16.968 -57.25,-16.968 -14.65,0 -27.79,3.093 -39.43,9.277 -11.63,6.18 -21.2,13.992 -28.68,23.433 V 601.801 h -43.95"
         style="fill:#2d49a3;fill-opacity:1;fill-rule:nonzero;stroke:none"
         id="path104" />
      <path
         d="m 2839.36,831.297 c -15.96,-6.516 -39.89,-12.051 -71.78,-16.602 -18.07,-2.605 -30.85,-5.539 -38.33,-8.789 -7.49,-3.261 -13.27,-8.015 -17.34,-14.289 -4.07,-6.258 -6.1,-13.219 -6.1,-20.867 0,-11.719 4.43,-21.484 13.3,-29.297 8.88,-7.812 21.86,-11.719 38.95,-11.719 16.92,0 31.98,3.704 45.16,11.106 13.19,7.41 22.86,17.539 29.06,30.398 4.71,9.922 7.08,24.571 7.08,43.946 z m 3.66,-98.145 c -16.28,-13.836 -31.95,-23.601 -46.99,-29.297 -15.06,-5.695 -31.23,-8.542 -48.47,-8.542 -28.49,0 -50.38,6.953 -65.68,20.878 -15.3,13.907 -22.94,31.688 -22.94,53.336 0,12.7 2.89,24.297 8.67,34.789 5.77,10.504 13.34,18.922 22.69,25.274 9.37,6.348 19.91,11.14 31.62,14.402 8.63,2.278 21.64,4.473 39.07,6.594 35.47,4.227 61.6,9.273 78.37,15.137 0.15,6.023 0.24,9.843 0.24,11.472 0,17.903 -4.15,30.52 -12.45,37.84 -11.23,9.934 -27.92,14.895 -50.05,14.895 -20.67,0 -35.93,-3.621 -45.78,-10.86 -9.85,-7.246 -17.13,-20.066 -21.85,-38.457 l -42.97,5.86 c 3.91,18.386 10.34,33.242 19.29,44.55 8.95,11.309 21.89,20.02 38.82,26.133 16.92,6.094 36.53,9.153 58.84,9.153 22.13,0 40.11,-2.61 53.95,-7.817 13.83,-5.203 24.01,-11.765 30.52,-19.656 6.5,-7.891 11.06,-17.859 13.67,-29.902 1.47,-7.493 2.2,-20.996 2.2,-40.528 v -58.593 c 0,-40.86 0.94,-66.692 2.8,-77.508 1.88,-10.832 5.58,-21.211 11.12,-31.133 h -45.9 c -4.56,9.109 -7.49,19.773 -8.79,31.98"
         style="fill:#2d49a3;fill-opacity:1;fill-rule:nonzero;stroke:none"
         id="path106" />
      <path
         d="m 2951.9,701.172 v 259.273 h 39.56 v -36.863 c 19.04,28.477 46.54,42.727 82.51,42.727 15.63,0 29.99,-2.805 43.1,-8.43 13.1,-5.606 22.9,-12.981 29.41,-22.09 6.51,-9.121 11.07,-19.941 13.68,-32.473 1.62,-8.132 2.44,-22.378 2.44,-42.722 V 701.172 h -43.95 v 157.715 c 0,17.898 -1.71,31.289 -5.12,40.164 -3.42,8.867 -9.49,15.937 -18.2,21.23 -8.7,5.293 -18.91,7.942 -30.63,7.942 -18.72,0 -34.88,-5.95 -48.47,-17.825 -13.58,-11.882 -20.38,-34.421 -20.38,-67.625 V 701.172 h -43.95"
         style="fill:#2d49a3;fill-opacity:1;fill-rule:nonzero;stroke:none"
         id="path108" />
      <path
         d="m 3538.82,701.172 v 38.086 c -20.19,-29.297 -47.61,-43.945 -82.28,-43.945 -15.3,0 -29.58,2.925 -42.85,8.789 -13.26,5.859 -23.1,13.218 -29.53,22.089 -6.44,8.875 -10.96,19.735 -13.55,32.594 -1.8,8.625 -2.69,22.297 -2.69,41.02 v 160.64 h 43.95 V 816.648 c 0,-22.949 0.88,-38.418 2.68,-46.386 2.76,-11.563 8.62,-20.633 17.58,-27.215 8.94,-6.606 20.02,-9.895 33.2,-9.895 13.19,0 25.55,3.379 37.11,10.125 11.55,6.758 19.74,15.957 24.53,27.602 4.81,11.629 7.21,28.516 7.21,50.652 v 138.914 h 43.95 V 701.172 h -39.31"
         style="fill:#2d49a3;fill-opacity:1;fill-rule:nonzero;stroke:none"
         id="path110" />
      <path
         d="m 3646.97,701.172 v 259.273 h 39.55 v -36.863 c 19.05,28.477 46.55,42.727 82.52,42.727 15.63,0 29.99,-2.805 43.1,-8.43 13.09,-5.606 22.9,-12.981 29.41,-22.09 6.51,-9.121 11.07,-19.941 13.67,-32.473 1.63,-8.132 2.45,-22.378 2.45,-42.722 V 701.172 h -43.95 v 157.715 c 0,17.898 -1.71,31.289 -5.13,40.164 -3.41,8.867 -9.48,15.937 -18.19,21.23 -8.7,5.293 -18.92,7.942 -30.63,7.942 -18.73,0 -34.88,-5.95 -48.47,-17.825 -13.59,-11.882 -20.38,-34.421 -20.38,-67.625 V 701.172 h -43.95"
         style="fill:#2d49a3;fill-opacity:1;fill-rule:nonzero;stroke:none"
         id="path112" />
      <path
         d="m 3925.29,701.172 v 259.273 h 43.95 V 701.172 Z m 0,307.368 v 50.54 h 43.95 v -50.54 h -43.95"
         style="fill:#2d49a3;fill-opacity:1;fill-rule:nonzero;stroke:none"
         id="path114" />
      <path
         d="m 4064.94,830.809 c 0,-33.204 7.24,-58.067 21.73,-74.579 14.48,-16.527 32.71,-24.789 54.69,-24.789 21.8,0 39.95,8.301 54.44,24.907 14.48,16.597 21.73,41.902 21.73,75.925 0,32.063 -7.29,56.348 -21.86,72.872 -14.56,16.523 -32.67,24.785 -54.31,24.785 -21.98,0 -40.21,-8.223 -54.69,-24.657 -14.49,-16.437 -21.73,-41.261 -21.73,-74.464 z m -45.16,0 c 0,48.007 13.34,83.574 40.03,106.687 22.3,19.211 49.48,28.813 81.55,28.813 35.64,0 64.77,-11.68 87.4,-35.032 22.62,-23.359 33.94,-55.625 33.94,-96.804 0,-33.371 -5.01,-59.614 -15.01,-78.735 -10.02,-19.129 -24.58,-33.98 -43.72,-44.558 -19.12,-10.575 -40,-15.867 -62.61,-15.867 -36.3,0 -65.64,11.628 -88.01,34.91 -22.38,23.269 -33.57,56.797 -33.57,100.586"
         style="fill:#2d49a3;fill-opacity:1;fill-rule:nonzero;stroke:none"
         id="path116" />
      <path
         d="m 4314.21,701.172 v 259.273 h 39.55 v -36.863 c 19.04,28.477 46.54,42.727 82.52,42.727 15.62,0 29.99,-2.805 43.1,-8.43 13.09,-5.606 22.9,-12.981 29.41,-22.09 6.5,-9.121 11.06,-19.941 13.67,-32.473 1.62,-8.132 2.44,-22.378 2.44,-42.722 V 701.172 h -43.94 v 157.715 c 0,17.898 -1.71,31.289 -5.13,40.164 -3.42,8.867 -9.48,15.937 -18.19,21.23 -8.7,5.293 -18.92,7.942 -30.64,7.942 -18.72,0 -34.87,-5.95 -48.46,-17.825 -13.59,-11.882 -20.39,-34.421 -20.39,-67.625 V 701.172 h -43.94"
         style="fill:#2d49a3;fill-opacity:1;fill-rule:nonzero;stroke:none"
         id="path118" />
      <path
         d="m 4592.53,701.172 v 259.273 h 43.94 V 701.172 Z m 0,307.368 v 50.54 h 43.94 v -50.54 h -43.94"
         style="fill:#2d49a3;fill-opacity:1;fill-rule:nonzero;stroke:none"
         id="path120" />
      <path
         d="m 4703.37,701.172 v 259.273 h 39.55 v -36.863 c 19.04,28.477 46.54,42.727 82.52,42.727 15.62,0 29.99,-2.805 43.1,-8.43 13.09,-5.606 22.9,-12.981 29.41,-22.09 6.5,-9.121 11.06,-19.941 13.67,-32.473 1.62,-8.132 2.44,-22.378 2.44,-42.722 V 701.172 h -43.94 v 157.715 c 0,17.898 -1.71,31.289 -5.13,40.164 -3.42,8.867 -9.48,15.937 -18.19,21.23 -8.7,5.293 -18.92,7.942 -30.64,7.942 -18.72,0 -34.87,-5.95 -48.46,-17.825 -13.59,-11.882 -20.39,-34.421 -20.39,-67.625 V 701.172 h -43.94"
         style="fill:#2d49a3;fill-opacity:1;fill-rule:nonzero;stroke:none"
         id="path122" />
      <path
         d="m 0,141.172 v 357.91 H 258.789 V 456.84 H 47.3633 V 347.219 H 245.359 V 305.23 H 47.3633 V 183.41 H 267.09 V 141.172 H 0"
         style="fill:#2d49a3;fill-opacity:1;fill-rule:nonzero;stroke:none"
         id="path124" />
      <path
         d="m 326.418,141.172 v 259.277 h 39.551 v -39.308 c 10.086,18.39 19.402,30.519 27.957,36.379 8.535,5.859 17.937,8.789 28.191,8.789 14.809,0 29.863,-4.727 45.168,-14.161 l -15.137,-40.769 c -10.742,6.34 -21.484,9.519 -32.226,9.519 -9.609,0 -18.234,-2.886 -25.879,-8.679 -7.656,-5.77 -13.105,-13.778 -16.355,-24.039 -4.883,-15.621 -7.329,-32.711 -7.329,-51.27 V 141.172 h -43.941"
         style="fill:#2d49a3;fill-opacity:1;fill-rule:nonzero;stroke:none"
         id="path126" />
      <path
         d="m 658.938,271.301 c -15.958,-6.52 -39.883,-12.051 -71.782,-16.602 -18.062,-2.609 -30.847,-5.539 -38.328,-8.789 -7.488,-3.269 -13.269,-8.019 -17.336,-14.289 -4.07,-6.262 -6.101,-13.223 -6.101,-20.871 0,-11.719 4.433,-21.48 13.3,-29.301 8.875,-7.808 21.856,-11.719 38.946,-11.719 16.926,0 31.98,3.711 45.168,11.11 13.179,7.41 22.859,17.539 29.05,30.398 4.715,9.922 7.083,24.571 7.083,43.942 z m 3.66,-98.153 c -16.282,-13.839 -31.946,-23.597 -46.993,-29.289 -15.058,-5.699 -31.218,-8.55 -48.464,-8.55 -28.489,0 -50.383,6.953 -65.676,20.882 -15.305,13.911 -22.949,31.688 -22.949,53.34 0,12.688 2.89,24.301 8.672,34.778 5.773,10.511 13.339,18.929 22.695,25.281 9.363,6.351 19.902,11.14 31.621,14.398 8.625,2.282 21.641,4.481 39.062,6.594 35.481,4.227 61.602,9.277 78.372,15.137 0.156,6.019 0.242,9.84 0.242,11.48 0,17.903 -4.153,30.512 -12.45,37.84 -11.234,9.922 -27.921,14.891 -50.05,14.891 -20.672,0 -35.926,-3.621 -45.782,-10.871 C 541.055,351.82 533.77,339 529.055,320.609 l -42.969,5.86 c 3.902,18.39 10.332,33.25 19.285,44.562 8.945,11.309 21.887,20.02 38.817,26.117 16.925,6.114 36.535,9.161 58.839,9.161 22.129,0 40.118,-2.61 53.953,-7.821 13.833,-5.207 24.004,-11.75 30.52,-19.636 6.504,-7.903 11.063,-17.883 13.672,-29.922 1.465,-7.489 2.195,-20.989 2.195,-40.52 v -58.601 c 0,-40.86 0.942,-66.688 2.805,-77.508 1.875,-10.832 5.574,-21.211 11.113,-31.129 h -45.898 c -4.563,9.109 -7.492,19.777 -8.789,31.976"
         style="fill:#2d49a3;fill-opacity:1;fill-rule:nonzero;stroke:none"
         id="path128" />
      <path
         d="m 753.906,218.559 43.457,6.839 c 2.442,-17.418 9.239,-30.757 20.379,-40.039 11.153,-9.277 26.738,-13.918 46.762,-13.918 20.176,0 35.152,4.11 44.922,12.329 9.762,8.218 14.644,17.859 14.644,28.929 0,9.93 -4.312,17.742 -12.937,23.442 -6.028,3.91 -20.996,8.871 -44.922,14.89 -32.227,8.141 -54.563,15.18 -67.023,21.117 -12.442,5.942 -21.883,14.161 -28.321,24.661 -6.426,10.492 -9.637,22.089 -9.637,34.793 0,11.546 2.649,22.257 7.942,32.109 5.281,9.84 12.476,18.019 21.598,24.527 6.835,5.043 16.156,9.321 27.953,12.813 11.804,3.508 24.453,5.258 37.965,5.258 20.343,0 38.207,-2.93 53.593,-8.789 15.371,-5.86 26.731,-13.79 34.055,-23.809 7.324,-10 12.363,-23.402 15.137,-40.16 l -42.969,-5.86 c -1.953,13.34 -7.609,23.758 -16.961,31.25 -9.367,7.481 -22.59,11.231 -39.68,11.231 -20.183,0 -34.59,-3.34 -43.215,-10.012 -8.628,-6.68 -12.937,-14.488 -12.937,-23.43 0,-5.71 1.785,-10.832 5.371,-15.378 3.574,-4.731 9.188,-8.641 16.848,-11.723 4.39,-1.629 17.332,-5.367 38.816,-11.231 31.082,-8.296 52.774,-15.097 65.067,-20.386 12.289,-5.293 21.925,-12.981 28.925,-23.071 6.992,-10.101 10.5,-22.632 10.5,-37.601 0,-14.649 -4.265,-28.442 -12.82,-41.379 -8.535,-12.93 -20.871,-22.949 -36.984,-30.02 -16.114,-7.089 -34.344,-10.632 -54.688,-10.632 -33.691,0 -59.363,6.992 -77.019,21 -17.668,13.992 -28.938,34.742 -33.821,62.25"
         style="fill:#2d49a3;fill-opacity:1;fill-rule:nonzero;stroke:none"
         id="path130" />
      <path
         d="m 1021.48,141.172 v 259.277 h 39.31 V 364.07 c 8.14,12.7 18.96,22.91 32.47,30.641 13.51,7.73 28.89,11.598 46.14,11.598 19.2,0 34.96,-4 47.25,-11.969 12.29,-7.969 20.95,-19.129 26,-33.442 20.5,30.274 47.19,45.411 80.07,45.411 25.72,0 45.49,-7.118 59.33,-21.368 13.83,-14.242 20.75,-36.171 20.75,-65.793 V 141.172 h -43.7 V 304.5 c 0,17.578 -1.42,30.23 -4.27,37.961 -2.85,7.73 -8.02,13.949 -15.5,18.68 -7.49,4.718 -16.28,7.078 -26.37,7.078 -18.23,0 -33.37,-6.059 -45.41,-18.18 -12.05,-12.129 -18.07,-31.551 -18.07,-58.238 V 141.172 h -43.94 v 168.457 c 0,19.531 -3.59,34.18 -10.75,43.941 -7.16,9.77 -18.88,14.649 -35.15,14.649 -12.37,0 -23.81,-3.258 -34.3,-9.758 -10.51,-6.52 -18.11,-16.039 -22.83,-28.57 -4.73,-12.539 -7.08,-30.602 -7.08,-54.2 V 141.172 h -43.95"
         style="fill:#2d49a3;fill-opacity:1;fill-rule:nonzero;stroke:none"
         id="path132" />
      <path
         d="m 1607.91,141.172 v 38.09 c -20.19,-29.301 -47.61,-43.953 -82.28,-43.953 -15.3,0 -29.58,2.929 -42.85,8.793 -13.26,5.859 -23.1,13.218 -29.53,22.089 -6.43,8.879 -10.96,19.739 -13.55,32.598 -1.8,8.621 -2.69,22.293 -2.69,41.012 v 160.648 h 43.95 V 256.648 c 0,-22.949 0.89,-38.418 2.68,-46.386 2.77,-11.563 8.63,-20.633 17.58,-27.211 8.95,-6.61 20.02,-9.903 33.2,-9.903 13.19,0 25.55,3.383 37.11,10.133 11.56,6.758 19.74,15.957 24.53,27.598 4.81,11.633 7.21,28.512 7.21,50.652 v 138.918 h 43.95 V 141.172 h -39.31"
         style="fill:#2d49a3;fill-opacity:1;fill-rule:nonzero;stroke:none"
         id="path134" />
      <path
         d="m 1698.49,218.559 43.45,6.839 c 2.44,-17.418 9.24,-30.757 20.38,-40.039 11.16,-9.277 26.74,-13.918 46.76,-13.918 20.18,0 35.16,4.11 44.92,12.329 9.77,8.218 14.65,17.859 14.65,28.929 0,9.93 -4.31,17.742 -12.94,23.442 -6.02,3.91 -20.99,8.871 -44.92,14.89 -32.23,8.141 -54.56,15.18 -67.02,21.117 -12.44,5.942 -21.89,14.161 -28.32,24.661 -6.43,10.492 -9.64,22.089 -9.64,34.793 0,11.546 2.65,22.257 7.94,32.109 5.28,9.84 12.48,18.019 21.6,24.527 6.84,5.043 16.15,9.321 27.95,12.813 11.81,3.508 24.45,5.258 37.97,5.258 20.34,0 38.2,-2.93 53.59,-8.789 15.37,-5.86 26.73,-13.79 34.06,-23.809 7.32,-10 12.36,-23.402 15.13,-40.16 l -42.97,-5.86 c -1.95,13.34 -7.6,23.758 -16.96,31.25 -9.36,7.481 -22.59,11.231 -39.68,11.231 -20.18,0 -34.59,-3.34 -43.21,-10.012 -8.63,-6.68 -12.94,-14.488 -12.94,-23.43 0,-5.71 1.79,-10.832 5.37,-15.378 3.58,-4.731 9.19,-8.641 16.85,-11.723 4.39,-1.629 17.33,-5.367 38.82,-11.231 31.08,-8.296 52.77,-15.097 65.06,-20.386 12.29,-5.293 21.93,-12.981 28.93,-23.071 6.99,-10.101 10.5,-22.632 10.5,-37.601 0,-14.649 -4.27,-28.442 -12.82,-41.379 -8.54,-12.93 -20.87,-22.949 -36.99,-30.02 -16.11,-7.089 -34.34,-10.632 -54.68,-10.632 -33.7,0 -59.37,6.992 -77.03,21 -17.66,13.992 -28.93,34.742 -33.81,62.25"
         style="fill:#2d49a3;fill-opacity:1;fill-rule:nonzero;stroke:none"
         id="path136" />
      <path
         d="m 2058.35,199.031 v 98.149 h -97.41 v 41.011 h 97.41 v 97.411 h 41.5 v -97.411 h 97.42 V 297.18 h -97.42 v -98.149 h -41.5"
         style="fill:#2d49a3;fill-opacity:1;fill-rule:nonzero;stroke:none"
         id="path138" />
      <path
         d="m 2379.88,248.59 v 44.191 h 135.01 V 248.59 h -135.01"
         style="fill:#2d49a3;fill-opacity:1;fill-rule:nonzero;stroke:none"
         id="path140" />
      <path
         d="m 2592.29,270.809 c 0,-33.2 7.23,-58.071 21.72,-74.579 14.49,-16.519 32.72,-24.789 54.69,-24.789 21.81,0 39.95,8.297 54.44,24.911 14.49,16.597 21.73,41.898 21.73,75.918 0,32.062 -7.28,56.359 -21.85,72.878 -14.56,16.524 -32.68,24.782 -54.32,24.782 -21.97,0 -40.2,-8.219 -54.69,-24.66 -14.49,-16.438 -21.72,-41.258 -21.72,-74.461 z m -45.17,0 c 0,48.011 13.34,83.57 40.04,106.691 22.29,19.199 49.47,28.809 81.54,28.809 35.65,0 64.78,-11.68 87.4,-35.039 22.62,-23.348 33.94,-55.629 33.94,-96.801 0,-33.367 -5.01,-59.61 -15.01,-78.731 -10.02,-19.129 -24.58,-33.976 -43.71,-44.558 -19.12,-10.578 -40,-15.871 -62.62,-15.871 -36.3,0 -65.63,11.632 -88.01,34.91 -22.38,23.269 -33.57,56.801 -33.57,100.59"
         style="fill:#2d49a3;fill-opacity:1;fill-rule:nonzero;stroke:none"
         id="path142" />
      <path
         d="m 2841.55,141.172 v 357.91 h 43.95 V 370.66 c 20.51,23.762 46.38,35.649 77.63,35.649 19.2,0 35.89,-3.789 50.05,-11.348 14.16,-7.582 24.3,-18.039 30.39,-31.379 6.12,-13.352 9.16,-32.711 9.16,-58.102 V 141.172 h -43.94 V 305.48 c 0,21.969 -4.77,37.961 -14.28,47.981 -9.53,10 -23,15.008 -40.41,15.008 -13.03,0 -25.27,-3.379 -36.74,-10.129 -11.48,-6.762 -19.65,-15.918 -24.54,-27.469 -4.88,-11.57 -7.32,-27.512 -7.32,-47.851 V 141.172 h -43.95"
         style="fill:#2d49a3;fill-opacity:1;fill-rule:nonzero;stroke:none"
         id="path144" />
      <path
         d="m 3119.38,448.051 v 51.031 h 43.95 v -51.031 z m -55.66,-407.469 8.3,37.3594 c 8.79,-2.2812 15.7,-3.4219 20.75,-3.4219 8.95,0 15.63,2.9688 20.02,8.9219 4.4,5.9297 6.59,20.7886 6.59,44.5466 v 272.461 h 43.95 V 127.012 c 0,-31.8909 -4.15,-54.1136 -12.45,-66.6526 -10.59,-16.2696 -28.17,-24.4102 -52.74,-24.4102 -11.87,0 -23.35,1.5508 -34.42,4.6328"
         style="fill:#2d49a3;fill-opacity:1;fill-rule:nonzero;stroke:none"
         id="path146" />
      <path
         d="m 3263.92,295.711 h 144.77 c -1.95,21.809 -7.49,38.168 -16.6,49.07 -14,16.93 -32.15,25.391 -54.44,25.391 -20.19,0 -37.15,-6.75 -50.91,-20.262 -13.75,-13.519 -21.36,-31.582 -22.82,-54.199 z m 144.28,-71.039 45.41,-5.621 c -7.16,-26.531 -20.43,-47.121 -39.79,-61.77 -19.38,-14.652 -44.11,-21.972 -74.22,-21.972 -37.93,0 -68,11.679 -90.21,35.043 -22.22,23.347 -33.33,56.097 -33.33,98.257 0,43.61 11.23,77.473 33.7,101.563 22.46,24.09 51.59,36.137 87.4,36.137 34.67,0 62.99,-11.809 84.96,-35.399 21.97,-23.609 32.96,-56.808 32.96,-99.609 0,-2.61 -0.09,-6.52 -0.25,-11.723 h -193.36 c 1.63,-28.488 9.68,-50.289 24.17,-65.43 14.49,-15.136 32.55,-22.707 54.2,-22.707 16.12,0 29.87,4.231 41.26,12.7 11.39,8.461 20.42,21.968 27.1,40.531"
         style="fill:#2d49a3;fill-opacity:1;fill-rule:nonzero;stroke:none"
         id="path148" />
      <path
         d="m 3507.81,141.172 v 357.91 h 43.95 v -357.91 h -43.95"
         style="fill:#2d49a3;fill-opacity:1;fill-rule:nonzero;stroke:none"
         id="path150" />
      <path
         d="m 3619.87,141.172 v 259.277 h 39.31 V 364.07 c 8.13,12.7 18.95,22.91 32.47,30.641 13.51,7.73 28.89,11.598 46.14,11.598 19.2,0 34.95,-4 47.25,-11.969 12.28,-7.969 20.95,-19.129 26,-33.442 20.5,30.274 47.19,45.411 80.07,45.411 25.72,0 45.49,-7.118 59.33,-21.368 13.83,-14.242 20.75,-36.171 20.75,-65.793 V 141.172 h -43.7 V 304.5 c 0,17.578 -1.43,30.23 -4.27,37.961 -2.85,7.73 -8.02,13.949 -15.51,18.68 -7.49,4.718 -16.27,7.078 -26.36,7.078 -18.23,0 -33.37,-6.059 -45.41,-18.18 -12.05,-12.129 -18.07,-31.551 -18.07,-58.238 V 141.172 h -43.94 v 168.457 c 0,19.531 -3.59,34.18 -10.75,43.941 -7.16,9.77 -18.88,14.649 -35.15,14.649 -12.38,0 -23.81,-3.258 -34.3,-9.758 -10.51,-6.52 -18.11,-16.039 -22.83,-28.57 -4.73,-12.539 -7.08,-30.602 -7.08,-54.2 V 141.172 h -43.95"
         style="fill:#2d49a3;fill-opacity:1;fill-rule:nonzero;stroke:none"
         id="path152" />
      <path
         d="m 4201.9,271.301 c -15.95,-6.52 -39.88,-12.051 -71.77,-16.602 -18.07,-2.609 -30.85,-5.539 -38.33,-8.789 -7.49,-3.269 -13.27,-8.019 -17.34,-14.289 -4.07,-6.262 -6.1,-13.223 -6.1,-20.871 0,-11.719 4.43,-21.48 13.3,-29.301 8.88,-7.808 21.86,-11.719 38.95,-11.719 16.92,0 31.98,3.711 45.16,11.11 13.19,7.41 22.86,17.539 29.05,30.398 4.72,9.922 7.08,24.571 7.08,43.942 z m 3.67,-98.153 c -16.28,-13.839 -31.95,-23.597 -47,-29.289 -15.05,-5.699 -31.22,-8.55 -48.46,-8.55 -28.49,0 -50.38,6.953 -65.68,20.882 -15.3,13.911 -22.95,31.688 -22.95,53.34 0,12.688 2.9,24.301 8.68,34.778 5.77,10.511 13.34,18.929 22.69,25.281 9.37,6.351 19.9,11.14 31.62,14.398 8.63,2.282 21.64,4.481 39.07,6.594 35.47,4.227 61.6,9.277 78.36,15.137 0.16,6.019 0.25,9.84 0.25,11.48 0,17.903 -4.15,30.512 -12.45,37.84 -11.23,9.922 -27.92,14.891 -50.05,14.891 -20.68,0 -35.93,-3.621 -45.78,-10.871 -9.85,-7.239 -17.13,-20.059 -21.85,-38.45 l -42.97,5.86 c 3.91,18.39 10.33,33.25 19.29,44.562 8.95,11.309 21.88,20.02 38.82,26.117 16.92,6.114 36.53,9.161 58.84,9.161 22.13,0 40.11,-2.61 53.95,-7.821 13.83,-5.207 24.01,-11.75 30.52,-19.636 6.5,-7.903 11.06,-17.883 13.67,-29.922 1.47,-7.489 2.2,-20.989 2.2,-40.52 v -58.601 c 0,-40.86 0.94,-66.688 2.8,-77.508 1.88,-10.832 5.58,-21.211 11.11,-31.129 h -45.89 c -4.57,9.109 -7.49,19.777 -8.79,31.976"
         style="fill:#2d49a3;fill-opacity:1;fill-rule:nonzero;stroke:none"
         id="path154" />
      <path
         d="m 4296.88,218.559 43.45,6.839 c 2.44,-17.418 9.24,-30.757 20.38,-40.039 11.16,-9.277 26.74,-13.918 46.76,-13.918 20.18,0 35.16,4.11 44.92,12.329 9.77,8.218 14.65,17.859 14.65,28.929 0,9.93 -4.32,17.742 -12.94,23.442 -6.02,3.91 -20.99,8.871 -44.92,14.89 -32.23,8.141 -54.56,15.18 -67.02,21.117 -12.44,5.942 -21.89,14.161 -28.32,24.661 -6.43,10.492 -9.64,22.089 -9.64,34.793 0,11.546 2.65,22.257 7.94,32.109 5.28,9.84 12.48,18.019 21.6,24.527 6.84,5.043 16.15,9.321 27.95,12.813 11.81,3.508 24.45,5.258 37.97,5.258 20.34,0 38.2,-2.93 53.59,-8.789 15.37,-5.86 26.73,-13.79 34.05,-23.809 7.33,-10 12.37,-23.402 15.14,-40.16 l -42.97,-5.86 c -1.95,13.34 -7.6,23.758 -16.96,31.25 -9.37,7.481 -22.59,11.231 -39.68,11.231 -20.18,0 -34.59,-3.34 -43.21,-10.012 -8.63,-6.68 -12.94,-14.488 -12.94,-23.43 0,-5.71 1.79,-10.832 5.37,-15.378 3.58,-4.731 9.19,-8.641 16.85,-11.723 4.39,-1.629 17.33,-5.367 38.81,-11.231 31.09,-8.296 52.78,-15.097 65.07,-20.386 12.29,-5.293 21.93,-12.981 28.93,-23.071 6.99,-10.101 10.5,-22.632 10.5,-37.601 0,-14.649 -4.27,-28.442 -12.83,-41.379 -8.53,-12.93 -20.86,-22.949 -36.98,-30.02 -16.11,-7.089 -34.34,-10.632 -54.69,-10.632 -33.69,0 -59.36,6.992 -77.02,21 -17.66,13.992 -28.93,34.742 -33.81,62.25"
         style="fill:#2d49a3;fill-opacity:1;fill-rule:nonzero;stroke:none"
         id="path156" />
      <path
         d="m 4660.4,180.48 6.35,-38.82 c -12.37,-2.601 -23.44,-3.91 -33.21,-3.91 -15.95,0 -28.32,2.531 -37.1,7.57 -8.79,5.039 -14.98,11.68 -18.56,19.891 -3.58,8.23 -5.37,25.519 -5.37,51.891 V 366.27 h -32.23 v 34.179 h 32.23 v 64.211 l 43.7,26.36 v -90.571 h 44.19 V 366.27 h -44.19 V 214.66 c 0,-12.539 0.77,-20.601 2.32,-24.172 1.55,-3.59 4.07,-6.437 7.57,-8.547 3.5,-2.121 8.5,-3.171 15.01,-3.171 4.89,0 11.31,0.562 19.29,1.71"
         style="fill:#2d49a3;fill-opacity:1;fill-rule:nonzero;stroke:none"
         id="path158" />
      <path
         d="m 4868.9,271.301 c -15.96,-6.52 -39.89,-12.051 -71.78,-16.602 -18.07,-2.609 -30.85,-5.539 -38.33,-8.789 -7.49,-3.269 -13.27,-8.019 -17.33,-14.289 -4.08,-6.262 -6.11,-13.223 -6.11,-20.871 0,-11.719 4.44,-21.48 13.3,-29.301 8.88,-7.808 21.86,-11.719 38.95,-11.719 16.92,0 31.98,3.711 45.16,11.11 13.19,7.41 22.87,17.539 29.06,30.398 4.71,9.922 7.08,24.571 7.08,43.942 z m 3.66,-98.153 c -16.28,-13.839 -31.94,-23.597 -46.99,-29.289 -15.06,-5.699 -31.22,-8.55 -48.47,-8.55 -28.49,0 -50.38,6.953 -65.67,20.882 -15.31,13.911 -22.95,31.688 -22.95,53.34 0,12.688 2.89,24.301 8.67,34.778 5.77,10.511 13.34,18.929 22.69,25.281 9.37,6.351 19.91,11.14 31.62,14.398 8.63,2.282 21.65,4.481 39.07,6.594 35.48,4.227 61.6,9.277 78.37,15.137 0.15,6.019 0.24,9.84 0.24,11.48 0,17.903 -4.15,30.512 -12.45,37.84 -11.23,9.922 -27.92,14.891 -50.05,14.891 -20.67,0 -35.93,-3.621 -45.78,-10.871 -9.84,-7.239 -17.13,-20.059 -21.85,-38.45 l -42.97,5.86 c 3.91,18.39 10.34,33.25 19.29,44.562 8.95,11.309 21.89,20.02 38.82,26.117 16.92,6.114 36.53,9.161 58.84,9.161 22.13,0 40.12,-2.61 53.95,-7.821 13.83,-5.207 24.01,-11.75 30.52,-19.636 6.5,-7.903 11.07,-17.883 13.67,-29.922 1.47,-7.489 2.2,-20.989 2.2,-40.52 v -58.601 c 0,-40.86 0.94,-66.688 2.8,-77.508 1.88,-10.832 5.58,-21.211 11.12,-31.129 h -45.9 c -4.56,9.109 -7.49,19.777 -8.79,31.976"
         style="fill:#2d49a3;fill-opacity:1;fill-rule:nonzero;stroke:none"
         id="path160" />
    </g>
  </g>
</svg>
